<svg width="23" height="14" viewBox="0 0 23 14" fill="none" xmlns="http://www.w3.org/2000/svg">
<path d="M11.1939 6.3475C12.8497 6.3475 14.1808 4.92389 14.1808 3.17427C14.1827 1.41954 12.8497 0 11.1939 0C9.5496 0 8.21478 1.41954 8.21478 3.17427C8.21478 4.92597 9.54965 6.3475 11.1939 6.3475Z" fill="#FFFBF0"/>
<path d="M13.5897 6.86463H8.80581C7.9505 6.86463 7.24992 7.69857 7.24992 8.72155V13.8314C7.24992 13.8876 7.27683 13.9377 7.27973 13.996H15.113C15.1187 13.9378 15.1409 13.8877 15.1409 13.8314V8.72155C15.1437 7.69857 14.4431 6.86463 13.5897 6.86463Z" fill="#FFFBF0"/>
<path d="M19.2281 7.86207C20.5571 7.86207 21.6229 6.72462 21.6229 5.3194C21.6229 3.91417 20.5571 2.77468 19.2281 2.77468C17.9086 2.77468 16.8409 3.91417 16.8409 5.3194C16.838 6.72363 17.9086 7.86207 19.2281 7.86207Z" fill="#FFFBF0"/>
<path d="M21.1491 8.27701H17.3156C16.6275 8.27701 16.0653 8.94537 16.0653 9.76808V13.8621C16.0653 13.9061 16.0855 13.948 16.0884 13.996H22.3715C22.3744 13.948 22.3936 13.9061 22.3936 13.8621V9.76808C22.3965 8.94537 21.8353 8.27701 21.1491 8.27701Z" fill="#FFFBF0"/>
<path d="M3.16367 7.86207C4.49082 7.86207 5.55757 6.72462 5.55757 5.3194C5.55757 3.91417 4.49082 2.77468 3.16367 2.77468C1.84324 2.77468 0.775554 3.91417 0.775554 5.3194C0.775554 6.72462 1.84324 7.86207 3.16367 7.86207Z" fill="#FFFBF0"/>
<path d="M5.08377 8.27701H1.24643C0.560285 8.27701 0 8.94537 0 9.76808V13.8621C0 13.9061 0.020182 13.948 0.0240135 13.996H6.30717C6.31006 13.948 6.32833 13.9061 6.32833 13.8621V9.76808C6.33025 8.94537 5.76898 8.27701 5.08377 8.27701Z" fill="#FFFBF0"/>
</svg>
