<svg width="487" height="808" viewBox="0 0 487 808" fill="none" xmlns="http://www.w3.org/2000/svg">
<g style="mix-blend-mode:lighten">
<path fill-rule="evenodd" clip-rule="evenodd" d="M148.507 37.9762C148.408 37.711 148.363 37.4101 148.456 37.1243C148.591 36.7152 148.769 36.3705 148.936 36.0727C149.11 35.7641 149.256 35.5322 149.363 35.2973C149.44 35.1304 149.622 34.8725 149.843 34.5905C150.073 34.2978 150.367 33.9478 150.694 33.5885C151.342 32.8743 152.135 32.096 152.793 31.6329C153.441 31.1773 154.5 30.5959 155.521 30.0539C156.555 29.5051 157.552 28.9956 158.11 28.6681C158.703 28.3202 159.847 27.8471 160.9 27.4493C161.952 27.052 162.965 26.7102 163.303 26.6352C163.586 26.5726 164.219 26.335 164.956 26.0517C165.674 25.7751 166.471 25.4628 167.04 25.2716C168.187 24.8864 171.263 24.2856 172.24 24.0983C173.221 23.9101 175.753 23.3823 178.25 23.3723C180.739 23.3624 181.874 23.5971 183.152 23.7691C183.762 23.8513 184.268 23.8888 184.626 23.9826C184.815 24.0324 184.992 24.1042 185.145 24.222C185.302 24.3421 185.418 24.4976 185.505 24.6911C185.627 24.962 185.757 25.1265 185.906 25.3132C186.058 25.5048 186.23 25.7196 186.386 26.0662C186.5 26.3197 186.468 26.6144 186.407 26.8681C186.357 27.0751 186.274 27.2947 186.185 27.5118C186.144 27.9567 186.063 28.4375 185.98 28.9129C185.976 29.4462 185.907 30.0765 185.753 30.7764L185.753 30.8001C185.756 31.0458 185.668 31.347 185.514 31.6812C184.241 35.8532 180.061 41.8291 169.365 45.0627C159.184 48.1402 151.921 44.3937 149.473 39.229C149.289 39.0832 149.119 38.9177 148.973 38.745C148.775 38.5095 148.607 38.2449 148.507 37.9762ZM184.991 25.0799C184.973 25.0448 184.953 25.0096 184.936 24.9715C184.885 24.8566 184.827 24.7866 184.761 24.736C184.692 24.6832 184.597 24.6384 184.453 24.6005C184.142 24.5191 183.727 24.4921 183.053 24.4015C181.762 24.2277 180.672 24.001 178.234 24.0107C175.805 24.0204 173.331 24.5337 172.337 24.7244C171.338 24.916 168.316 25.5084 167.219 25.8765C166.667 26.062 165.889 26.3675 165.16 26.648C164.449 26.9217 163.759 27.1821 163.418 27.2576C163.132 27.3212 162.16 27.6456 161.101 28.0458C160.042 28.4457 158.948 28.9021 158.409 29.2183C157.835 29.5551 156.812 30.0794 155.796 30.6184C154.768 31.1643 153.745 31.7267 153.137 32.1548C152.538 32.5757 151.786 33.311 151.147 34.015C150.829 34.3646 150.544 34.7011 150.326 34.9793C150.099 35.268 149.966 35.4678 149.927 35.5526C149.804 35.8211 149.628 36.1064 149.475 36.3777C149.345 36.6084 149.221 36.8521 149.117 37.1239L184.991 25.0799Z" fill="#D3B94F"/>
<path d="M163.495 39.908C165.037 39.7316 167.717 38.8933 168.865 38.4962C169.642 38.2374 171.195 37.7138 172.451 37.1499C173.708 36.586 175.731 36.0489 176.393 35.7201C177.054 35.3913 179.846 33.6013 180.958 32.8724C182.071 32.1434 185.112 29.9142 185.246 29.0871C185.381 28.26 186.379 26.8232 186.102 26.2056C185.824 25.588 185.498 25.4486 185.221 24.8311C184.943 24.2135 184.387 24.258 183.103 24.0851C181.818 23.9122 180.706 23.6813 178.243 23.6911C175.779 23.7009 173.276 24.2213 172.289 24.4107C171.301 24.6001 168.252 25.1973 167.13 25.574C166.008 25.9506 163.984 26.8077 163.361 26.9458C162.738 27.084 159.391 28.2787 158.259 28.943C157.128 29.6072 154.222 31.0093 152.965 31.8932C151.709 32.777 149.876 34.9205 149.646 35.4243C149.415 35.9282 149.002 36.4576 148.753 37.2167C148.503 37.9759 149.633 39.2312 150.544 39.423C151.454 39.6148 152.086 40.4687 153.467 40.645C154.847 40.8213 156.736 40.7914 158.711 40.4125C160.686 40.0337 161.568 40.1285 163.495 39.908Z" fill="#F6F2E7"/>
<path d="M153.578 38.2423C153.432 38.2958 153.294 38.3425 153.164 38.3828C152.961 38.327 152.744 38.2776 152.529 38.2351C151.721 38.0753 151.615 37.7159 151.903 37.4036C152.096 37.1943 151.939 36.9572 151.785 36.7252C151.71 36.6111 151.635 36.4983 151.603 36.3905C151.506 36.0637 151.535 35.8386 152.073 35.4065C152.201 35.3037 152.327 35.1936 152.444 35.0815C152.733 34.9375 153.188 34.8449 154.602 34.6293C155.712 34.4601 158.013 33.9864 160.203 33.5355C163.041 32.9512 165.693 32.4052 165.324 32.6102C165.19 32.799 165.171 32.9491 165.421 32.937C163.767 33.6717 159.926 35.3925 157.788 36.3976C155.116 37.654 154.693 37.832 153.578 38.2423Z" fill="#D3B94F"/>
<path d="M160.358 39.2855C160.688 39.2011 160.958 39.0973 161.11 38.9466C161.552 38.5108 165.432 33.9392 166.027 33.0568C165.931 33.0532 165.709 32.9479 165.469 33.1004L154.396 38.4347C154.204 38.5271 154.062 38.6149 153.963 38.6974C154.096 38.7834 154.175 38.8765 154.175 38.9758C154.175 39.1654 154.384 39.1738 154.663 39.185C154.86 39.1928 155.092 39.2021 155.311 39.2772C155.387 39.3034 155.474 39.3369 155.57 39.3739C156.137 39.5926 157.03 39.9369 158.091 39.6729C158.85 39.484 159.635 39.3808 160.356 39.2858L160.358 39.2855Z" fill="#D3B94F"/>
<path d="M171.736 36.6006C171.735 36.6072 171.731 36.6144 171.725 36.6222C171.572 36.6723 171.41 36.7305 171.227 36.8076C171.1 36.8609 170.964 36.9188 170.823 36.9792C170.018 37.3227 169.027 37.7457 168.487 37.8353C167.852 37.9406 166.871 38.1621 165.948 38.5797C165.162 38.9357 164.626 38.9724 163.794 39.0295C163.65 39.0394 163.497 39.0499 163.333 39.0627C162.811 39.1035 162.621 39.072 162.466 39.0462C162.29 39.0169 162.157 38.9949 161.63 39.0954C161.537 39.1132 161.442 39.1299 161.343 39.146C161.363 39.1005 161.391 39.0566 161.418 39.0228C163.019 37.0366 166.289 33.0408 166.566 32.9478C166.749 32.8864 166.671 32.9841 167.016 32.905C167.143 32.9138 167.145 32.7981 167.354 32.7191C167.806 32.6392 171.774 36.4082 171.736 36.6006Z" fill="#D3B94F"/>
<path d="M178.648 33.1469C178.63 33.1433 178.607 33.1404 178.58 33.1384C178.469 33.13 177.939 33.0668 177.175 32.9755L177.175 32.9755C174.452 32.6502 168.744 31.9686 168.328 32.1408C167.903 32.3172 167.84 32.4572 167.862 32.5051C169.152 33.6995 171.599 35.9537 172.203 36.4737C172.566 36.3602 172.946 36.2241 173.524 35.8925C174.139 35.5397 174.459 35.4929 174.749 35.4505C174.957 35.4199 175.151 35.3916 175.428 35.2534C176.091 34.923 177.754 33.79 178.378 33.3288C178.47 33.2613 178.559 33.2013 178.648 33.1469Z" fill="#D3B94F"/>
<path d="M183.404 28.1916C183.562 28.1504 183.648 28.1689 183.686 28.2253C183.671 28.2477 183.657 28.27 183.642 28.2924C183.539 28.4529 183.457 28.6567 183.367 28.8819C183.175 29.3649 182.943 29.9462 182.366 30.4093C181.988 30.7128 181.641 31.0561 181.315 31.3783C180.912 31.7773 180.542 32.144 180.185 32.3629C179.907 32.5343 179.648 32.6518 179.393 32.7675L179.369 32.7785C179.297 32.7911 179.227 32.7978 179.159 32.7975C178.522 32.7943 168.286 32.0954 168.622 31.8621L168.757 31.6733C168.757 31.6733 182.892 28.3247 183.404 28.1916Z" fill="#D3B94F"/>
<path d="M183.581 25.5109C183.569 25.4058 183.442 25.3217 183.244 25.2548C183.08 25.2482 182.882 25.2543 182.635 25.275C182.201 25.3113 181.778 25.286 181.374 25.2618C180.875 25.2319 180.403 25.2037 179.972 25.2941C179.972 25.2941 168.54 31.2423 168.535 31.2448C168.53 31.2473 168.54 31.2423 168.535 31.2448C168.53 31.2473 168.597 31.6032 168.965 31.4814L183.755 27.9739C183.795 27.9643 183.835 27.9545 183.873 27.9446C184.12 27.563 184.3 27.2009 183.996 26.9162C183.672 26.6116 183.639 26.2087 183.606 25.7864C183.598 25.6952 183.591 25.6031 183.581 25.5109Z" fill="#D3B94F"/>
<path d="M179.033 25.5348L168.429 31.2085C168.372 31.1679 167.724 31.3983 167.785 31.2811C168.209 30.4589 171.112 26.2764 171.475 25.8605C171.622 25.6929 171.947 25.5713 172.349 25.4629C172.622 25.4327 173.058 25.3337 173.55 25.222C174.619 24.9794 175.952 24.6766 176.452 24.8865C177.043 25.1348 178.068 25.1069 178.763 25.0769C179.048 25.1719 179.199 25.3243 179.033 25.5348Z" fill="#D3B94F"/>
<path d="M152.856 34.6354C152.866 34.6338 152.878 34.6318 152.889 34.6294C153.32 34.5422 161.32 33.1162 165.266 32.4141C165.146 32.4355 165.506 32.2616 165.41 32.258C165.72 32.071 158.516 30.7665 157.501 30.612C157.453 30.641 157.399 30.6682 157.337 30.6931C156.828 30.9001 156.318 31.1071 156.021 31.3867C155.723 31.6663 154.531 32.4616 153.974 32.8283C153.416 33.1951 153.129 33.8305 153.12 34.121C153.116 34.2503 153.014 34.4336 152.856 34.6354Z" fill="#D3B94F"/>
<path d="M158.168 30.0768C158.182 30.0391 158.198 30.003 158.216 29.9683C158.296 29.912 158.388 29.8556 158.5 29.7999C158.784 29.6587 159.046 29.5639 159.304 29.4707C159.649 29.3459 159.987 29.224 160.355 28.9973C160.871 28.6807 161.499 28.3619 161.749 28.242C161.852 28.1597 162.203 27.9748 162.788 27.8934C163.162 27.8414 163.523 27.6619 163.895 27.4771L163.895 27.477C163.986 27.4317 164.078 27.386 164.171 27.3418C164.293 27.3685 164.384 27.4224 164.435 27.5098L166.777 31.5535C166.656 31.595 166.561 31.6134 166.472 31.6308C166.317 31.6608 166.177 31.6878 165.948 31.8258C165.895 31.8581 165.767 31.9724 165.718 32.011L158.022 30.3235C158.087 30.2366 158.139 30.1531 158.168 30.0768Z" fill="#D3B94F"/>
<path d="M164.98 27.0459C164.962 27.0589 164.944 27.0721 164.926 27.0857C164.821 27.1636 164.696 27.2441 164.559 27.3255C164.559 27.3255 167.083 31.4809 167.2 31.4659C167.317 31.451 167.424 31.3734 167.438 31.3028L171.3 25.7016C171.319 25.6744 171.333 25.649 171.345 25.6252C171.222 25.6556 171.101 25.6876 170.986 25.7181C170.65 25.8073 170.358 25.8846 170.182 25.878C169.797 25.8635 168.066 26.1213 167.287 26.3828C166.508 26.6442 165.816 26.8766 165.008 27.0401C164.999 27.0419 164.99 27.0439 164.98 27.0459Z" fill="#D3B94F"/>
<path fill-rule="evenodd" clip-rule="evenodd" d="M215.982 31.5512C216.294 31.2551 216.657 31.0283 217.044 30.9857C217.667 30.9173 218.22 30.9511 218.712 31.0005C219.216 31.0511 219.625 31.1133 220.016 31.1168C220.263 31.1192 220.692 31.2108 221.192 31.3497C221.704 31.492 222.325 31.6937 222.975 31.9337C224.269 32.4116 225.71 33.0535 226.642 33.7024C227.564 34.3439 228.845 35.5026 230.06 36.6376C231.286 37.7832 232.447 38.905 233.157 39.5062C233.901 40.1357 235.065 41.4867 236.088 42.7618C237.11 44.0359 238.031 45.2838 238.279 45.7182C238.496 46.0981 239.115 46.8736 239.834 47.7573C240.54 48.6255 241.327 49.5786 241.844 50.2806C242.884 51.6931 245.068 55.7713 245.759 57.0745C246.454 58.3834 248.295 61.7169 249.387 65.3342C250.476 68.942 250.633 70.7373 250.943 72.7127C251.02 73.2082 251.095 73.6164 251.157 73.9904C251.218 74.3561 251.264 74.6838 251.275 74.9792C251.286 75.2776 251.261 75.5581 251.171 75.8272C251.079 76.0982 250.928 76.3391 250.712 76.5688C250.359 76.944 250.17 77.2599 249.968 77.5997C249.762 77.9454 249.543 78.3164 249.137 78.7472C248.88 79.0204 248.507 79.1549 248.129 79.229C247.966 79.2609 247.793 79.2817 247.614 79.2973C246.841 79.6199 245.923 79.8659 245.017 80.1063C244.256 80.4475 243.33 80.7574 242.267 80.9879L242.233 81.0038C241.885 81.1695 241.418 81.2365 240.875 81.2299C234.387 82.0946 224.072 79.9019 214.836 66.434C205.915 53.4258 208.296 40.2128 214.8 33.3657C214.899 33.1262 215.013 32.8927 215.136 32.6732C215.377 32.2453 215.666 31.8508 215.982 31.5512ZM250.127 76.2826C250.175 76.2269 250.227 76.1705 250.282 76.1127C250.445 75.9395 250.54 75.7797 250.595 75.6159C250.651 75.4501 250.673 75.2595 250.664 75.0145C250.655 74.7662 250.615 74.4759 250.555 74.1127C250.496 73.7576 250.417 73.324 250.339 72.8283C250.027 70.838 249.877 69.0944 248.804 65.5405C247.734 61.996 245.925 58.7198 245.225 57.3991C244.521 56.0732 242.365 52.0498 241.36 50.6852C240.855 49.9991 240.081 49.0635 239.368 48.1863C238.667 47.3251 238.004 46.4982 237.754 46.0605C237.535 45.6773 236.647 44.4688 235.619 43.1875C234.592 41.9073 233.463 40.6023 232.771 40.0165C232.046 39.4025 230.861 38.2588 229.651 37.1286C228.43 35.9877 227.182 34.8598 226.302 34.2474C225.432 33.6427 224.048 33.0212 222.766 32.5477C222.129 32.3124 221.523 32.1159 221.029 31.9785C220.523 31.8379 220.163 31.7681 220.001 31.7665C219.576 31.7626 219.109 31.6932 218.646 31.6467C218.212 31.6033 217.751 31.5785 217.245 31.6211L250.127 76.2826Z" fill="#D3B94F"/>
<path d="M219.628 54.5286C220.547 56.6585 222.901 60.0154 223.964 61.4276C224.669 62.3909 226.087 64.3108 227.433 65.7727C228.78 67.2346 230.421 69.8307 231.176 70.58C231.93 71.3294 235.687 74.2274 237.206 75.3726C238.726 76.5178 243.215 79.4931 244.451 79.1506C245.686 78.8081 248.163 79.3254 248.922 78.5189C249.68 77.7125 249.738 77.1472 250.496 76.3408C251.255 75.5343 250.951 74.7536 250.64 72.7707C250.33 70.7877 250.176 69.0183 249.095 65.4372C248.014 61.856 246.189 58.5511 245.491 57.2365C244.794 55.9219 242.623 51.8713 241.601 50.483C240.579 49.0948 238.483 46.7068 238.016 45.8893C237.549 45.0718 234.399 40.977 232.964 39.7619C231.528 38.5467 228.274 35.2289 226.472 33.9751C224.669 32.7213 220.825 31.4491 220.008 31.4417C219.191 31.4344 218.259 31.1785 217.071 31.3092C215.882 31.44 214.585 33.9035 214.707 35.3544C214.829 36.8053 213.887 38.282 214.234 40.4067C214.582 42.5314 215.443 45.2619 216.837 47.8912C218.232 50.5204 218.479 51.8663 219.628 54.5286Z" fill="#F6F2E7"/>
<path d="M217.702 39.0032C217.562 38.8262 217.436 38.656 217.323 38.4927C217.314 38.161 217.29 37.8126 217.258 37.4718C217.135 36.1909 217.6 35.8019 218.17 36.018C218.551 36.1628 218.82 35.7798 219.084 35.405C219.214 35.2207 219.342 35.0383 219.481 34.9217C219.905 34.568 220.237 34.4629 221.085 34.9649C221.287 35.0842 221.498 35.1956 221.709 35.2936C222.039 35.6204 222.367 36.2223 223.287 38.1406C224.009 39.6465 225.68 42.6883 227.27 45.5834C229.331 49.3356 231.257 52.8414 230.806 52.4378C230.479 52.3651 230.257 52.4352 230.383 52.7914C228.621 50.8626 224.508 46.3903 222.151 43.9323C219.205 40.8597 218.769 40.3597 217.702 39.0032Z" fill="#D3B94F"/>
<path d="M219.155 49.5558C219.418 49.9816 219.682 50.3059 219.963 50.4303C220.775 50.7898 228.961 53.4604 230.475 53.7521C230.438 53.6097 230.492 53.2187 230.171 52.9683L217.782 40.3195C217.568 40.1004 217.381 39.9513 217.221 39.8605C217.156 40.1102 217.058 40.2861 216.917 40.351C216.647 40.4749 216.726 40.7841 216.831 41.1981C216.905 41.4897 216.992 41.8332 216.98 42.2006C216.976 42.3293 216.966 42.4773 216.955 42.6412C216.889 43.6099 216.786 45.1343 217.621 46.507C218.219 47.4892 218.706 48.5641 219.153 49.5527L219.155 49.5558Z" fill="#D3B94F"/>
<path d="M227.905 64.3739C227.895 64.3763 227.883 64.3753 227.87 64.3711C227.732 64.1819 227.579 63.9836 227.39 63.7668C227.259 63.6172 227.118 63.4572 226.971 63.2904C226.133 62.3423 225.102 61.1743 224.74 60.4467C224.316 59.5911 223.575 58.3073 222.581 57.2356C221.734 56.3222 221.45 55.5665 221.008 54.3924C220.932 54.189 220.85 53.9731 220.761 53.7416C220.477 53.0086 220.439 52.7122 220.409 52.4694C220.374 52.193 220.348 51.9863 219.976 51.2839C219.911 51.1602 219.846 51.0319 219.78 50.8995C219.853 50.8976 219.928 50.9106 219.988 50.9283C223.508 51.9646 230.611 54.1227 230.863 54.4653C231.03 54.6918 230.857 54.6431 231.119 55.0926C231.162 55.2839 231.327 55.2118 231.53 55.4643C231.84 56.0703 228.196 64.3041 227.905 64.3739Z" fill="#D3B94F"/>
<path d="M235.815 72.1877C235.812 72.1586 235.806 72.1241 235.797 72.0836C235.761 71.9156 235.622 71.1039 235.42 69.932L235.42 69.9318C234.703 65.7541 233.2 56.9992 232.775 56.5063C232.34 56.0013 232.113 56.0012 232.055 56.0643C230.914 58.7217 228.766 63.7526 228.288 64.9702C228.607 65.4261 228.965 65.8906 229.688 66.5162C230.456 67.182 230.661 67.6164 230.847 68.0111C230.981 68.2947 231.105 68.5579 231.422 68.8717C232.18 69.6222 234.512 71.3048 235.439 71.9138C235.575 72.003 235.699 72.0945 235.815 72.1877Z" fill="#D3B94F"/>
<path d="M244.927 75.8844C245.054 76.0887 245.065 76.225 245.001 76.3177C244.963 76.3108 244.925 76.304 244.887 76.2976C244.613 76.251 244.288 76.2654 243.929 76.2813C243.158 76.3153 242.23 76.3562 241.321 75.8183C240.726 75.4659 240.087 75.1842 239.487 74.9198C238.745 74.5925 238.062 74.2917 237.596 73.9157C237.232 73.6215 236.952 73.321 236.677 73.0254L236.651 72.9974C236.602 72.9014 236.562 72.8037 236.533 72.7044C236.262 71.7751 232.821 56.4144 233.299 56.753L233.626 56.8257C233.626 56.8257 244.516 75.2258 244.927 75.8844Z" fill="#D3B94F"/>
<path d="M248.818 74.3957C248.963 74.31 249.027 74.0701 249.037 73.738C248.975 73.4962 248.881 73.2109 248.744 72.8648C248.505 72.2571 248.357 71.625 248.216 71.0196C248.043 70.2743 247.879 69.5693 247.563 68.9998C247.563 68.9998 234.146 56.2298 234.14 56.2235C234.134 56.2173 234.146 56.2298 234.14 56.2235C234.134 56.2173 233.657 56.5479 233.989 57.0034L245.389 76.2541C245.42 76.3065 245.451 76.3573 245.482 76.4064C246.132 76.5184 246.725 76.544 246.999 75.9164C247.291 75.245 247.851 74.9358 248.437 74.6116C248.564 74.5416 248.691 74.4709 248.818 74.3957Z" fill="#D3B94F"/>
<path d="M246.814 67.789L234.146 56.0457C234.179 55.9366 233.57 55.1431 233.763 55.1548C235.117 55.2367 242.327 56.7391 243.076 56.9973C243.378 57.1014 243.692 57.4951 244.02 58.0105C244.181 58.3875 244.511 58.9578 244.883 59.6017C245.692 60.9999 246.7 62.7448 246.618 63.6091C246.521 64.6309 247.005 66.1061 247.348 67.0977C247.337 67.5756 247.185 67.8934 246.814 67.789Z" fill="#D3B94F"/>
<path d="M222.522 35.6022C222.529 35.6168 222.536 35.6318 222.545 35.6475C222.856 36.218 228.351 46.9373 231.06 52.2256C230.977 52.0641 231.381 52.4761 231.344 52.3337C231.744 52.6624 230.479 41.3229 230.26 39.7456C230.198 39.6939 230.136 39.6331 230.074 39.5598C229.558 38.9528 229.043 38.3457 228.516 38.0943C227.989 37.8428 226.341 36.6258 225.578 36.0531C224.814 35.4805 223.785 35.4756 223.368 35.6514C223.182 35.7297 222.878 35.7017 222.522 35.6022Z" fill="#D3B94F"/>
<path d="M231.31 40.3668C231.37 40.363 231.428 40.3632 231.486 40.3673C231.6 40.446 231.721 40.5442 231.848 40.6707C232.172 40.9914 232.421 41.3117 232.665 41.6265C232.992 42.0483 233.312 42.4601 233.794 42.8494C234.468 43.3932 235.194 44.1009 235.473 44.3867C235.635 44.4823 236.05 44.8731 236.419 45.6715C236.655 46.1823 237.067 46.5914 237.491 47.0126L237.491 47.0128C237.595 47.1162 237.7 47.2203 237.803 47.3268C237.818 47.5212 237.781 47.6898 237.679 47.8205L232.939 53.8649C232.828 53.7163 232.76 53.59 232.697 53.4706C232.587 53.2645 232.488 53.0791 232.192 52.8356C232.123 52.7786 231.905 52.6674 231.829 52.6205L230.896 40.3163C231.048 40.3536 231.189 40.3746 231.31 40.3668Z" fill="#D3B94F"/>
<path d="M238.575 48.3124C238.549 48.2947 238.522 48.2769 238.495 48.2593C238.339 48.1575 238.17 48.0272 237.995 47.8816C237.995 47.8816 233.175 54.2629 233.247 54.4237C233.319 54.5846 233.476 54.6901 233.582 54.6641L243.226 56.6382C243.273 56.6478 243.316 56.6529 243.354 56.6538C243.258 56.4947 243.16 56.34 243.067 56.1922C242.794 55.7605 242.558 55.3862 242.491 55.125C242.345 54.5553 241.228 52.2027 240.518 51.2391C239.809 50.2755 239.178 49.4189 238.596 48.3492C238.589 48.3369 238.582 48.3246 238.575 48.3124Z" fill="#D3B94F"/>
<path d="M315.848 84.4964C315.059 82.588 314.014 80.8606 312.976 80.1306C312.343 79.686 311.747 79.3243 311.183 79.0133C307.372 75.8308 302.514 74.1893 297.045 74.8028C296.288 74.7631 295.594 74.7706 295.008 74.8413C291.509 75.2635 285.114 78.0634 282.311 78.8181C279.508 79.5727 273.253 83.9899 272.31 85.0524C271.368 86.1146 267.228 88.4029 265.194 89.9516C263.159 91.5006 258.758 96.9201 257.343 98.6872C255.928 100.454 252.236 104.817 249.928 110.54C247.621 116.263 247.201 119.514 246.468 123.004C245.735 126.493 245.102 127.664 246.477 130.066C247.852 132.468 247.919 133.625 249.293 136.027C250.122 137.475 252.167 138.686 254.166 139.866C255.09 140.642 256.259 141.439 257.655 142.178C257.669 142.191 257.684 142.203 257.699 142.216C258.118 142.585 258.747 142.861 259.514 143.063C268.275 146.814 283.732 147.771 302.505 132.484C321.455 117.053 323.131 96.4815 315.848 84.4964Z" fill="#D3B94F"/>
<path d="M305.599 121.684C303.764 124.702 299.2 128.47 297.147 129.976C295.783 131.026 293.041 133.103 290.459 134.392C287.878 135.682 284.68 138.792 283.238 139.383C281.796 139.974 274.674 141.343 271.794 141.846C268.915 142.349 260.434 143.063 258.176 141.066C255.918 139.069 251.312 137.34 249.964 134.988C248.616 132.636 248.547 131.506 247.2 129.154C245.852 126.802 246.465 125.66 247.167 122.254C247.869 118.849 248.267 115.674 250.497 110.092C252.726 104.51 256.31 100.262 257.683 98.5411C259.056 96.8202 263.327 91.5419 265.304 90.0367C267.282 88.5315 271.307 86.3117 272.221 85.2776C273.136 84.2435 279.217 79.9515 281.947 79.225C284.676 78.4984 290.899 75.7877 294.307 75.3886C297.715 74.9896 304.894 76.7869 306.403 77.6654C307.911 78.544 309.648 79.0792 311.834 80.6246C314.019 82.17 316.252 88.2395 315.933 90.8468C315.614 93.4542 317.255 97.2716 316.476 100.905C315.696 104.539 313.929 108.755 311.183 112.197C308.437 115.638 307.893 117.91 305.599 121.684Z" fill="#F6F2E7"/>
<path d="M309.703 94.5758C309.971 94.394 310.214 94.2107 310.435 94.0272C310.474 93.4148 310.542 92.7876 310.627 92.1841C310.943 89.9161 310.118 88.6862 309.06 88.4785C308.351 88.3393 307.885 87.3318 307.429 86.3459C307.205 85.8609 306.983 85.3811 306.735 85.0125C305.986 83.8944 305.384 83.3394 303.794 83.3672C303.416 83.3738 303.021 83.3551 302.628 83.3124C302.001 83.5696 301.355 84.3435 299.533 86.9485C298.103 88.9935 294.824 92.8948 291.703 96.608C287.658 101.42 283.878 105.917 284.734 105.646C285.338 105.862 285.74 106.232 285.484 106.765C288.85 105.046 296.706 101.093 301.199 99.0233C306.816 96.4363 307.651 95.9692 309.703 94.5758Z" fill="#D3B94F"/>
<path d="M306.285 112.785C305.773 113.3 305.265 113.623 304.742 113.554C303.229 113.354 288.04 109.548 285.247 108.466C285.324 108.238 285.253 107.447 285.859 107.324L309.462 96.9555C309.87 96.776 310.222 96.697 310.523 96.6995C310.623 97.2371 310.791 97.6724 311.045 97.9459C311.53 98.4684 311.364 98.9633 311.142 99.6259C310.986 100.093 310.801 100.643 310.797 101.344C310.795 101.59 310.803 101.878 310.812 102.197C310.862 104.082 310.942 107.05 309.313 108.723C308.148 109.92 307.179 111.41 306.288 112.781L306.285 112.785Z" fill="#D3B94F"/>
<path d="M289.193 131.134C289.211 131.149 289.233 131.16 289.259 131.167C289.523 130.96 289.818 130.753 290.18 130.551C290.43 130.411 290.701 130.263 290.983 130.109C292.585 129.234 294.558 128.156 295.272 127.181C296.112 126.035 297.56 124.426 299.458 123.488C301.076 122.688 301.651 121.578 302.544 119.854C302.698 119.555 302.863 119.238 303.044 118.9C303.616 117.832 303.706 117.317 303.779 116.895C303.863 116.415 303.925 116.055 304.656 115.139C304.785 114.978 304.914 114.808 305.043 114.63C304.909 114.548 304.771 114.492 304.66 114.46C298.138 112.614 284.971 109.013 284.484 109.384C284.162 109.629 284.482 109.723 283.97 110.284C283.878 110.596 283.58 110.283 283.19 110.538C282.58 111.34 288.666 130.691 289.193 131.134Z" fill="#D3B94F"/>
<path d="M274.143 137.263C274.15 137.212 274.163 137.153 274.182 137.086C274.261 136.811 274.574 135.44 275.027 133.46L275.027 133.46C276.64 126.404 280.02 111.616 280.835 111.15C281.669 110.673 282.083 110.916 282.186 111.098C284.085 117.305 287.66 129.043 288.449 131.839C287.832 132.35 287.142 132.835 285.774 133.23C284.318 133.65 283.912 134.244 283.543 134.783C283.277 135.17 283.031 135.53 282.428 135.777C280.986 136.368 276.593 137.01 274.851 137.154C274.596 137.175 274.362 137.213 274.143 137.263Z" fill="#D3B94F"/>
<path d="M257.185 134.383C256.937 134.629 256.908 134.873 257.017 135.115C257.088 135.143 257.158 135.171 257.228 135.2C257.733 135.407 258.327 135.784 258.985 136.201C260.394 137.094 262.091 138.169 263.795 138.14C264.911 138.12 266.102 138.28 267.219 138.43C268.603 138.616 269.875 138.786 270.755 138.583C271.444 138.424 271.978 138.162 272.503 137.904L272.552 137.88C272.649 137.753 272.729 137.612 272.789 137.458C273.353 136.008 280.757 110.929 279.857 111.049L279.253 110.833C279.253 110.833 257.985 133.592 257.185 134.383Z" fill="#D3B94F"/>
<path d="M250.162 127.406C249.904 127.089 249.803 126.57 249.809 125.938C249.939 125.551 250.133 125.118 250.408 124.617C250.89 123.736 251.205 122.71 251.507 121.727C251.878 120.517 252.229 119.373 252.848 118.645C252.848 118.645 278.344 109.157 278.355 109.152C278.366 109.147 278.344 109.157 278.355 109.152C278.366 109.147 279.217 110.279 278.575 110.775L256.312 134.578C256.251 134.643 256.191 134.705 256.131 134.764C254.932 134.274 253.843 133.684 253.387 132.213C252.899 130.64 251.896 129.459 250.845 128.22C250.618 127.953 250.389 127.683 250.162 127.406Z" fill="#D3B94F"/>
<path d="M254.308 117.183L278.357 108.812C278.304 108.572 279.476 107.74 279.122 107.555C276.636 106.251 263.32 101.307 261.929 100.985C261.368 100.855 260.765 101.255 260.126 101.867C259.804 102.4 259.159 103.114 258.431 103.919C256.85 105.669 254.877 107.853 254.966 109.561C255.071 111.581 254.078 113.824 253.378 115.313C253.365 116.22 253.62 116.979 254.308 117.183Z" fill="#D3B94F"/>
<path d="M301.117 83.0156C301.103 83.0353 301.088 83.0553 301.071 83.0755C300.461 83.8101 289.626 97.9817 284.284 104.976C284.447 104.762 283.678 105.099 283.755 104.872C282.999 105.057 286.128 85.1707 286.643 82.4513C286.761 82.4215 286.879 82.3743 286.998 82.3039C287.986 81.721 288.973 81.1381 289.957 81.234C290.94 81.3299 294.046 80.823 295.486 80.5715C296.926 80.3201 298.811 81.4183 299.563 82.197C299.898 82.5436 300.458 82.8191 301.117 83.0156Z" fill="#D3B94F"/>
<path d="M284.675 82.4851C284.566 82.4136 284.459 82.3511 284.353 82.2971C284.138 82.3214 283.91 82.3757 283.667 82.4753C283.051 82.7278 282.573 83.0605 282.103 83.3874C281.473 83.8255 280.858 84.2532 279.946 84.4636C278.673 84.7574 277.292 85.3019 276.761 85.5374C276.458 85.5427 275.669 85.828 274.936 86.9269C274.467 87.6298 273.683 87.9531 272.876 88.2859L272.875 88.286C272.677 88.3677 272.477 88.45 272.281 88.5386C272.24 88.887 272.296 89.2426 272.474 89.5978L280.724 106.025C280.939 105.866 281.071 105.702 281.196 105.547C281.412 105.279 281.607 105.038 282.166 104.9C282.296 104.867 282.704 104.893 282.847 104.888L285.437 82.836C285.156 82.7425 284.896 82.6299 284.675 82.4851Z" fill="#D3B94F"/>
<path d="M270.796 89.5548C270.846 89.5498 270.896 89.5453 270.947 89.5414C271.241 89.5189 271.559 89.4567 271.891 89.3722C271.891 89.3722 280.263 106.517 280.12 106.741C279.977 106.964 279.682 106.993 279.489 106.83L261.679 100.15C261.593 100.118 261.514 100.081 261.443 100.041C261.632 99.8471 261.822 99.6625 262.003 99.4859C262.534 98.9706 262.994 98.5236 263.135 98.1063C263.444 97.1959 265.658 93.9897 267.027 92.9477C268.396 91.9056 269.613 90.9793 270.756 89.6018C270.77 89.586 270.783 89.5703 270.796 89.5548Z" fill="#D3B94F"/>
<path fill-rule="evenodd" clip-rule="evenodd" d="M400.293 143.71C399.786 143.158 399.224 142.728 398.646 142.564C397.615 142.271 396.699 142.161 395.873 142.095C395.037 142.028 394.327 142.007 393.654 141.893C393.267 141.828 392.568 141.847 391.722 141.925C390.864 142.005 389.823 142.149 388.731 142.347C386.556 142.742 384.147 143.361 382.595 144.139C381.056 144.911 378.916 146.424 376.879 147.924C374.827 149.434 372.879 150.931 371.685 151.706C370.448 152.51 368.508 154.371 366.798 156.157C365.938 157.055 365.13 157.943 364.486 158.682C363.849 159.414 363.359 160.017 363.15 160.339C362.973 160.614 362.625 161.028 362.16 161.538C361.699 162.042 361.138 162.624 360.544 163.234C359.363 164.448 358.05 165.773 357.189 166.767C356.318 167.774 354.978 169.789 353.72 171.774C352.458 173.767 351.265 175.756 350.685 176.731C349.531 178.673 346.477 183.582 344.69 189.178C342.907 194.76 342.671 197.648 342.177 200.8C342.054 201.59 341.932 202.244 341.833 202.835C341.737 203.417 341.665 203.931 341.651 204.399C341.638 204.872 341.684 205.307 341.827 205.734C341.97 206.161 342.204 206.562 342.547 206.973C342.665 207.114 342.772 207.251 342.872 207.383L342.791 207.477C343.107 207.913 343.426 208.347 343.784 208.812C343.809 208.857 343.835 208.901 343.86 208.946C344.211 209.573 344.573 210.22 345.24 211.02C345.615 211.47 346.179 211.776 346.803 212.006C346.892 212.039 346.983 212.07 347.076 212.1C348.498 213.018 350.308 213.807 352.09 214.581C353.381 215.369 354.95 216.155 356.749 216.852L356.808 216.889C357.398 217.265 358.188 217.516 359.104 217.667C370.078 221.032 387.472 220.526 402.873 201.193C417.915 182.309 413.429 159.615 402.058 146.491C401.941 146.231 401.816 145.975 401.683 145.727C401.281 144.972 400.804 144.267 400.293 143.71ZM343.289 206.901C343.2 206.785 343.106 206.665 343.004 206.543C342.7 206.179 342.512 205.849 342.401 205.518C342.29 205.187 342.25 204.836 342.262 204.422C342.274 204.004 342.339 203.53 342.435 202.952C342.53 202.382 342.656 201.701 342.78 200.911C343.276 197.741 343.505 194.912 345.268 189.39C347.027 183.88 350.039 179.036 351.201 177.081C351.78 176.108 352.97 174.124 354.227 172.139C355.489 170.146 356.805 168.174 357.64 167.209C358.485 166.233 359.778 164.927 360.97 163.703C361.563 163.093 362.13 162.504 362.598 161.992C363.061 161.485 363.444 161.036 363.654 160.71C363.834 160.432 364.294 159.862 364.935 159.125C365.571 158.395 366.373 157.514 367.226 156.623C368.942 154.831 370.836 153.022 372.005 152.262C373.219 151.474 375.198 149.954 377.229 148.459C379.273 146.954 381.371 145.474 382.857 144.728C384.331 143.989 386.674 143.382 388.837 142.988C389.915 142.792 390.94 142.651 391.779 142.574C392.629 142.495 393.258 142.485 393.561 142.536C394.268 142.655 395.033 142.68 395.83 142.744C396.619 142.807 397.471 142.91 398.422 143.174L343.289 206.901Z" fill="#D3B94F"/>
<path d="M394.597 180.217C393.077 183.437 389.15 188.24 387.376 190.239C386.2 191.609 383.833 194.335 381.58 196.33C379.326 198.325 376.593 202.094 375.33 203.097C374.066 204.101 367.763 207.731 365.214 209.154C362.664 210.578 355.124 214.115 353.032 213.182C350.939 212.25 346.762 212.356 345.468 210.805C344.175 209.254 344.07 208.309 342.776 206.758C341.482 205.207 341.984 204.017 342.479 200.856C342.974 197.695 343.206 194.837 344.979 189.284C346.752 183.731 349.785 178.855 350.944 176.906C352.102 174.958 355.709 168.961 357.415 166.99C359.12 165.018 362.626 161.727 363.402 160.526C364.178 159.324 369.438 153.548 371.846 151.985C374.253 150.421 379.701 145.952 382.726 144.434C385.752 142.917 392.228 141.982 393.608 142.215C394.987 142.448 396.559 142.307 398.568 142.878C400.578 143.449 402.806 147.881 402.622 150.226C402.439 152.57 404.051 155.276 403.497 158.659C402.942 162.042 401.529 166.265 399.212 170.161C396.895 174.058 396.498 176.193 394.597 180.217Z" fill="#F6F2E7"/>
<path d="M397.618 155.316C397.85 155.067 398.061 154.826 398.251 154.592C398.26 154.05 398.295 153.485 398.345 152.936C398.533 150.87 397.741 150.092 396.783 150.276C396.14 150.4 395.679 149.69 395.229 148.996C395.007 148.655 394.787 148.317 394.55 148.084C393.83 147.377 393.266 147.104 391.841 147.674C391.502 147.809 391.147 147.929 390.793 148.026C390.24 148.464 389.694 149.353 388.169 152.225C386.973 154.48 384.195 158.971 381.552 163.246C378.126 168.786 374.925 173.962 375.682 173.434C376.233 173.413 376.609 173.595 376.402 174.142C379.35 171.505 386.231 165.398 390.175 162.071C395.106 157.912 395.836 157.222 397.618 155.316Z" fill="#D3B94F"/>
<path d="M395.322 172.198C394.884 172.818 394.442 173.271 393.969 173.391C392.604 173.738 378.813 175.666 376.261 175.691C376.32 175.468 376.223 174.81 376.762 174.495L397.502 157.452C397.861 157.157 398.173 156.968 398.443 156.867C398.556 157.296 398.725 157.614 398.964 157.763C399.422 158.047 399.294 158.531 399.123 159.179C399.002 159.635 398.86 160.173 398.886 160.78C398.895 160.992 398.914 161.238 398.935 161.51C399.06 163.12 399.257 165.652 397.867 167.655C396.872 169.087 396.065 170.705 395.324 172.194L395.322 172.198Z" fill="#D3B94F"/>
<path d="M380.762 193.893C380.778 193.9 380.799 193.902 380.822 193.899C381.051 193.63 381.307 193.35 381.623 193.051C381.841 192.845 382.078 192.625 382.324 192.395C383.725 191.09 385.45 189.483 386.049 188.397C386.754 187.12 387.985 185.235 389.649 183.775C391.066 182.53 391.535 181.374 392.264 179.58C392.39 179.269 392.524 178.939 392.672 178.586C393.141 177.468 393.199 176.993 393.247 176.604C393.302 176.161 393.343 175.829 393.96 174.788C394.068 174.605 394.177 174.414 394.285 174.216C394.162 174.191 394.036 174.19 393.935 174.201C388.004 174.846 376.036 176.258 375.615 176.745C375.337 177.066 375.628 177.038 375.192 177.697C375.123 177.999 374.842 177.831 374.503 178.184C373.989 179.086 380.27 193.691 380.762 193.893Z" fill="#D3B94F"/>
<path d="M367.517 204.345C367.521 204.298 367.53 204.243 367.544 204.179C367.603 203.914 367.827 202.624 368.149 200.761L368.149 200.761C369.297 194.12 371.705 180.202 372.415 179.521C373.144 178.823 373.526 178.89 373.626 179.012C375.593 183.715 379.297 192.615 380.124 194.757C379.592 195.409 378.993 196.064 377.783 196.874C376.494 197.737 376.155 198.388 375.846 198.98C375.624 199.405 375.419 199.8 374.888 200.22C373.619 201.224 369.704 203.286 368.147 204.008C367.919 204.114 367.711 204.226 367.517 204.345Z" fill="#D3B94F"/>
<path d="M352.178 207.679C351.966 207.976 351.95 208.197 352.059 208.368C352.123 208.368 352.188 208.369 352.252 208.369C352.713 208.375 353.263 208.496 353.87 208.63C355.173 208.917 356.741 209.262 358.268 208.652C359.269 208.252 360.344 207.981 361.353 207.727C362.603 207.413 363.751 207.124 364.533 206.646C365.144 206.273 365.612 205.864 366.072 205.461L366.116 205.423C366.197 205.28 366.263 205.131 366.31 204.977C366.755 203.534 372.336 179.356 371.534 179.769L370.983 179.79C370.983 179.79 352.863 206.722 352.178 207.679Z" fill="#D3B94F"/>
<path d="M345.581 204.069C345.336 203.885 345.223 203.472 345.203 202.924C345.303 202.546 345.458 202.106 345.684 201.579C346.079 200.654 346.318 199.66 346.547 198.709C346.829 197.538 347.096 196.43 347.62 195.59C347.62 195.59 370.096 178.656 370.106 178.648C370.116 178.639 370.096 178.656 370.106 178.648C370.116 178.639 370.927 179.325 370.372 179.973L351.403 208.147C351.351 208.224 351.3 208.298 351.249 208.37C350.152 208.358 349.15 208.223 348.678 207.111C348.174 205.921 347.224 205.246 346.229 204.538C346.014 204.385 345.797 204.231 345.581 204.069Z" fill="#D3B94F"/>
<path d="M348.868 193.828L370.093 178.354C370.036 178.165 371.052 177.045 370.726 177.007C368.44 176.735 356.283 177.039 355.021 177.238C354.512 177.318 353.988 177.87 353.441 178.618C353.174 179.188 352.626 180.025 352.006 180.97C350.662 183.022 348.984 185.584 349.136 187.027C349.316 188.733 348.52 191.009 347.955 192.533C347.981 193.321 348.243 193.888 348.868 193.828Z" fill="#D3B94F"/>
<path d="M389.424 148.289C389.412 148.311 389.399 148.333 389.385 148.356C388.869 149.2 379.746 165.143 375.25 173.01C375.387 172.77 374.711 173.325 374.77 173.102C374.099 173.522 376.066 155.291 376.413 152.769C376.517 152.702 376.621 152.621 376.725 152.52C377.586 151.678 378.448 150.836 379.334 150.581C380.221 150.327 382.986 148.824 384.268 148.113C385.549 147.402 387.287 147.702 387.995 148.116C388.31 148.3 388.824 148.346 389.424 148.289Z" fill="#D3B94F"/>
<path d="M374.648 153.473C374.547 153.449 374.448 153.432 374.351 153.421C374.159 153.516 373.957 153.641 373.743 153.811C373.201 154.24 372.786 154.691 372.378 155.134C371.831 155.728 371.298 156.308 370.488 156.803C369.358 157.493 368.142 158.437 367.676 158.822C367.404 158.931 366.708 159.447 366.097 160.647C365.706 161.414 365.016 161.962 364.306 162.526L364.305 162.527C364.131 162.665 363.955 162.805 363.783 162.948C363.761 163.263 363.826 163.551 364.001 163.796L372.099 175.137C372.285 174.926 372.397 174.739 372.503 174.562C372.685 174.257 372.849 173.983 373.345 173.672C373.461 173.599 373.828 173.482 373.956 173.428L375.346 153.514C375.091 153.53 374.852 153.522 374.648 153.473Z" fill="#D3B94F"/>
<path d="M362.494 164.335C362.538 164.313 362.583 164.292 362.628 164.271C362.891 164.151 363.174 163.988 363.468 163.802C363.468 163.802 371.707 175.719 371.588 175.962C371.468 176.204 371.205 176.33 371.025 176.256L354.762 176.604C354.683 176.605 354.611 176.601 354.545 176.591C354.706 176.359 354.869 176.134 355.024 175.919C355.478 175.293 355.872 174.749 355.981 174.341C356.22 173.45 358.071 169.924 359.255 168.555C360.439 167.186 361.492 165.97 362.46 164.389C362.471 164.371 362.482 164.353 362.494 164.335Z" fill="#D3B94F"/>
<path fill-rule="evenodd" clip-rule="evenodd" d="M246.048 321.712C246.396 320.7 246.56 319.689 246.394 318.817C246.095 317.249 245.645 315.945 245.201 314.788C244.751 313.617 244.324 312.64 244.033 311.659C243.868 311.1 243.402 310.168 242.768 309.067C242.126 307.953 241.289 306.627 240.353 305.266C238.489 302.555 236.205 299.66 234.273 298.021C232.355 296.395 229.155 294.397 226.035 292.529C222.893 290.647 219.832 288.897 218.129 287.74C216.365 286.542 212.868 285.021 209.606 283.766C207.967 283.136 206.373 282.568 205.065 282.135C203.769 281.707 202.724 281.402 202.2 281.312C201.751 281.235 201.027 281.009 200.111 280.682C199.205 280.357 198.139 279.943 197.02 279.502C194.792 278.623 192.344 277.633 190.587 277.058C188.808 276.477 185.507 275.858 182.293 275.335C179.066 274.81 175.887 274.376 174.332 274.17C171.234 273.761 163.32 272.542 155.379 273.449C147.455 274.354 143.794 275.752 139.645 276.958C138.605 277.261 137.731 277.485 136.951 277.703C136.181 277.918 135.512 278.125 134.936 278.384C134.354 278.646 133.856 278.965 133.431 279.409C133.006 279.853 132.671 280.405 132.39 281.112C132.294 281.354 132.197 281.578 132.1 281.79L131.391 283.07C131.041 283.801 131.216 283.195 130.856 284.016C130.844 284.034 130.833 284.052 130.821 284.07C130.282 284.919 129.728 285.791 129.181 287.167C128.876 287.934 128.859 288.871 128.977 289.852C128.991 289.967 129.007 290.082 129.025 290.199C128.801 292.69 128.995 295.647 129.19 298.556C129.052 300.773 129.093 303.367 129.39 306.22L129.382 306.32C129.3 307.344 129.498 308.563 129.897 309.895C132.786 326.766 144.466 350.033 177.782 359.402C210.359 368.563 235.128 348.935 243.835 325.69C244.061 325.395 244.278 325.093 244.483 324.785C245.144 323.793 245.697 322.731 246.048 321.712ZM132.914 282.056C132.999 281.866 133.085 281.666 133.169 281.454C133.42 280.823 133.704 280.368 134.04 280.016C134.376 279.665 134.78 279.4 135.292 279.169C135.81 278.936 136.429 278.743 137.194 278.529C137.948 278.318 138.857 278.084 139.897 277.782C144.068 276.568 147.656 275.196 155.496 274.301C163.32 273.407 171.13 274.607 174.247 275.02C175.799 275.225 178.97 275.657 182.185 276.18C185.411 276.704 188.647 277.315 190.352 277.873C192.078 278.437 194.491 279.413 196.738 280.299C197.857 280.74 198.934 281.158 199.855 281.488C200.767 281.814 201.555 282.065 202.084 282.156C202.537 282.234 203.524 282.517 204.828 282.948C206.122 283.376 207.703 283.941 209.331 284.567C212.602 285.825 216.008 287.315 217.678 288.449C219.409 289.624 222.516 291.401 225.626 293.264C228.758 295.139 231.894 297.101 233.747 298.673C235.586 300.232 237.816 303.045 239.671 305.744C240.595 307.088 241.419 308.394 242.048 309.485C242.685 310.59 243.099 311.439 243.231 311.884C243.535 312.91 243.991 313.96 244.421 315.079C244.848 316.191 245.267 317.415 245.552 318.872L132.914 282.056Z" fill="#D3B94F"/>
<path d="M198.033 335.714C193.148 335.569 184.807 333.104 181.247 331.89C178.833 331.111 174.012 329.525 170.151 327.659C166.29 325.792 159.967 324.33 157.943 323.215C155.918 322.1 147.493 315.718 144.139 313.111C140.785 310.503 131.686 302.389 131.489 299C131.292 295.61 128.506 290.013 129.569 287.338C130.633 284.662 131.715 283.958 132.779 281.283C133.843 278.607 135.61 278.58 139.77 277.37C143.93 276.16 147.554 274.775 155.437 273.875C163.32 272.975 171.182 274.184 174.289 274.595C177.396 275.006 186.985 276.326 190.469 277.465C193.953 278.604 200.186 281.397 202.141 281.734C204.097 282.07 214.469 285.763 217.903 288.094C221.336 290.426 230.239 295.15 234.009 298.347C237.78 301.545 243.037 309.763 243.632 311.771C244.226 313.779 245.397 315.824 245.981 318.887C246.565 321.95 242.591 327.604 239.622 328.75C236.653 329.896 234.388 333.69 229.92 334.951C225.452 336.211 219.416 336.808 213.202 335.986C206.987 335.164 204.138 335.896 198.033 335.714Z" fill="#F6F2E7"/>
<path d="M230.246 324.997C230.697 325.164 231.125 325.305 231.53 325.423C232.195 325.114 232.904 324.825 233.604 324.566C236.236 323.593 236.679 322.057 235.845 320.868C235.286 320.07 235.856 319.024 236.414 318C236.688 317.497 236.959 316.999 237.092 316.538C237.494 315.142 237.467 314.216 235.867 312.624C235.487 312.245 235.116 311.835 234.771 311.413C233.888 310.925 232.459 310.713 227.995 310.356C224.49 310.076 217.26 308.983 210.379 307.944C201.46 306.597 193.128 305.338 194.25 306.05C194.627 306.784 194.645 307.401 193.848 307.446C198.931 309.872 210.737 315.564 217.294 318.93C225.49 323.137 226.793 323.715 230.246 324.997Z" fill="#D3B94F"/>
<path d="M208.249 331.926C207.216 331.701 206.384 331.372 205.937 330.803C204.647 329.159 193.528 311.62 191.874 308.176C192.183 308.124 192.921 307.602 193.647 308.145L227.574 326.11C228.161 326.421 228.59 326.732 228.884 327.037C228.434 327.446 228.155 327.863 228.126 328.277C228.071 329.066 227.401 329.18 226.504 329.333C225.872 329.441 225.128 329.568 224.406 329.964C224.154 330.103 223.867 330.275 223.549 330.465C221.671 331.592 218.715 333.365 215.395 332.672C213.019 332.176 210.538 332.046 208.256 331.927L208.249 331.926Z" fill="#D3B94F"/>
<path d="M172.595 325.101C172.597 325.128 172.608 325.156 172.626 325.186C173.099 325.336 173.602 325.516 174.167 325.767C174.557 325.94 174.975 326.13 175.411 326.327C177.889 327.449 180.943 328.83 182.645 328.997C184.646 329.192 187.722 329.739 190.557 331.125C192.974 332.305 194.677 332.253 197.323 332.173C197.782 332.159 198.268 332.145 198.792 332.135C200.45 332.106 201.066 331.902 201.569 331.736C202.143 331.546 202.572 331.404 204.232 331.621C204.524 331.659 204.825 331.693 205.135 331.722C205.087 331.54 205.008 331.368 204.93 331.238C200.372 323.585 191.041 308.21 190.181 307.929C189.613 307.743 189.832 308.12 188.753 307.922C188.343 308.008 188.368 307.527 187.723 307.278C186.299 307.118 172.527 324.315 172.595 325.101Z" fill="#D3B94F"/>
<path d="M151.455 313.371C151.514 313.349 151.587 313.328 151.674 313.31C152.033 313.232 153.745 312.767 156.216 312.095L156.217 312.095C165.026 309.702 183.487 304.686 184.769 305.244C186.081 305.816 186.242 306.374 186.158 306.582C181.688 312.044 173.218 322.357 171.138 324.751C170.006 324.418 168.829 323.996 167.073 322.837C165.204 321.604 164.196 321.532 163.28 321.466C162.621 321.418 162.01 321.374 161.162 320.905C159.133 319.784 154.134 315.705 152.265 314.025C151.992 313.779 151.722 313.563 151.455 313.371Z" fill="#D3B94F"/>
<path d="M137.64 294.57C137.144 294.459 136.865 294.569 136.726 294.819C136.767 294.906 136.808 294.993 136.848 295.081C137.134 295.709 137.337 296.526 137.56 297.428C138.04 299.364 138.617 301.694 140.331 303.401C141.454 304.519 142.468 305.815 143.419 307.031C144.596 308.537 145.678 309.921 146.756 310.696C147.6 311.302 148.395 311.693 149.178 312.077L149.252 312.113C149.477 312.138 149.7 312.139 149.918 312.112C151.957 311.856 184.918 305.039 183.906 304.197L183.53 303.463C183.53 303.463 139.24 294.928 137.64 294.57Z" fill="#D3B94F"/>
<path d="M137.835 283.485C137.903 283.043 138.333 282.644 138.987 282.291C139.511 282.201 140.145 282.15 140.929 282.142C142.307 282.128 143.667 281.861 144.97 281.605C146.574 281.291 148.091 280.993 149.446 281.204C149.446 281.204 184.345 301.587 184.361 301.595C184.378 301.604 184.345 301.587 184.361 301.595C184.378 301.604 184.06 303.11 182.919 302.744L136.578 293.798C136.451 293.774 136.329 293.748 136.209 293.722C135.525 292.229 135.053 290.791 136.106 289.49C137.232 288.099 137.449 286.41 137.677 284.64C137.726 284.258 137.775 283.872 137.835 283.485Z" fill="#D3B94F"/>
<path d="M152.384 281.847L184.711 301.404C184.904 301.213 186.912 301.924 186.752 301.46C185.628 298.201 177.524 281.908 176.479 280.317C176.058 279.675 175.053 279.293 173.796 278.996C172.932 278.974 171.565 278.729 170.022 278.452C166.67 277.851 162.487 277.101 160.828 278.165C158.867 279.423 155.592 279.699 153.378 279.839C152.437 280.344 151.913 281.035 152.384 281.847Z" fill="#D3B94F"/>
<path d="M233.581 309.714C233.547 309.712 233.512 309.708 233.475 309.702C232.12 309.504 206.922 306.626 194.491 305.212C194.871 305.255 193.766 304.669 194.075 304.617C193.137 303.958 216.565 295.779 219.855 294.749C220.001 294.851 220.166 294.944 220.356 295.024C221.928 295.691 223.5 296.357 224.374 297.407C225.247 298.456 228.836 301.31 230.515 302.623C232.195 303.936 232.935 306.47 232.882 307.675C232.859 308.212 233.131 308.936 233.581 309.714Z" fill="#D3B94F"/>
<path d="M217.875 292.777C217.84 292.625 217.798 292.481 217.749 292.344C217.511 292.14 217.231 291.941 216.889 291.752C216.022 291.272 215.209 290.978 214.41 290.689C213.339 290.302 212.294 289.923 211.178 289.121C209.62 288.001 207.698 286.914 206.932 286.511C206.628 286.208 205.556 285.572 203.708 285.457C202.525 285.383 201.42 284.775 200.282 284.148L200.282 284.148C200.002 283.994 199.721 283.839 199.436 283.69C199.04 283.848 198.731 284.107 198.544 284.49L189.9 302.208C190.274 302.335 190.573 302.375 190.856 302.413C191.343 302.479 191.782 302.538 192.475 303.025C192.638 303.139 193.013 303.566 193.161 303.707L218.269 293.748C218.087 293.411 217.945 293.083 217.875 292.777Z" fill="#D3B94F"/>
<path d="M196.93 282.768C196.984 282.815 197.038 282.864 197.093 282.913C197.406 283.197 197.784 283.484 198.198 283.771C198.198 283.771 188.942 302.023 188.571 302.005C188.201 301.988 187.879 301.706 187.856 301.418L177.086 279.589C177.034 279.483 176.993 279.382 176.964 279.288C177.349 279.367 177.725 279.454 178.085 279.537C179.137 279.78 180.048 279.99 180.615 279.895C181.85 279.688 187.317 280.1 189.736 280.89C192.154 281.681 194.304 282.383 196.842 282.755C196.872 282.759 196.901 282.763 196.93 282.768Z" fill="#D3B94F"/>
<path d="M275.813 235.021C277.919 232.423 279.737 229.606 280.349 227.579C280.721 226.345 281.002 225.226 281.23 224.192C284.087 216.352 284.8 208.247 282.618 201.046C282.467 199.954 282.276 198.986 282.036 198.219C280.604 193.637 275.53 186.846 273.878 183.5C272.226 180.154 265.226 174.824 263.69 174.331C262.155 173.838 258.293 169.817 255.881 168.171C253.469 166.525 245.742 164.581 243.228 163.976C240.713 163.37 234.454 161.596 226.911 162.828C219.368 164.061 215.317 166.013 210.895 167.711C206.473 169.409 204.886 169.436 202.336 173.243C199.785 177.051 198.401 178.048 195.85 181.856C194.315 184.149 193.386 187.961 192.482 191.687C191.783 193.591 191.124 195.858 190.594 198.399C190.582 198.43 190.571 198.462 190.559 198.494C190.222 199.369 190.054 200.468 190.01 201.702C187.766 216.933 190.668 239.383 214.135 253.794C237.823 268.341 263.201 254.614 275.813 235.021Z" fill="#D3B94F"/>
<path d="M228.041 249.698C223.9 249.48 218.133 246.016 215.767 244.312C214.136 243.217 210.898 240.99 208.656 238.374C206.414 235.757 201.803 233.698 200.708 232.136C199.613 230.573 196.08 221.643 194.714 217.994C193.347 214.345 190.251 202.996 192.078 198.265C193.904 193.534 194.79 185.716 197.286 181.985C199.783 178.255 201.134 177.276 203.631 173.545C206.127 169.815 207.673 169.783 211.986 168.107C216.299 166.431 220.251 164.509 227.604 163.277C234.956 162.044 241.048 163.755 243.495 164.338C245.942 164.921 253.463 166.792 255.807 168.392C258.152 169.991 261.901 173.907 263.395 174.383C264.889 174.859 271.69 180.043 273.288 183.307C274.887 186.571 279.809 193.189 281.188 197.663C282.568 202.136 282.277 213.619 281.609 216.424C280.94 219.228 280.749 222.085 279.45 226.361C278.151 230.637 271.381 238.515 268.137 240.105C264.892 241.695 260.697 246.983 256.087 248.729C251.478 250.474 245.903 251.289 241.009 250.123C236.115 248.958 233.218 249.97 228.041 249.698Z" fill="#F6F2E7"/>
<path d="M261.979 234.274C262.27 234.508 262.556 234.706 262.836 234.872C263.589 234.448 264.367 234.054 265.121 233.701C267.953 232.373 269.227 230.254 269.2 228.606C269.183 227.501 270.281 226.059 271.357 224.648C271.886 223.955 272.409 223.268 272.791 222.633C273.949 220.706 274.463 219.427 274.012 217.217C273.904 216.692 273.823 216.123 273.772 215.538C273.295 214.858 272.187 214.556 268.55 214.034C265.695 213.625 260.104 212.07 254.783 210.59C247.886 208.672 241.442 206.88 241.995 207.87C241.892 208.887 241.549 209.74 240.836 209.797C243.804 213.18 250.662 221.119 254.352 225.81C258.964 231.674 259.75 232.482 261.979 234.274Z" fill="#D3B94F"/>
<path d="M239.008 243.706C238.249 243.388 237.724 242.929 237.67 242.14C237.514 239.86 238.135 215.561 238.712 210.793C239.008 210.723 239.948 210.006 240.257 210.76L259.031 235.794C259.356 236.228 259.544 236.66 259.62 237.084C258.995 237.645 258.511 238.221 258.246 238.791C257.741 239.881 257.097 240.034 256.236 240.24C255.629 240.385 254.914 240.556 254.062 241.098C253.764 241.288 253.417 241.524 253.033 241.786C250.76 243.33 247.184 245.761 244.728 244.782C242.97 244.082 240.909 243.886 239.014 243.707L239.008 243.706Z" fill="#D3B94F"/>
<path d="M212.272 234.049C212.259 234.086 212.251 234.126 212.249 234.167C212.57 234.377 212.898 234.63 213.239 234.98C213.474 235.222 213.724 235.486 213.985 235.761C215.467 237.326 217.293 239.254 218.662 239.495C220.272 239.778 222.603 240.554 224.239 242.485C225.634 244.132 227.131 244.071 229.456 243.977C229.859 243.961 230.286 243.944 230.743 243.934C232.188 243.904 232.836 243.627 233.367 243.4C233.971 243.142 234.423 242.948 235.726 243.259C235.955 243.313 236.196 243.361 236.445 243.404C236.509 243.152 236.541 242.914 236.55 242.734C237.073 232.133 237.976 210.833 237.398 210.44C237.017 210.179 236.987 210.702 236.172 210.422C235.769 210.537 236.071 209.873 235.66 209.525C234.526 209.295 212.671 232.963 212.272 234.049Z" fill="#D3B94F"/>
<path d="M200.886 217.71C200.95 217.68 201.025 217.652 201.11 217.627C201.465 217.522 203.209 216.89 205.728 215.979L205.728 215.979C214.705 212.729 233.519 205.918 234.298 206.697C235.096 207.494 234.91 208.267 234.717 208.553C227.693 216.07 214.404 230.262 211.222 233.556C210.44 233.089 209.671 232.499 208.833 230.887C207.94 229.172 207.114 229.065 206.364 228.968C205.824 228.899 205.323 228.834 204.865 228.18C203.77 226.618 201.836 220.952 201.204 218.619C201.111 218.277 201.004 217.978 200.886 217.71Z" fill="#D3B94F"/>
<path d="M199.918 191.651C199.555 191.494 199.252 191.644 198.987 191.988C198.971 192.108 198.955 192.229 198.939 192.35C198.821 193.22 198.52 194.35 198.188 195.598C197.476 198.275 196.618 201.498 197.103 203.866C197.42 205.418 197.539 207.215 197.651 208.901C197.79 210.989 197.917 212.908 198.395 213.985C198.769 214.828 199.227 215.373 199.677 215.908L199.72 215.959C199.9 215.995 200.091 215.998 200.294 215.961C202.199 215.621 234.546 206.414 234.164 205.244L234.267 204.228C234.267 204.228 201.088 192.155 199.918 191.651Z" fill="#D3B94F"/>
<path d="M206.529 176.338C206.845 175.728 207.447 175.18 208.215 174.696C208.719 174.575 209.294 174.51 209.974 174.503C211.169 174.492 212.496 174.132 213.766 173.787C215.33 173.363 216.81 172.962 217.854 173.262C217.854 173.262 236.059 201.642 236.068 201.653C236.078 201.665 236.059 201.642 236.068 201.653C236.078 201.665 234.928 203.744 234.158 203.231L199.452 190.577C199.357 190.543 199.266 190.507 199.179 190.469C199.458 188.402 199.887 186.413 201.55 184.623C203.328 182.708 204.496 180.377 205.721 177.933C205.986 177.406 206.253 176.873 206.529 176.338Z" fill="#D3B94F"/>
<path d="M220.01 174.169L236.48 201.391C236.757 201.129 238.074 202.124 238.206 201.482C239.132 196.973 241.624 174.414 241.649 172.209C241.659 171.32 241.016 170.786 240.106 170.367C239.375 170.331 238.34 169.984 237.172 169.592C234.635 168.74 231.469 167.676 229.422 169.136C227.002 170.862 224.022 171.221 222.033 171.402C220.93 172.092 220.077 173.044 220.01 174.169Z" fill="#D3B94F"/>
<path d="M273.734 213.184C273.706 213.18 273.678 213.174 273.649 213.166C272.598 212.884 252.571 208.747 242.689 206.714C242.991 206.776 242.38 205.96 242.676 205.89C242.252 204.973 267.181 193.825 270.612 192.423C270.68 192.565 270.768 192.694 270.884 192.806C271.851 193.737 272.817 194.668 272.959 196.123C273.101 197.579 274.533 201.544 275.216 203.368C275.899 205.193 275.064 208.698 274.318 210.362C273.985 211.103 273.799 212.105 273.734 213.184Z" fill="#D3B94F"/>
<path d="M270.054 189.685C270.112 189.476 270.159 189.277 270.197 189.087C270.111 188.804 269.985 188.526 269.801 188.263C269.333 187.595 268.804 187.184 268.284 186.779C267.587 186.237 266.907 185.708 266.412 184.593C265.722 183.035 264.698 181.522 264.273 180.96C264.187 180.539 263.634 179.654 262.109 179.483C261.134 179.374 260.536 178.526 259.92 177.653L259.92 177.653C259.769 177.438 259.617 177.222 259.457 177.016C259.024 177.231 258.608 177.587 258.224 178.114L240.482 202.535C240.73 202.713 240.964 202.771 241.185 202.825C241.567 202.919 241.91 203.003 242.224 203.68C242.298 203.839 242.373 204.431 242.418 204.627L269.829 191.03C269.868 190.563 269.937 190.109 270.054 189.685Z" fill="#D3B94F"/>
<path d="M257.835 175.726C257.854 175.791 257.873 175.858 257.891 175.927C257.996 176.321 258.155 176.72 258.344 177.119C258.344 177.119 239.764 202.273 239.455 202.247C239.146 202.221 239.033 201.829 239.181 201.431L242.595 171.207C242.612 171.06 242.635 170.921 242.665 170.79C242.95 170.903 243.224 171.025 243.486 171.142C244.25 171.484 244.912 171.781 245.455 171.653C246.64 171.374 251.109 171.978 252.732 173.085C254.355 174.193 255.797 175.177 257.768 175.706C257.791 175.713 257.813 175.719 257.835 175.726Z" fill="#D3B94F"/>
<path d="M432.078 297.459C429.23 291.502 425.801 285.935 422.818 283.267C421.002 281.642 419.313 280.279 417.729 279.078C406.557 267.817 393.358 260.48 379.557 259.381C377.606 258.87 375.836 258.527 374.367 258.423C365.557 257.802 350.328 262.556 343.45 263.268C336.571 263.979 322.398 273.504 320.435 276.091C318.471 278.678 308.823 283.138 304.263 286.561C299.702 289.984 290.727 303.4 287.852 307.784C284.977 312.168 277.369 322.888 273.905 338.288C270.442 353.687 270.763 362.906 270.384 372.651C270.005 382.396 268.884 385.464 273.452 393.165C278.02 400.866 278.69 404.259 283.258 411.96C286.012 416.603 291.789 421.2 297.436 425.682C300.143 428.421 303.491 431.351 307.394 434.232C307.438 434.277 307.482 434.322 307.526 434.367C308.759 435.657 310.492 436.79 312.545 437.783C336.674 453.302 376.811 464.245 418.473 429.761C460.521 394.957 455.961 336.106 432.078 297.459Z" fill="#D3B94F"/>
<path d="M421.77 400.032C418.355 407.828 408.249 416.359 403.623 419.65C400.57 421.977 394.417 426.56 388.34 428.942C382.262 431.324 375.384 438.668 371.934 439.622C368.484 440.577 350.77 440.793 343.588 440.733C336.406 440.674 314.919 438.27 308.255 431.281C301.592 424.291 289.01 416.838 284.533 409.297C280.056 401.756 279.393 398.439 274.916 390.898C270.439 383.357 271.521 380.365 271.858 370.845C272.195 361.326 271.85 352.319 275.174 337.287C278.497 322.255 285.876 311.811 288.662 307.539C291.449 303.267 300.15 290.194 304.582 286.867C309.015 283.54 318.401 279.219 320.306 276.699C322.211 274.179 335.989 264.926 342.69 264.257C349.39 263.588 364.213 259.002 372.8 259.642C381.386 260.282 400.609 269.291 404.864 272.638C409.118 275.985 413.814 278.457 420.095 284.098C426.377 289.739 434.731 308.541 435.035 315.944C435.339 323.347 441.202 335.298 440.765 345.438C440.328 355.577 437.604 366.888 432.031 375.432C426.457 383.977 426.039 390.287 421.77 400.032Z" fill="#F6F2E7"/>
<path d="M420.634 323.484C421.243 323.097 421.79 322.694 422.276 322.277C422.113 320.519 422.019 318.734 421.975 317.026C421.812 310.608 419.162 306.601 416.353 305.44C414.47 304.661 412.839 301.489 411.242 298.386C410.457 296.859 409.68 295.349 408.885 294.148C406.477 290.505 404.69 288.576 400.617 287.818C399.649 287.637 398.626 287.375 397.599 287.043C396.096 287.459 394.771 289.365 391.212 295.968C388.418 301.151 381.673 310.749 375.252 319.883C366.931 331.722 359.156 342.783 361.24 342.45C362.885 343.395 364.076 344.682 363.649 346.093C371.558 342.881 390.041 335.547 400.696 331.909C414.015 327.362 415.961 326.447 420.634 323.484Z" fill="#D3B94F"/>
<path d="M419.697 374.555C418.602 375.779 417.437 376.449 416.062 375.973C412.09 374.594 371.417 355.524 363.771 350.906C363.871 350.286 363.349 347.953 364.853 347.914L421.038 330.267C422.011 329.961 422.881 329.917 423.654 330.083C424.145 331.697 424.763 333.05 425.534 333.978C427.006 335.751 426.792 337.101 426.507 338.908C426.306 340.18 426.069 341.68 426.36 343.714C426.462 344.426 426.606 345.267 426.766 346.198C427.708 351.7 429.191 360.358 425.727 364.357C423.249 367.218 421.401 371.034 419.703 374.544L419.697 374.555Z" fill="#D3B94F"/>
<path d="M383.681 418.813C383.734 418.866 383.795 418.91 383.864 418.944C384.456 418.483 385.124 418.038 385.968 417.641C386.55 417.367 387.181 417.081 387.839 416.783C391.579 415.087 396.186 412.997 397.601 410.544C399.264 407.66 402.292 403.752 406.765 402.03C410.578 400.561 411.577 397.641 413.129 393.105C413.397 392.319 413.683 391.485 414.002 390.601C415.014 387.803 415.022 386.353 415.029 385.167C415.036 383.816 415.042 382.805 416.526 380.531C416.787 380.13 417.045 379.704 417.3 379.256C416.921 378.947 416.542 378.711 416.244 378.562C398.686 369.757 363.298 352.352 362.208 353.171C361.486 353.712 362.348 354.155 361.275 355.513C361.174 356.372 360.272 355.305 359.38 355.838C358.157 357.846 382.136 417.247 383.681 418.813Z" fill="#D3B94F"/>
<path d="M347.648 428.666C347.645 428.521 347.653 428.357 347.673 428.174C347.756 427.416 347.971 423.6 348.28 418.091C349.385 398.453 351.699 357.297 353.59 356.373C355.528 355.427 356.698 356.353 357.042 356.934C364.597 375.96 378.84 411.932 382.074 420.469C380.708 421.626 379.144 422.669 375.799 423.094C372.239 423.547 371.451 425.055 370.734 426.426C370.219 427.411 369.741 428.325 368.298 428.725C364.848 429.679 353.834 429.226 349.421 428.724C348.774 428.65 348.189 428.636 347.648 428.666Z" fill="#D3B94F"/>
<path d="M302.829 411.352C302.297 411.934 302.327 412.628 302.714 413.389C302.907 413.508 303.1 413.627 303.293 413.748C304.677 414.615 306.369 416.024 308.237 417.58C312.245 420.919 317.069 424.936 321.434 425.749C324.293 426.282 327.422 427.374 330.359 428.4C333.994 429.67 337.336 430.837 339.511 430.712C341.213 430.614 342.471 430.134 343.709 429.662L343.826 429.617C344.02 429.299 344.165 428.934 344.254 428.517C345.078 424.606 353.295 355.689 351.034 355.562L349.389 354.617C349.389 354.617 304.544 409.476 302.829 411.352Z" fill="#D3B94F"/>
<path d="M281.776 387.384C280.975 386.33 280.491 384.769 280.236 382.937C280.402 381.881 280.715 380.727 281.204 379.416C282.064 377.112 282.431 374.299 282.783 371.605C283.216 368.288 283.625 365.15 284.902 363.364C284.902 363.364 346.33 349.271 346.357 349.262C346.384 349.252 346.33 349.271 346.357 349.262C346.384 349.252 349.057 352.991 347.622 354.091L300.669 411.458C300.541 411.615 300.413 411.763 300.285 411.903C296.992 409.846 293.941 407.558 292.134 403.047C290.202 398.221 287.116 394.262 283.881 390.11C283.183 389.214 282.478 388.309 281.776 387.384Z" fill="#D3B94F"/>
<path d="M288.023 359.889L346.216 348.277C345.976 347.552 348.63 345.755 347.639 345.029C340.689 339.931 304.339 318.546 300.626 316.875C299.129 316.201 297.752 317.045 296.374 318.485C295.775 319.863 294.426 321.595 292.902 323.551C289.593 327.798 285.464 333.098 286.429 338.105C287.569 344.024 285.985 350.014 284.827 353.966C285.184 356.595 286.168 358.934 288.023 359.889Z" fill="#D3B94F"/>
<path d="M393.586 285.383C393.559 285.434 393.529 285.484 393.494 285.533C392.243 287.344 370.507 322.776 359.795 340.265C360.122 339.731 358.29 340.304 358.39 339.684C356.526 339.823 355.998 283.73 356.15 276.105C356.44 276.081 356.723 276.006 356.999 275.864C359.285 274.693 361.572 273.522 364.14 274.319C366.708 275.117 374.472 275.285 378.063 275.314C381.654 275.344 386.972 279.528 389.24 282.186C390.25 283.369 391.808 284.465 393.586 285.383Z" fill="#D3B94F"/>
<path d="M351.106 275.164C350.794 274.899 350.492 274.661 350.199 274.448C349.656 274.405 349.094 274.443 348.512 274.604C347.038 275.012 345.952 275.725 344.885 276.426C343.455 277.366 342.059 278.283 339.807 278.413C336.661 278.594 333.348 279.446 332.084 279.85C331.308 279.705 329.404 280.117 327.993 282.921C327.09 284.714 325.214 285.239 323.284 285.78L323.283 285.78C322.809 285.912 322.332 286.046 321.865 286.2C321.91 287.19 322.206 288.252 322.817 289.377L351.097 341.432C351.581 341.085 351.85 340.678 352.105 340.293C352.545 339.629 352.94 339.032 354.317 338.926C354.639 338.901 355.697 339.192 356.063 339.251L353.215 276.585C352.454 276.166 351.737 275.701 351.106 275.164Z" fill="#D3B94F"/>
<path d="M318.488 288.367C318.613 288.378 318.74 288.392 318.869 288.407C319.614 288.497 320.407 288.485 321.221 288.414C321.221 288.414 350.126 342.617 349.854 343.191C349.582 343.766 348.836 343.694 348.27 343.118L299.626 314.32C299.39 314.181 299.172 314.034 298.972 313.88C299.372 313.415 299.781 312.98 300.172 312.563C301.313 311.346 302.302 310.291 302.486 309.154C302.886 306.673 307.196 298.532 310.264 296.229C313.332 293.926 316.06 291.878 318.406 288.482C318.433 288.443 318.46 288.405 318.488 288.367Z" fill="#D3B94F"/>
<path d="M345.877 422.509C344.29 419.782 342.378 417.494 340.18 416.264C336.261 414.07 332.652 412.728 329.374 411.652C326.053 410.561 323.207 409.781 320.584 408.662C319.074 408.018 316.235 407.41 312.753 406.898C309.222 406.378 304.895 405.938 300.322 405.67C291.213 405.136 280.965 405.276 274.042 406.904C267.176 408.517 257.278 412.538 247.812 416.602C238.271 420.697 229.17 424.834 223.712 426.797C218.035 428.839 208.649 434.465 200.263 440.01C196.046 442.798 192.042 445.593 188.83 447.95C185.648 450.285 183.166 452.247 182.049 453.354C181.112 454.284 179.373 455.608 177.072 457.21C174.796 458.795 172.048 460.598 169.147 462.48C163.372 466.228 156.969 470.301 152.664 473.482C148.303 476.704 141.213 483.534 134.491 490.324C127.742 497.143 121.274 504.014 118.123 507.388C111.852 514.104 95.4388 530.962 83.5743 551.84C71.7389 572.666 68.3866 584.113 63.7798 596.368C62.6246 599.441 61.5916 601.958 60.704 604.252C59.8301 606.511 59.1107 608.519 58.6659 610.404C58.217 612.307 58.0394 614.116 58.2632 615.984C58.4868 617.85 59.1021 619.699 60.1457 621.697C60.5034 622.382 60.8248 623.036 61.1161 623.665L60.7682 623.922C61.625 625.863 62.486 627.804 63.4642 629.875C63.5789 630.238 63.6914 630.6 63.8047 630.963C64.7025 633.841 65.6271 636.807 67.6558 640.692C68.7953 642.874 70.8095 644.666 73.1418 646.207C73.5539 646.479 73.9825 646.742 74.4203 647.004C79.3766 652.037 85.9427 656.935 92.4117 661.747C96.9656 666.197 102.648 670.914 109.333 675.494L109.536 675.699C111.606 677.799 114.588 679.584 118.161 681.095C159.669 705.448 230.301 720.449 308.516 657.403C384.829 595.889 385.635 499.917 350.746 435.732C350.478 434.481 350.164 433.236 349.812 432.018C348.813 428.574 347.476 425.259 345.877 422.509Z" fill="#D3B94F"/>
<path d="M292.52 564.519C283.71 576.043 263.871 591.607 255.053 597.948C249.168 602.331 237.352 611.028 226.6 616.884C215.848 622.74 201.687 635.293 195.753 638.11C189.82 640.928 161.365 649.421 149.891 652.677C138.417 655.933 105.044 662.838 97.3718 657.018C89.6995 651.199 72.7498 647.535 68.8147 639.998C64.8795 632.462 65.2396 628.541 61.3045 621.004C57.3693 613.468 60.3848 609.151 65.0056 596.859C69.6263 584.567 72.9359 573.245 84.7023 552.54C96.4687 531.835 112.76 515.097 119.053 508.358C125.347 501.619 144.883 480.917 153.406 474.619C161.929 468.322 178.811 458.458 182.941 454.362C187.071 450.266 213.099 432.078 224.114 428.117C235.129 424.156 260.829 411.432 274.303 408.265C287.777 405.097 314.693 407.664 320.07 409.957C325.446 412.251 331.905 413.223 339.544 417.5C347.183 421.777 352.497 441.872 349.81 451.168C347.123 460.464 351.387 472.98 346.34 486.109C341.293 499.237 332.083 514.92 319.496 528.398C306.909 541.877 303.534 550.115 292.52 564.519Z" fill="#F6F2E7"/>
<path d="M332.045 458.271C333.252 457.435 334.36 456.61 335.374 455.798C335.914 453.54 336.582 451.208 337.3 448.954C339.999 440.479 337.386 436.529 333.187 436.457C330.372 436.409 329.09 433.038 327.836 429.738C327.219 428.115 326.608 426.51 325.825 425.326C323.45 421.735 321.332 420.101 314.814 421.232C313.265 421.501 311.661 421.688 310.082 421.787C307.356 423.131 304.237 426.371 295.175 437.049C288.062 445.431 272.238 461.779 257.177 477.338C237.658 497.504 219.42 516.346 223.088 514.805C225.425 515.201 226.838 516.29 225.463 518.396C240.291 509.952 274.861 490.45 294.516 479.995C319.086 466.925 322.791 464.681 332.045 458.271Z" fill="#D3B94F"/>
<path d="M306.8 526.877C304.385 529.085 302.11 530.592 300.013 530.679C293.951 530.93 234.193 526.889 223.439 524.752C223.895 523.872 224.095 521.035 226.65 520.192L329.584 467.105C331.366 466.185 332.854 465.67 334.081 465.484C334.161 467.379 334.576 468.857 335.445 469.69C337.106 471.281 336.121 473.193 334.803 475.753C333.874 477.556 332.78 479.68 332.328 482.24C332.17 483.137 332.023 484.182 331.861 485.34C330.901 492.182 329.39 502.949 321.695 510.105C316.189 515.224 311.305 521.285 306.814 526.859L306.8 526.877Z" fill="#D3B94F"/>
<path d="M225.551 604.845C225.615 604.889 225.698 604.915 225.799 604.924C227.01 603.998 228.343 603.054 229.95 602.08C231.059 601.409 232.255 600.695 233.503 599.951C240.596 595.722 249.334 590.512 252.857 586.497C257 581.775 263.916 574.971 272.258 570.321C279.369 566.358 282.406 561.938 287.126 555.071C287.943 553.882 288.812 552.619 289.76 551.272C292.763 547.008 293.448 545.071 294.009 543.485C294.648 541.679 295.126 540.328 298.682 536.514C299.308 535.843 299.94 535.139 300.579 534.407C300.083 534.194 299.553 534.079 299.119 534.037C273.588 531.528 221.972 526.928 219.752 528.594C218.285 529.695 219.534 529.833 217.094 532.208C216.525 533.408 215.499 532.458 213.748 533.639C210.755 536.96 223.67 603.57 225.551 604.845Z" fill="#D3B94F"/>
<path d="M160.215 636.939C160.277 636.747 160.365 636.525 160.484 636.27C160.976 635.214 163.106 630.012 166.181 622.502C177.144 595.73 200.118 539.624 203.736 537.398C207.442 535.117 208.987 535.736 209.296 536.331C213.222 557.731 220.575 598.214 222.073 607.9C219.232 610.162 216.112 612.375 210.273 614.702C204.06 617.177 202.031 619.604 200.187 621.809C198.862 623.394 197.633 624.864 195.014 626.156C188.753 629.244 170.388 634.432 163.177 636.083C162.121 636.325 161.14 636.614 160.215 636.939Z" fill="#D3B94F"/>
<path d="M92.6494 637.421C91.4824 638.477 91.2124 639.386 91.512 640.198C91.7826 640.255 92.0527 640.313 92.322 640.372C94.2554 640.8 96.4549 641.79 98.8851 642.883C104.097 645.227 110.371 648.048 117.355 646.836C121.932 646.042 126.702 645.854 131.179 645.677C136.722 645.459 141.818 645.257 145.544 643.947C148.459 642.921 150.804 641.619 153.11 640.339L153.329 640.217C153.802 639.691 154.217 639.128 154.559 638.525C157.762 632.876 203.555 536.64 199.8 537.66L197.463 537.265C197.463 537.265 96.4118 634.016 92.6494 637.421Z" fill="#D3B94F"/>
<path d="M68.2497 616.528C67.3878 615.543 67.2952 613.716 67.7143 611.407C68.484 609.911 69.545 608.208 70.9786 606.201C73.4961 602.677 75.4185 598.732 77.26 594.954C79.5271 590.302 81.6714 585.903 84.6521 582.849C84.6521 582.849 194.783 531.744 194.832 531.717C194.882 531.691 194.783 531.744 194.832 531.717C194.882 531.691 197.658 535.271 194.727 537.494L88.9584 638.698C88.6702 638.974 88.3855 639.239 88.1044 639.493C83.5033 638.483 79.4179 637.036 78.4614 631.969C77.4383 626.55 74.0695 622.892 70.5379 619.057C69.7754 618.229 69.0053 617.392 68.2497 616.528Z" fill="#D3B94F"/>
<path d="M91.5268 576.573L195.051 530.478C194.982 529.637 200.29 525.845 198.956 525.398C189.596 522.255 138.202 512.852 132.713 512.577C130.501 512.466 127.787 514.315 124.796 516.961C123.149 519.113 120.07 522.133 116.594 525.543C109.046 532.947 99.6261 542.187 98.9326 548.358C98.1128 555.652 92.666 564.474 88.8816 570.355C88.265 573.673 88.8402 576.274 91.5268 576.573Z" fill="#D3B94F"/>
<path d="M304.084 421.683C304.015 421.764 303.941 421.847 303.86 421.931C300.911 425.005 247.833 483.692 221.663 512.651C222.462 511.767 219.108 513.495 219.564 512.615C216.355 513.781 241.458 439.248 245.247 428.999C245.747 428.814 246.259 428.566 246.79 428.232C251.189 425.467 255.588 422.702 259.55 422.415C263.511 422.128 276.527 418.268 282.57 416.419C288.612 414.57 295.643 417.353 298.236 419.705C299.391 420.752 301.511 421.394 304.084 421.683Z" fill="#D3B94F"/>
<path d="M237.176 430.397C236.773 430.207 236.375 430.049 235.978 429.92C235.082 430.148 234.117 430.494 233.061 431.014C230.386 432.334 228.224 433.856 226.1 435.353C223.253 437.358 220.473 439.316 216.615 440.673C211.226 442.569 205.243 445.448 202.924 446.651C201.683 446.867 198.28 448.418 194.601 452.899C192.248 455.766 188.842 457.452 185.336 459.188L185.334 459.189C184.473 459.615 183.606 460.044 182.748 460.495C182.365 461.791 182.372 463.052 182.882 464.231L206.455 518.782C207.431 518.065 208.074 517.38 208.682 516.733C209.731 515.616 210.675 514.612 213.046 513.746C213.601 513.543 215.25 513.375 215.839 513.261L240.076 431.183C238.986 431.024 237.991 430.782 237.176 430.397Z" fill="#D3B94F"/>
<path d="M176.048 465.161C176.253 465.111 176.461 465.062 176.673 465.015C177.887 464.743 179.229 464.309 180.635 463.787C180.635 463.787 204.267 520.873 203.542 521.783C202.817 522.692 201.593 522.989 200.905 522.518L132.21 509.696C131.877 509.634 131.578 509.552 131.312 509.453C132.203 508.622 133.094 507.826 133.946 507.065C136.434 504.842 138.591 502.915 139.428 501.301C141.252 497.783 152.293 484.658 158.535 479.973C164.777 475.287 170.326 471.122 175.856 465.359C175.92 465.292 175.984 465.226 176.048 465.161Z" fill="#D3B94F"/>
</g>
</svg>
