<?xml version="1.0" encoding="utf-8"?>
<!-- Generator: Adobe Adobe Illustrator 24.2.0, SVG Export Plug-In . SVG Version: 6.00 Build 0)  -->
<svg version="1.1" xmlns="http://www.w3.org/2000/svg" xmlns:xlink="http://www.w3.org/1999/xlink" x="0px" y="0px" width="564.3px"
	 height="893.15px" viewBox="0 0 564.3 893.15" style="enable-background:new 0 0 564.3 893.15;" xml:space="preserve">
<style type="text/css">
	.st0{fill:#D3B94F;}
	.st1{fill:#F6F2E7;stroke:#D3B94F;stroke-width:1.0148;}
	.st2{fill:#F6F2E7;stroke:#D3B94F;stroke-miterlimit:10;}
	.st3{fill-rule:evenodd;clip-rule:evenodd;fill:#D3B94F;}
</style>
<g id="_x30_08">
	<g>
		<path class="st0" d="M107.05,23.59c0.27,0.56,0.61,1.15,0.98,1.72c2.56,6.44,16.14,10.87,30.28,5.39
			c24.18-9.36,18.51-24.51,17.88-25.76c-0.48-0.95-0.88-1.57-1.28-2.18L107.05,23.59z"/>
		<path class="st1" d="M128.94,28.4c2.12-0.28,5.62-1.69,7.11-2.36c1.01-0.44,3.03-1.32,4.61-2.27c1.58-0.96,4.26-1.85,5.08-2.41
			c0.82-0.56,4.16-3.62,5.48-4.86c1.32-1.25,4.86-5.06,4.77-6.5s0.83-3.91,0.23-4.99c-0.6-1.08-1.11-1.32-1.71-2.4
			c-0.6-1.08-1.37-1.01-3.25-1.33c-1.87-0.32-3.52-0.74-7-0.77c-3.48-0.03-6.84,0.83-8.17,1.14c-1.33,0.31-5.43,1.29-6.89,1.93
			s-4.02,2.09-4.86,2.31c-0.83,0.23-5.15,2.24-6.53,3.38c-1.37,1.13-5,3.52-6.48,5.03c-1.47,1.51-3.33,5.2-3.49,6.07
			c-0.15,0.87-0.56,1.78-0.65,3.1c-0.09,1.31,1.93,3.51,3.28,3.86c1.35,0.35,2.53,1.84,4.54,2.17c2.01,0.33,4.67,0.31,7.33-0.31
			C125.01,28.57,126.29,28.75,128.94,28.4z"/>
		<path class="st0" d="M114.36,25.33c-0.19,0.09-0.37,0.17-0.54,0.24c-0.31-0.1-0.63-0.19-0.95-0.27c-1.2-0.29-1.47-0.92-1.17-1.45
			c0.2-0.36-0.1-0.77-0.4-1.18c-0.15-0.2-0.29-0.4-0.37-0.58c-0.25-0.57-0.28-0.96,0.33-1.7c0.15-0.18,0.29-0.37,0.41-0.56
			c0.36-0.24,0.97-0.4,2.89-0.75c1.51-0.27,4.6-1.06,7.54-1.8c3.81-0.96,7.37-1.86,6.92-1.52c-0.13,0.33-0.1,0.59,0.25,0.57
			c-2.09,1.25-6.93,4.17-9.6,5.87C116.34,24.34,115.8,24.64,114.36,25.33z"/>
		<path class="st0" d="M124.3,27.26c0.44-0.14,0.78-0.32,0.95-0.58c0.48-0.75,4.4-8.62,4.94-10.14c-0.14-0.01-0.49-0.19-0.77,0.07
			l-13.83,9.06c-0.24,0.16-0.41,0.31-0.52,0.45c0.22,0.15,0.36,0.31,0.39,0.49c0.06,0.33,0.36,0.35,0.76,0.37
			c0.28,0.02,0.61,0.04,0.95,0.17c0.12,0.05,0.25,0.11,0.4,0.17c0.88,0.39,2.25,1,3.66,0.56C122.23,27.58,123.31,27.42,124.3,27.26
			L124.3,27.26z"/>
		<path class="st0" d="M139.46,22.81c0,0.01,0,0.02-0.01,0.04c-0.2,0.08-0.41,0.18-0.64,0.31c-0.16,0.09-0.33,0.19-0.51,0.29
			c-1.02,0.58-2.28,1.3-3.01,1.44c-0.86,0.17-2.17,0.54-3.33,1.25c-0.99,0.6-1.73,0.66-2.89,0.74c-0.2,0.01-0.41,0.03-0.64,0.05
			c-0.72,0.06-1,0-1.23-0.04c-0.26-0.05-0.45-0.09-1.16,0.07c-0.13,0.03-0.25,0.06-0.39,0.08c0.01-0.08,0.04-0.15,0.06-0.21
			c1.59-3.42,4.85-10.3,5.2-10.46c0.24-0.1,0.16,0.06,0.62-0.07c0.18,0.02,0.15-0.18,0.41-0.32
			C132.56,15.86,139.44,22.47,139.46,22.81z"/>
		<path class="st0" d="M148.04,16.93c-0.03-0.01-0.06-0.01-0.1-0.02c-0.16-0.02-0.93-0.14-2.04-0.31l0,0
			c-3.96-0.61-12.25-1.9-12.78-1.61c-0.54,0.3-0.58,0.54-0.54,0.62c2.23,2.1,6.45,6.05,7.48,6.97c0.48-0.19,0.97-0.42,1.67-0.99
			c0.75-0.6,1.18-0.68,1.58-0.75c0.28-0.05,0.55-0.1,0.89-0.33c0.82-0.56,2.79-2.5,3.51-3.29
			C147.83,17.13,147.94,17.02,148.04,16.93z"/>
		<path class="st0" d="M153.08,8.41c0.21-0.07,0.34-0.04,0.41,0.06c-0.01,0.04-0.03,0.08-0.04,0.12c-0.09,0.28-0.14,0.63-0.19,1.02
			c-0.11,0.84-0.24,1.84-0.9,2.63c-0.43,0.52-0.8,1.11-1.15,1.66c-0.43,0.69-0.83,1.32-1.26,1.69c-0.34,0.29-0.66,0.49-0.98,0.69
			l-0.03,0.02c-0.1,0.02-0.19,0.03-0.29,0.03c-0.9-0.02-15.6-1.41-15.2-1.81l0.13-0.33C133.57,14.2,152.4,8.64,153.08,8.41z"/>
		<path class="st0" d="M152.42,3.76c-0.05-0.18-0.26-0.33-0.56-0.45c-0.23-0.01-0.51-0.01-0.85,0.02c-0.6,0.06-1.21,0-1.79-0.05
			c-0.71-0.06-1.39-0.12-1.97,0.03c0,0-14.13,10.12-14.13,10.13s0.01,0,0,0s0.21,0.62,0.69,0.42l19.7-5.83
			c0.05-0.02,0.11-0.03,0.16-0.05c0.22-0.66,0.35-1.28-0.18-1.78c-0.56-0.53-0.74-1.23-0.94-1.97
			C152.5,4.08,152.46,3.92,152.42,3.76z"/>
		<path class="st0" d="M146,3.72l-13.05,9.66c-0.09-0.07-0.93,0.32-0.89,0.11c0.32-1.42,3-8.63,3.37-9.35
			c0.15-0.29,0.57-0.49,1.1-0.67c0.37-0.05,0.96-0.21,1.61-0.4c1.43-0.4,3.21-0.9,3.99-0.53c0.92,0.44,2.36,0.41,3.33,0.37
			C145.9,3.09,146.16,3.36,146,3.72z"/>
		<path class="st0" d="M112.12,19.06c0.01,0,0.03-0.01,0.05-0.01c0.58-0.14,11.39-2.48,16.73-3.63c-0.16,0.04,0.29-0.26,0.15-0.27
			c0.37-0.32-10.25-2.71-11.73-3c-0.06,0.05-0.13,0.1-0.2,0.14c-0.65,0.35-1.3,0.7-1.62,1.18c-0.33,0.48-1.74,1.84-2.4,2.47
			s-0.85,1.72-0.77,2.23C112.35,18.39,112.27,18.71,112.12,19.06z"/>
		<path class="st0" d="M118.07,11.24c0.01-0.07,0.02-0.13,0.03-0.19c0.09-0.1,0.2-0.19,0.34-0.29c0.35-0.24,0.69-0.4,1.02-0.56
			c0.45-0.21,0.88-0.42,1.32-0.8c0.62-0.54,1.4-1.08,1.71-1.29c0.12-0.14,0.55-0.46,1.35-0.59c0.51-0.08,0.96-0.39,1.42-0.7l0,0
			c0.11-0.08,0.23-0.15,0.34-0.23c0.18,0.05,0.33,0.14,0.43,0.3l4.68,7.06c-0.16,0.07-0.28,0.1-0.41,0.13
			c-0.21,0.05-0.4,0.09-0.67,0.33c-0.06,0.06-0.21,0.25-0.26,0.32l-11.44-3.07C118.01,11.51,118.06,11.37,118.07,11.24z"/>
		<path class="st0" d="M126.66,6.1c-0.02,0.02-0.04,0.04-0.06,0.07c-0.12,0.13-0.27,0.27-0.44,0.41c0,0,4.98,7.26,5.14,7.24
			c0.16-0.02,0.29-0.16,0.28-0.28l3.55-9.66c0.02-0.05,0.03-0.09,0.04-0.13c-0.16,0.05-0.32,0.1-0.48,0.15
			c-0.44,0.15-0.83,0.28-1.08,0.26c-0.55-0.03-2.91,0.38-3.92,0.82c-1.01,0.44-1.91,0.83-3,1.1C126.69,6.09,126.68,6.09,126.66,6.1z
			"/>
	</g>
</g>
<g id="_x30_07">
	<g>
		<path class="st0" d="M199.15,21.46c-0.6,0.53-1.21,1.16-1.77,1.84c-10.53,9.23-14.73,28.62-0.54,47.58
			c14.05,18.78,29.46,21.76,39.11,20.48c0.81,0,1.5-0.09,2.02-0.33l0.05-0.02c1.58-0.33,2.95-0.78,4.08-1.26
			c2.29-0.59,4.64-1.2,5.86-2.32c1.01-0.93,1.62-1.66,2.22-2.39L199.15,21.46z"/>
		<path class="st2" d="M203.71,54.16c1.42,2.98,5,7.66,6.61,9.62c1.07,1.34,3.23,4.02,5.26,6.06c2.04,2.04,4.54,5.66,5.68,6.7
			c1.14,1.04,6.8,5.07,9.09,6.66c2.29,1.59,9.04,5.72,10.87,5.22c1.83-0.49,5.53,0.21,6.64-0.93c1.11-1.14,1.18-1.93,2.3-3.07
			c1.11-1.14,0.64-2.23,0.13-5c-0.51-2.78-0.77-5.25-2.46-10.26c-1.69-5.01-4.48-9.62-5.55-11.46c-1.07-1.84-4.39-7.49-5.94-9.43
			c-1.55-1.94-4.73-5.26-5.44-6.4c-0.71-1.14-5.5-6.85-7.66-8.54s-7.09-6.31-9.8-8.05c-2.71-1.74-8.47-3.49-9.68-3.49
			c-1.22,0-2.61-0.35-4.38-0.16c-1.77,0.19-3.64,3.66-3.43,5.69c0.21,2.03-1.16,4.11-0.59,7.08c0.56,2.97,1.91,6.79,4.04,10.46
			C201.54,48.55,201.94,50.44,203.71,54.16z"/>
		<path class="st0" d="M200.5,32.42c-0.21-0.25-0.4-0.48-0.58-0.71c-0.02-0.46-0.06-0.95-0.12-1.43c-0.21-1.79,0.47-2.34,1.33-2.05
			c0.57,0.2,0.96-0.34,1.35-0.87c0.19-0.26,0.38-0.52,0.58-0.68c0.62-0.5,1.12-0.65,2.39,0.05c0.3,0.17,0.62,0.32,0.94,0.45
			c0.5,0.45,1,1.29,2.41,3.97c1.11,2.1,3.66,6.35,6.1,10.39c3.15,5.24,6.1,10.13,5.42,9.57c-0.49-0.1-0.82,0-0.62,0.5
			c-2.67-2.69-8.89-8.91-12.46-12.33C202.78,35.01,202.12,34.31,200.5,32.42z"/>
		<path class="st0" d="M202.9,47.19c0.4,0.59,0.8,1.05,1.22,1.22c1.22,0.5,13.47,4.16,15.73,4.56c-0.06-0.2,0.01-0.75-0.47-1.1
			l-18.73-17.6c-0.32-0.3-0.61-0.51-0.85-0.64c-0.09,0.35-0.23,0.6-0.44,0.69c-0.4,0.18-0.28,0.61-0.11,1.19
			c0.12,0.41,0.25,0.89,0.24,1.4c0,0.18-0.02,0.39-0.03,0.62c-0.08,1.36-0.2,3.49,1.08,5.41C201.46,44.31,202.21,45.81,202.9,47.19
			L202.9,47.19z"/>
		<path class="st0" d="M216.26,67.87c-0.01,0-0.03,0-0.05,0c-0.21-0.26-0.44-0.54-0.73-0.84c-0.2-0.21-0.41-0.43-0.63-0.66
			c-1.27-1.32-2.83-2.95-3.38-3.96c-0.65-1.19-1.78-2.99-3.29-4.48c-1.28-1.27-1.72-2.33-2.41-3.97c-0.12-0.28-0.24-0.59-0.38-0.91
			c-0.44-1.02-0.5-1.44-0.55-1.78c-0.06-0.39-0.1-0.68-0.67-1.66c-0.1-0.17-0.2-0.35-0.3-0.54c0.11,0,0.22,0.01,0.31,0.04
			c5.27,1.42,15.89,4.38,16.27,4.85c0.25,0.32,0,0.25,0.4,0.88c0.07,0.27,0.31,0.16,0.62,0.52
			C221.93,56.2,216.69,67.77,216.26,67.87z"/>
		<path class="st0" d="M228.21,78.74c0-0.04-0.01-0.09-0.03-0.15c-0.06-0.23-0.28-1.37-0.61-3.01l0,0
			c-1.16-5.85-3.59-18.1-4.24-18.78c-0.66-0.7-1-0.7-1.08-0.61c-1.64,3.73-4.73,10.8-5.41,12.51c0.49,0.64,1.03,1.28,2.12,2.15
			c1.16,0.93,1.47,1.53,1.76,2.08c0.21,0.4,0.4,0.76,0.88,1.2c1.14,1.04,4.66,3.38,6.05,4.22
			C227.85,78.49,228.04,78.61,228.21,78.74z"/>
		<path class="st0" d="M241.86,83.84c0.19,0.28,0.21,0.48,0.12,0.61c-0.06-0.01-0.11-0.02-0.17-0.03c-0.41-0.06-0.89-0.04-1.43-0.01
			c-1.15,0.05-2.53,0.12-3.89-0.62c-0.89-0.49-1.85-0.88-2.75-1.24c-1.11-0.45-2.14-0.87-2.84-1.39c-0.55-0.41-0.97-0.83-1.39-1.24
			l-0.04-0.04c-0.07-0.13-0.14-0.27-0.18-0.41c-0.42-1.3-5.89-22.79-5.17-22.32l0.49,0.1C224.61,57.24,241.24,82.92,241.86,83.84z"
			/>
		<path class="st0" d="M247.63,81.72c0.21-0.12,0.3-0.46,0.31-0.92c-0.1-0.34-0.24-0.74-0.45-1.22c-0.37-0.85-0.6-1.73-0.83-2.58
			c-0.28-1.04-0.54-2.03-1.02-2.82c0,0-20.27-17.76-20.27-17.77c-0.01-0.01,0.01,0.01,0,0c-0.01-0.01-0.71,0.46-0.21,1.09
			l17.4,26.86c0.05,0.07,0.09,0.14,0.14,0.21c0.97,0.15,1.85,0.18,2.25-0.7c0.42-0.94,1.25-1.38,2.11-1.84
			C247.25,81.92,247.44,81.82,247.63,81.72z"/>
		<path class="st0" d="M244.49,72.48l-19.13-16.33c0.05-0.15-0.88-1.26-0.59-1.24c2.02,0.1,12.79,2.14,13.91,2.49
			c0.45,0.14,0.93,0.69,1.43,1.41c0.25,0.53,0.75,1.32,1.32,2.22c1.23,1.95,2.78,4.39,2.67,5.6c-0.12,1.43,0.63,3.49,1.16,4.88
			C245.27,72.17,245.05,72.62,244.49,72.48z"/>
		<path class="st0" d="M207.6,27.61c0.01,0.02,0.02,0.04,0.04,0.06c0.48,0.8,8.9,15.76,13.05,23.15c-0.13-0.23,0.48,0.35,0.43,0.15
			c0.6,0.46-1.53-15.42-1.89-17.63c-0.09-0.07-0.19-0.16-0.28-0.26c-0.78-0.85-1.56-1.69-2.35-2.04c-0.79-0.35-3.27-2.04-4.42-2.83
			c-1.15-0.8-2.68-0.79-3.3-0.54C208.59,27.78,208.13,27.75,207.6,27.61z"/>
		<path class="st0" d="M220.8,34.21c0.09-0.01,0.18-0.01,0.26,0c0.17,0.11,0.35,0.25,0.55,0.42c0.49,0.45,0.87,0.89,1.24,1.33
			c0.5,0.59,0.98,1.16,1.71,1.7c1.02,0.76,2.11,1.74,2.53,2.14c0.24,0.13,0.87,0.68,1.44,1.79c0.36,0.71,0.99,1.28,1.63,1.87l0,0
			c0.16,0.14,0.32,0.29,0.47,0.44c0.03,0.27-0.03,0.51-0.17,0.69l-6.92,8.51c-0.17-0.21-0.27-0.38-0.37-0.55
			c-0.17-0.29-0.32-0.55-0.77-0.88c-0.1-0.08-0.43-0.23-0.55-0.3l-1.66-17.23C220.4,34.19,220.62,34.22,220.8,34.21z"/>
		<path class="st0" d="M231.79,45.27c-0.04-0.02-0.08-0.05-0.12-0.07c-0.23-0.14-0.49-0.32-0.75-0.52c0,0-7.04,8.99-6.93,9.21
			c0.11,0.22,0.35,0.37,0.5,0.33l14.41,2.68c0.07,0.01,0.13,0.02,0.19,0.02c-0.15-0.22-0.3-0.44-0.44-0.64
			c-0.42-0.6-0.78-1.12-0.88-1.49c-0.23-0.8-1.95-4.08-3.02-5.43c-1.08-1.34-2.04-2.54-2.93-4.03
			C231.81,45.3,231.8,45.29,231.79,45.27z"/>
	</g>
</g>
<g id="_x30_06">
	<g>
		<path class="st3" d="M360.56,92.9c10.9,14.85,10,41.63-15.15,63.3c-24.92,21.47-46.36,21.62-58.74,17.55
			c-1.07-0.19-1.96-0.5-2.57-0.93c-0.02-0.01-0.04-0.03-0.06-0.04c-1.98-0.83-3.66-1.76-4.99-2.68c-2.85-1.35-5.76-2.73-7-4.53
			c-1.03-1.49-1.59-2.61-2.15-3.73c-0.56-1.12-1.12-2.24-2.15-3.73c-1.74-2.51-1.45-4.02-0.86-7.17c0.11-0.59,0.24-1.24,0.36-1.97
			c0.12-0.73,0.24-1.45,0.35-2.18c0.6-3.84,1.23-7.86,3.58-14.25c2.61-7.1,6.96-12.77,9.03-15.46c0.15-0.2,0.29-0.38,0.41-0.54
			c1.84-2.41,7.55-9.82,10.26-12.01c1.15-0.93,2.83-2.07,4.46-3.19c2.2-1.5,4.34-2.96,5.04-3.79c1.23-1.46,9.58-7.74,13.4-8.97
			c1.37-0.44,3.36-1.26,5.57-2.17c3.96-1.63,8.63-3.56,11.72-4.11c0.8-0.14,1.76-0.22,2.81-0.23c7.52-1.29,14.36,0.4,19.85,4.18
			c0.8,0.35,1.65,0.77,2.56,1.29C357.77,88.36,359.34,90.5,360.56,92.9z"/>
		<path class="st1" d="M348.94,141.94c-2.33,4.07-8.38,9.36-11.12,11.49c-1.81,1.48-5.46,4.41-8.95,6.31
			c-3.48,1.9-7.69,6.21-9.64,7.11c-1.95,0.89-11.71,3.31-15.66,4.22c-3.95,0.91-15.63,2.6-18.89,0.21
			c-3.26-2.38-9.75-4.2-11.78-7.13c-2.03-2.92-2.2-4.38-4.22-7.3c-2.03-2.92-1.26-4.46-0.52-8.93c0.74-4.47,1.07-8.61,3.77-16.04
			c2.7-7.42,7.36-13.24,9.14-15.59c1.78-2.35,7.33-9.56,9.96-11.69c2.63-2.13,8.05-5.36,9.24-6.78c1.19-1.42,9.31-7.52,13.04-8.71
			c3.72-1.19,12.15-5.25,16.83-6.07c4.69-0.82,14.74,0.86,16.89,1.86c2.15,1,4.59,1.54,7.72,3.34c3.13,1.8,6.64,9.46,6.37,12.86
			s2.27,8.19,1.44,12.97c-0.83,4.77-2.98,10.39-6.54,15.09C352.45,133.87,351.86,136.85,348.94,141.94z"/>
		<path class="st0" d="M352.75,106.5c0.36-0.26,0.68-0.52,0.97-0.78c0.01-0.8,0.06-1.61,0.14-2.4c0.28-2.96-0.94-4.48-2.42-4.65
			c-0.99-0.12-1.7-1.38-2.4-2.61c-0.34-0.61-0.68-1.21-1.05-1.66c-1.11-1.38-1.99-2.04-4.18-1.86c-0.52,0.04-1.07,0.05-1.62,0.03
			c-0.85,0.39-1.69,1.45-4.03,4.98c-1.84,2.77-6.1,8.12-10.17,13.2c-5.26,6.59-10.18,12.75-9.02,12.32
			c0.85,0.22,1.43,0.67,1.11,1.38c4.54-2.53,15.13-8.35,21.2-11.43C348.89,109.16,350.01,108.48,352.75,106.5z"/>
		<path class="st0" d="M349.28,130.37c-0.67,0.71-1.35,1.18-2.08,1.13c-2.11-0.12-23.38-3.68-27.32-4.83
			c0.09-0.3-0.06-1.32,0.77-1.53l31.93-15.54c0.55-0.27,1.03-0.4,1.45-0.43c0.18,0.69,0.44,1.23,0.81,1.57
			c0.71,0.63,0.51,1.29,0.25,2.17c-0.18,0.62-0.4,1.35-0.36,2.25c0.01,0.32,0.05,0.69,0.08,1.1c0.2,2.44,0.51,6.27-1.62,8.58
			C351.66,126.49,350.42,128.51,349.28,130.37L349.28,130.37z"/>
		<path class="st0" d="M326.9,155.65c0.03,0.02,0.06,0.03,0.09,0.04c0.35-0.29,0.75-0.59,1.23-0.88c0.34-0.2,0.7-0.42,1.08-0.64
			c2.16-1.28,4.81-2.85,5.73-4.17c1.08-1.56,2.97-3.77,5.54-5.15c2.18-1.18,2.9-2.67,4.02-4.98c0.19-0.4,0.4-0.83,0.63-1.28
			c0.72-1.43,0.81-2.11,0.88-2.66c0.08-0.63,0.14-1.1,1.09-2.35c0.17-0.22,0.33-0.45,0.5-0.69c-0.19-0.09-0.39-0.15-0.54-0.18
			c-9.15-1.8-27.61-5.28-28.26-4.76c-0.43,0.35,0.02,0.44-0.65,1.21c-0.11,0.41-0.54,0.03-1.06,0.4
			C316.39,130.63,326.14,155.12,326.9,155.65z"/>
		<path class="st0" d="M306.5,164.93c0.01-0.07,0.02-0.14,0.04-0.23c0.09-0.36,0.43-2.17,0.92-4.77v0c1.75-9.28,5.4-28.71,6.5-29.39
			c1.12-0.69,1.71-0.41,1.87-0.19c3.05,7.86,8.81,22.73,10.09,26.28c-0.82,0.72-1.74,1.41-3.6,2.04c-1.98,0.67-2.51,1.48-2.98,2.21
			c-0.34,0.53-0.66,1.01-1.47,1.39c-1.95,0.89-7.99,2.12-10.39,2.46C307.13,164.77,306.8,164.84,306.5,164.93z"/>
		<path class="st0" d="M282.85,162.73c-0.33,0.34-0.35,0.66-0.18,0.96c0.1,0.03,0.2,0.06,0.3,0.09c0.71,0.22,1.56,0.66,2.5,1.14
			c2.01,1.03,4.43,2.27,6.79,2.08c1.54-0.13,3.2-0.03,4.76,0.07c1.93,0.12,3.7,0.22,4.9-0.12c0.94-0.27,1.66-0.65,2.37-1.04
			l0.07-0.04c0.12-0.17,0.23-0.36,0.3-0.57c0.68-1.93,9.2-35.04,7.96-34.81l-0.85-0.22C311.75,130.27,283.9,161.63,282.85,162.73z"
			/>
		<path class="st0" d="M272.66,154.33c-0.38-0.39-0.55-1.05-0.59-1.87c0.15-0.51,0.39-1.09,0.74-1.76c0.61-1.18,0.97-2.54,1.32-3.84
			c0.43-1.6,0.84-3.11,1.64-4.11c0,0,34.61-14.57,34.63-14.58c0.02-0.01-0.02,0.01,0,0c0.02-0.01,1.27,1.38,0.42,2.08l-29.16,32.8
			c-0.08,0.09-0.16,0.17-0.24,0.26c-1.69-0.53-3.24-1.19-3.97-3.05c-0.78-1.99-2.25-3.43-3.79-4.94
			C273.32,155,272.99,154.67,272.66,154.33z"/>
		<path class="st0" d="M277.69,140.73l32.69-12.99c-0.09-0.31,1.47-1.49,0.97-1.7c-3.53-1.46-22.29-6.66-24.23-6.96
			c-0.78-0.12-1.59,0.45-2.43,1.3c-0.41,0.72-1.25,1.7-2.2,2.81c-2.07,2.41-4.65,5.41-4.4,7.61c0.28,2.6-0.93,5.6-1.8,7.58
			C276.32,139.57,276.72,140.53,277.69,140.73z"/>
		<path class="st0" d="M340.08,92.31c-0.02,0.03-0.04,0.05-0.06,0.08c-0.79,1.01-14.81,20.32-21.71,29.85
			c0.21-0.29-0.83,0.21-0.74-0.09c-1.03,0.31,1.93-25.71,2.45-29.27c0.16-0.05,0.32-0.12,0.48-0.22c1.33-0.84,2.65-1.69,4.02-1.65
			c1.37,0.04,5.63-0.9,7.6-1.35s4.66,0.8,5.75,1.74C338.36,91.81,339.16,92.11,340.08,92.31z"/>
		<path class="st0" d="M317.3,93.1c-0.16-0.08-0.31-0.15-0.46-0.21c-0.3,0.05-0.61,0.14-0.94,0.29c-0.83,0.38-1.47,0.86-2.1,1.32
			c-0.84,0.62-1.66,1.23-2.91,1.59c-1.74,0.49-3.61,1.32-4.33,1.68c-0.42,0.03-1.49,0.47-2.43,1.96c-0.6,0.95-1.66,1.44-2.76,1.94
			l0,0c-0.27,0.12-0.54,0.25-0.8,0.38c-0.03,0.45,0.07,0.91,0.34,1.35l12.54,20.51c0.29-0.22,0.46-0.45,0.62-0.66
			c0.28-0.37,0.53-0.7,1.3-0.92c0.18-0.05,0.74-0.06,0.94-0.08l2.07-28.77C317.99,93.39,317.62,93.27,317.3,93.1z"/>
		<path class="st0" d="M298.59,103.5c0.07-0.01,0.14-0.02,0.21-0.03c0.4-0.06,0.84-0.16,1.29-0.3c0,0,12.76,21.43,12.58,21.74
			s-0.59,0.37-0.87,0.17l-25.09-7.04c-0.12-0.03-0.23-0.07-0.33-0.12c0.25-0.27,0.5-0.52,0.74-0.77c0.7-0.71,1.3-1.33,1.47-1.89
			c0.36-1.21,3.21-5.55,5.03-7.02c1.82-1.47,3.44-2.78,4.93-4.66C298.56,103.54,298.58,103.52,298.59,103.5z"/>
	</g>
</g>
<g id="_x30_05">
	<g>
		<path class="st0" d="M367.22,257.87c1.12,0.86,2.4,1.7,3.73,2.48c19.48,15.04,51.99,18.29,75.21-7.44
			c23.01-25.49,20.49-50.36,13.97-65.39c-0.37-1.28-0.85-2.36-1.46-3.13l-0.06-0.08c-1.26-2.44-2.6-4.53-3.9-6.22
			c-2-3.52-4.06-7.12-6.41-8.86c-1.94-1.44-3.37-2.26-4.8-3.09L367.22,257.87z"/>
		<path class="st1" d="M416.59,244.96c4.02-2.76,9.72-9.23,12.07-12.13c1.61-1.93,4.82-5.8,7.08-9.38c2.25-3.58,6.79-8.16,7.9-10.15
			c1.11-1.98,4.8-11.63,6.24-15.52c1.43-3.89,4.77-15.29,3.14-18.1s-2.26-8.78-4.57-10.34c-2.31-1.56-3.59-1.54-5.91-3.1
			c-2.31-1.56-3.81-0.62-7.95,0.66c-4.14,1.28-7.91,2.14-15.01,5.68c-7.1,3.54-13.06,8.76-15.45,10.77
			c-2.39,2.01-9.74,8.25-12.07,11.04s-6.08,8.39-7.54,9.72c-1.46,1.33-8.22,9.88-9.86,13.6c-1.65,3.72-6.62,12.3-8.09,16.89
			s-1.53,13.99-0.96,15.91c0.57,1.92,0.67,4.19,1.8,6.95c1.13,2.76,7.47,5.12,10.57,4.43c3.1-0.69,7.02,1.11,11.44-0.3
			c4.42-1.41,9.81-4.2,14.59-8.21C408.78,249.36,411.56,248.4,416.59,244.96z"/>
		<path class="st0" d="M383.86,253.83c-0.29,0.38-0.57,0.72-0.85,1.03c-0.72,0.11-1.47,0.27-2.2,0.44
			c-2.73,0.65-3.91-0.34-3.84-1.74c0.05-0.94-0.99-1.46-2-1.98c-0.5-0.25-0.99-0.5-1.34-0.8c-1.08-0.9-1.55-1.65-1.05-3.79
			c0.12-0.51,0.21-1.04,0.28-1.56c0.48-0.87,1.57-1.81,5.13-4.51c2.79-2.12,8.29-6.9,13.52-11.45c6.78-5.9,13.11-11.41,12.54-10.23
			c0.07,0.79,0.38,1.29,1.08,0.9c-2.98,4.68-9.88,15.61-13.6,21.84C386.86,249.77,386.08,250.94,383.86,253.83z"/>
		<path class="st0" d="M406,247.46c0.75-0.74,1.27-1.45,1.35-2.15c0.21-2.01,0.25-22.01-0.19-25.65c-0.29,0.13-1.18,0.11-1.51,0.93
			l-18.97,32.68c-0.33,0.57-0.52,1.05-0.61,1.45c0.59,0.08,1.05,0.26,1.29,0.58c0.46,0.6,1.09,0.33,1.92-0.03
			c0.59-0.26,1.28-0.56,2.1-0.63c0.29-0.03,0.62-0.04,0.99-0.06c2.17-0.12,5.6-0.3,8.02-2.65
			C402.13,250.24,404.14,248.79,406,247.46L406,247.46z"/>
		<path class="st0" d="M432.33,222.74c0.01,0.02,0.02,0.05,0.02,0.08c-0.32,0.38-0.64,0.79-0.99,1.3c-0.24,0.35-0.49,0.73-0.75,1.12
			c-1.49,2.23-3.32,4.99-4.66,6.04c-1.58,1.24-3.87,3.34-5.52,5.98c-1.4,2.25-2.86,3.13-5.13,4.49c-0.39,0.24-0.81,0.49-1.25,0.76
			c-1.41,0.87-2.03,1.04-2.54,1.18c-0.58,0.16-1.02,0.28-2.3,1.35c-0.23,0.19-0.46,0.38-0.7,0.57c-0.06-0.17-0.08-0.35-0.08-0.5
			c-0.23-8.57-0.55-25.88,0.03-26.57c0.38-0.46,0.39-0.04,1.2-0.78c0.39-0.15,0.11-0.52,0.52-1.07
			C411.28,215.8,431.97,222.07,432.33,222.74z"/>
		<path class="st0" d="M443.86,201.95c-0.06,0.01-0.13,0.04-0.22,0.07c-0.34,0.13-2.03,0.69-4.46,1.49l0,0
			c-8.67,2.85-26.83,8.83-27.61,9.97c-0.8,1.17-0.64,1.7-0.46,1.82c6.65,1.94,19.23,5.59,22.25,6.37c0.77-0.88,1.54-1.85,2.4-3.72
			c0.92-1.99,1.72-2.6,2.46-3.15c0.53-0.39,1.02-0.76,1.48-1.59c1.11-1.99,3.15-7.95,3.82-10.3
			C443.63,202.56,443.74,202.25,443.86,201.95z"/>
		<path class="st0" d="M445.5,179.48c0.36-0.36,0.65-0.42,0.9-0.3c0.01,0.09,0.02,0.18,0.04,0.27c0.09,0.66,0.35,1.42,0.65,2.26
			c0.62,1.8,1.37,3.97,0.84,6.26c-0.35,1.5-0.51,3.08-0.67,4.57c-0.19,1.84-0.37,3.53-0.86,4.73c-0.39,0.94-0.85,1.68-1.3,2.41
			l-0.04,0.07c-0.18,0.14-0.36,0.26-0.56,0.36c-1.85,0.9-33.14,13.28-32.74,12.06l-0.07-0.79
			C411.67,211.39,444.34,180.63,445.5,179.48z"/>
		<path class="st0" d="M439.45,170.74c-0.29-0.32-0.86-0.4-1.6-0.33c-0.49,0.21-1.05,0.51-1.71,0.93c-1.16,0.73-2.45,1.26-3.68,1.76
			c-1.51,0.62-2.95,1.2-3.97,2.1c0,0-18.5,35.13-18.51,35.15s0.01-0.02,0,0s1.06,1.05,1.82,0.14l34.18-32.19
			c0.09-0.09,0.18-0.17,0.27-0.26c-0.22-1.56-0.58-2.96-2.16-3.43c-1.68-0.5-2.76-1.73-3.89-3.02
			C439.96,171.3,439.71,171.02,439.45,170.74z"/>
		<path class="st0" d="M426.37,177.3l-16.78,33.08c-0.26-0.05-1.57,1.61-1.68,1.15c-0.78-3.21-2.62-20.59-2.58-22.42
			c0.01-0.74,0.66-1.59,1.55-2.5c0.71-0.48,1.73-1.42,2.88-2.47c2.5-2.29,5.61-5.15,7.57-5.2c2.31-0.06,5.21-1.61,7.14-2.69
			C425.53,176.13,426.33,176.4,426.37,177.3z"/>
		<path class="st0" d="M372.95,243.44c0.03-0.02,0.05-0.04,0.08-0.07c1.03-0.89,20.67-16.81,30.36-24.66
			c-0.3,0.24,0.32-0.83,0.03-0.7c0.44-1.03-23.57,5.11-26.88,6.07c-0.07,0.16-0.16,0.32-0.28,0.49c-0.97,1.38-1.93,2.76-2.11,4.07
			c-0.18,1.31-1.68,5.53-2.39,7.48c-0.71,1.96,0.01,4.38,0.69,5.31C372.76,241.85,372.92,242.57,372.95,243.44z"/>
		<path class="st0" d="M377.16,221.43c-0.05-0.14-0.09-0.28-0.12-0.41c0.09-0.29,0.22-0.6,0.41-0.94c0.47-0.85,1-1.53,1.52-2.19
			c0.69-0.89,1.37-1.75,1.88-3c0.71-1.74,1.75-3.64,2.18-4.38c0.1-0.41,0.66-1.49,2.15-2.58c0.95-0.7,1.56-1.78,2.18-2.9l0,0
			c0.15-0.27,0.31-0.55,0.47-0.82c0.42-0.09,0.81-0.05,1.17,0.16l16.65,9.46c-0.25,0.3-0.48,0.5-0.69,0.68
			c-0.37,0.32-0.71,0.6-1.04,1.36c-0.08,0.18-0.17,0.72-0.21,0.91l-26.37,5.63C377.32,222.05,377.27,221.72,377.16,221.43z"/>
		<path class="st0" d="M389.45,202.12c-0.02,0.07-0.04,0.13-0.06,0.2c-0.11,0.4-0.28,0.83-0.47,1.28c0,0,17.45,9.56,17.75,9.34
			c0.3-0.21,0.42-0.61,0.29-0.86l-2.53-23.24c-0.01-0.11-0.03-0.21-0.06-0.31c-0.28,0.27-0.55,0.54-0.81,0.81
			c-0.75,0.76-1.41,1.42-1.93,1.65c-1.15,0.5-5.52,3.79-7.13,5.73c-1.61,1.94-3.04,3.66-4.98,5.33
			C389.49,202.09,389.47,202.1,389.45,202.12z"/>
	</g>
</g>
<g id="_x30_04">
	<g>
		<path class="st3" d="M274.85,299.28c-22.35,22.38-60.83,33.98-89.84,9.23c-28.74-24.52-27.08-54.43-20.14-73.68
			c0.37-1.59,0.89-2.98,1.57-4.04c0.02-0.03,0.04-0.07,0.07-0.1c1.37-3.17,2.85-5.96,4.3-8.26c2.19-4.63,4.44-9.36,7.14-11.97
			c2.24-2.16,3.9-3.48,5.56-4.8c1.66-1.32,3.32-2.64,5.56-4.8c3.77-3.64,5.92-3.96,10.4-4.64c0.84-0.13,1.77-0.27,2.81-0.45
			c1.04-0.18,2.07-0.37,3.11-0.56c5.48-1.01,11.21-2.06,20.22-1.85c9.99,0.24,17.78,3.6,21.48,5.19c0.27,0.12,0.52,0.22,0.74,0.32
			c3.32,1.41,13.49,5.84,16.4,8.57c1.24,1.16,2.74,2.95,4.2,4.7c1.97,2.36,3.88,4.64,5.02,5.23c1.99,1.02,10.31,9.67,11.74,14.43
			c0.51,1.7,1.52,4.09,2.64,6.74c2.01,4.75,4.37,10.36,4.9,14.41c0.14,1.05,0.16,2.36,0.09,3.81c1.2,9.9-1.83,20.26-7.75,29.75
			c-0.58,1.29-1.25,2.68-2.08,4.2C281.62,293.21,278.41,296.43,274.85,299.28z"/>
		<path class="st1" d="M205.23,306.61c-5.66-1.3-12.74-7.23-15.57-10.03c-1.97-1.83-5.88-5.52-8.31-9.47
			c-2.43-3.95-8.27-7.77-9.39-10.07c-1.12-2.3-3.74-14.78-4.7-19.87c-0.96-5.08-2.37-20.6,1.35-26.3c3.71-5.7,6.91-15.65,11.3-19.89
			c4.39-4.24,6.5-5.18,10.88-9.41c4.39-4.24,6.53-3.9,12.9-5.02c6.37-1.12,12.31-2.64,22.77-2.44c10.46,0.21,18.43,3.93,21.66,5.29
			c3.23,1.36,13.13,5.65,15.96,8.3c2.83,2.66,7.01,8.67,8.96,9.66c1.94,0.99,10.02,9.4,11.4,14.04c1.38,4.64,6.5,14.46,7.27,20.61
			c0.77,6.16-2.53,21.02-4.16,24.5c-1.63,3.48-2.62,7.15-5.49,12.39c-2.87,5.24-14.2,13.82-19.08,15.09s-12,7.11-18.8,8.25
			c-6.8,1.13-14.7,0.82-21.16-1.9C216.55,307.64,212.3,308.24,205.23,306.61z"/>
		<path class="st0" d="M255.95,294.91c0.34,0.38,0.69,0.7,1.03,0.99c1.15-0.37,2.32-0.69,3.45-0.96c4.24-1.03,6.54-3.47,6.92-5.62
			c0.25-1.44,2.13-3.05,3.97-4.61c0.9-0.77,1.8-1.54,2.49-2.27c2.08-2.22,3.12-3.76,3.05-6.74c-0.02-0.71,0.02-1.47,0.09-2.24
			c-0.49-1-1.94-1.67-6.82-3.24c-3.84-1.24-11.16-4.63-18.12-7.87c-9.03-4.19-17.47-8.11-16.96-6.69c-0.4,1.3-1.09,2.32-2.08,2.22
			c3.24,5.13,10.7,17.14,14.6,24.15C252.44,290.79,253.32,292.03,255.95,294.91z"/>
		<path class="st0" d="M221.87,301.52c-0.97-0.6-1.57-1.33-1.45-2.37c0.36-3,7.35-34.45,9.35-40.51c0.43-0.02,1.9-0.72,2.14,0.34
			l19.58,37.18c0.34,0.64,0.49,1.25,0.49,1.82c-1,0.58-1.82,1.21-2.33,1.88c-0.97,1.29-1.9,1.33-3.14,1.39
			c-0.87,0.04-1.9,0.09-3.21,0.58c-0.46,0.17-1,0.39-1.59,0.64c-3.52,1.45-9.07,3.73-12.21,1.85
			C227.24,302.98,224.45,302.22,221.87,301.52L221.87,301.52z"/>
		<path class="st0" d="M187.42,282.38c-0.03,0.05-0.05,0.09-0.06,0.15c0.39,0.35,0.78,0.76,1.16,1.3c0.26,0.37,0.54,0.78,0.83,1.2
			c1.65,2.4,3.68,5.36,5.51,6.01c2.15,0.76,5.17,2.35,6.94,5.26c1.51,2.48,3.59,2.77,6.82,3.22c0.56,0.08,1.15,0.16,1.79,0.26
			c2,0.32,2.97,0.12,3.76-0.05c0.9-0.19,1.57-0.33,3.29,0.4c0.3,0.13,0.62,0.25,0.96,0.37c0.15-0.31,0.26-0.61,0.31-0.84
			c3.4-13.66,10.02-41.13,9.32-41.79c-0.46-0.43-0.63,0.24-1.69-0.33c-0.59,0.05,0-0.74-0.48-1.29
			C224.38,255.67,188.25,281.07,187.42,282.38z"/>
		<path class="st0" d="M175.84,258.33c0.1-0.02,0.21-0.04,0.33-0.05c0.52-0.05,3.08-0.44,6.79-1.01l0,0
			c13.21-2.02,40.88-6.24,41.76-5.04c0.9,1.23,0.45,2.19,0.11,2.52c-11.59,8.05-33.51,23.23-38.73,26.73
			c-0.96-0.8-1.87-1.76-2.62-4.06c-0.8-2.45-1.91-2.79-2.92-3.1c-0.73-0.22-1.4-0.43-1.87-1.39c-1.12-2.3-2.35-10.15-2.64-13.34
			C176.01,259.12,175.94,258.71,175.84,258.33z"/>
		<path class="st0" d="M181.08,224.2c-0.46-0.29-0.92-0.17-1.37,0.21c-0.05,0.15-0.1,0.31-0.16,0.46c-0.38,1.1-1.08,2.5-1.86,4.04
			c-1.66,3.31-3.65,7.29-3.58,10.49c0.05,2.1-0.24,4.46-0.51,6.68c-0.34,2.75-0.64,5.28-0.26,6.79c0.3,1.19,0.8,2.01,1.28,2.82
			l0.05,0.08c0.24,0.09,0.5,0.14,0.79,0.14c2.71,0.03,49.67-3.98,49.43-5.6l0.4-1.3C225.3,249.02,182.57,225.15,181.08,224.2z"/>
		<path class="st0" d="M194.07,205.92c0.59-0.72,1.56-1.28,2.74-1.72c0.73-0.03,1.54,0.02,2.48,0.18c1.65,0.28,3.57,0.14,5.41,0
			c2.27-0.17,4.41-0.32,5.77,0.32c0,0,17.95,41.39,17.96,41.4c0.01,0.02-0.01-0.02,0,0c0.01,0.02-2.1,2.44-3.03,1.58l-44.69-25
			c-0.12-0.07-0.24-0.14-0.35-0.21c0.91-2.62,2-5.1,4.75-7.02c2.94-2.05,5.14-4.8,7.44-7.67
			C193.05,207.17,193.55,206.55,194.07,205.92z"/>
		<path class="st0" d="M213.22,206.42l15.85,39.45c0.45-0.27,2.01,1.35,2.36,0.54c2.42-5.64,11.55-34.36,12.14-37.22
			c0.24-1.15-0.51-2.01-1.66-2.77c-1-0.23-2.34-0.93-3.85-1.73c-3.28-1.73-7.38-3.89-10.58-2.5c-3.77,1.65-7.98,1.38-10.77,1.13
			C215.01,203.94,213.59,204.97,213.22,206.42z"/>
		<path class="st0" d="M277.49,270.38c-0.04-0.01-0.07-0.03-0.11-0.04c-1.38-0.63-27.96-10.94-41.08-16.01
			c0.4,0.16-0.24-1.06,0.19-1.07c-0.35-1.3,36.85-9.66,41.94-10.63c0.06,0.2,0.15,0.39,0.28,0.57c1.1,1.45,2.2,2.9,2.02,4.82
			c-0.17,1.93,0.8,7.44,1.28,9.98c0.48,2.54-1.56,6.89-3.01,8.87C278.36,267.74,277.85,268.99,277.49,270.38z"/>
		<path class="st0" d="M278.34,238.92c0.13-0.26,0.25-0.51,0.35-0.74c-0.05-0.39-0.15-0.78-0.34-1.17c-0.48-0.98-1.1-1.65-1.72-2.3
			c-0.82-0.88-1.63-1.73-2.03-3.3c-0.56-2.2-1.59-4.42-2.03-5.25c-0.01-0.57-0.55-1.85-2.61-2.45c-1.32-0.38-1.93-1.63-2.56-2.92
			l0,0c-0.15-0.32-0.31-0.63-0.48-0.94c-0.65,0.17-1.32,0.53-1.98,1.13l-30.64,27.39c0.3,0.29,0.61,0.42,0.9,0.55
			c0.5,0.22,0.96,0.41,1.22,1.37c0.06,0.22,0.02,1.01,0.03,1.28l41.25-10.93C277.87,240.01,278.07,239.44,278.34,238.92z"/>
		<path class="st0" d="M265.01,217.76c0.01,0.09,0.02,0.18,0.03,0.27c0.04,0.54,0.16,1.1,0.32,1.66c0,0-31.99,28.14-32.41,28.03
			c-0.42-0.11-0.48-0.65-0.17-1.13l12.34-38.46c0.06-0.19,0.13-0.36,0.2-0.52c0.36,0.22,0.71,0.44,1.04,0.66
			c0.97,0.63,1.81,1.18,2.59,1.15c1.7-0.07,7.72,1.81,9.68,3.65c1.96,1.84,3.7,3.47,6.29,4.65
			C264.95,217.73,264.98,217.74,265.01,217.76z"/>
	</g>
</g>
<g id="_x30_03">
	<g>
		<path class="st0" d="M64.16,341.39c-0.58,2.08-1.05,4.38-1.4,6.72c-10.33,36.24,4.5,84.68,56.24,103.82
			c51.26,18.96,86.23,1.61,104.33-16.03c1.65-1.24,2.95-2.52,3.71-3.83l0.08-0.13c2.81-3.16,5.07-6.23,6.78-9.02
			c3.96-4.81,8.01-9.75,9.13-14.08c0.93-3.58,1.29-6.09,1.64-8.6L64.16,341.39z"/>
		<path class="st1" d="M112.85,405.11c6.47,4.25,19.4,8.86,25.06,10.63c3.8,1.25,11.41,3.72,18.02,4.98
			c6.6,1.26,16.06,5.24,19.64,5.73c3.58,0.5,19.95,0.47,26.53,0.38c6.58-0.09,25.3-1.58,28.44-5.47
			c3.14-3.89,11.52-8.09,12.42-12.26c0.9-4.18,0.09-6,0.98-10.18c0.89-4.18-1.38-5.81-5.76-11.04c-4.38-5.23-7.91-10.17-17.38-18.4
			c-9.48-8.23-20.72-13.91-25.11-16.23c-4.39-2.32-17.97-9.43-23.46-11.23c-5.5-1.79-15.97-4.09-18.8-5.46s-19.44-6.34-25.89-6.65
			s-22.03-2.71-29.65-2.29c-7.62,0.42-21.44,5.52-23.92,7.39c-2.48,1.87-5.74,3.27-9.11,6.42c-3.36,3.15-3.01,13.54-0.13,17.61
			c2.88,4.07,2.6,10.68,7.33,16.24c4.73,5.56,12.07,11.75,20.84,16.4C101.68,396.33,104.76,399.8,112.85,405.11z"/>
		<path class="st0" d="M80.11,363.04c-0.73-0.21-1.4-0.43-2.03-0.65c-0.6-0.97-1.28-1.96-1.97-2.91c-2.59-3.56-1.86-5.8,0.24-6.47
			c1.4-0.45,1.55-2.22,1.7-3.96c0.07-0.85,0.14-1.7,0.36-2.37c0.67-2.04,1.49-3.13,4.92-3.59c0.82-0.11,1.65-0.27,2.45-0.46
			c1.56,0.21,3.6,1.26,9.7,4.88c4.79,2.84,15.11,8.09,24.94,13.08c12.73,6.47,24.63,12.51,22.57,12.35
			c-1.11,0.54-1.66,1.26-0.67,2.04c-8.67-1.7-28.85-5.57-40.23-7.47C87.87,365.11,85.69,364.63,80.11,363.04z"/>
		<path class="st0" d="M102.8,391.3c1.53,0.67,2.89,1.03,3.96,0.75c3.08-0.8,32.44-11.78,37.52-14.42
			c-0.36-0.34-0.87-1.64-2.28-1.65l-59.36-9.19c-1.03-0.16-1.85-0.17-2.49-0.07c0.24,0.9,0.25,1.65-0.07,2.18
			c-0.6,1,0.17,1.74,1.21,2.74c0.73,0.7,1.59,1.53,2.19,2.66c0.21,0.4,0.44,0.86,0.69,1.38c1.48,3.06,3.81,7.87,8.72,10.04
			C96.39,387.28,99.72,389.37,102.8,391.3L102.8,391.3z"/>
		<path class="st0" d="M154.93,415.44c-0.03,0.03-0.06,0.05-0.11,0.07c-0.74-0.25-1.55-0.49-2.5-0.7c-0.65-0.15-1.36-0.3-2.09-0.46
			c-4.17-0.9-9.32-2.01-11.67-3.35c-2.77-1.58-7.23-3.71-12.09-4.62c-4.14-0.77-6.31-2.38-9.68-4.88c-0.58-0.43-1.2-0.89-1.88-1.38
			c-2.13-1.54-2.76-2.34-3.27-3c-0.58-0.75-1.02-1.31-3.36-2.55c-0.41-0.22-0.83-0.45-1.26-0.7c0.22-0.17,0.47-0.31,0.68-0.4
			c12.43-5.06,37.64-15.06,38.99-14.62c0.9,0.29,0.29,0.55,1.86,1.29c0.46,0.47,0.84-0.13,1.89,0.16
			C152.42,381.42,155.68,414.55,154.93,415.44z"/>
		<path class="st0" d="M192.37,420.52c-0.06-0.08-0.14-0.17-0.23-0.27c-0.4-0.42-2.23-2.53-4.87-5.58l0,0
			c-9.41-10.86-29.13-33.62-31.27-34.12c-2.19-0.5-2.88,0.02-2.94,0.35c1.16,10.61,3.39,30.68,4.06,35.44
			c1.75,0.63,3.64,1.19,6.91,1.39c3.48,0.21,4.85,1.04,6.1,1.79c0.9,0.54,1.73,1.04,3.23,1.25c3.59,0.49,13.56,0.13,17.41-0.2
			C191.33,420.52,191.86,420.51,192.37,420.52z"/>
		<path class="st0" d="M226.32,410.47c0.74,0.32,1.01,0.7,0.98,1.13c-0.13,0.07-0.25,0.14-0.38,0.21c-0.91,0.49-1.87,1.29-2.92,2.17
			c-2.27,1.89-5,4.16-8.68,4.66c-2.41,0.32-4.83,0.96-7.1,1.56c-2.81,0.74-5.39,1.42-7.45,1.37c-1.61-0.04-2.98-0.29-4.32-0.54
			l-0.13-0.02c-0.31-0.17-0.6-0.37-0.86-0.61c-2.43-2.16-39.46-40.23-37.43-40.32l1.11-0.54
			C159.13,379.54,223.93,409.45,226.32,410.47z"/>
		<path class="st0" d="M235.49,396.98c0.29-0.59,0.07-1.46-0.48-2.48c-0.6-0.58-1.39-1.22-2.4-1.94c-1.78-1.27-3.32-2.82-4.79-4.31
			c-1.82-1.83-3.53-3.57-5.48-4.54c0,0-62.68-7.17-62.71-7.17c-0.03-0.01,0.03,0,0,0c-0.03-0.01-0.9,2.09,0.9,2.69l67.82,31.28
			c0.18,0.09,0.37,0.17,0.54,0.24c2.16-1.17,4-2.47,3.73-4.99c-0.28-2.69,0.87-4.92,2.08-7.25
			C234.98,398.01,235.24,397.5,235.49,396.98z"/>
		<path class="st0" d="M217.98,381.82L159.35,376c-0.09-0.4-3.3-1.37-2.7-1.78c4.23-2.89,28.62-15.11,31.34-16.07
			c1.09-0.39,2.72,0.06,4.61,0.85c1.14,0.76,3.13,1.7,5.37,2.77c4.87,2.32,10.94,5.21,12.19,7.99c1.48,3.29,5.5,6.59,8.25,8.77
			C219.19,379.97,219.29,381.28,217.98,381.82z"/>
		<path class="st0" d="M88.78,341.66c0.05,0.03,0.1,0.05,0.15,0.08c1.93,0.99,37.12,20.38,54.47,29.96
			c-0.53-0.29,1.4,0.01,1.05-0.34c1.78,0.06-21.7-31.01-25.1-35.23c-0.28-0.01-0.57-0.05-0.89-0.12c-2.61-0.63-5.22-1.25-7.25-0.78
			c-2.03,0.47-9.12,0.64-12.42,0.69s-6.42,2.42-7.37,3.92C91,340.51,90.03,341.13,88.78,341.66z"/>
		<path class="st0" d="M123.6,335.56c0.17-0.15,0.35-0.29,0.53-0.41c0.48-0.03,1.02-0.01,1.62,0.07c1.53,0.21,2.84,0.59,4.12,0.97
			c1.72,0.51,3.4,1,5.53,1.05c2.98,0.07,6.4,0.51,7.74,0.72c0.65-0.09,2.59,0.12,5.09,1.66c1.6,0.98,3.55,1.25,5.56,1.53l0,0
			c0.49,0.07,0.99,0.14,1.49,0.22c0.38,0.55,0.56,1.14,0.48,1.77l-3.84,29.11c-0.59-0.19-1.02-0.41-1.42-0.62
			c-0.69-0.36-1.31-0.69-2.62-0.73c-0.31-0.01-1.16,0.16-1.47,0.2l-24.15-34.73C122.78,336.13,123.24,335.87,123.6,335.56z"/>
		<path class="st0" d="M159.32,342.54c-0.11,0.01-0.22,0.02-0.33,0.03c-0.65,0.06-1.38,0.06-2.17,0.03c0,0-3.5,30.31-3.01,30.62
			c0.5,0.32,1.15,0.27,1.43-0.06l32.56-16.45c0.16-0.08,0.3-0.16,0.41-0.25c-0.57-0.25-1.13-0.49-1.67-0.72
			c-1.57-0.66-2.94-1.24-3.59-1.86c-1.43-1.37-8.88-5.83-12.7-7.08c-3.81-1.24-7.21-2.35-10.82-4.21
			C159.41,342.58,159.37,342.56,159.32,342.54z"/>
	</g>
</g>
<g id="_x30_02">
	<g>
		<path class="st3" d="M370.91,529.97c51.04,29.7,126.56,31.47,168.14-28.64c41.19-59.54,24.44-113.55,2.94-145.34
			c-1.41-2.73-2.98-5.02-4.72-6.61c-0.06-0.05-0.11-0.1-0.17-0.16c-3.96-5.12-7.94-9.48-11.63-12.97
			c-6.12-7.38-12.39-14.92-18.51-18.33c-5.08-2.83-8.71-4.41-12.35-5.99s-7.27-3.16-12.35-5.98c-8.54-4.76-12.62-4.27-21.1-3.24
			c-1.6,0.19-3.36,0.41-5.33,0.61c-1.98,0.2-3.95,0.38-5.94,0.55c-10.45,0.93-21.39,1.91-37.73,6.87
			c-18.12,5.5-30.8,15.62-36.81,20.42c-0.44,0.35-0.84,0.67-1.21,0.96c-5.4,4.26-21.93,17.54-25.99,24.04
			c-1.73,2.77-3.63,6.81-5.5,10.76c-2.51,5.32-4.94,10.48-6.76,12.14c-3.17,2.88-14.36,22.97-14.8,32.42
			c-0.16,3.39-0.9,8.27-1.73,13.71c-1.48,9.73-3.23,21.21-2.33,28.91c0.23,2,0.79,4.4,1.58,7.03c2.36,18.76,12.64,36.23,27.79,50.64
			c1.65,2.08,3.51,4.28,5.72,6.65C355.76,522.27,363.1,526.53,370.91,529.97z"/>
		<path class="st1" d="M501.29,508.09c9.73-5.26,19.93-19.72,23.82-26.29c2.76-4.35,8.19-13.1,10.82-21.59
			c2.62-8.49,11.53-18.44,12.51-23.23c0.98-4.79,0.03-29.01-0.54-38.82c-0.57-9.81-5.13-38.99-14.52-47.56
			c-9.39-8.57-19.78-25.2-29.73-30.75c-9.95-5.54-14.23-6.2-24.18-11.74c-9.94-5.55-13.7-3.84-25.84-2.65
			c-12.14,1.18-23.68,1.4-42.65,7.08c-18.98,5.68-31.82,16.56-37.08,20.69c-5.27,4.13-21.37,17.02-25.32,23.32
			c-3.95,6.31-8.82,19.46-11.91,22.26c-3.09,2.79-13.96,22.32-14.35,31.53c-0.39,9.21-5.23,29.81-3.82,41.49
			c1.41,11.68,14.25,37.27,18.82,42.83c4.57,5.56,8.05,11.79,15.7,19.94c7.64,8.15,32.25,18.14,41.73,17.99s25.16,6.96,38.08,5.59
			c12.93-1.37,27.19-5.95,37.73-14.21C481.09,515.72,489.13,514.67,501.29,508.09z"/>
		<path class="st0" d="M403.39,512.36c-0.45,0.86-0.93,1.64-1.43,2.34c-2.26-0.09-4.54-0.08-6.73-0.01
			c-8.21,0.26-13.52-3.05-15.19-6.8c-1.12-2.51-5.29-4.5-9.37-6.45c-2.01-0.96-3.99-1.9-5.58-2.9c-4.82-3.01-7.41-5.31-8.66-10.82
			c-0.3-1.31-0.7-2.69-1.2-4.07c0.43-2.08,2.77-4.04,10.96-9.41c6.43-4.21,18.23-14.16,29.46-23.63
			c14.55-12.27,28.15-23.73,27.87-20.86c1.32,2.18,3.05,3.71,4.82,3.01c-3.56,11.05-11.65,36.86-15.57,51.7
			C407.89,503.02,406.85,505.74,403.39,512.36z"/>
		<path class="st0" d="M468.59,507.19c1.49-1.59,2.26-3.23,1.56-5.07c-2.04-5.32-29.21-59.45-35.64-69.55
			c-0.79,0.18-3.8-0.35-3.75,1.71l-18.67,78.11c-0.32,1.35-0.32,2.55-0.05,3.59c2.1,0.55,3.87,1.29,5.11,2.27
			c2.37,1.88,4.08,1.48,6.37,0.96c1.61-0.37,3.51-0.81,6.13-0.57c0.92,0.09,2,0.22,3.2,0.37c7.1,0.87,18.26,2.24,23.13-2.8
			c3.49-3.6,8.23-6.42,12.6-9.01L468.59,507.19z"/>
		<path class="st0" d="M522.66,454.62c0.07,0.07,0.13,0.15,0.18,0.24c-0.55,0.84-1.07,1.79-1.52,2.97c-0.31,0.82-0.63,1.7-0.97,2.62
			c-1.91,5.24-4.26,11.69-7.3,13.81c-3.57,2.49-8.36,6.93-10.25,13.17c-1.61,5.32-5.28,6.91-10.97,9.37
			c-0.99,0.43-2.03,0.88-3.14,1.38c-3.51,1.6-5.36,1.72-6.87,1.82c-1.73,0.11-3.02,0.2-5.82,2.4c-0.49,0.39-1.02,0.77-1.58,1.15
			c-0.42-0.49-0.75-0.99-0.96-1.39c-12.46-23.32-37.15-70.36-36.18-71.91c0.64-1.03,1.27,0.12,2.93-1.45
			c1.09-0.2-0.33-1.35,0.29-2.61C442.99,424.37,520.55,452.63,522.66,454.62z"/>
		<path class="st0" d="M532.76,404.63c-0.19,0.01-0.39,0.03-0.63,0.07c-0.96,0.17-5.82,0.75-12.84,1.6l0,0
			c-25.02,3-77.45,9.29-78.5,11.94c-1.08,2.72,0.19,4.25,0.96,4.67c24.83,8.88,71.79,25.61,82.92,29.38
			c1.38-1.96,2.61-4.17,2.92-8.77c0.33-4.9,2.21-6.09,3.91-7.17c1.22-0.78,2.36-1.5,2.77-3.5c0.98-4.79-0.36-19.8-1.3-25.8
			C532.82,406.17,532.76,405.37,532.76,404.63z"/>
		<path class="st0" d="M507.54,344.71c0.71-0.77,1.6-0.78,2.6-0.31c0.16,0.25,0.33,0.51,0.5,0.76c1.2,1.83,3.12,4.03,5.24,6.46
			c4.54,5.22,10.01,11.51,11.35,17.41c0.88,3.87,2.49,8.06,4,11.99c1.87,4.87,3.6,9.35,3.59,12.33c-0.01,2.33-0.53,4.09-1.05,5.82
			l-0.05,0.16c-0.39,0.29-0.85,0.51-1.38,0.67c-4.94,1.42-92.44,17.89-92.76,14.81l-1.32-2.18
			C438.25,412.64,505.26,347.19,507.54,344.71z"/>
		<path class="st0" d="M475.46,317.76c-1.4-1.01-3.43-1.56-5.79-1.77c-1.34,0.31-2.79,0.82-4.43,1.59
			c-2.88,1.35-6.45,2.06-9.87,2.75c-4.21,0.84-8.19,1.64-10.38,3.52c0,0-13.77,85.01-13.78,85.05c-0.01,0.04,0.01-0.04,0,0
			c-0.01,0.04,4.95,3.41,6.26,1.36l70.07-68.52c0.19-0.19,0.37-0.37,0.54-0.56c-2.86-4.34-5.99-8.34-11.88-10.47
			c-6.3-2.27-11.57-6.19-17.1-10.29C477.89,319.54,476.69,318.65,475.46,317.76z"/>
		<path class="st0" d="M440.75,328.39l-10.82,80.4c-0.94-0.27-3.06,3.49-4.05,2.19c-6.99-9.11-36.83-57.15-39.22-62.1
			c-0.96-1.99,0.02-3.94,1.76-5.93c1.72-0.92,3.84-2.9,6.23-5.13c5.2-4.84,11.69-10.89,18.15-9.95c7.64,1.11,15.19-1.51,20.16-3.39
			C436.35,324.76,439.4,325.92,440.75,328.39z"/>
		<path class="st0" d="M352.83,478.29c0.06-0.04,0.12-0.09,0.19-0.14c2.23-1.85,46-34.24,67.61-50.21
			c-0.66,0.49-0.05-2.06-0.84-1.88c0.05-2.56-71.67,0.98-81.4,1.77c-0.01,0.4-0.09,0.79-0.25,1.18c-1.34,3.21-2.68,6.43-1.48,9.88
			c1.2,3.45,1.95,14.04,2.23,18.95s6,11.85,9.55,14.75C350.03,473.89,351.54,475.93,352.83,478.29z"/>
		<path class="st0" d="M336.84,421.02c-0.36-0.41-0.69-0.8-0.98-1.19c-0.09-0.74-0.08-1.51,0.08-2.32c0.42-2.05,1.26-3.58,2.08-5.09
			c1.1-2.03,2.18-4,2.19-7.09c0.01-4.31,0.87-8.91,1.3-10.66c-0.24-1.05,0.16-3.68,3.64-5.82c2.23-1.37,2.77-3.97,3.33-6.65l0,0
			c0.14-0.66,0.27-1.32,0.44-1.97c1.27-0.01,2.65,0.31,4.13,1.06l68.47,34.69c-0.41,0.69-0.91,1.09-1.39,1.46
			c-0.82,0.65-1.55,1.24-1.59,3.13c-0.01,0.44,0.43,1.87,0.54,2.36l-80.28,0.87C338.21,422.79,337.57,421.84,336.84,421.02z"/>
		<path class="st0" d="M351.46,375.45c0.02,0.17,0.05,0.34,0.08,0.52c0.17,1.01,0.21,2.1,0.17,3.21c0,0,71.26,35.38,71.98,34.96
			s0.57-1.43-0.2-2.16l-40.16-64.28c-0.19-0.31-0.4-0.6-0.61-0.86c-0.57,0.58-1.09,1.17-1.6,1.74c-1.48,1.65-2.76,3.08-4.2,3.42
			c-3.14,0.74-13.25,7.24-15.98,11.61c-2.73,4.37-5.16,8.25-9.34,11.71C351.55,375.37,351.51,375.41,351.46,375.45z"/>
	</g>
</g>
<g id="_x30_01">
	<g>
		<path class="st0" d="M7.51,815.71c0.12,2.5,5.13,8.68,10.34,12.49c75.49,70.52,209.44,98.8,310.35,6.25
			c99.97-91.69,95.89-193.58,73.11-257.59c-1.19-5.36-2.88-9.96-5.17-13.39l-0.22-0.34c-4.53-10.48-9.46-19.61-14.3-27.11
			c-7.26-15.24-14.73-30.83-23.85-39.02c-7.55-6.77-16.66-5.33-22.28-9.39L7.51,815.71z"/>
		<path class="st1" d="M209.9,787.61c17.06-9.15,41.86-32.52,52.12-43.06c7.05-7,21.07-21.07,31.12-34.42
			c10.06-13.35,29.65-29.65,34.65-37.13c5.01-7.48,22.43-44.67,29.24-59.71c6.8-15.04,23.23-59.47,17.29-71.65
			c-5.94-12.18-7-36.65-16.02-44.11c-9.01-7.46-14.24-8-23.25-15.46c-9.02-7.46-15.35-4.42-32.49-1.28
			c-17.15,3.14-32.73,4.72-62.48,15.54c-29.76,10.81-55.31,28.95-65.54,35.89c-10.23,6.94-41.7,28.52-51.84,38.66
			s-26.81,30.93-33.09,35.56c-6.29,4.64-35.89,35.89-43.52,50.11c-7.63,14.22-29.99,46.47-37.12,64.3
			c-7.13,17.84-9.71,55.83-7.89,63.89c1.82,8.06,1.67,17.27,5.59,29c3.92,11.73,29.11,24.43,41.9,23.17
			c12.79-1.26,28.26,7.98,46.6,4.47c18.34-3.51,40.94-12.11,61.4-25.98C177.02,801.54,188.57,799.05,209.9,787.61z"/>
		<path class="st0" d="M74.51,807.23c-1.27,1.38-2.51,2.63-3.72,3.76c-2.97,0.1-6.05,0.34-9.05,0.68
			c-11.25,1.26-15.83-3.32-15.2-8.94c0.42-3.77-3.65-6.42-7.63-9c-1.96-1.27-3.9-2.53-5.27-3.9c-4.16-4.16-5.88-7.44-3.32-15.83
			c0.61-1.99,1.12-4.08,1.52-6.16c2.18-3.27,6.84-6.54,22-15.69c11.9-7.18,35.43-23.79,57.84-39.61
			c29.03-20.49,56.16-39.64,53.57-35.17c0.1,3.23,1.24,5.42,4.16,4.16c-13.3,17.47-44.08,58.24-60.78,81.59
			C87.76,792.32,84.26,796.64,74.51,807.23z"/>
		<path class="st0" d="M166.2,792.47c3.23-2.61,5.54-5.24,6.01-8.01c1.36-8.02,6.5-88.93,5.64-103.88c-1.2,0.37-4.85-0.15-6.36,3.03
			L86.18,806.38c-1.48,2.13-2.39,3.97-2.84,5.56c2.4,0.63,4.21,1.59,5.12,2.98c1.74,2.66,4.34,1.87,7.83,0.82
			c2.46-0.74,5.35-1.62,8.69-1.51c1.17,0.04,2.52,0.13,4.03,0.23c8.88,0.61,22.84,1.57,33.28-6.73
			c7.47-5.94,16.02-10.78,23.89-15.24L166.2,792.47z"/>
		<path class="st0" d="M279.45,705.53c0.04,0.1,0.06,0.22,0.06,0.35c-1.39,1.36-2.82,2.88-4.33,4.76c-1.05,1.29-2.16,2.7-3.32,4.16
			c-6.61,8.3-14.74,18.53-20.46,22.12c-6.72,4.23-16.58,11.58-23.93,21.44c-6.27,8.4-12.42,11.23-21.97,15.64
			c-1.66,0.76-3.41,1.57-5.29,2.47c-5.95,2.83-8.53,3.21-10.65,3.52c-2.41,0.35-4.21,0.62-9.68,4.31c-0.96,0.65-1.97,1.3-3.01,1.95
			c-0.19-0.72-0.24-1.46-0.22-2.05c1.2-34.78,4.23-104.97,6.73-107.48c1.65-1.65,1.61,0.05,5.06-2.55c1.62-0.43,0.59-2.06,2.4-4.07
			C195.57,667.02,278.15,702.66,279.45,705.53z"/>
		<path class="st0" d="M331.56,627.16c-0.26,0.03-0.55,0.09-0.9,0.18c-1.43,0.37-8.42,1.77-18.51,3.8l0,0
			c-35.97,7.24-111.36,22.42-114.81,26.63c-3.54,4.32-3.02,6.55-2.32,7.13c26.57,11.15,76.85,32.16,88.92,36.83
			c3.37-3.17,6.72-6.72,10.69-13.88c4.22-7.61,7.66-9.65,10.79-11.5c2.25-1.33,4.33-2.57,6.42-5.71
			c5.01-7.51,14.78-30.6,18.12-39.77C330.45,629.53,330.99,628.3,331.56,627.16z"/>
		<path class="st0" d="M343.8,537.07c1.54-1.27,2.75-1.38,3.73-0.75c0.03,0.38,0.05,0.75,0.08,1.13c0.21,2.7,1.09,5.91,2.07,9.46
			c2.09,7.61,4.6,16.76,1.85,25.75c-1.8,5.89-2.86,12.21-3.86,18.14c-1.23,7.34-2.37,14.09-4.68,18.7c-1.81,3.61-3.87,6.38-5.9,9.11
			l-0.19,0.26c-0.75,0.49-1.54,0.88-2.37,1.17c-7.74,2.72-138.15,37.27-136.2,32.54l-0.1-3.23
			C198.25,649.36,338.82,541.16,343.8,537.07z"/>
		<path class="st0" d="M321.4,498.72c-1.11-1.42-3.42-2.05-6.43-2.13c-2.04,0.61-4.39,1.56-7.19,2.92
			c-4.92,2.39-10.27,3.86-15.4,5.28c-6.31,1.74-12.28,3.39-16.68,6.53c0,0-84.02,132.93-84.07,132.99c-0.04,0.06,0.04-0.06,0,0
			c-0.04,0.06,4.04,4.75,7.37,1.45L346.07,532.5c0.4-0.31,0.79-0.62,1.16-0.92c-0.49-6.42-1.63-12.28-7.92-14.95
			c-6.72-2.86-10.8-8.37-15.08-14.15C323.3,501.23,322.37,499.97,321.4,498.72z"/>
		<path class="st0" d="M266.53,518.77l-76.51,125.49c-1.06-0.32-6.8,5.72-7.14,3.81c-2.39-13.37-5.51-84.59-4.92-91.99
			c0.24-2.98,3.06-6.1,6.94-9.36c3.02-1.61,7.4-4.88,12.34-8.58c10.73-8.03,24.11-18.06,32.09-17.28c9.43,0.92,21.6-3.91,29.74-7.34
			C263.4,513.61,266.61,515.1,266.53,518.77z"/>
		<path class="st0" d="M32.74,759.79c0.11-0.07,0.23-0.15,0.35-0.23c4.42-3.09,88.27-57.75,129.65-84.69
			c-1.26,0.82,1.51-3.18,0.32-2.81c2.04-3.96-97.18,8.97-110.88,11.19c-0.32,0.62-0.73,1.23-1.24,1.85
			c-4.28,5.11-8.55,10.22-9.6,15.43c-1.05,5.21-8.2,21.52-11.6,29.08s-1.06,17.71,1.49,21.83
			C32.36,753.26,32.81,756.27,32.74,759.79z"/>
		<path class="st0" d="M55.35,672.86c-0.17-0.59-0.31-1.17-0.4-1.73c0.44-1.13,1.05-2.33,1.9-3.59c2.14-3.21,4.45-5.67,6.72-8.1
			c3.04-3.25,6.01-6.42,8.41-11.19c3.34-6.67,8.04-13.87,9.97-16.63c0.49-1.6,3.05-5.71,9.39-9.39c4.05-2.35,6.79-6.43,9.6-10.63
			l0,0c0.69-1.03,1.39-2.07,2.11-3.09c1.72-0.15,3.32,0.2,4.73,1.21l65.39,46.55c-1.08,1.11-2.06,1.78-2.99,2.41
			c-1.6,1.09-3.04,2.08-4.55,5c-0.35,0.68-0.85,2.84-1.1,3.6l-108.67,9.69C55.84,675.45,55.7,674.05,55.35,672.86z"/>
		<path class="st0" d="M110.13,600.84c-0.1,0.26-0.2,0.52-0.29,0.79c-0.56,1.55-1.34,3.22-2.25,4.95c0,0,68.61,47.32,69.89,46.61
			c1.28-0.72,1.87-2.27,1.39-3.32l-4.5-95.26c-0.02-0.46-0.07-0.88-0.16-1.27c-1.21,0.96-2.38,1.93-3.49,2.86
			c-3.26,2.71-6.08,5.06-8.28,5.73c-4.79,1.46-23.4,12.58-30.44,19.62c-7.04,7.04-13.3,13.3-21.59,19.09
			C110.32,600.71,110.23,600.77,110.13,600.84z"/>
	</g>
</g>
</svg>
