<svg width="40" height="40" viewBox="0 0 40 40" fill="none" xmlns="http://www.w3.org/2000/svg">
<path d="M20 0C31.0457 0 40 8.9543 40 20C39.9998 31.0455 31.0456 40 20 40C8.95443 40 0.000210633 31.0455 0 20C0 8.9543 8.9543 1.0309e-05 20 0ZM18.791 10.9121C16.769 10.9122 13.0312 11.4768 13.0312 15.7559V16.2998H11.2676V19.4736H13.0312V26.1738H11.3857V29.3477H19.3311V26.1709H17.4023V19.4707H22.6895V26.1709H21.0469V29.3447H28.7354V26.1709H27.0889V16.2734H17.4043V15.6387C17.4043 14.3923 18.6505 14.3682 19.2852 14.3682C20.0134 14.3682 20.3438 14.4395 20.3438 14.4395V11.0059C19.829 10.9417 19.3098 10.9104 18.791 10.9121ZM24.8789 10.6543C23.7106 10.6543 22.7629 11.6013 22.7627 12.7695C22.7627 13.938 23.7105 14.8857 24.8789 14.8857C26.0472 14.8856 26.9941 13.9379 26.9941 12.7695C26.9939 11.6014 26.0471 10.6545 24.8789 10.6543Z" fill="#BAC5BC"/>
</svg>
