<svg width="30" height="26" viewBox="0 0 30 26" fill="none" xmlns="http://www.w3.org/2000/svg">
<path d="M28.7685 11.5699L24.3341 7.40295V2.58947C24.3341 1.71912 23.5835 1.01378 22.6559 1.01378C21.7305 1.01378 20.9799 1.71912 20.9799 2.58947V4.25118L17.6781 1.14848C16.0457 -0.384646 13.2074 -0.381927 11.5787 1.15125L0.490902 11.5699C-0.163634 12.1861 -0.163634 13.1833 0.490902 13.7986C1.14573 14.4147 2.20898 14.4147 2.86358 13.7986L13.9503 3.37973C14.3115 3.04212 14.948 3.04212 15.3073 3.37873L26.3959 13.7986C26.7247 14.1067 27.1534 14.2599 27.582 14.2599C28.0114 14.2599 28.4408 14.1065 28.7686 13.7986C29.4234 13.1833 29.4234 12.1862 28.7685 11.5699Z" fill="#FFFBF0"/>
<path d="M15.2123 6.37075C14.8902 6.06822 14.3686 6.06822 14.0474 6.37075L4.29457 15.5325C4.14059 15.6771 4.0533 15.8746 4.0533 16.0806V22.7628C4.0533 24.3309 5.40631 25.6022 7.07496 25.6022H11.9036L11.9036 18.5754H17.355V25.6022H22.1837C23.8523 25.6022 25.2053 24.3309 25.2053 22.7629V16.0806C25.2053 15.8746 25.1188 15.6771 24.9641 15.5325L15.2123 6.37075Z" fill="#FFFBF0"/>
</svg>
