<svg width="184" height="338" viewBox="0 0 184 338" fill="none" xmlns="http://www.w3.org/2000/svg">
<path d="M114.534 5.18483C95.4041 12.0688 77.5498 27.9876 77.5498 49.4998C85.2016 40.8951 99.6551 50.7905 145.566 45.1973C173.061 41.8477 182.55 27.1271 182.55 27.1271C182.55 27.1271 181.275 20.9157 169.797 12.9293C156.194 3.46385 143.199 -5.13076 114.534 5.18483Z" fill="#799279"/>
<path d="M114.364 4.71465C128.764 -0.467225 139.28 -0.917277 147.93 1.15312C156.565 3.22022 163.286 7.79018 170.082 12.5193C175.864 16.5426 179.098 20.1332 180.89 22.74C181.785 24.0429 182.32 25.0983 182.632 25.8367C182.788 26.2058 182.888 26.4958 182.95 26.6971C182.981 26.7976 183.002 26.8762 183.017 26.9314C183.024 26.9591 183.03 26.981 183.033 26.9969C183.035 27.0048 183.036 27.0115 183.037 27.0164C183.038 27.0187 183.039 27.0206 183.039 27.0223V27.0262C183.035 27.0274 182.992 27.0359 182.55 27.1268L183.04 27.0262L183.081 27.2264L182.97 27.3982L182.969 27.3992C182.968 27.4 182.968 27.4019 182.967 27.4031C182.965 27.4055 182.964 27.4089 182.961 27.4129C182.955 27.4213 182.947 27.4328 182.937 27.448C182.916 27.4787 182.886 27.5238 182.846 27.5809C182.766 27.695 182.646 27.8601 182.485 28.0701C182.164 28.4905 181.676 29.0903 181.006 29.8182C179.665 31.2741 177.593 33.2427 174.657 35.3143C168.783 39.4594 159.459 44.009 145.627 45.6941C122.625 48.4964 107.496 47.4184 97.1768 46.7186C92.0059 46.3679 88.0999 46.1172 85.0078 46.4803C81.9462 46.8398 79.7346 47.7958 77.9238 49.8318L77.0498 50.8143V49.4998C77.0498 27.6837 95.1412 11.6323 114.364 4.71465ZM147.697 2.12578C139.282 0.111494 128.969 0.521499 114.703 5.65508C96.0368 12.3723 78.7363 27.6818 78.0713 48.2703C79.9138 46.6206 82.1186 45.8127 84.8906 45.4871C88.0952 45.1108 92.1067 45.3721 97.2441 45.7205C107.543 46.4189 122.597 47.4918 145.506 44.701C159.169 43.0364 168.337 38.5503 174.08 34.4978C176.953 32.4706 178.972 30.5492 180.27 29.1404C180.918 28.4362 181.387 27.8604 181.691 27.4627C181.83 27.2811 181.934 27.1352 182.006 27.033C182.002 27.0201 181.999 27.0061 181.995 26.992C181.943 26.8223 181.854 26.5643 181.711 26.2264C181.425 25.5506 180.923 24.5544 180.065 23.3064C178.35 20.811 175.206 17.3029 169.511 13.3396C162.704 8.60349 156.126 4.14342 147.697 2.12578Z" fill="#799279"/>
<path d="M47.1895 26.9857C60.3069 30.6384 72.5498 39.0851 72.5498 50.4998C67.3028 45.934 57.3919 51.1846 25.9101 48.2168C7.0563 46.4395 0.549805 38.6285 0.549805 38.6285C0.549805 38.6285 1.4243 35.3327 9.29474 31.095C18.6227 26.0725 27.533 21.5121 47.1895 26.9857Z" fill="#799279"/>
<path d="M47.3232 26.5037C37.4403 23.7517 30.2202 23.5125 24.2783 24.6131C18.3424 25.7126 13.7206 28.1444 9.05762 30.6551C5.08257 32.7954 2.84591 34.7126 1.59668 36.1189C0.972169 36.822 0.595191 37.3973 0.371094 37.8074C0.259102 38.0124 0.185448 38.1766 0.138672 38.2937C0.115387 38.3521 0.0983835 38.3987 0.0869141 38.4334C0.0811768 38.4508 0.0765686 38.4652 0.0732422 38.4764C0.0715845 38.4819 0.0704623 38.487 0.0693359 38.491C0.0688208 38.4929 0.067792 38.4944 0.0673828 38.4959V38.4988L0.0664062 38.4998C0.0669453 38.5004 0.0847778 38.5053 0.549805 38.6287L0.0664062 38.5008L0 38.7498L0.166016 38.949C0.166489 38.9496 0.168274 38.9511 0.168945 38.9519C0.170237 38.9535 0.171833 38.9555 0.173828 38.9578C0.178146 38.9629 0.183815 38.9706 0.191406 38.9793C0.206558 38.9967 0.228419 39.0212 0.256836 39.0525C0.313863 39.1154 0.398223 39.2054 0.510742 39.3191C0.735865 39.5467 1.07476 39.8694 1.53906 40.2596C2.46798 41.0401 3.89802 42.0911 5.91992 43.1951C9.9654 45.4039 16.3718 47.8199 25.8633 48.7146C41.6403 50.2019 52.017 49.63 59.0938 49.2586C62.6411 49.0724 65.3154 48.9404 67.4307 49.1326C69.5299 49.3234 71.0176 49.8291 72.2217 50.8768L73.0498 51.5975V50.4998C73.0498 44.5979 69.882 39.5049 65.1123 35.451C60.3432 31.3976 53.9323 28.3441 47.3232 26.5037ZM24.46 25.5965C30.2192 24.5297 37.2826 24.7461 47.0557 27.4676C53.5637 29.2799 59.8332 32.2761 64.4648 36.2127C68.8077 39.9039 71.6764 44.3883 72.0166 49.4783C70.7729 48.6871 69.3094 48.299 67.5215 48.1365C65.319 47.9364 62.5634 48.0748 59.042 48.2596C51.9812 48.6301 41.6614 49.2 25.957 47.7195C16.5947 46.8369 10.3206 44.4582 6.39941 42.3172C4.43808 41.2463 3.06282 40.2335 2.18262 39.4939C1.74249 39.1241 1.42599 38.8225 1.22168 38.616C1.18773 38.5817 1.15867 38.5483 1.13086 38.5193C1.16123 38.4543 1.19921 38.3763 1.24805 38.2869C1.43388 37.9467 1.76717 37.4332 2.34473 36.783C3.50035 35.482 5.63697 33.6323 9.53223 31.535C14.197 29.0233 18.6948 26.6644 24.46 25.5965Z" fill="#799279"/>
<path d="M9.29492 31.0953C18.6228 26.0728 27.533 21.5124 47.1895 26.9859C60.0269 30.5607 72.0248 38.7269 72.5312 49.7731C70.7193 47.2718 67.3754 44.1814 62.0498 42.4996C52.5498 39.4996 33.0498 38.9996 22.5498 38.9996C15.1158 38.9996 6.3505 37.6929 1.66016 36.815C2.78156 35.446 4.9934 33.4114 9.29492 31.0953Z" fill="#A1B9A1"/>
<path d="M24.2783 24.6129C30.2202 23.5124 37.4402 23.7525 47.3232 26.5045C53.7917 28.3058 60.0693 31.2684 64.8037 35.193C69.5376 39.1173 72.7685 44.0404 73.0303 49.7506L73.1074 51.4206L72.126 50.0661C70.3691 47.6409 67.1104 44.6218 61.8994 42.9762C57.2114 41.4958 50.0135 40.6235 42.6406 40.1237C35.281 39.6247 27.7933 39.4997 22.5498 39.4997C15.0706 39.4997 6.27067 38.1864 1.56836 37.3063L0.738281 37.151L1.27344 36.4987C2.44522 35.0681 4.71267 32.9944 9.05762 30.6549C13.7205 28.1443 18.3425 25.7125 24.2783 24.6129ZM47.0557 27.4674C37.2826 24.746 30.2191 24.5295 24.46 25.5963C18.6947 26.6643 14.1971 29.024 9.53223 31.5358C5.92831 33.4763 3.83003 35.2042 2.62109 36.4821C7.45568 37.3476 15.5967 38.4997 22.5498 38.4997C27.8062 38.4997 35.3187 38.6246 42.709 39.1256C50.0859 39.6258 57.3882 40.5036 62.2002 42.0231C66.7303 43.4537 69.8639 45.8872 71.8643 48.1491C71.1383 43.4934 68.2864 39.379 64.165 35.9626C59.5646 32.149 53.4244 29.2409 47.0557 27.4674Z" fill="#799279"/>
<path d="M70.5498 30.9997C70.0499 50.9997 70.0498 67.6664 70.5498 76.9997L77.0498 70.9997C77.2165 63.4997 77.9498 44.9997 79.5498 30.9997C81.1498 16.9997 85.5498 8.4997 85.5498 8.4997C85.5498 8.4997 84.7498 3.89973 79.5498 3.49973C74.3498 3.09973 72.5498 7.99973 72.5498 7.99973C72.3832 7.99973 70.9607 14.561 70.5498 30.9997Z" fill="#799279"/>
<path d="M73.7344 5.25775C74.9113 4.00061 76.8017 2.78668 79.5879 3.00092C82.3562 3.21386 83.9847 4.55645 84.9082 5.86029C85.3654 6.50574 85.6467 7.13668 85.8145 7.60639C85.8986 7.84177 85.9548 8.03857 85.9903 8.17865C86.008 8.24861 86.0199 8.30477 86.0284 8.34467C86.0326 8.36464 86.0359 8.38088 86.0381 8.39252C86.0392 8.39811 86.0404 8.40263 86.0411 8.40619L86.042 8.41108V8.41303C86.042 8.41303 86.0424 8.41403 85.5498 8.4997L86.042 8.41303L86.0713 8.58002L85.9942 8.72943L85.9932 8.73041L85.9913 8.73432C85.9894 8.73786 85.9872 8.7436 85.9834 8.75092C85.9757 8.76619 85.9639 8.7897 85.9483 8.82123C85.917 8.88428 85.8699 8.97945 85.8096 9.10639C85.6887 9.36076 85.5131 9.74233 85.2969 10.2441C84.8645 11.248 84.2693 12.7358 83.6241 14.6591C82.3335 18.5061 80.8423 24.0966 80.0469 31.0566C78.4495 45.034 77.7164 63.5161 77.5498 71.0107L77.545 71.2236L77.3887 71.3671L70.1075 78.0888L70.0508 77.0263C69.5497 67.6721 69.5499 50.989 70.0498 30.9872C70.2556 22.7557 70.7147 16.9899 71.1446 13.2773C71.3594 11.4216 71.5676 10.0756 71.7334 9.1894C71.8161 8.74757 71.8894 8.41413 71.9493 8.18647C71.9787 8.07472 72.0084 7.97645 72.0372 7.90033C72.0504 7.8652 72.0707 7.81477 72.0997 7.76557C72.1031 7.75977 72.107 7.75234 72.1123 7.74408C72.1286 7.70431 72.1519 7.65155 72.1807 7.58686C72.2451 7.44234 72.342 7.23932 72.4747 6.99897C72.7393 6.51934 73.1494 5.88266 73.7344 5.25775ZM79.5118 3.99799C77.0982 3.81233 75.488 4.84855 74.4649 5.94135C73.9499 6.49142 73.585 7.05576 73.3497 7.48236C73.2325 7.6947 73.1481 7.87135 73.0938 7.99311C73.0667 8.0538 73.0476 8.10115 73.0352 8.13178C73.0291 8.14693 73.0241 8.15817 73.0215 8.16498C73.0204 8.168 73.0196 8.17182 73.0196 8.17182L72.9082 8.47065C72.8578 8.66687 72.7924 8.96527 72.7159 9.37397C72.5553 10.2317 72.3507 11.5535 72.1377 13.3925C71.712 17.0702 71.255 22.8055 71.0498 31.0126C70.5685 50.2686 70.5524 66.4203 70.9971 75.9062L76.5547 70.7753C76.7305 63.1375 77.4652 44.8347 79.0528 30.9433C79.8573 23.9035 81.3664 18.2438 82.6758 14.3408C83.3306 12.3891 83.9354 10.8759 84.378 9.84858C84.5992 9.33495 84.7803 8.94275 84.9063 8.67768C84.9531 8.57907 84.9915 8.49761 85.0225 8.43451C85.0216 8.4311 85.0214 8.42729 85.0205 8.42377C84.992 8.31083 84.9451 8.14509 84.8731 7.9433C84.7283 7.53803 84.4846 6.99291 84.0918 6.43842C83.3154 5.3424 81.9431 4.18509 79.5118 3.99799Z" fill="#799279"/>
<path d="M79.5499 3.50003C83.8554 3.83127 85.1431 7.04209 85.4591 8.13675C79.037 17.7045 77.5428 39.0522 76.0499 50C75.1671 56.4737 72.4259 58.471 70.1759 58.7442C70.1677 50.7496 70.292 41.3184 70.5499 31C70.9609 14.5613 72.3833 8.00003 72.5499 8.00003C72.5499 8.00003 74.3499 3.10003 79.5499 3.50003Z" fill="#A1B9A1"/>
<path d="M73.7345 5.25777C74.9114 4.00064 76.8018 2.78766 79.588 3.00192C84.2064 3.35723 85.6017 6.82772 85.9396 7.99801L86.004 8.22164L85.8742 8.415C82.7285 13.1015 80.7616 20.7337 79.3986 28.6357C78.037 36.5291 77.2961 44.5594 76.5451 50.0673C76.0959 53.3608 75.167 55.5743 74.0158 57.0097C72.8572 58.4542 71.4911 59.0878 70.2365 59.2402L69.6769 59.3086L69.6759 58.7451C69.6677 50.7452 69.7919 41.309 70.0499 30.9873C70.2557 22.756 70.7149 16.9909 71.1447 13.2783C71.3595 11.4226 71.5677 10.0766 71.7335 9.19039C71.8163 8.74836 71.8894 8.41422 71.9494 8.18649C71.9787 8.07492 72.0085 7.97738 72.0372 7.90133C72.0505 7.86618 72.0707 7.81501 72.0997 7.76559C72.1031 7.75994 72.1073 7.75304 72.1124 7.74508C72.1287 7.7052 72.1518 7.65201 72.1808 7.58688C72.2452 7.44235 72.3421 7.23937 72.4747 6.99899C72.7394 6.51935 73.1495 5.88266 73.7345 5.25777ZM79.5119 3.99801C77.0984 3.81236 75.4881 4.84862 74.465 5.94137C73.95 6.49144 73.5851 7.05578 73.3497 7.48238C73.2325 7.69494 73.1482 7.8723 73.0939 7.9941C73.067 8.0545 73.0476 8.10123 73.0353 8.1318C73.0291 8.1471 73.0242 8.15918 73.0216 8.16598C73.0204 8.16912 73.0197 8.17281 73.0197 8.17281L72.9083 8.47164C72.8579 8.66787 72.7924 8.96578 72.716 9.37399C72.5554 10.2317 72.3508 11.5535 72.1378 13.3925C71.7121 17.0702 71.2551 22.8055 71.0499 31.0127C70.7986 41.0689 70.6744 50.2807 70.6759 58.1396C71.5211 57.9169 72.4232 57.3974 73.2355 56.3847C74.238 55.1349 75.1212 53.1125 75.5548 49.9326C76.2966 44.4927 77.0489 36.375 78.4132 28.4658C79.7574 20.6731 81.7142 12.9539 84.9113 8.06051C84.5236 6.89436 83.2521 4.28587 79.5119 3.99801Z" fill="#799279"/>
<path d="M58.0495 70.4995C70.0494 64.9996 64.5501 61.9997 74.5498 61.9998C83.0501 61.9998 83.0498 66.9998 92.0495 70.4995C98.0495 70.4995 152.549 88.4997 170.55 126C188.55 163.5 191.05 264 152.55 293C114.05 321.999 96.5495 322 91.5495 324.5C86.9968 326.776 82.2147 337.175 73.5498 337.5C64.4038 337.843 54.4954 324.759 54.0498 324.5C54.0498 324.5 47.1021 319.203 38.1081 315.317C32.9498 310.496 28.4053 304.466 24.7146 297.138C-11.1107 226.008 -1.65023 122.016 54.5896 71.6948C56.0327 71.2749 57.2021 70.8879 58.0495 70.4995Z" fill="#D3B94F"/>
<path d="M78.7867 65.0002C78.4279 64.2827 76.8676 63.2199 74.6656 62.0061C74.5412 62.0039 74.4149 62.0002 74.2867 62.0002C64.2872 62.0002 57.7867 70.4993 57.7867 70.4993C56.9393 70.8876 55.7698 71.2747 54.3267 71.6946C-1.91306 122.016 -11.3735 226.008 24.4517 297.138C28.1424 304.466 32.6869 310.496 37.8453 315.317C46.8112 319.191 53.7437 324.466 53.7867 324.499C54.2323 324.759 64.1407 337.843 73.2867 337.5C75.8056 337.406 77.9954 336.458 79.9478 335.108C82.5103 331.073 82.2388 325.881 78.7867 324.5C71.2864 321.5 44.9922 323.122 59.7867 318.5C133.403 295.5 173.536 258.999 173.549 193.499C173.571 89.5 126.287 87.5002 99.2867 77.0002C72.2868 66.5003 52.787 75.5001 59.7867 72.0002C66.7864 68.5004 80.2853 67.9999 78.7867 65.0002Z" fill="#E4CC6A"/>
<path d="M87.7988 85.1638C91.0162 85.0003 94.3667 85.1528 97.6211 85.695C98.5102 85.8369 99.3878 85.997 100.257 86.1638C102.763 86.6454 105.257 87.2186 107.725 87.8747C111.062 88.7637 114.359 89.8047 117.616 91.0046C119.232 91.6002 120.843 92.2361 122.438 92.9158C130.414 96.6931 136.287 101.551 142.529 106.258C147.218 109.946 151.581 113.67 155.875 118.646C156.096 118.935 156.341 119.295 156.582 119.786C156.828 120.281 157.171 121.172 157.246 122.231C157.365 123.378 157.017 124.996 156.39 126.03C155.815 127.07 154.9 127.863 154.475 128.155C153.969 128.521 153.451 128.771 153.151 128.895C152.851 129.022 152.588 129.109 152.355 129.176C151.898 129.302 151.675 129.336 151.408 129.377C150.546 129.489 150.248 129.458 149.929 129.458C149.344 129.439 149.023 129.402 148.699 129.367C148.074 129.295 147.594 129.218 147.124 129.138C146.198 128.98 145.369 128.81 144.548 128.634C143.224 128.347 141.949 128.041 140.686 127.724C140.757 127.77 140.829 127.816 140.9 127.862C141.385 128.176 141.832 128.472 142.309 128.796C148.098 132.844 154.264 136.916 159.636 143.386C162.334 146.549 164.556 151.167 164.615 155.95C164.641 157.02 164.572 158.077 164.436 159.071C164.286 160.917 163.12 162.773 162.171 163.598C161.207 164.482 160.471 164.817 159.905 165.074C158.781 165.544 158.149 165.638 157.596 165.748C151.418 166.328 149.783 164.55 147.167 163.662C147.117 163.64 147.067 163.616 147.018 163.593C147.091 163.775 147.164 163.992 147.232 164.261C147.333 164.69 147.375 165.35 147.17 165.993C146.971 166.637 146.603 167.098 146.331 167.366C143.114 170.232 138.917 169.541 138.279 169.817C137.601 170.083 136.96 170.974 136.64 172.226C136.476 172.669 136.546 173.387 136.859 174.181C137.017 174.591 137.226 175.016 137.464 175.445C139.04 177 140.811 178.445 142.535 180.046C143.465 180.922 144.397 181.847 145.146 182.972C145.165 182.994 145.205 183.065 145.219 183.091C145.604 184.069 145.791 185.048 145.973 186.008C146.029 186.313 146.008 186.623 145.915 186.871C145.822 187.12 145.664 187.283 145.471 187.331C145.277 187.377 145.061 187.304 144.863 187.13C144.666 186.957 144.505 186.698 144.407 186.415C144.129 185.608 143.846 184.83 143.493 184.178C142.784 183.41 141.845 182.707 140.861 182.028C138.973 180.734 136.891 179.501 134.874 177.991C134.787 177.908 134.551 177.661 134.488 177.557C134.421 177.47 134.353 177.38 134.286 177.29C134.739 176.472 134.933 175.674 134.766 174.592C134.679 174.033 134.525 173.282 134.359 172.68C134.269 172.369 134.177 172.081 134.098 171.792C134.035 171.602 133.97 171.417 133.91 171.232C133.765 170.778 133.653 170.311 133.779 169.759C133.999 168.835 134.184 167.791 134.809 166.692C135.022 166.32 135.285 165.949 135.605 165.602C135.639 165.572 135.673 165.542 135.707 165.513C136.977 164.776 137.674 164.722 138.343 164.536C138.532 164.491 138.713 164.449 138.886 164.409C138.078 163.812 137.251 163.212 136.407 162.604C135.492 161.946 134.558 161.278 133.626 160.607C132.338 159.262 130.971 157.863 129.084 156.135C128.271 155.39 127.52 154.584 126.803 153.793C125.731 152.602 124.78 151.537 123.642 150.425C123.436 150.217 123.222 149.976 122.966 149.594C122.91 149.51 122.832 149.388 122.757 149.254C122.679 149.111 122.618 149.001 122.51 148.742C122.413 148.478 122.317 148.305 122.237 147.653C122.214 147.335 122.197 147.043 122.32 146.504C122.445 145.97 122.769 145.361 123.214 144.931C123.847 144.295 124.657 144.076 124.94 144.029C125.293 143.961 125.614 143.961 125.787 143.97C126.148 143.99 126.42 144.049 126.603 144.095C126.809 144.148 126.968 144.202 127.112 144.255C127.263 144.309 127.397 144.365 127.517 144.417C128.225 144.739 128.823 145.063 129.392 145.329C129.436 145.403 129.509 145.504 129.595 145.617C129.525 145.47 129.479 145.407 129.443 145.352C129.973 145.597 130.478 145.791 131.026 145.88C131.744 145.999 132.407 146.053 133.035 146.113C134.023 146.203 134.879 146.286 135.538 146.593C136.771 147.17 137.929 147.469 138.945 147.728C140.167 148.04 141.182 148.294 141.87 148.912C141.973 149.005 142.092 149.12 142.222 149.248C142.743 149.759 143.518 150.513 144.708 151.095C145.103 151.287 145.527 151.459 146.008 151.608C146.731 151.833 147.458 151.891 148.179 151.944C148.835 151.99 149.474 152.028 150.069 152.176C150.026 152.108 149.981 152.038 149.934 151.968C149.878 151.892 149.821 151.815 149.764 151.737C149.167 150.927 148.512 150.075 147.686 149.01C146.154 147.03 143.863 145.437 142.3 144.59C141.974 144.413 141.627 144.23 141.27 144.046C139.883 143.33 138.165 142.456 134.892 140.689C134.338 140.39 133.831 140.116 133.306 139.826C130.866 138.484 128.788 137.245 127.159 136.271C126.155 135.671 125.312 135.166 124.657 134.803C123.531 134.18 122.167 133.396 120.793 132.602C118.644 131.361 116.479 130.098 115.211 129.443C114.759 129.21 114.281 128.974 113.763 128.715C112.329 127.997 110.602 127.133 108.298 125.744C105.888 124.287 104.462 123.19 103.044 121.931C102.453 121.408 102.088 120.752 101.696 120.05C101.459 119.617 101.197 119.154 100.897 118.715C100.476 118.119 99.9981 117.582 99.1719 116.905C98.8188 116.608 98.4185 116.321 97.8789 115.798C97.4136 115.232 96.7448 114.997 95.9072 112.477C95.7125 111.69 95.5366 110.836 95.7656 109.397C95.9612 108.078 96.8013 106.507 97.708 105.638C99.6563 103.837 100.754 103.822 101.554 103.602C102.597 103.421 103.113 103.52 103.585 103.593C104.08 103.685 104.458 103.798 104.868 103.84C106.312 103.998 107.341 104.194 108.272 104.366C109.455 104.591 110.378 104.8 110.938 105.015C111.921 105.397 113.033 105.569 114.148 105.75C114.193 105.757 114.238 105.764 114.282 105.771C115.082 105.9 115.904 106.044 116.651 106.273C118.925 106.968 122.1 107.669 125.392 108.274C126.638 108.503 127.601 108.999 128.831 109.635C129.376 109.917 129.973 110.226 130.669 110.552C130.639 110.466 130.608 110.38 130.578 110.294C130.478 110.009 130.383 109.73 130.273 109.458C130.363 109.51 130.444 109.552 130.516 109.575C131.004 109.733 131.397 109.572 131.753 109.42C131.991 109.319 132.216 109.224 132.448 109.237C132.874 109.261 133.04 109.009 133.164 108.824C133.228 108.728 133.282 108.649 133.353 108.635C133.409 108.625 133.487 108.663 133.567 108.702C133.637 108.736 133.71 108.771 133.772 108.776C134.522 108.836 134.548 108.524 134.582 108.067C134.601 107.815 134.625 107.521 134.774 107.221C134.945 106.915 135.027 106.852 135.361 106.955C135.279 106.662 135.2 106.373 135.115 106.079C135.032 106.024 134.906 106.057 134.712 106.125C134.367 106.247 133.823 105.941 133.401 105.709C133.204 105.599 133.033 105.505 132.919 105.473C132.313 105.307 132.212 105.689 132.126 106.027C132.077 106.212 132.031 106.383 131.908 106.442C131.856 106.467 131.85 106.53 131.843 106.593C131.837 106.643 131.831 106.693 131.805 106.727C131.611 106.974 131.201 106.939 130.822 106.908C130.605 106.89 130.401 106.876 130.247 106.912C130.201 106.923 130.158 106.939 130.117 106.955C130.058 106.978 130.001 107 129.936 107.005C129.786 107.015 129.571 106.929 129.335 106.835C129.213 106.785 129.086 106.734 128.96 106.694C128.797 106.642 128.674 106.703 128.546 106.766C128.456 106.811 128.361 106.857 128.248 106.866C128.043 106.881 127.778 106.734 127.531 106.598C127.423 106.539 127.318 106.482 127.225 106.441C127.187 106.425 127.158 106.43 127.137 106.45C126.72 106.246 126.319 106.06 125.924 105.879C123.957 104.991 122.274 104.251 120.335 102.644C119.969 102.344 119.535 102.094 119.093 101.897C118.791 101.692 118.485 101.493 118.196 101.314C117.044 100.625 115.868 99.9546 114.68 99.3044C114.476 98.9005 114.181 98.5072 113.787 98.1296C113.045 97.42 112.162 96.9609 111.107 96.4353C110.328 96.0472 109.456 95.6231 108.469 95.0398C106.81 94.061 105.054 93.1455 102.989 92.3366C101.695 91.8295 100.266 91.3269 98.9502 90.9099C98.1731 90.6632 97.4462 90.4481 96.8164 90.2781C95.8901 90.0271 94.9753 89.5652 94.0986 89.1648C92.8706 88.5998 91.7071 88.1584 90.9404 88.5134C90.6967 88.6267 90.4502 88.8438 90.2158 89.0564C90.0469 89.2074 89.8868 89.3563 89.7295 89.4646C89.3431 89.3967 88.9495 89.3338 88.5576 89.2741C88.3036 89.1534 87.9947 89.0286 87.6465 88.9353C87.0336 88.776 86.3271 88.7001 85.6328 88.8747C85.2002 88.8182 84.7908 88.7627 84.3731 88.7068C83.4879 88.5893 82.6013 88.4714 81.7236 88.3542C81.4313 88.3154 81.1519 88.2771 80.8526 88.238C80.85 88.2376 80.8473 88.2374 80.8447 88.237C80.2589 88.159 79.6735 88.0807 79.084 88.0027C78.8385 87.9696 78.5858 87.9371 78.3369 87.904C77.7058 87.8202 77.0653 87.7356 76.4385 87.6521C76.1111 87.6079 75.7677 87.5634 75.4395 87.5193C74.8922 87.4471 74.3422 87.3752 73.7988 87.3034C72.9152 87.1874 72.0319 87.0722 71.1582 86.9577C71.0047 86.9386 70.8794 86.8875 70.7715 86.8122C70.7295 86.7749 70.6765 86.7323 70.6592 86.6882C70.6442 86.666 70.63 86.6429 70.625 86.6199C70.6221 86.6085 70.6194 86.5972 70.6182 86.5857C70.6176 86.58 70.6174 86.5738 70.6172 86.5681C70.6182 86.5666 70.6163 86.5649 70.5996 86.5622C70.5933 86.5611 70.5904 86.5618 70.5606 86.5564C70.5334 86.5399 70.5543 86.5925 70.3701 86.4597C70.3238 86.4197 70.2299 86.2965 70.252 86.1325C70.2765 85.9726 70.3664 85.9044 70.4063 85.8738C70.4935 85.8163 70.5158 85.8207 70.5371 85.8132C70.6391 85.7952 70.6048 85.8062 70.6192 85.8044C70.6334 85.8069 70.6333 85.8094 70.6338 85.8122C70.6312 85.8153 70.6368 85.8182 70.6113 85.822C70.6054 85.8228 70.6031 85.8223 70.5733 85.8269C70.5436 85.8484 70.5717 85.771 70.3594 85.945C70.3015 85.9979 70.2379 86.1754 70.292 86.3015C70.3402 86.424 70.4029 86.4589 70.4346 86.4822C70.5016 86.5224 70.5205 86.521 70.5381 86.5271C70.6245 86.5441 70.5967 86.5352 70.6094 86.5368C70.6198 86.536 70.6189 86.5343 70.6192 86.5329C70.6198 86.5272 70.6201 86.5211 70.6211 86.5154C70.6231 86.5039 70.6263 86.4925 70.6299 86.4812C70.636 86.4585 70.6517 86.4361 70.667 86.4148C70.6869 86.3718 70.742 86.3326 70.7862 86.2976C70.8974 86.2284 71.0252 86.1845 71.1797 86.1736C72.0594 86.1064 72.9498 86.0422 73.8408 85.9802C74.3883 85.9418 74.9421 85.9036 75.4942 85.8669C75.8249 85.844 76.1706 85.8228 76.501 85.8005C77.1328 85.7589 77.7797 85.718 78.416 85.6784C78.6673 85.6628 78.922 85.6472 79.1699 85.6316C79.7658 85.5956 80.3574 85.5606 80.9502 85.5261C80.9537 85.5259 80.9575 85.5263 80.961 85.5261C81.2611 85.5094 81.5408 85.4919 81.834 85.4753C82.7198 85.4247 83.616 85.3757 84.5098 85.3288C84.981 85.3031 85.4607 85.2788 85.9444 85.2546C86.2103 85.241 86.4793 85.2279 86.7461 85.2146C86.889 85.2075 87.0325 85.2009 87.1787 85.1941C87.3837 85.184 87.5906 85.1736 87.7988 85.1638ZM141.616 166.209C141.676 166.286 141.658 166.253 141.606 166.192C141.61 166.198 141.614 166.203 141.616 166.209ZM155.23 152.582C155.455 152.592 155.397 152.486 154.867 152.55C155.015 152.57 155.14 152.582 155.23 152.582ZM129.38 145.311C129.345 145.252 129.329 145.194 129.433 145.335C129.436 145.34 129.44 145.346 129.443 145.352C129.426 145.344 129.409 145.337 129.392 145.329C129.388 145.323 129.383 145.317 129.38 145.311ZM145.164 124.55C145.488 125.507 145.765 125.798 146.025 126.172C145.88 125.887 145.705 125.547 145.533 125.218C145.416 124.996 145.294 124.771 145.164 124.55ZM150.029 117.01C149.88 117.03 149.701 117.048 149.319 117.134C149.035 117.246 148.654 117.203 147.835 117.69C148.261 117.79 148.698 117.722 149.085 117.647C149.382 117.588 149.662 117.529 149.877 117.544C150.275 117.571 150.451 117.346 150.506 117.174C150.533 117.084 150.528 117.006 150.472 116.98C150.409 116.985 150.321 116.983 150.029 117.01ZM140.075 114.723C139.976 114.703 139.867 114.743 139.745 114.787C139.72 114.796 139.693 114.803 139.666 114.812C139.992 114.939 140.335 115.051 140.642 115.139C140.644 115.14 140.647 115.141 140.649 115.141C140.5 114.948 140.306 114.772 140.075 114.723ZM108.536 106.901C108.515 106.917 108.574 107.018 108.667 107.141C108.788 107.301 108.951 107.488 109.142 107.691C109.112 107.637 109.086 107.587 109.059 107.54C108.653 106.892 108.566 106.911 108.536 106.901Z" fill="#F3DC7F"/>
</svg>
