<svg width="1440" height="285" viewBox="0 0 1440 285" fill="none" xmlns="http://www.w3.org/2000/svg">
<g opacity="0.6">
<path d="M1434.34 228.03C1434.38 228.055 1522.48 274.431 1522.48 274.431C1524.77 277.262 1526.27 281.376 1527.87 285.726C1529.17 289.26 1530.52 292.949 1532.39 296.232C1533.46 298.101 1534.23 299.69 1534.78 301.088C1534.98 303.259 1534.8 304.984 1534.02 305.928C1533.35 306.755 1532.66 307.557 1531.98 308.351C1528.82 312.027 1525.81 315.534 1524.63 320.663C1523.53 325.458 1520.06 326.891 1516.19 327.921C1515.97 327.686 1515.75 327.441 1515.53 327.185L1434.08 233.477C1431.79 231.429 1434.3 228.006 1434.34 228.03ZM1434.34 228.03C1434.38 228.055 1434.3 228.006 1434.34 228.03ZM1306.07 113.04C1282.27 153.001 1255.51 254.801 1345.71 342.067C1435.9 429.332 1511.54 373.979 1537.98 336.876M1375.77 291.428C1368.25 284.965 1351.4 269.128 1344.15 257.479C1335.1 242.918 1332.53 234.629 1322.03 220.974C1311.52 207.319 1304.15 191.503 1300.34 178.297C1296.54 165.091 1300.99 152.622 1299.09 143.283C1297.18 133.943 1302.97 113.902 1310 109.722C1317.03 105.542 1322.84 104.654 1327.75 102.43C1332.66 100.205 1356.77 97.9908 1368.6 101.338C1380.44 104.685 1402.66 117.757 1412.26 121.867C1421.87 125.976 1444.09 144.521 1447.56 148.675C1451.02 152.828 1465.54 162.922 1472.8 169.337C1480.06 175.751 1496.37 196.727 1501.62 203.554C1506.87 210.382 1520.5 227.347 1529.89 248.224C1539.29 269.1 1541.64 280.476 1545.11 292.838C1548.58 305.201 1551.03 309.561 1547.13 317.051C1543.23 324.542 1543.35 328.471 1539.44 335.962C1535.54 343.453 1520.25 346.897 1513.11 352.62C1505.97 358.343 1476.61 350.994 1466.56 347.584C1456.51 344.175 1431.61 335.3 1426.48 332.402C1421.34 329.504 1409.39 316.756 1400.12 310.753C1390.85 304.751 1380.78 295.891 1375.77 291.428ZM1377.51 289.237C1370.2 282.956 1353.82 267.559 1346.8 256.212C1338.02 242.028 1335.54 233.943 1325.35 220.65C1315.15 207.358 1308.01 191.94 1304.34 179.057C1300.67 166.175 1305.06 153.976 1303.23 144.862C1301.4 135.748 1307.11 116.148 1313.97 112.035C1320.84 107.922 1326.5 107.03 1331.29 104.837C1336.08 102.643 1359.59 100.377 1371.11 103.595C1382.63 106.814 1404.25 119.488 1413.6 123.461C1422.95 127.433 1444.55 145.452 1447.92 149.495C1451.28 153.537 1465.4 163.334 1472.45 169.569C1479.51 175.803 1495.34 196.222 1500.44 202.868C1505.54 209.514 1518.77 226.027 1527.86 246.378C1536.95 266.729 1539.21 277.83 1542.55 289.891C1545.89 301.951 1548.28 306.199 1544.45 313.532C1540.62 320.866 1540.72 324.703 1536.9 332.036C1533.07 339.37 1518.16 342.799 1511.18 348.419C1504.2 354.04 1475.61 346.987 1465.83 343.7C1456.04 340.412 1431.8 331.851 1426.8 329.042C1421.81 326.233 1410.2 313.832 1401.18 308.009C1392.16 302.186 1382.38 293.575 1377.51 289.237ZM1322.56 158.753C1323.35 159.501 1324.22 160.262 1325.17 161.031C1332.44 166.923 1335.37 168.978 1354.93 180.898C1370.57 190.434 1398.02 208.255 1409.78 215.974C1408.77 214.01 1410.01 212.959 1411.97 212.547C1414.91 213.939 1400.95 196.469 1386.01 177.771C1374.48 163.344 1362.37 148.186 1356.99 140.398C1350.13 130.476 1347.74 127.472 1345.57 126.249C1344.26 126.182 1342.95 126.032 1341.68 125.804C1336.35 124.846 1334.5 126.422 1332.31 129.849C1331.59 130.979 1330.99 132.504 1330.38 134.045C1329.14 137.178 1327.88 140.38 1325.54 140.472C1322.06 140.61 1319.66 144.379 1321.38 152.328C1321.84 154.443 1322.25 156.631 1322.56 158.753ZM1347.3 228.801C1345.57 228.753 1343.78 227.37 1341.91 225.327L1341.9 225.31C1338.52 220.127 1334.84 214.491 1330.6 209.753C1324.66 203.131 1324.06 192.999 1323.68 186.561C1323.61 185.472 1323.56 184.488 1323.48 183.645C1323.26 181.238 1322.48 179.252 1321.82 177.567C1320.89 175.174 1320.19 173.387 1321.66 171.859C1322.43 171.059 1322.86 169.657 1323.04 167.868C1324.05 168.023 1325.25 168.485 1326.67 169.322L1408.69 217.687C1410.76 218.441 1410.75 221.113 1411.07 221.936C1402.04 224.13 1352.31 228.937 1347.3 228.801ZM1404.26 297.602C1404.34 297.591 1404.41 297.566 1404.47 297.523C1406.1 296.29 1420.84 233.241 1418.56 230.158C1417.18 229.073 1416.27 229.986 1415.88 228.864C1414 226.664 1415.04 226.513 1413.89 225.499C1412.16 223.964 1369.13 229.162 1347.84 231.953C1347.48 232 1347.03 232.117 1346.61 232.326C1347.09 233.006 1347.57 233.66 1348.05 234.283C1350.76 237.821 1351.08 239.088 1351.5 240.781C1351.87 242.267 1352.32 244.083 1354.54 248.056C1355.25 249.31 1355.89 250.487 1356.5 251.596C1359.99 257.994 1362.24 262.113 1367.88 265.733C1374.51 269.981 1379.82 276.284 1382.97 280.67C1385.64 284.399 1392.56 289.168 1398.18 293.039C1399.17 293.72 1400.12 294.374 1400.99 294.989C1402.27 295.88 1403.31 296.749 1404.26 297.602ZM1456.45 326.084C1456.53 326.323 1456.59 326.53 1456.63 326.711C1455.88 326.42 1455.09 326.164 1454.23 325.953C1448.36 324.515 1433.46 319.927 1428.46 317.118C1426.37 315.943 1425.45 314.577 1424.44 313.104C1423.05 311.054 1421.52 308.799 1416.52 306.567C1411.83 304.47 1409.38 302.433 1407.16 300.347C1408.99 291.186 1417.54 252.875 1422.08 232.623C1422.38 232.056 1423.69 231.447 1426.62 233.537C1429.48 235.577 1445.11 288.12 1452.56 313.192C1454.65 320.225 1456.1 325.097 1456.45 326.084ZM1513.32 328.642C1513.62 327.871 1513.45 327.018 1512.55 326.042C1509.64 322.893 1431.83 233.307 1431.83 233.307L1429.87 233.719C1426.82 232.819 1458.91 322.838 1461.22 328.113C1461.46 328.677 1461.77 329.201 1462.13 329.689L1462.31 329.8C1464.14 330.969 1466 332.158 1468.35 333.077C1471.36 334.252 1475.57 334.357 1480.14 334.471C1483.84 334.563 1487.78 334.661 1491.52 335.334C1497.23 336.361 1502.6 333.595 1507.06 331.297C1509.13 330.226 1511.02 329.256 1512.64 328.82C1512.87 328.759 1513.1 328.7 1513.32 328.642ZM1517.17 268.625L1434.24 226.865C1434.34 226.071 1430.18 222.582 1431.31 222.137C1439.25 219.018 1482.38 209.293 1486.94 208.942C1488.78 208.8 1490.92 210.5 1493.23 212.946C1494.47 214.948 1496.83 217.746 1499.51 220.904C1505.31 227.763 1512.55 236.323 1512.75 242.132C1512.98 248.999 1516.96 257.231 1519.74 262.715C1520.05 265.835 1519.41 268.298 1517.17 268.625ZM1350.71 126.282C1350.65 126.204 1350.59 126.127 1350.54 126.052C1352.69 125.736 1354.48 125.095 1355.5 124.088C1357.79 121.826 1363.78 119.084 1368.67 120.728C1373.57 122.372 1384.11 125.796 1387.37 126.001C1390.64 126.206 1394.11 128.741 1397.59 131.276C1398.01 131.582 1398.42 131.808 1398.82 131.974C1401.34 141.578 1417.61 211.469 1415.02 210.422C1415.34 211.245 1412.67 209.67 1413.28 210.491C1393.36 183.609 1352.97 129.132 1350.71 126.282ZM1406.44 132.688C1406.1 132.816 1405.76 132.973 1405.42 133.159C1404.72 133.535 1403.88 133.78 1402.97 133.948L1418.06 210.97C1418.54 211.067 1419.9 211.199 1420.35 211.381C1422.26 212.158 1422.98 213.09 1423.78 214.126C1424.24 214.726 1424.74 215.361 1425.5 216.021L1448.33 164.172C1448.82 163.051 1448.9 161.861 1448.67 160.644C1447.98 160.234 1447.29 159.843 1446.6 159.455C1443.8 157.876 1441.09 156.342 1439.31 153.676C1436.54 149.51 1433.81 148.104 1432.8 147.921C1430.95 146.825 1426.17 144.208 1421.82 142.51C1418.71 141.294 1416.53 139.493 1414.29 137.649C1412.62 136.273 1410.92 134.872 1408.79 133.672C1407.95 133.199 1407.17 132.889 1406.44 132.688ZM1453.42 164.807C1453.6 164.848 1453.76 164.891 1453.93 164.935C1453.98 164.995 1454.03 165.056 1454.08 165.118C1458.31 170.462 1462.65 174.299 1467.54 178.615C1472.42 182.932 1480.77 195.128 1482.07 198.417C1482.66 199.925 1484.33 201.707 1486.26 203.762C1486.92 204.467 1487.61 205.203 1488.29 205.971C1488.07 206.07 1487.81 206.152 1487.53 206.216L1429.87 219.454C1429.27 219.909 1428.28 219.65 1427.73 218.804C1427.19 217.958 1450.22 163.715 1450.22 163.715C1451.35 164.184 1452.43 164.571 1453.42 164.807Z" stroke="#687F6D" stroke-width="1.27764" stroke-linecap="round"/>
<path d="M1215.21 230.086C1215.26 230.092 1331.32 234.985 1331.32 234.985C1334.86 237.121 1337.94 241.3 1341.19 245.719C1343.83 249.307 1346.59 253.054 1349.8 255.992C1351.64 257.665 1353.04 259.164 1354.13 260.564C1355.08 263.119 1355.43 265.358 1354.85 266.981C1354.35 268.404 1353.82 269.802 1353.3 271.186C1350.89 277.594 1348.59 283.708 1348.92 290.732C1349.24 297.299 1345.73 301.127 1341.64 304.695C1341.31 304.535 1340.98 304.363 1340.64 304.18L1216.69 236.96C1213.39 235.795 1215.15 230.079 1215.21 230.086ZM1215.21 230.086C1215.26 230.092 1215.15 230.079 1215.21 230.086ZM1030.68 164.414C1016.53 227.83 1019.24 369.278 1151.09 423.36C1282.94 477.441 1351.41 364.26 1369.52 302.802M1168.92 343.055C1158.19 339.549 1133.71 330.02 1121.6 319.952C1106.47 307.367 1100.81 298.671 1084.31 288.065C1067.81 277.458 1054.18 262.331 1045.5 248.302C1036.82 234.273 1037.84 216.247 1032.6 205.859C1027.36 195.471 1027.42 167.314 1034.1 157.985C1040.78 148.656 1047.13 144.115 1052.02 138.456C1056.92 132.798 1083.79 115.752 1098.44 112.854C1113.08 109.956 1142.81 112.885 1155.15 112.252C1167.49 111.62 1199.01 121.296 1204.34 124.363C1209.66 127.431 1229.59 131.26 1240.01 134.861C1250.42 138.463 1275.97 154.649 1284.22 159.952C1292.46 165.256 1313.63 178.088 1331.22 198.261C1348.81 218.434 1355.23 231.068 1363.25 244.256C1371.27 257.444 1375.52 261.362 1373.5 272.918C1371.49 284.473 1372.91 289.252 1370.9 300.807C1368.88 312.362 1352.51 325.688 1346.21 336.986C1339.91 348.284 1303.88 356.653 1291.26 358.413C1278.64 360.174 1247.23 364.011 1240.39 363.487C1233.56 362.962 1215.7 354.335 1203.12 352.435C1190.55 350.535 1176.12 345.584 1168.92 343.055ZM1170.19 339.319C1159.77 335.912 1135.97 326.644 1124.22 316.818C1109.52 304.535 1104.03 296.036 1088 285.694C1071.98 275.351 1058.75 260.576 1050.33 246.864C1041.91 233.152 1042.93 215.505 1037.85 205.349C1032.78 195.193 1032.89 167.631 1039.4 158.482C1045.91 149.334 1052.1 144.874 1056.87 139.323C1061.63 133.772 1087.8 117.022 1102.05 114.15C1116.3 111.277 1145.2 114.073 1157.2 113.424C1169.21 112.775 1199.85 122.172 1205.02 125.161C1210.19 128.151 1229.57 131.851 1239.69 135.352C1249.81 138.852 1274.63 154.635 1282.64 159.806C1290.65 164.978 1311.21 177.488 1328.28 197.193C1345.36 216.897 1351.58 229.249 1359.36 242.139C1367.14 255.03 1371.26 258.855 1369.28 270.171C1367.3 281.487 1368.67 286.161 1366.69 297.477C1364.72 308.793 1348.77 321.877 1342.62 332.952C1336.47 344.026 1301.42 352.305 1289.15 354.058C1276.87 355.812 1246.31 359.644 1239.67 359.147C1233.03 358.65 1215.67 350.248 1203.44 348.418C1191.21 346.589 1177.19 341.777 1170.19 339.319ZM1064.54 211.005C1065.69 211.459 1066.93 211.882 1068.27 212.267C1078.53 215.215 1082.56 216.009 1108.85 219.101C1129.88 221.576 1167.14 227.262 1183.14 229.796C1181.34 227.973 1182.41 225.943 1184.52 224.272C1188.35 224.241 1166.64 210.982 1143.41 196.791C1125.48 185.842 1106.65 174.338 1097.94 167.927C1086.83 159.76 1083.12 157.472 1080.23 157.256C1078.71 157.947 1077.16 158.543 1075.63 159.014C1069.22 160.996 1067.61 164.04 1066.23 169.564C1065.78 171.385 1065.59 173.623 1065.4 175.886C1065 180.486 1064.6 185.187 1061.96 186.686C1058.02 188.923 1056.51 194.999 1061.08 203.781C1062.3 206.118 1063.49 208.572 1064.54 211.005ZM1115.81 282.711C1113.81 283.68 1111.31 283.038 1108.5 281.626L1108.49 281.612C1102.92 277.226 1096.86 272.458 1090.44 269.137C1081.47 264.496 1077.47 252.355 1074.93 244.64C1074.5 243.334 1074.11 242.155 1073.74 241.161C1072.7 238.322 1071.16 236.334 1069.86 234.647C1068 232.252 1066.61 230.463 1067.8 227.705C1068.42 226.26 1068.45 224.274 1068.07 221.961C1069.28 221.555 1070.8 221.411 1072.7 221.601L1182.45 232.557C1185.06 232.26 1185.93 235.561 1186.57 236.382C1176.95 244.454 1121.59 279.907 1115.81 282.711ZM1203.56 333.754C1203.65 333.692 1203.72 333.618 1203.77 333.533C1205.24 331.04 1201.45 244.529 1197.84 242.078C1195.9 241.559 1195.16 243.224 1194.34 242.076C1191.47 240.477 1192.61 239.672 1190.97 239.103C1188.48 238.241 1140.92 270.195 1117.46 286.28C1117.06 286.553 1116.59 286.963 1116.17 287.472C1116.95 288.022 1117.71 288.543 1118.46 289.028C1122.73 291.782 1123.5 293.157 1124.54 294.996C1125.45 296.611 1126.56 298.583 1130.41 302.16C1131.63 303.29 1132.75 304.36 1133.8 305.368C1139.9 311.187 1143.82 314.932 1151.47 316.045C1160.45 317.349 1168.6 321.968 1173.64 325.51C1177.92 328.522 1187.41 330.296 1195.1 331.736C1196.46 331.989 1197.76 332.232 1198.96 332.469C1200.71 332.814 1202.2 333.264 1203.56 333.754ZM1272.64 337.9C1272.81 338.145 1272.95 338.365 1273.05 338.564C1272.1 338.649 1271.11 338.805 1270.05 339.056C1262.86 340.768 1244.31 343.951 1237.66 343.454C1234.89 343.246 1233.38 342.112 1231.75 340.89C1229.48 339.189 1226.99 337.317 1220.54 337.53C1214.48 337.73 1211 336.674 1207.78 335.415C1206.88 323.031 1204.11 270.707 1202.68 243.027C1202.83 242.155 1204.14 240.621 1208.18 241.459C1212.12 242.277 1247.22 297.807 1263.97 324.304C1268.67 331.737 1271.92 336.886 1272.64 337.9ZM1338.59 307.286C1338.68 306.158 1338.21 305.207 1336.86 304.538C1332.49 302.381 1214.06 238.088 1214.06 238.088L1211.95 239.758C1208.16 240.458 1274.39 332.435 1278.76 337.57C1279.23 338.119 1279.76 338.582 1280.33 338.97L1280.56 339.004C1283.04 339.358 1285.57 339.719 1288.56 339.456C1292.39 339.12 1297.24 336.751 1302.52 334.175C1306.78 332.094 1311.32 329.876 1315.82 328.485C1322.7 326.361 1327.94 319.764 1332.29 314.283C1334.32 311.727 1336.15 309.414 1337.87 307.91C1338.11 307.7 1338.35 307.493 1338.59 307.286ZM1323.33 230.978L1214.7 228.712C1214.57 227.668 1208.65 225.838 1209.81 224.617C1217.88 216.054 1264.07 178.453 1269.18 175.312C1271.23 174.046 1274.24 174.874 1277.69 176.515C1279.76 178.253 1283.38 180.299 1287.48 182.608C1296.37 187.623 1307.46 193.882 1309.59 200.928C1312.11 209.258 1319.36 217.05 1324.34 222.165C1325.71 225.829 1325.8 229.244 1323.33 230.978ZM1086.13 154.243C1086.03 154.183 1085.94 154.122 1085.86 154.06C1088.21 152.395 1090.06 150.539 1090.89 148.692C1092.78 144.542 1098.74 137.604 1104.87 136.727C1111.01 135.85 1124.21 133.813 1128.01 132.128C1131.81 130.444 1136.62 131.507 1141.43 132.57C1142.01 132.698 1142.55 132.735 1143.07 132.7C1149.1 143.053 1190.62 219.595 1187.32 219.84C1187.96 220.661 1184.38 220.307 1185.35 220.958C1153.74 199.626 1089.64 156.419 1086.13 154.243ZM1152.03 129.057C1151.69 129.415 1151.35 129.809 1151.01 130.244C1150.34 131.122 1149.46 131.922 1148.47 132.671L1190.98 218.707C1191.56 218.542 1193.16 217.899 1193.73 217.858C1196.17 217.682 1197.3 218.404 1198.56 219.206C1199.29 219.671 1200.06 220.162 1201.15 220.523L1210.3 143.018C1210.5 141.343 1210.2 139.827 1209.53 138.468C1208.61 138.367 1207.69 138.296 1206.78 138.226C1203.06 137.939 1199.44 137.661 1196.54 135.428C1192 131.937 1188.42 131.819 1187.19 132.197C1184.72 131.941 1178.39 131.552 1172.86 132.038C1168.9 132.386 1165.81 131.461 1162.64 130.514C1160.28 129.808 1157.88 129.089 1155.04 128.876C1153.92 128.792 1152.93 128.872 1152.03 129.057ZM1216.34 140.778C1216.55 140.726 1216.76 140.678 1216.96 140.634C1217.04 140.679 1217.12 140.725 1217.19 140.772C1223.79 144.852 1230.02 147.006 1237.02 149.43C1244.03 151.853 1257.58 161.94 1260.14 165.226C1261.32 166.733 1263.81 167.94 1266.69 169.332C1267.68 169.808 1268.71 170.307 1269.75 170.847C1269.52 171.103 1269.26 171.354 1268.96 171.599L1207.28 222.162C1206.74 223.078 1205.52 223.35 1204.62 222.63C1203.71 221.911 1212.31 141.334 1212.31 141.334C1213.76 141.241 1215.13 141.073 1216.34 140.778Z" stroke="#687F6D" stroke-width="1.14183" stroke-linecap="round"/>
<path d="M894.942 186.179C894.988 186.115 984.179 37.3743 984.179 37.3743C988.932 34.6855 995.437 34.5145 1002.32 34.3336C1007.9 34.1868 1013.73 34.0335 1019.07 32.5194C1022.11 31.6572 1024.67 31.193 1026.89 31.0646C1030.19 32.1913 1032.73 33.813 1033.97 36.0858C1035.06 38.0785 1036.11 40.0741 1037.15 42.0497C1041.96 51.2007 1046.54 59.93 1053.97 66.0293C1060.91 71.7315 1062.29 79.9246 1062.96 88.6565C1062.56 88.9373 1062.15 89.2156 1061.72 89.4911L903.05 190.62C899.467 193.888 894.897 186.243 894.942 186.179ZM894.942 186.179C894.988 186.115 894.897 186.243 894.942 186.179ZM693.921 368.759C748.516 446.509 895.16 574.64 1046.12 450.84C1197.08 327.039 1130.98 131.216 1081.25 50.0629M976.913 352.514C965.545 363.419 938.041 386.883 918.961 393.499C895.111 401.77 882.11 401.15 859.295 413.065C836.48 424.979 811.121 428.895 790.474 427.299C769.827 425.703 752.127 407.575 737.701 404.823C723.275 402.07 694.522 375.768 689.825 358.259C685.127 340.751 685.092 328.13 682.853 316.398C680.614 304.666 682.675 253.293 690.335 231.249C697.994 209.205 722.552 172.671 730.856 155.782C739.16 138.893 771.923 106.267 778.924 102.089C785.924 97.9099 804.297 75.1529 815.534 64.7517C826.772 54.3505 861.859 35.6787 873.266 29.7214C884.674 23.7642 913.15 7.76013 946.544 3.30951C979.938 -1.1411 997.517 2.14398 1016.82 3.82887C1036.13 5.51378 1043.22 3.55702 1053.58 16.9759C1063.94 30.3948 1069.85 32.9711 1080.21 46.39C1090.57 59.8089 1092.32 93.8497 1099.31 112.691C1106.29 131.532 1088.72 186.908 1081.37 205.219C1074.01 223.53 1055.15 268.596 1049.66 277.129C1044.17 285.663 1022.39 301.221 1011.32 316.066C1000.25 330.911 984.723 345.358 976.913 352.514ZM974.016 347.351C962.969 357.952 936.23 380.748 917.652 387.127C894.429 395.101 881.753 394.439 859.55 405.976C837.346 417.513 812.639 421.228 792.507 419.58C772.375 417.932 755.065 400.152 740.994 397.402C726.923 394.651 698.812 368.84 694.178 351.721C689.544 334.602 689.47 322.276 687.251 310.81C685.032 299.343 686.881 249.181 694.279 227.686C701.677 206.192 725.502 170.618 733.544 154.161C741.587 137.703 773.423 105.983 780.234 101.932C787.045 97.8815 804.883 75.7366 815.805 65.6274C826.727 55.5183 860.872 37.4352 871.974 31.6668C883.075 25.8983 910.784 10.3919 943.323 6.18986C975.862 1.98777 993.008 5.27197 1011.83 7.00089C1030.66 8.72981 1037.56 6.84948 1047.7 19.999C1057.84 33.1486 1063.62 35.6902 1073.76 48.8397C1083.9 61.9893 1085.71 95.2408 1092.58 113.671C1099.45 132.102 1082.49 186.105 1075.38 203.956C1068.27 221.806 1050.02 265.736 1044.69 274.046C1039.37 282.356 1018.18 297.456 1007.44 311.906C996.7 326.355 981.607 340.397 974.016 347.351ZM766.133 367.427C767.432 366.331 768.765 365.083 770.129 363.674C780.586 352.868 784.322 348.284 806.557 316.436C824.345 290.958 857.188 247.038 871.386 228.263C868.216 228.944 866.916 225.64 866.736 221.299C869.48 216.216 840.174 232.54 808.807 250.012C784.605 263.493 759.177 277.657 746.299 283.197C729.894 290.255 724.858 293.033 722.539 296.652C722.149 299.292 721.629 301.903 721.005 304.356C718.379 314.674 720.329 319.63 724.978 326.593C726.511 328.889 728.663 331.226 730.837 333.587C735.258 338.389 739.775 343.295 739.393 348.181C738.822 355.469 743.937 363.129 756.238 365.264C759.511 365.833 762.883 366.549 766.133 367.427ZM876.67 366.469C876.213 370.01 873.738 372.722 870.259 375.113L870.232 375.123C861.706 378.396 852.436 381.954 844.385 387.338C833.132 394.862 817.809 388.845 808.072 385.022C806.425 384.375 804.937 383.791 803.656 383.346C799.998 382.075 796.848 382.259 794.174 382.415C790.378 382.637 787.542 382.802 785.58 378.669C784.552 376.505 782.547 374.606 779.906 372.953C780.362 370.988 781.323 368.839 782.895 366.505L873.711 231.745C875.302 228.019 879.307 229.946 880.612 229.865C881.885 250.094 877.991 356.232 876.67 366.469ZM992.528 298.097C992.531 297.917 992.508 297.753 992.457 297.607C990.972 293.348 899.74 217.794 894.609 220.289C892.675 222.361 893.841 224.887 892.07 224.906C888.353 227.207 888.36 224.947 886.583 226.592C883.895 229.08 882.084 321.646 881.515 367.618C881.505 368.399 881.581 369.404 881.8 370.427C882.927 369.913 884.015 369.389 885.055 368.848C890.966 365.777 892.934 366.035 895.566 366.381C897.877 366.684 900.7 367.055 907.153 365.296C909.191 364.741 911.098 364.257 912.895 363.801C923.267 361.17 929.944 359.477 936.632 350.405C944.479 339.762 955.115 333.297 962.391 329.943C968.579 327.09 977.273 316.214 984.331 307.385C985.572 305.831 986.763 304.342 987.881 302.97C989.501 300.982 991.037 299.442 992.528 298.097ZM1046.88 210.715C1047.25 210.714 1047.58 210.739 1047.86 210.786C1047.25 212.12 1046.69 213.578 1046.18 215.203C1042.72 226.299 1032.51 253.77 1027.19 262.081C1024.96 265.556 1022.71 266.496 1020.27 267.509C1016.89 268.919 1013.17 270.471 1008.71 279.188C1004.51 287.38 1000.91 290.982 997.291 294.063C983.965 283.732 928.438 238.667 899.091 214.778C898.308 213.77 897.687 210.614 901.475 206.057C905.172 201.609 987.431 206.955 1026.68 209.506C1037.69 210.222 1045.32 210.717 1046.88 210.715ZM1063.41 95.0886C1062.32 93.9227 1061 93.6602 1059.34 94.8246C1053.97 98.5783 902.292 195.15 902.292 195.15L902.472 199.491C900.443 205.14 1042.56 203.31 1050.98 202.316C1051.88 202.21 1052.74 201.947 1053.55 201.553L1053.75 201.273C1055.92 198.327 1058.12 195.332 1060.02 191.132C1062.45 185.764 1063.55 177.152 1064.74 167.782C1065.7 160.213 1066.73 152.149 1068.57 144.904C1071.39 133.847 1068.44 120.785 1065.99 109.934C1064.85 104.874 1063.81 100.295 1063.52 96.6228C1063.48 96.1115 1063.44 95.5999 1063.41 95.0886ZM974.288 44.189L893.172 185.564C892.005 184.773 885.845 190.878 885.431 188.222C882.527 169.589 877.574 73.5624 878.066 63.89C878.265 59.9913 881.289 56.7988 885.473 53.7656C888.75 52.6514 893.473 49.7668 898.804 46.5105C910.382 39.4389 924.831 30.6139 933.585 34.3585C943.933 38.7851 957.16 36.4669 966.002 34.6568C970.748 36.2509 974.3 39.3237 974.288 44.189ZM723.737 286.053C723.606 286.125 723.478 286.187 723.353 286.24C723.359 281.578 722.8 277.413 721.518 274.586C718.638 268.238 715.864 253.904 719.42 244.979C722.976 236.054 730.464 216.73 731.499 210.137C732.535 203.545 737.111 198.183 741.687 192.821C742.239 192.174 742.669 191.492 743.008 190.778C757.969 192.457 866.378 208.885 864.232 213.477C865.537 213.396 862.58 217.79 863.946 217.121C819.2 239.007 728.513 283.434 723.737 286.053ZM745.78 175.554C745.897 176.34 746.055 177.153 746.257 177.999C746.665 179.71 746.845 181.617 746.894 183.621L865.733 207.581C865.986 206.657 866.486 203.953 866.858 203.159C868.45 199.768 870.008 198.947 871.74 198.034C872.743 197.506 873.805 196.946 874.966 195.839L802.329 111.585C800.759 109.763 798.994 108.742 797.116 108.363C796.349 109.481 795.607 110.633 794.873 111.774C791.881 116.422 788.974 120.937 784.582 122.696C777.717 125.444 775.001 130.062 774.5 132.027C772.445 135.056 767.455 143.056 763.938 150.818C761.42 156.375 758.233 159.594 754.969 162.892C752.534 165.352 750.055 167.856 747.779 171.407C746.881 172.809 746.243 174.194 745.78 175.554ZM804.419 101.52C804.519 101.194 804.621 100.875 804.724 100.562C804.826 100.503 804.928 100.445 805.031 100.388C813.987 95.4787 820.709 89.2577 828.27 82.2591C835.831 75.2604 855.979 66.7527 861.2 66.4276C863.593 66.2786 866.638 64.1062 870.148 61.6013C871.351 60.743 872.609 59.8456 873.914 58.9769C874.011 59.5147 874.078 60.0945 874.112 60.7184L881.087 189.273C881.635 190.834 881.024 192.704 879.635 193.225C878.245 193.746 802.065 107.361 802.065 107.361C803.022 105.358 803.844 103.393 804.419 101.52Z" stroke="#849787" stroke-width="2.14777" stroke-linecap="round"/>
<path d="M10.9713 248.818C10.9929 248.78 52.7296 162.084 52.7296 162.084C55.1082 160.134 58.4668 159.255 62.0179 158.325C64.9021 157.57 67.9133 156.782 70.6295 155.36C72.1762 154.55 73.4835 154.002 74.6264 153.667C76.3668 153.839 77.73 154.356 78.4394 155.364C79.0613 156.247 79.6621 157.137 80.2569 158.018C83.012 162.098 85.6401 165.99 89.6599 168.196C93.4181 170.258 94.3696 174.268 94.9782 178.637C94.7792 178.829 94.5722 179.021 94.3568 179.215L15.2943 250.095C13.5382 252.197 10.9498 248.856 10.9713 248.818ZM10.9713 248.818C10.9929 248.78 10.9498 248.856 10.9713 248.818ZM-87.5927 366.384C-57.0728 399.377 22.5268 446.849 96.9367 365.348C171.347 283.847 131.399 192.054 103.298 156.733M58.2557 323.643C52.6992 330.587 39.1685 345.899 29.4978 351.596C17.4095 358.717 10.6684 359.984 -0.777657 368.837C-12.2237 377.689 -25.2207 382.774 -35.9437 384.474C-46.6666 386.174 -56.3525 379.087 -63.8929 379.44C-71.4332 379.793 -87.0753 369.884 -90.0201 361.529C-92.9649 353.174 -93.355 346.744 -94.8583 341.035C-96.3616 335.326 -96.8089 308.882 -93.4978 296.71C-90.1868 284.539 -78.5647 262.921 -74.7684 253.299C-70.9721 243.677 -54.9923 223.054 -51.4957 220.071C-47.9991 217.088 -39.1695 203.248 -33.6653 196.577C-28.1611 189.905 -10.5686 176.113 -4.84558 171.687C0.877457 167.26 15.1303 155.633 32.2662 149.298C49.402 142.963 58.5884 142.497 68.6215 141.005C78.6547 139.514 82.2607 137.653 88.0123 143.233C93.7639 148.814 96.899 149.407 102.651 154.987C108.402 160.568 110.31 177.71 114.477 186.466C118.645 195.221 111.19 225.595 107.927 235.826C104.663 246.057 96.238 271.331 93.65 276.35C91.062 281.37 80.2582 291.954 74.9729 300.871C69.6875 309.787 62.0833 319.044 58.2557 323.643ZM56.6057 321.364C51.2059 328.114 38.0516 342.992 28.6332 348.506C16.8601 355.4 10.2862 356.606 -0.8546 365.192C-11.9954 373.777 -24.6616 378.68 -35.1198 380.291C-45.5779 381.902 -55.0522 374.944 -62.409 375.255C-69.7658 375.567 -85.0613 365.829 -87.9617 357.665C-90.862 349.501 -91.2633 343.226 -92.7486 337.65C-94.2339 332.074 -94.7551 306.274 -91.5632 294.414C-88.3713 282.554 -77.0997 261.516 -73.4261 252.145C-69.7525 242.775 -54.2254 222.726 -50.823 219.831C-47.4205 216.937 -38.849 203.474 -33.4993 196.99C-28.1497 190.506 -11.027 177.129 -5.45656 172.836C0.113844 168.543 13.9846 157.263 30.6856 151.159C47.3866 145.054 56.3492 144.641 66.1349 143.23C75.9206 141.819 79.4334 140.02 85.0638 145.49C90.6942 150.96 93.7553 151.552 99.3857 157.022C105.016 162.492 106.933 179.225 111.027 187.785C115.122 196.345 107.945 225.944 104.793 235.911C101.642 245.878 93.5014 270.497 90.9922 275.383C88.4829 280.268 77.9744 290.546 72.8455 299.222C67.7166 307.897 60.326 316.894 56.6057 321.364ZM-50.2935 356.912C-49.6541 356.195 -49.0012 355.396 -48.3374 354.512C-43.2487 347.729 -41.4521 344.937 -30.8932 325.992C-22.446 310.836 -6.75756 284.444 0.0307765 273.143C-1.58846 273.876 -2.35781 272.35 -2.57864 270.159C-1.30954 267.232 -15.9823 279.124 -31.6864 291.851C-43.8033 301.671 -56.5342 311.989 -63.0299 316.382C-71.3045 321.978 -73.8268 324.007 -74.9194 326.135C-75.0433 327.528 -75.2349 328.923 -75.4856 330.25C-76.5395 335.83 -75.3854 338.119 -72.776 341.104C-71.9156 342.088 -70.7345 343.017 -69.5405 343.956C-67.1132 345.866 -64.6328 347.817 -64.6867 350.355C-64.7671 354.14 -61.8967 357.423 -55.4733 357.014C-53.7641 356.905 -51.9995 356.86 -50.2935 356.912ZM6.83386 342.964C6.70187 344.825 5.502 346.509 3.77367 348.152L3.76 348.16C-0.552193 350.867 -5.24058 353.81 -9.24499 357.535C-14.8419 362.742 -22.9421 361.54 -28.0893 360.776C-28.9603 360.647 -29.7468 360.53 -30.4222 360.459C-32.351 360.256 -33.9746 360.734 -35.3526 361.139C-37.309 361.714 -38.7703 362.144 -39.9067 360.276C-40.5018 359.297 -41.5943 358.573 -43.0087 358.052C-42.8307 356.995 -42.3975 355.782 -41.653 354.401L1.33551 274.635C2.04815 272.542 4.17596 273.036 4.84842 272.836C6.10274 282.995 7.21538 337.584 6.83386 342.964ZM64.7267 293.998C64.7231 293.905 64.7064 293.824 64.6758 293.756C63.7826 291.765 14.3834 264.353 11.8039 266.25C10.865 267.541 11.5422 268.687 10.6272 268.913C8.77278 270.538 8.70992 269.385 7.8394 270.44C6.52257 272.036 8.31326 319.452 9.3732 342.96C9.39086 343.359 9.46005 343.862 9.6034 344.358C10.171 343.958 10.7178 343.558 11.24 343.156C14.2058 340.87 15.2312 340.763 16.6021 340.618C17.806 340.492 19.2763 340.337 22.5613 338.654C23.5987 338.123 24.5708 337.644 25.4865 337.193C30.7721 334.589 34.1745 332.912 37.3656 327.473C41.1093 321.091 46.4188 316.5 50.0822 313.904C53.1975 311.696 57.3727 305.092 60.7619 299.731C61.3582 298.788 61.9302 297.883 62.4677 297.047C63.2468 295.837 63.9957 294.865 64.7267 293.998ZM90.2548 242.828C90.4492 242.782 90.618 242.755 90.7636 242.745C90.4915 243.498 90.2441 244.31 90.0294 245.2C88.5639 251.279 84.0972 266.528 81.588 271.414C80.5386 273.457 79.3998 274.211 78.1722 275.024C76.4642 276.154 74.5845 277.399 72.5348 282.387C70.6086 287.074 68.8536 289.349 67.0711 291.361C59.8761 287.716 29.8372 271.5 13.959 262.894C13.5241 262.475 13.1105 260.942 14.9347 258.157C16.7153 255.44 59.4064 248.149 79.7772 244.67C85.4917 243.694 89.4498 243.018 90.2548 242.828ZM95.3964 181.862C94.7986 181.401 94.1105 181.427 93.2834 182.224C90.6172 184.791 15.036 252.497 15.036 252.497L15.2568 254.688C14.374 257.815 87.8041 239.578 92.1306 238.046C92.5929 237.882 93.0271 237.643 93.4357 237.344L93.5334 237.176C94.5646 235.411 95.6129 233.616 96.4732 231.243C97.5725 228.21 97.8857 223.686 98.2264 218.763C98.5017 214.787 98.7949 210.551 99.535 206.632C100.664 200.652 98.755 194.351 97.1685 189.117C96.4288 186.677 95.7593 184.468 95.5009 182.631C95.4649 182.375 95.4302 182.119 95.3964 181.862ZM47.8163 166.762L10.0379 248.72C9.41108 248.458 6.40589 252.321 6.11357 251.017C4.06276 241.871 -1.3267 193.515 -1.35703 188.523C-1.36927 186.511 0.100445 184.515 2.17437 182.459C3.83628 181.492 6.19325 179.447 8.85406 177.137C14.6324 172.122 21.8434 165.863 26.4799 166.707C31.9609 167.703 38.7322 164.911 43.2506 162.911C45.7518 163.146 47.6789 164.28 47.8163 166.762ZM-74.6122 320.585C-74.6779 320.638 -74.7421 320.685 -74.8049 320.727C-74.9393 318.349 -75.3513 316.294 -76.0974 315.009C-77.7734 312.123 -79.63 305.153 -78.0542 300.169C-76.4783 295.186 -73.176 284.421 -72.8347 280.934C-72.4933 277.447 -70.2852 274.156 -68.0771 270.865C-67.8105 270.468 -67.6082 270.068 -67.454 269.662C-59.6689 268.697 -3.12957 263.873 -4.10403 266.475C-3.43157 266.275 -4.83106 268.875 -4.14429 268.368C-26.6366 284.975 -72.2195 318.669 -74.6122 320.585ZM-66.4691 261.563C-66.3856 261.949 -66.2798 262.345 -66.1505 262.752C-65.889 263.574 -65.7397 264.524 -65.6555 265.54L-3.50176 263.286C-3.39801 262.784 -3.21922 261.345 -3.05005 260.895C-2.32683 258.972 -1.54547 258.364 -0.676644 257.687C-0.173494 257.296 0.359001 256.881 0.926536 256.175L-39.1137 222.062C-39.9793 221.325 -40.9219 221.019 -41.9039 221.055C-42.268 221.718 -42.6175 222.396 -42.9636 223.067C-44.3738 225.801 -45.7438 228.457 -47.9628 229.888C-51.4316 232.126 -52.7002 234.811 -52.901 235.874C-53.8745 237.668 -56.2192 242.354 -57.8091 246.74C-58.9473 249.88 -60.5002 251.909 -62.0908 253.988C-63.2776 255.539 -64.4854 257.118 -65.5576 259.205C-65.9807 260.029 -66.27 260.813 -66.4691 261.563ZM-38.3295 216.676C-38.2873 216.498 -38.2442 216.323 -38.2001 216.151C-38.1493 216.108 -38.098 216.066 -38.0464 216.025C-33.5599 212.431 -30.2678 208.441 -26.5642 203.952C-22.8607 199.463 -12.6934 192.672 -10.0036 191.871C-8.77045 191.503 -7.26019 190.025 -5.51874 188.321C-4.92204 187.736 -4.29812 187.126 -3.64877 186.524C-3.58275 186.786 -3.53128 187.074 -3.4954 187.388L3.89807 252.082C4.2278 252.811 3.96698 253.839 3.26376 254.274C2.56055 254.709 -39.3745 219.941 -39.3745 219.941C-38.9389 218.803 -38.5717 217.701 -38.3295 216.676Z" stroke="#687F6D" stroke-width="0.5" stroke-linecap="round"/>
<path d="M318.275 248.112C318.332 248.122 440.974 261.429 440.974 261.429C444.769 263.644 448.129 267.685 451.68 271.958C454.565 275.429 457.576 279.052 461.052 281.974C463.031 283.638 464.558 285.11 465.74 286.468C466.81 288.868 467.24 290.934 466.676 292.369C466.181 293.627 465.664 294.86 465.152 296.081C462.78 301.735 460.518 307.129 461.06 313.553C461.567 319.558 457.971 322.778 453.744 325.717C453.396 325.545 453.041 325.364 452.68 325.171L320.027 254.487C316.516 253.174 318.219 248.102 318.275 248.112ZM318.275 248.112C318.332 248.122 318.219 248.102 318.275 248.112ZM121.722 174.219C108.488 230.908 115.162 359.964 255.802 419.283C396.442 478.602 465.664 380.722 483.127 326.118M272.457 347.49C261.039 343.478 234.939 332.931 221.888 322.837C205.574 310.219 199.363 301.865 181.663 290.946C163.963 280.026 149.169 265.207 139.626 251.766C130.083 238.324 130.671 221.981 124.86 212.119C119.05 202.256 118.358 176.613 125.157 168.623C131.955 160.634 138.54 156.982 143.552 152.201C148.564 147.419 176.476 133.941 191.858 132.418C207.24 130.894 238.696 135.829 251.705 136.194C264.715 136.558 298.25 147.777 303.954 150.977C309.659 154.177 330.799 159.185 341.888 163.26C352.978 167.334 380.381 184.027 389.231 189.487C398.081 194.947 420.766 208.25 439.879 227.968C458.991 247.685 466.108 259.684 474.931 272.309C483.754 284.934 488.339 288.826 486.525 299.199C484.712 309.572 486.338 314.033 484.524 324.405C482.711 334.778 465.782 345.668 459.437 355.48C453.091 365.291 415.29 370.167 402.014 370.809C388.738 371.45 355.682 372.551 348.458 371.552C341.233 370.553 322.147 361.332 308.818 358.642C295.489 355.953 280.126 350.343 272.457 347.49ZM273.702 344.183C262.604 340.286 237.239 330.028 224.564 320.181C208.72 307.872 202.695 299.711 185.5 289.068C168.304 278.424 153.943 263.957 144.686 250.824C135.43 237.692 136.031 221.694 130.397 212.055C124.764 202.416 124.139 177.318 130.765 169.481C137.392 161.644 143.803 158.052 148.686 153.359C153.57 148.666 180.741 135.403 195.705 133.873C210.668 132.343 241.253 137.094 253.905 137.418C266.557 137.742 299.152 148.638 304.695 151.756C310.237 154.873 330.788 159.722 341.566 163.682C352.344 167.642 378.966 183.912 387.564 189.234C396.161 194.555 418.201 207.519 436.753 226.771C455.306 246.022 462.206 257.748 470.764 270.083C479.322 282.419 483.774 286.217 481.991 296.375C480.209 306.532 481.782 310.894 479.999 321.052C478.216 331.209 461.732 341.912 455.542 351.531C449.353 361.151 412.578 366.019 399.665 366.681C386.752 367.342 354.6 368.503 347.575 367.544C340.551 366.584 322.004 357.607 309.046 355.008C296.087 352.409 281.155 346.957 273.702 344.183ZM158.714 219.241C159.94 219.743 161.263 220.223 162.686 220.675C173.595 224.143 177.871 225.174 205.708 229.996C227.977 233.854 267.461 241.874 284.419 245.403C282.47 243.605 283.545 241.838 285.725 240.476C289.764 240.74 266.494 227.006 241.588 212.308C222.372 200.967 202.181 189.052 192.81 182.547C180.873 174.262 176.888 171.894 173.829 171.476C172.252 171.99 170.625 172.415 169.028 172.728C162.31 174.043 160.697 176.695 159.391 181.621C158.961 183.245 158.82 185.27 158.677 187.316C158.387 191.477 158.091 195.728 155.343 196.893C151.243 198.63 149.807 204.049 154.872 212.398C156.22 214.62 157.54 216.946 158.714 219.241ZM214.773 288.471C212.69 289.202 210.027 288.426 207.028 286.926L207.009 286.912C201.012 282.492 194.491 277.686 187.628 274.172C178.036 269.26 173.482 257.895 170.589 250.673C170.099 249.451 169.657 248.348 169.246 247.414C168.072 244.749 166.393 242.82 164.967 241.184C162.943 238.861 161.431 237.126 162.607 234.703C163.223 233.434 163.208 231.628 162.746 229.492C164.003 229.213 165.61 229.199 167.621 229.517L283.766 247.866C286.515 247.794 287.52 250.867 288.219 251.664C278.276 258.283 220.792 286.357 214.773 288.471ZM308.773 341.659C308.869 341.609 308.943 341.547 308.994 341.473C310.476 339.315 304.147 260.22 300.263 257.712C298.207 257.092 297.472 258.551 296.572 257.443C293.5 255.767 294.686 255.122 292.932 254.478C290.279 253.503 240.943 278.985 216.607 291.848C216.193 292.066 215.706 292.403 215.281 292.835C216.116 293.396 216.937 293.929 217.743 294.428C222.32 297.261 223.174 298.573 224.316 300.327C225.319 301.868 226.544 303.749 230.707 307.301C232.022 308.423 233.234 309.483 234.376 310.482C240.965 316.247 245.207 319.958 253.314 321.555C262.826 323.428 271.554 328.257 276.966 331.868C281.568 334.938 291.628 337.277 299.794 339.175C301.231 339.509 302.609 339.83 303.889 340.138C305.743 340.585 307.32 341.108 308.773 341.659ZM381.803 350.703C381.993 350.939 382.143 351.15 382.259 351.339C381.258 351.344 380.213 351.41 379.108 351.558C371.561 352.57 352.061 354.054 345.036 353.095C342.099 352.694 340.473 351.546 338.721 350.308C336.282 348.586 333.599 346.691 326.796 346.393C320.404 346.113 316.71 344.886 313.278 343.494C311.985 332.143 307.652 284.268 305.399 258.945C305.533 258.162 306.872 256.865 311.159 257.936C315.344 258.982 353.892 312.242 372.286 337.657C377.446 344.786 381.02 349.724 381.803 350.703ZM450.602 327.844C450.664 326.824 450.14 325.921 448.694 325.209C444.031 322.911 317.276 255.313 317.276 255.313L315.096 256.675C311.12 257.023 383.507 345.858 388.261 350.869C388.769 351.405 389.337 351.866 389.951 352.264L390.2 352.312C392.828 352.825 395.5 353.345 398.654 353.334C402.684 353.32 407.741 351.532 413.242 349.588C417.686 348.017 422.42 346.343 427.137 345.419C434.337 344.009 439.688 338.398 444.133 333.737C446.206 331.564 448.082 329.597 449.857 328.358C450.104 328.185 450.353 328.014 450.602 327.844ZM432.438 257.169L317.707 246.822C317.535 245.86 311.245 243.743 312.426 242.719C320.714 235.534 368.461 204.804 373.769 202.332C375.908 201.335 379.098 202.319 382.788 204.077C385.018 205.818 388.901 207.958 393.284 210.373C402.803 215.62 414.681 222.167 417.122 228.748C420.007 236.528 427.868 244.178 433.259 249.217C434.811 252.66 434.989 255.777 432.438 257.169ZM179.976 169.181C179.872 169.12 179.776 169.057 179.686 168.994C182.127 167.657 184.025 166.107 184.859 164.489C186.733 160.852 192.837 154.986 199.294 154.655C205.751 154.324 219.623 153.475 223.593 152.23C227.562 150.986 232.667 152.321 237.772 153.656C238.388 153.817 238.961 153.892 239.505 153.899C246.146 163.789 292.04 236.681 288.559 236.652C289.257 237.449 285.473 236.853 286.509 237.52C252.569 215.678 183.747 171.432 179.976 169.181ZM248.863 151.264C248.51 151.564 248.164 151.897 247.823 152.267C247.133 153.016 246.226 153.678 245.202 154.285L292.398 235.9C293.008 235.793 294.674 235.33 295.276 235.336C297.851 235.362 299.063 236.105 300.411 236.932C301.192 237.411 302.018 237.917 303.181 238.329L310.75 168.425C310.914 166.914 310.561 165.51 309.816 164.221C308.845 164.06 307.87 163.924 306.904 163.791C302.968 163.246 299.145 162.717 296.018 160.461C291.13 156.935 287.348 156.555 286.069 156.806C283.451 156.384 276.758 155.547 270.93 155.568C266.757 155.583 263.471 154.505 260.105 153.401C257.594 152.577 255.038 151.739 252.037 151.329C250.852 151.167 249.807 151.164 248.863 151.264ZM317.066 166.845C317.287 166.814 317.505 166.786 317.721 166.761C317.803 166.808 317.884 166.855 317.966 166.904C325.036 171.124 331.669 173.561 339.13 176.303C346.592 179.045 361.17 189.267 363.963 192.456C365.244 193.918 367.911 195.207 370.986 196.695C372.04 197.204 373.141 197.737 374.252 198.308C374.019 198.523 373.749 198.732 373.44 198.933L309.693 240.289C309.152 241.083 307.866 241.237 306.895 240.513C305.924 239.789 312.828 167.044 312.828 167.044C314.356 167.07 315.797 167.022 317.066 166.845Z" stroke="#849787" stroke-width="1.81809" stroke-linecap="round"/>
</g>
</svg>
