<svg width="221" height="338" viewBox="0 0 221 338" fill="none" xmlns="http://www.w3.org/2000/svg">
<path fill-rule="evenodd" clip-rule="evenodd" d="M115.232 63.1951C121.308 65.1674 123.879 70.4995 128.937 70.4998C130.308 70.4998 134.212 71.4401 139.633 73.3376C140.623 74.1133 141.995 75.4574 143.556 77.157C145.422 79.1874 147.595 81.7607 149.775 84.5652C154.125 90.1609 158.547 96.7313 160.614 101.775C162.671 106.797 164.639 114.765 166.398 122.518C168.165 130.306 169.723 137.877 170.969 142.202C172.244 146.626 173.028 154.922 173.419 162.599C173.615 166.451 173.712 170.168 173.722 173.196C173.732 176.207 173.656 178.58 173.492 179.719C173.344 180.747 173.322 182.446 173.381 184.583C173.439 186.706 173.575 189.22 173.731 191.859C174.043 197.123 174.437 202.895 174.437 206.955C174.437 211.046 173.49 218.391 172.395 225.524C171.298 232.674 170.044 239.667 169.418 243.085C168.168 249.903 165.339 267.364 158.103 283.586C150.878 299.784 145.524 306.658 140.21 314.718C138.879 316.736 137.816 318.463 136.842 319.972C136.251 320.89 135.694 321.721 135.143 322.468C131.937 323.354 129.754 323.841 128.437 324.5C126.245 325.596 125.012 326.786 123.899 327.822C122.356 328.13 121.053 328.513 119.738 328.899C117.62 329.521 115.472 330.153 112.297 330.468C111.031 330.593 109.658 330.339 108.233 329.847C103.407 329.257 97.8426 327.419 92.2155 325.373C82.9872 319.721 82.6166 318.005 67.9372 312.5C51.9366 306.499 -5.5628 271.499 0.437154 176.5C6.43709 81.5007 82.936 75.9997 94.9372 70.4998C101.118 67.6671 102.922 65.4975 104.447 64.1277C108.056 63.6547 111.657 63.3439 115.232 63.1951ZM119.501 205.021C119.475 204.98 116.155 204.743 116.141 207.382L103.279 311.195C103.244 311.478 103.213 311.755 103.188 312.025C105.821 314.389 108.484 316.269 111.895 314.83C115.544 313.291 119.193 313.861 123.018 314.46C123.844 314.589 124.678 314.719 125.522 314.83C126.485 314.956 127.603 314.286 128.78 313.116C129.321 312.059 129.856 310.744 130.405 309.085C131.369 306.17 132.843 303.446 134.256 300.837C135.996 297.625 137.642 294.586 138.123 291.581C138.074 291.355 119.507 205.062 119.501 205.021ZM113.797 204.397C112.733 201.74 76.2543 267.519 74.3395 271.692C74.135 272.138 73.9861 272.612 73.8854 273.105L73.9108 273.285C74.1766 275.18 74.4476 277.107 75.1334 279.267C76.01 282.028 78.1466 285.171 80.4713 288.59C82.3494 291.352 84.3501 294.294 85.9079 297.361C88.2853 302.041 92.7269 304.69 96.4166 306.891C98.1371 307.918 99.6949 308.847 100.803 309.839C100.958 309.977 101.111 310.117 101.264 310.257C101.876 310.114 102.292 309.59 102.398 308.469C102.741 304.848 115.064 205.645 115.064 205.645L113.797 204.397ZM121.402 200.03C120.548 199.408 120.661 204.104 120.134 204.397L138.781 284.954C140.146 286.45 141.936 285.761 143.62 284.071C145.412 279.458 148.204 272.678 152.143 269.285C155.475 266.415 156.754 257.078 157.779 249.597C158.251 246.153 158.67 243.101 159.21 241.256C159.446 238.406 159.335 236.04 158.29 234.754C155.697 231.563 127.399 204.407 121.402 200.03ZM110.377 198.161C96.0174 204.309 68.8864 215.983 62.5114 218.933C62.4348 221.54 62.5115 224.296 63.7243 228.73C65.0149 233.449 64.482 235.634 63.9977 237.619C63.6497 239.045 63.3268 240.369 63.7243 242.456C64.675 247.447 69.745 260.549 71.9635 265.541C72.2885 266.272 72.5527 266.976 72.7711 267.662C72.857 267.548 72.9488 267.407 73.0465 267.234C73.4513 266.519 75.5755 263.17 78.6432 258.336L78.6442 258.335C89.5802 241.101 112.498 204.987 112.21 201.927C111.914 198.793 110.864 198.11 110.377 198.161ZM165.848 186.55C165.7 186.578 121.718 195.041 121.504 195.837C121.289 196.634 121.656 197.487 122.238 197.714L160.212 233.91C160.396 234.086 160.576 234.233 160.753 234.353C160.848 233.488 160.923 232.636 160.995 231.821C161.204 229.442 161.386 227.378 161.967 226.234C163.235 223.737 166.087 211.884 166.087 206.269C166.087 200.654 166.087 195.663 167.038 190.048C167.049 189.983 167.059 189.918 167.069 189.853C167.008 189.71 166.944 189.565 166.879 189.42C166.502 188.582 166.163 187.602 165.848 186.55ZM71.0993 142.524C70.9504 143.199 70.8148 143.858 70.6959 144.502C70.0211 148.156 69.4362 148.98 68.654 150.082C67.967 151.049 67.1284 152.232 65.943 155.732C65.5687 156.838 65.2074 157.862 64.8678 158.826C62.9076 164.393 61.6463 167.976 62.4567 173.826C63.4074 180.689 62.4562 187.552 61.5055 191.92C60.6972 195.634 61.4933 202.957 62.1393 208.902C62.2529 209.948 62.3619 210.951 62.4567 211.885C62.5941 213.237 62.6266 214.414 62.6168 215.51C62.6666 215.567 62.719 215.606 62.7731 215.628C64.3577 216.252 109.36 197.534 109.994 194.415C109.914 192.892 108.901 192.653 109.356 191.835C109.677 189.424 110.31 190.119 110.31 188.8C110.309 186.801 84.7453 157.603 71.9635 143.254C71.7465 143.01 71.4439 142.737 71.0993 142.524ZM121.086 185.056C121.28 185.456 121.91 186.515 122.036 186.928C122.575 188.698 122.401 189.664 122.207 190.739C122.094 191.361 121.975 192.02 121.984 192.892L164.592 185.376C165.513 185.213 166.26 184.717 166.855 183.971C166.741 183.276 166.61 182.584 166.48 181.897C165.952 179.1 165.438 176.38 166.087 173.826C167.101 169.833 166.509 167.17 166.087 166.339C165.77 164.467 164.819 159.725 163.551 155.732C162.644 152.874 162.569 150.424 162.491 147.916C162.433 146.044 162.374 144.139 161.967 142.007C161.807 141.165 161.583 140.447 161.321 139.818C161.07 139.631 160.8 139.454 160.509 139.288C159.922 138.951 159.339 138.449 158.762 137.857L121.086 185.056ZM96.9157 94.9841C95.7631 95.6897 94.707 96.0284 93.8307 95.8367C92.1574 95.4707 91.4655 96.8225 90.5397 98.6326C89.8875 99.9077 89.119 101.411 87.8092 102.7C87.3506 103.151 86.7989 103.655 86.1881 104.213C82.5781 107.51 76.897 112.698 76.0836 120.169C75.5019 125.514 74.0898 130.859 72.7907 135.775L72.7868 135.791C72.5535 138.12 72.6714 140.087 73.5485 141.383C76.0843 145.127 104.923 179.441 110.944 185.056C111.261 184.432 112.845 183.184 112.212 181.312L97.9508 98.3318C97.7039 96.895 97.3496 95.7956 96.9157 94.9841ZM135.98 95.8367C135.473 98.8328 124.36 154.069 118.867 181.313C119.035 180.481 119.501 183.184 119.818 182.56C120.551 184.953 153.393 140.231 157.76 133.88C157.648 133.506 157.568 133.099 157.53 132.647C157.213 128.904 156.897 125.16 155.312 122.665C153.728 120.169 150.241 110.811 148.657 106.443C147.072 102.076 142.318 98.9557 139.783 98.3318C138.654 98.0539 137.338 97.0344 136.028 95.6033C136.01 95.6766 135.994 95.7545 135.98 95.8367ZM114.43 83.9822C112.529 81.4865 109.043 81.487 105.24 86.4783C104.228 87.8063 103.148 89.1339 102.055 90.3562C102.025 91.2881 102.03 92.2826 102.071 93.3406C102.388 101.451 102.705 104.572 105.874 124.537C108.409 140.509 112.212 169.042 113.797 181.312C114.43 179.649 115.698 180.065 116.965 181.312C117.681 184.13 120.719 165.676 123.97 145.926C126.479 130.687 129.115 114.676 130.91 107.067C133.195 97.3753 133.725 94.2124 133.311 92.0388C132.67 91.0507 132.071 90.0119 131.544 88.9734C129.325 84.6061 127.424 83.9822 124.255 83.9822C123.21 83.9822 121.993 84.2538 120.762 84.5281C118.261 85.0856 115.705 85.6549 114.43 83.9822Z" fill="#D3B94F"/>
<path d="M116.141 207.382C116.154 204.749 119.463 204.98 119.5 205.022C119.507 205.062 138.069 291.334 138.122 291.581C137.641 294.587 135.996 297.625 134.256 300.837C132.843 303.446 131.369 306.171 130.405 309.085C129.856 310.745 129.321 312.059 128.78 313.116C127.603 314.286 126.485 314.957 125.522 314.83C124.678 314.719 123.844 314.589 123.018 314.46C119.193 313.862 115.544 313.291 111.895 314.83C108.484 316.269 105.821 314.39 103.188 312.025C103.213 311.755 103.244 311.478 103.279 311.195L116.141 207.382ZM74.3392 271.692C76.254 267.519 112.732 201.743 113.796 204.398L115.064 205.646C115.053 205.729 102.741 304.85 102.398 308.469C102.292 309.59 101.876 310.114 101.264 310.257C101.111 310.117 100.957 309.977 100.803 309.839C99.6946 308.847 98.1367 307.918 96.4164 306.892C92.7266 304.691 88.2849 302.042 85.9076 297.361C84.3499 294.295 82.3491 291.352 80.4711 288.59C78.1463 285.171 76.0097 282.028 75.1332 279.268C74.4473 277.107 74.1763 275.18 73.9105 273.285L73.8851 273.106C73.9859 272.612 74.1348 272.138 74.3392 271.692ZM120.134 204.398C120.66 204.104 120.548 199.409 121.402 200.03C127.399 204.407 155.696 231.563 158.289 234.754C159.334 236.04 159.445 238.406 159.209 241.256C158.67 243.102 158.251 246.153 157.779 249.598C156.754 257.079 155.475 266.415 152.143 269.285C148.204 272.678 145.412 279.459 143.62 284.071C141.936 285.761 140.146 286.45 138.781 284.954L120.134 204.398ZM110.376 198.161C110.864 198.111 111.914 198.793 112.209 201.928C112.498 204.988 89.5799 241.102 78.6439 258.335L78.6429 258.336C75.5753 263.17 73.451 266.519 73.0462 267.234C72.9486 267.407 72.8567 267.549 72.7709 267.662C72.5524 266.977 72.2882 266.272 71.9632 265.541C69.7447 260.549 64.6747 247.447 63.724 242.456C63.3266 240.369 63.6494 239.046 63.9974 237.619C64.4817 235.634 65.0146 233.449 63.724 228.731C62.5113 224.297 62.4345 221.54 62.5111 218.934C68.8861 215.984 96.017 204.309 110.376 198.161ZM165.848 186.55C166.162 187.603 166.501 188.582 166.878 189.42C166.944 189.566 167.008 189.71 167.069 189.854C167.059 189.918 167.048 189.983 167.038 190.048C166.087 195.663 166.086 200.654 166.086 206.27C166.086 211.884 163.235 223.738 161.967 226.234C161.386 227.379 161.204 229.443 160.995 231.821C160.923 232.636 160.848 233.489 160.752 234.354C160.576 234.233 160.395 234.086 160.211 233.91L122.238 197.714C121.656 197.487 121.288 196.634 121.503 195.837C121.718 195.041 165.635 186.591 165.848 186.55ZM71.099 142.525C71.4435 142.738 71.7462 143.01 71.9632 143.254C84.745 157.604 110.308 186.802 110.31 188.8C110.31 190.12 109.677 189.424 109.356 191.835C108.901 192.653 109.914 192.893 109.993 194.415C109.359 197.535 64.3574 216.252 62.7728 215.628C62.7189 215.607 62.6662 215.567 62.6166 215.511C62.6263 214.415 62.5938 213.238 62.4564 211.885C62.3616 210.952 62.2527 209.948 62.139 208.902C61.4931 202.958 60.6969 195.634 61.5052 191.92C62.456 187.553 63.4071 180.689 62.4564 173.826C61.6461 167.977 62.9074 164.393 64.8675 158.826C65.2071 157.862 65.5684 156.838 65.9427 155.733C67.128 152.232 67.9667 151.05 68.6537 150.082C69.4359 148.98 70.0208 148.156 70.6957 144.502C70.8145 143.859 70.9502 143.199 71.099 142.525ZM158.762 137.858C159.338 138.449 159.922 138.951 160.509 139.288C160.799 139.455 161.069 139.631 161.321 139.818C161.583 140.448 161.807 141.165 161.967 142.007C162.373 144.14 162.433 146.044 162.491 147.916C162.568 150.425 162.644 152.874 163.551 155.733C164.819 159.725 165.769 164.467 166.086 166.339C166.509 167.171 167.1 169.833 166.086 173.826C165.438 176.381 165.951 179.1 166.48 181.898C166.61 182.584 166.74 183.277 166.855 183.972C166.26 184.717 165.513 185.214 164.592 185.376L121.984 192.893C121.975 192.021 122.094 191.362 122.206 190.739C122.401 189.665 122.575 188.698 122.036 186.929C121.909 186.515 121.279 185.456 121.085 185.057L158.762 137.858ZM96.9154 94.9845C97.3493 95.796 97.7036 96.8954 97.9505 98.3321L112.211 181.313C112.845 183.184 111.261 184.433 110.944 185.057C104.922 179.441 76.084 145.127 73.5482 141.383C72.6712 140.088 72.5532 138.12 72.7865 135.791L72.7904 135.776C74.0895 130.859 75.5016 125.514 76.0834 120.169C76.8967 112.699 82.5778 107.51 86.1879 104.213C86.7985 103.655 87.3504 103.152 87.8089 102.7C89.1186 101.411 89.8872 99.908 90.5394 98.6329C91.4652 96.823 92.1574 95.4714 93.8304 95.837C94.7067 96.0287 95.763 95.6899 96.9154 94.9845ZM136.028 95.6036C137.337 97.0346 138.654 98.0541 139.783 98.3321C142.318 98.956 147.072 102.076 148.657 106.443C150.241 110.811 153.727 120.169 155.312 122.665C156.896 125.161 157.213 128.904 157.53 132.648C157.568 133.099 157.648 133.506 157.76 133.88C153.393 140.233 120.551 184.953 119.818 182.561C119.501 183.184 119.034 180.482 118.867 181.314C124.36 154.07 135.472 98.834 135.98 95.837C135.994 95.7549 136.01 95.6769 136.028 95.6036ZM105.24 86.4786C109.042 81.4875 112.529 81.4871 114.43 83.9825C115.705 85.6552 118.261 85.0859 120.762 84.5284C121.992 84.2542 123.21 83.9826 124.254 83.9825C127.423 83.9826 129.325 84.6066 131.543 88.9737C132.071 90.0122 132.67 91.0511 133.311 92.0392C133.725 94.2128 133.195 97.3756 130.91 107.067C129.115 114.676 126.479 130.687 123.97 145.926C120.719 165.677 117.681 184.13 116.965 181.313C115.698 180.065 114.43 179.65 113.796 181.313C112.212 169.042 108.409 140.509 105.873 124.537C102.704 104.572 102.388 101.452 102.071 93.3409C102.029 92.283 102.025 91.2885 102.055 90.3566C103.148 89.1343 104.228 87.8066 105.24 86.4786Z" fill="#FFE88A"/>
<path d="M115.232 63.1952C115.674 63.3387 116.097 63.5019 116.504 63.6776C112.269 64.6367 107.859 66.2872 104.938 68.9999C97.938 75.4999 92.4379 79.9999 84.9379 88.4999C77.4379 96.9999 65.9379 105.5 65.9379 113.5C65.9379 121.5 59.9379 137 53.4379 152.5C46.938 168 50.9379 170.5 50.9379 182C50.9379 193.5 47.4379 202 50.9379 216C54.4379 230 46.438 237 53.4379 245.5C60.4378 254 63.9379 275 65.9379 284.5C67.938 294 75.938 305.5 84.9379 309.5C92.1378 312.7 97.6046 319.167 99.4379 322C102.599 325.862 110.444 327.989 121.246 328.466C120.736 328.608 120.237 328.753 119.738 328.899C117.62 329.522 115.472 330.153 112.296 330.468C111.031 330.593 109.658 330.339 108.233 329.848C103.407 329.257 97.8423 327.42 92.2153 325.373C82.9871 319.721 82.6163 318.005 67.937 312.5C51.9362 306.499 -5.56291 271.499 0.436961 176.5C6.43686 81.5014 82.9351 75.9998 94.937 70.4999C101.117 67.6673 102.921 65.4976 104.447 64.1278C108.056 63.6548 111.657 63.344 115.232 63.1952Z" fill="#E4CC6A"/>
<path d="M151.421 5.18483C132.292 12.0688 114.438 27.9876 114.438 49.4998C122.089 40.8951 136.543 50.7905 182.454 45.1973C209.949 41.8477 219.438 27.1271 219.438 27.1271C219.438 27.1271 218.162 20.9157 206.685 12.9293C193.081 3.46385 180.087 -5.13076 151.421 5.18483Z" fill="#799279"/>
<path d="M151.252 4.71465C165.652 -0.467225 176.168 -0.917277 184.818 1.15312C193.453 3.22022 200.173 7.79018 206.97 12.5193C212.752 16.5426 215.986 20.1332 217.777 22.74C218.673 24.0429 219.208 25.0983 219.52 25.8367C219.676 26.2058 219.776 26.4958 219.838 26.6971C219.869 26.7976 219.89 26.8762 219.904 26.9314C219.911 26.9591 219.917 26.981 219.921 26.9969C219.923 27.0048 219.924 27.0115 219.925 27.0164C219.925 27.0187 219.927 27.0206 219.927 27.0223V27.0262C219.923 27.0274 219.88 27.0359 219.438 27.1268L219.928 27.0262L219.969 27.2264L219.858 27.3982L219.857 27.3992C219.856 27.4 219.855 27.4019 219.855 27.4031C219.853 27.4055 219.851 27.4089 219.849 27.4129C219.843 27.4213 219.835 27.4328 219.824 27.448C219.804 27.4787 219.774 27.5238 219.734 27.5809C219.653 27.695 219.534 27.8601 219.373 28.0701C219.051 28.4905 218.564 29.0903 217.894 29.8182C216.553 31.2741 214.481 33.2427 211.545 35.3143C205.67 39.4594 196.346 44.009 182.515 45.6941C159.512 48.4964 144.384 47.4184 134.065 46.7186C128.894 46.3679 124.988 46.1172 121.896 46.4803C118.834 46.8398 116.622 47.7958 114.812 49.8318L113.938 50.8143V49.4998C113.938 27.6837 132.029 11.6323 151.252 4.71465ZM184.585 2.12578C176.17 0.111494 165.857 0.521499 151.591 5.65508C132.925 12.3723 115.624 27.6818 114.959 48.2703C116.802 46.6206 119.006 45.8127 121.778 45.4871C124.983 45.1108 128.995 45.3721 134.132 45.7205C144.43 46.4189 159.485 47.4918 182.394 44.701C196.057 43.0364 205.225 38.5503 210.968 34.4978C213.841 32.4706 215.86 30.5492 217.157 29.1404C217.806 28.4362 218.275 27.8604 218.579 27.4627C218.718 27.2811 218.821 27.1352 218.894 27.033C218.89 27.0201 218.887 27.0061 218.883 26.992C218.831 26.8223 218.742 26.5643 218.599 26.2264C218.313 25.5506 217.811 24.5544 216.953 23.3064C215.238 20.811 212.094 17.3029 206.399 13.3396C199.592 8.60349 193.014 4.14342 184.585 2.12578Z" fill="#799279"/>
<path d="M84.0773 26.9857C97.1947 30.6384 109.438 39.0851 109.438 50.4998C104.191 45.934 94.2797 51.1846 62.7979 48.2168C43.9441 46.4395 37.4376 38.6285 37.4376 38.6285C37.4376 38.6285 38.3121 35.3327 46.1826 31.095C55.5105 26.0725 64.4209 21.5121 84.0773 26.9857Z" fill="#799279"/>
<path d="M84.2111 26.5037C74.3281 23.7517 67.108 23.5125 61.1661 24.6131C55.2303 25.7126 50.6084 28.1444 45.9454 30.6551C41.9704 32.7954 39.7337 34.7126 38.4845 36.1189C37.86 36.822 37.483 37.3973 37.2589 37.8074C37.1469 38.0124 37.0733 38.1766 37.0265 38.2937C37.0032 38.3521 36.9862 38.3987 36.9747 38.4334C36.969 38.4508 36.9644 38.4652 36.9611 38.4764C36.9594 38.4819 36.9583 38.487 36.9572 38.491C36.9566 38.4929 36.9556 38.4944 36.9552 38.4959V38.4988L36.9542 38.4998C36.9548 38.5004 36.9726 38.5053 37.4376 38.6287L36.9542 38.5008L36.8878 38.7498L37.0538 38.949C37.0543 38.9496 37.0561 38.9511 37.0568 38.9519C37.0581 38.9535 37.0597 38.9555 37.0616 38.9578C37.066 38.9629 37.0716 38.9706 37.0792 38.9793C37.0944 38.9967 37.1162 39.0212 37.1447 39.0525C37.2017 39.1154 37.286 39.2054 37.3986 39.3191C37.6237 39.5467 37.9626 39.8694 38.4269 40.2596C39.3558 41.0401 40.7858 42.0911 42.8077 43.1951C46.8532 45.4039 53.2596 47.8199 62.7511 48.7146C78.5281 50.2019 88.9048 49.63 95.9816 49.2586C99.5289 49.0724 102.203 48.9404 104.318 49.1326C106.418 49.3234 107.905 49.8291 109.109 50.8768L109.938 51.5975V50.4998C109.938 44.5979 106.77 39.5049 102 35.451C97.2311 31.3976 90.8201 28.3441 84.2111 26.5037ZM61.3478 25.5965C67.107 24.5297 74.1704 24.7461 83.9435 27.4676C90.4515 29.2799 96.721 32.2761 101.353 36.2127C105.696 39.9039 108.564 44.3883 108.904 49.4783C107.661 48.6871 106.197 48.299 104.409 48.1365C102.207 47.9364 99.4512 48.0748 95.9298 48.2596C88.869 48.6301 78.5492 49.2 62.8448 47.7195C53.4825 46.8369 47.2085 44.4582 43.2872 42.3172C41.3259 41.2463 39.9506 40.2335 39.0704 39.4939C38.6303 39.1241 38.3138 38.8225 38.1095 38.616C38.0755 38.5817 38.0465 38.5483 38.0187 38.5193C38.0491 38.4543 38.087 38.3763 38.1359 38.2869C38.3217 37.9467 38.655 37.4332 39.2325 36.783C40.3882 35.482 42.5248 33.6323 46.42 31.535C51.0848 29.0233 55.5826 26.6644 61.3478 25.5965Z" fill="#799279"/>
<path d="M46.1827 31.0953C55.5107 26.0728 64.4208 21.5124 84.0773 26.9859C96.9147 30.5607 108.913 38.7269 109.419 49.7731C107.607 47.2718 104.263 44.1814 98.9376 42.4996C89.4376 39.4996 69.9376 38.9996 59.4376 38.9996C52.0036 38.9996 43.2383 37.6929 38.548 36.815C39.6694 35.446 41.8812 33.4114 46.1827 31.0953Z" fill="#A1B9A1"/>
<path d="M61.1661 24.6129C67.108 23.5124 74.328 23.7525 84.2111 26.5045C90.6795 28.3058 96.9571 31.2684 101.692 35.193C106.425 39.1173 109.656 44.0404 109.918 49.7506L109.995 51.4206L109.014 50.0661C107.257 47.6409 103.998 44.6218 98.7872 42.9762C94.0992 41.4958 86.9013 40.6235 79.5284 40.1237C72.1688 39.6247 64.6812 39.4997 59.4376 39.4997C51.9585 39.4997 43.1585 38.1864 38.4562 37.3063L37.6261 37.151L38.1613 36.4987C39.333 35.0681 41.6005 32.9944 45.9454 30.6549C50.6084 28.1443 55.2303 25.7125 61.1661 24.6129ZM83.9435 27.4674C74.1704 24.746 67.107 24.5295 61.3478 25.5963C55.5825 26.6643 51.085 29.024 46.42 31.5358C42.8161 33.4763 40.7178 35.2042 39.5089 36.4821C44.3435 37.3476 52.4845 38.4997 59.4376 38.4997C64.694 38.4997 72.2065 38.6246 79.5968 39.1256C86.9738 39.6258 94.2761 40.5036 99.088 42.0231C103.618 43.4537 106.752 45.8872 108.752 48.1491C108.026 43.4934 105.174 39.379 101.053 35.9626C96.4524 32.149 90.3122 29.2409 83.9435 27.4674Z" fill="#799279"/>
<path d="M107.438 30.9997C106.938 50.9997 106.938 67.6664 107.438 76.9997L113.938 70.9997C114.104 63.4997 114.838 44.9997 116.438 30.9997C118.038 16.9997 122.438 8.4997 122.438 8.4997C122.438 8.4997 121.638 3.89973 116.438 3.49973C111.238 3.09973 109.438 7.99973 109.438 7.99973C109.271 7.99973 107.849 14.561 107.438 30.9997Z" fill="#799279"/>
<path d="M110.622 5.25775C111.799 4.00061 113.689 2.78668 116.476 3.00092C119.244 3.21386 120.872 4.55645 121.796 5.86029C122.253 6.50574 122.535 7.13668 122.702 7.60639C122.786 7.84177 122.843 8.03857 122.878 8.17865C122.896 8.24861 122.908 8.30477 122.916 8.34467C122.92 8.36464 122.924 8.38088 122.926 8.39252C122.927 8.39811 122.928 8.40263 122.929 8.40619L122.93 8.41108V8.41303C122.93 8.41303 122.93 8.41403 122.438 8.4997L122.93 8.41303L122.959 8.58002L122.882 8.72943L122.881 8.73041L122.879 8.73432C122.877 8.73786 122.875 8.7436 122.871 8.75092C122.864 8.76619 122.852 8.7897 122.836 8.82123C122.805 8.88428 122.758 8.97945 122.697 9.10639C122.577 9.36076 122.401 9.74233 122.185 10.2441C121.752 11.248 121.157 12.7358 120.512 14.6591C119.221 18.5061 117.73 24.0966 116.935 31.0566C115.337 45.034 114.604 63.5161 114.438 71.0107L114.433 71.2236L114.277 71.3671L106.995 78.0888L106.939 77.0263C106.438 67.6721 106.438 50.989 106.938 30.9872C107.143 22.7557 107.603 16.9899 108.032 13.2773C108.247 11.4216 108.455 10.0756 108.621 9.1894C108.704 8.74757 108.777 8.41413 108.837 8.18647C108.866 8.07472 108.896 7.97645 108.925 7.90033C108.938 7.8652 108.959 7.81477 108.987 7.76557C108.991 7.75977 108.995 7.75234 109 7.74408C109.016 7.70431 109.04 7.65155 109.069 7.58686C109.133 7.44234 109.23 7.23932 109.362 6.99897C109.627 6.51934 110.037 5.88266 110.622 5.25775ZM116.4 3.99799C113.986 3.81233 112.376 4.84855 111.353 5.94135C110.838 6.49142 110.473 7.05576 110.237 7.48236C110.12 7.6947 110.036 7.87135 109.982 7.99311C109.955 8.0538 109.935 8.10115 109.923 8.13178C109.917 8.14693 109.912 8.15817 109.909 8.16498C109.908 8.168 109.907 8.17182 109.907 8.17182L109.796 8.47065C109.746 8.66687 109.68 8.96527 109.604 9.37397C109.443 10.2317 109.238 11.5535 109.026 13.3925C108.6 17.0702 108.143 22.8055 107.938 31.0126C107.456 50.2686 107.44 66.4203 107.885 75.9062L113.443 70.7753C113.618 63.1375 114.353 44.8347 115.941 30.9433C116.745 23.9035 118.254 18.2438 119.564 14.3408C120.218 12.3891 120.823 10.8759 121.266 9.84858C121.487 9.33495 121.668 8.94275 121.794 8.67768C121.841 8.57907 121.879 8.49761 121.91 8.43451C121.909 8.4311 121.909 8.42729 121.908 8.42377C121.88 8.31083 121.833 8.14509 121.761 7.9433C121.616 7.53803 121.372 6.99291 120.98 6.43842C120.203 5.3424 118.831 4.18509 116.4 3.99799Z" fill="#799279"/>
<path d="M116.438 3.50003C120.743 3.83127 122.031 7.04209 122.347 8.13675C115.925 17.7045 114.431 39.0522 112.938 50C112.055 56.4737 109.314 58.471 107.064 58.7442C107.056 50.7496 107.18 41.3184 107.438 31C107.849 14.5613 109.271 8.00003 109.438 8.00003C109.438 8.00003 111.238 3.10003 116.438 3.50003Z" fill="#A1B9A1"/>
<path d="M110.622 5.25777C111.799 4.00064 113.69 2.78766 116.476 3.00192C121.094 3.35723 122.49 6.82772 122.827 7.99801L122.892 8.22164L122.762 8.415C119.616 13.1015 117.649 20.7337 116.286 28.6357C114.925 36.5291 114.184 44.5594 113.433 50.0673C112.984 53.3608 112.055 55.5743 110.904 57.0097C109.745 58.4542 108.379 59.0878 107.124 59.2402L106.565 59.3086L106.564 58.7451C106.556 50.7452 106.68 41.309 106.938 30.9873C107.144 22.756 107.603 16.9909 108.032 13.2783C108.247 11.4226 108.455 10.0766 108.621 9.19039C108.704 8.74836 108.777 8.41422 108.837 8.18649C108.867 8.07492 108.896 7.97738 108.925 7.90133C108.938 7.86618 108.959 7.81501 108.988 7.76559C108.991 7.75994 108.995 7.75304 109 7.74508C109.017 7.7052 109.04 7.65201 109.069 7.58688C109.133 7.44235 109.23 7.23937 109.363 6.99899C109.627 6.51935 110.037 5.88266 110.622 5.25777ZM116.4 3.99801C113.986 3.81236 112.376 4.84862 111.353 5.94137C110.838 6.49144 110.473 7.05578 110.238 7.48238C110.12 7.69494 110.036 7.8723 109.982 7.9941C109.955 8.0545 109.935 8.10123 109.923 8.1318C109.917 8.1471 109.912 8.15918 109.909 8.16598C109.908 8.16912 109.907 8.17281 109.907 8.17281L109.796 8.47164C109.746 8.66787 109.68 8.96578 109.604 9.37399C109.443 10.2317 109.239 11.5535 109.026 13.3925C108.6 17.0702 108.143 22.8055 107.938 31.0127C107.686 41.0689 107.562 50.2807 107.564 58.1396C108.409 57.9169 109.311 57.3974 110.123 56.3847C111.126 55.1349 112.009 53.1125 112.443 49.9326C113.184 44.4927 113.937 36.375 115.301 28.4658C116.645 20.6731 118.602 12.9539 121.799 8.06051C121.411 6.89436 120.14 4.28587 116.4 3.99801Z" fill="#799279"/>
<path d="M94.9374 70.4995C106.937 64.9996 101.438 61.9997 111.438 61.9998C119.938 61.9998 119.938 66.9998 128.937 70.4995C134.937 70.4995 189.437 88.4997 207.437 126C225.437 163.5 227.937 264 189.437 293C150.937 321.999 133.437 322 128.437 324.5C123.885 326.776 119.103 337.175 110.438 337.5C101.292 337.843 91.3832 324.759 90.9376 324.5C90.9376 324.5 83.9899 319.203 74.996 315.317C69.8376 310.496 65.2931 304.466 61.6024 297.138C25.7771 226.008 35.2376 122.016 91.4774 71.6948C92.9205 71.2749 94.0899 70.8879 94.9374 70.4995Z" fill="#D3B94F"/>
<path d="M115.674 65.0002C115.316 64.2827 113.755 63.2199 111.553 62.0061C111.429 62.0039 111.303 62.0002 111.174 62.0002C101.175 62.0002 94.6745 70.4993 94.6745 70.4993C93.8271 70.8876 92.6576 71.2747 91.2145 71.6946C34.9748 122.016 25.5143 226.008 61.3395 297.138C65.0303 304.466 69.5747 310.496 74.7331 315.317C83.699 319.191 90.6315 324.466 90.6745 324.499C91.1201 324.759 101.029 337.843 110.174 337.5C112.693 337.406 114.883 336.458 116.836 335.108C119.398 331.073 119.127 325.881 115.674 324.5C108.174 321.5 81.88 323.122 96.6745 318.5C170.291 295.5 210.424 258.999 210.437 193.499C210.458 89.5 163.174 87.5002 136.174 77.0002C109.175 66.5003 89.6748 75.5001 96.6745 72.0002C103.674 68.5004 117.173 67.9999 115.674 65.0002Z" fill="#E4CC6A"/>
<path d="M124.687 85.1638C127.904 85.0003 131.254 85.1528 134.509 85.695C135.398 85.8369 136.276 85.997 137.145 86.1638C139.651 86.6454 142.145 87.2186 144.612 87.8747C147.95 88.7637 151.247 89.8047 154.504 91.0046C156.12 91.6002 157.731 92.2361 159.326 92.9158C167.302 96.6931 173.174 101.551 179.417 106.258C184.106 109.946 188.469 113.67 192.763 118.646C192.983 118.935 193.228 119.295 193.47 119.786C193.716 120.281 194.059 121.172 194.134 122.231C194.252 123.378 193.905 124.996 193.277 126.03C192.703 127.07 191.788 127.863 191.362 128.155C190.856 128.521 190.338 128.771 190.039 128.895C189.739 129.022 189.476 129.109 189.243 129.176C188.786 129.302 188.563 129.336 188.296 129.377C187.434 129.489 187.136 129.458 186.817 129.458C186.232 129.439 185.911 129.402 185.587 129.367C184.961 129.295 184.482 129.218 184.012 129.138C183.086 128.98 182.256 128.81 181.436 128.634C180.112 128.347 178.837 128.041 177.573 127.724C177.645 127.77 177.717 127.816 177.788 127.862C178.273 128.176 178.72 128.472 179.196 128.796C184.985 132.844 191.152 136.916 196.524 143.386C199.222 146.549 201.444 151.167 201.503 155.95C201.529 157.02 201.46 158.077 201.323 159.071C201.174 160.917 200.008 162.773 199.059 163.598C198.094 164.482 197.359 164.817 196.793 165.074C195.669 165.544 195.037 165.638 194.484 165.748C188.306 166.328 186.671 164.55 184.055 163.662C184.005 163.64 183.955 163.616 183.905 163.593C183.978 163.775 184.052 163.992 184.12 164.261C184.22 164.69 184.262 165.35 184.058 165.993C183.859 166.637 183.491 167.098 183.219 167.366C180.002 170.232 175.804 169.541 175.167 169.817C174.489 170.083 173.847 170.974 173.527 172.226C173.364 172.669 173.434 173.387 173.747 174.181C173.905 174.591 174.114 175.016 174.352 175.445C175.928 177 177.699 178.445 179.423 180.046C180.353 180.922 181.285 181.847 182.034 182.972C182.053 182.994 182.093 183.065 182.107 183.091C182.491 184.069 182.679 185.048 182.86 186.008C182.916 186.313 182.896 186.623 182.803 186.871C182.71 187.12 182.552 187.283 182.359 187.331C182.165 187.377 181.949 187.304 181.751 187.13C181.554 186.957 181.393 186.698 181.295 186.415C181.017 185.608 180.734 184.83 180.381 184.178C179.672 183.41 178.733 182.707 177.749 182.028C175.86 180.734 173.779 179.501 171.762 177.991C171.675 177.908 171.438 177.661 171.376 177.557C171.309 177.47 171.241 177.38 171.174 177.29C171.627 176.472 171.821 175.674 171.653 174.592C171.567 174.033 171.412 173.282 171.247 172.68C171.157 172.369 171.065 172.081 170.985 171.792C170.923 171.602 170.857 171.417 170.798 171.232C170.653 170.778 170.54 170.311 170.667 169.759C170.887 168.835 171.072 167.791 171.696 166.692C171.91 166.32 172.173 165.949 172.493 165.602C172.527 165.572 172.561 165.542 172.595 165.513C173.864 164.776 174.562 164.722 175.231 164.536C175.42 164.491 175.601 164.449 175.774 164.409C174.966 163.812 174.139 163.212 173.295 162.604C172.38 161.946 171.446 161.278 170.514 160.607C169.226 159.262 167.859 157.863 165.972 156.135C165.159 155.39 164.408 154.584 163.691 153.793C162.618 152.602 161.668 151.537 160.529 150.425C160.324 150.217 160.11 149.976 159.854 149.594C159.798 149.51 159.72 149.388 159.645 149.254C159.566 149.111 159.506 149.001 159.398 148.742C159.301 148.478 159.205 148.305 159.125 147.653C159.101 147.335 159.084 147.043 159.208 146.504C159.333 145.97 159.657 145.361 160.102 144.931C160.735 144.295 161.544 144.076 161.828 144.029C162.181 143.961 162.502 143.961 162.675 143.97C163.036 143.99 163.308 144.049 163.49 144.095C163.696 144.148 163.856 144.202 164 144.255C164.151 144.309 164.285 144.365 164.404 144.417C165.113 144.739 165.711 145.063 166.279 145.329C166.324 145.403 166.396 145.504 166.483 145.617C166.412 145.47 166.367 145.407 166.331 145.352C166.861 145.597 167.366 145.791 167.914 145.88C168.632 145.999 169.295 146.053 169.923 146.113C170.911 146.203 171.767 146.286 172.426 146.593C173.659 147.17 174.817 147.469 175.833 147.728C177.055 148.04 178.07 148.294 178.758 148.912C178.861 149.005 178.98 149.12 179.11 149.248C179.631 149.759 180.406 150.513 181.596 151.095C181.99 151.287 182.415 151.459 182.896 151.608C183.618 151.833 184.346 151.891 185.067 151.944C185.723 151.99 186.362 152.028 186.957 152.176C186.914 152.108 186.869 152.038 186.821 151.968C186.766 151.892 186.709 151.815 186.652 151.737C186.055 150.927 185.4 150.075 184.573 149.01C183.042 147.03 180.751 145.437 179.188 144.59C178.861 144.413 178.515 144.23 178.157 144.046C176.771 143.33 175.053 142.456 171.779 140.689C171.226 140.39 170.718 140.116 170.194 139.826C167.754 138.484 165.676 137.245 164.047 136.271C163.043 135.671 162.2 135.166 161.545 134.803C160.419 134.18 159.055 133.396 157.681 132.602C155.531 131.361 153.367 130.098 152.099 129.443C151.647 129.21 151.169 128.974 150.651 128.715C149.217 127.997 147.49 127.133 145.186 125.744C142.776 124.287 141.35 123.19 139.932 121.931C139.341 121.408 138.976 120.752 138.584 120.05C138.347 119.617 138.085 119.154 137.785 118.715C137.364 118.119 136.886 117.582 136.06 116.905C135.707 116.608 135.306 116.321 134.767 115.798C134.301 115.232 133.633 114.997 132.795 112.477C132.6 111.69 132.424 110.836 132.653 109.397C132.849 108.078 133.689 106.507 134.596 105.638C136.544 103.837 137.642 103.822 138.442 103.602C139.485 103.421 140 103.52 140.473 103.593C140.968 103.685 141.346 103.798 141.756 103.84C143.2 103.998 144.229 104.194 145.16 104.366C146.343 104.591 147.266 104.8 147.825 105.015C148.809 105.397 149.921 105.569 151.036 105.75C151.081 105.757 151.126 105.764 151.17 105.771C151.97 105.9 152.792 106.044 153.539 106.273C155.813 106.968 158.988 107.669 162.279 108.274C163.526 108.503 164.489 108.999 165.719 109.635C166.264 109.917 166.86 110.226 167.557 110.552C167.527 110.466 167.496 110.38 167.466 110.294C167.366 110.009 167.271 109.73 167.161 109.458C167.251 109.51 167.332 109.552 167.403 109.575C167.892 109.733 168.284 109.572 168.641 109.42C168.879 109.319 169.104 109.224 169.336 109.237C169.762 109.261 169.928 109.009 170.052 108.824C170.116 108.728 170.17 108.649 170.24 108.635C170.297 108.625 170.375 108.663 170.455 108.702C170.525 108.736 170.598 108.771 170.659 108.776C171.41 108.836 171.436 108.524 171.47 108.067C171.489 107.815 171.513 107.521 171.662 107.221C171.833 106.915 171.915 106.852 172.249 106.955C172.167 106.662 172.088 106.373 172.003 106.079C171.92 106.024 171.794 106.057 171.6 106.125C171.255 106.247 170.711 105.941 170.289 105.709C170.092 105.599 169.921 105.505 169.807 105.473C169.201 105.307 169.1 105.689 169.014 106.027C168.965 106.212 168.919 106.383 168.796 106.442C168.744 106.467 168.737 106.53 168.731 106.593C168.725 106.643 168.719 106.693 168.693 106.727C168.498 106.974 168.089 106.939 167.71 106.908C167.493 106.89 167.289 106.876 167.135 106.912C167.088 106.923 167.046 106.939 167.005 106.955C166.946 106.978 166.889 107 166.823 107.005C166.674 107.015 166.459 106.929 166.223 106.835C166.101 106.785 165.973 106.734 165.848 106.694C165.685 106.642 165.562 106.703 165.434 106.766C165.343 106.811 165.249 106.857 165.136 106.866C164.93 106.881 164.665 106.734 164.419 106.598C164.311 106.539 164.206 106.482 164.112 106.441C164.075 106.425 164.046 106.43 164.025 106.45C163.608 106.246 163.207 106.06 162.812 105.879C160.845 104.991 159.162 104.251 157.223 102.644C156.857 102.344 156.423 102.094 155.981 101.897C155.679 101.692 155.373 101.493 155.084 101.314C153.932 100.625 152.756 99.9546 151.568 99.3044C151.364 98.9005 151.069 98.5072 150.675 98.1296C149.933 97.42 149.05 96.9609 147.995 96.4353C147.216 96.0472 146.344 95.6231 145.357 95.0398C143.698 94.061 141.942 93.1455 139.877 92.3366C138.583 91.8295 137.154 91.3269 135.838 90.9099C135.061 90.6632 134.334 90.4481 133.704 90.2781C132.778 90.0271 131.863 89.5652 130.986 89.1648C129.758 88.5998 128.595 88.1584 127.828 88.5134C127.584 88.6267 127.338 88.8438 127.104 89.0564C126.935 89.2074 126.775 89.3563 126.617 89.4646C126.231 89.3967 125.837 89.3338 125.445 89.2741C125.191 89.1534 124.883 89.0286 124.534 88.9353C123.921 88.776 123.215 88.7001 122.521 88.8747C122.088 88.8182 121.679 88.7627 121.261 88.7068C120.376 88.5893 119.489 88.4714 118.611 88.3542C118.319 88.3154 118.04 88.2771 117.74 88.238C117.738 88.2376 117.735 88.2374 117.733 88.237C117.147 88.159 116.561 88.0807 115.972 88.0027C115.726 87.9696 115.474 87.9371 115.225 87.904C114.594 87.8202 113.953 87.7356 113.326 87.6521C112.999 87.6079 112.656 87.5634 112.327 87.5193C111.78 87.4471 111.23 87.3752 110.687 87.3034C109.803 87.1874 108.92 87.0722 108.046 86.9577C107.893 86.9386 107.767 86.8875 107.659 86.8122C107.617 86.7749 107.564 86.7323 107.547 86.6882C107.532 86.666 107.518 86.6429 107.513 86.6199C107.51 86.6085 107.507 86.5972 107.506 86.5857C107.505 86.58 107.505 86.5738 107.505 86.5681C107.506 86.5666 107.504 86.5649 107.487 86.5622C107.481 86.5611 107.478 86.5618 107.448 86.5564C107.421 86.5399 107.442 86.5925 107.258 86.4597C107.212 86.4197 107.118 86.2965 107.14 86.1325C107.164 85.9726 107.254 85.9044 107.294 85.8738C107.381 85.8163 107.404 85.8207 107.425 85.8132C107.527 85.7952 107.493 85.8062 107.507 85.8044C107.521 85.8069 107.521 85.8094 107.522 85.8122C107.519 85.8153 107.525 85.8182 107.499 85.822C107.493 85.8228 107.491 85.8223 107.461 85.8269C107.431 85.8484 107.46 85.771 107.247 85.945C107.189 85.9979 107.126 86.1754 107.18 86.3015C107.228 86.424 107.291 86.4589 107.322 86.4822C107.389 86.5224 107.408 86.521 107.426 86.5271C107.512 86.5441 107.485 86.5352 107.497 86.5368C107.508 86.536 107.507 86.5343 107.507 86.5329C107.508 86.5272 107.508 86.5211 107.509 86.5154C107.511 86.5039 107.514 86.4925 107.518 86.4812C107.524 86.4585 107.54 86.4361 107.555 86.4148C107.575 86.3718 107.63 86.3326 107.674 86.2976C107.785 86.2284 107.913 86.1845 108.068 86.1736C108.947 86.1064 109.838 86.0422 110.729 85.9802C111.276 85.9418 111.83 85.9036 112.382 85.8669C112.713 85.844 113.058 85.8228 113.389 85.8005C114.021 85.7589 114.668 85.718 115.304 85.6784C115.555 85.6628 115.81 85.6472 116.058 85.6316C116.654 85.5956 117.245 85.5606 117.838 85.5261C117.841 85.5259 117.845 85.5263 117.849 85.5261C118.149 85.5094 118.429 85.4919 118.722 85.4753C119.608 85.4247 120.504 85.3757 121.398 85.3288C121.869 85.3031 122.349 85.2788 122.832 85.2546C123.098 85.241 123.367 85.2279 123.634 85.2146C123.777 85.2075 123.92 85.2009 124.067 85.1941C124.272 85.184 124.478 85.1736 124.687 85.1638ZM178.504 166.209C178.564 166.286 178.545 166.253 178.494 166.192C178.498 166.198 178.502 166.203 178.504 166.209ZM192.117 152.582C192.343 152.592 192.285 152.486 191.755 152.55C191.903 152.57 192.028 152.582 192.117 152.582ZM166.268 145.311C166.233 145.252 166.217 145.194 166.32 145.335C166.324 145.34 166.327 145.346 166.331 145.352C166.314 145.344 166.297 145.337 166.279 145.329C166.276 145.323 166.271 145.317 166.268 145.311ZM182.052 124.55C182.376 125.507 182.653 125.798 182.913 126.172C182.768 125.887 182.593 125.547 182.421 125.218C182.304 124.996 182.181 124.771 182.052 124.55ZM186.917 117.01C186.768 117.03 186.589 117.048 186.207 117.134C185.923 117.246 185.542 117.203 184.723 117.69C185.149 117.79 185.585 117.722 185.973 117.647C186.27 117.588 186.55 117.529 186.765 117.544C187.163 117.571 187.339 117.346 187.394 117.174C187.421 117.084 187.416 117.006 187.36 116.98C187.296 116.985 187.209 116.983 186.917 117.01ZM176.963 114.723C176.864 114.703 176.754 114.743 176.633 114.787C176.608 114.796 176.58 114.803 176.554 114.812C176.88 114.939 177.223 115.051 177.529 115.139C177.532 115.14 177.535 115.141 177.537 115.141C177.388 114.948 177.194 114.772 176.963 114.723ZM145.424 106.901C145.403 106.917 145.461 107.018 145.555 107.141C145.676 107.301 145.839 107.488 146.029 107.691C146 107.637 145.974 107.587 145.946 107.54C145.541 106.892 145.453 106.911 145.424 106.901Z" fill="#F3DC7F"/>
</svg>
