<svg width="175" height="337" viewBox="0 0 175 337" fill="none" xmlns="http://www.w3.org/2000/svg">
<path fill-rule="evenodd" clip-rule="evenodd" d="M115.232 63C121.308 64.9723 123.879 70.3044 128.937 70.3047C130.308 70.3047 134.212 71.245 139.633 73.1426C140.623 73.9182 141.995 75.2624 143.556 76.9619C145.422 78.9924 147.595 81.5656 149.775 84.3701C154.125 89.9659 158.547 96.5362 160.614 101.58C162.671 106.602 164.639 114.57 166.398 122.323C168.165 130.111 169.723 137.682 170.969 142.007C172.244 146.431 173.028 154.726 173.419 162.404C173.615 166.256 173.712 169.973 173.722 173.001C173.732 176.012 173.656 178.385 173.492 179.523C173.344 180.552 173.322 182.251 173.381 184.388C173.439 186.511 173.575 189.025 173.731 191.664C174.043 196.928 174.437 202.7 174.437 206.76C174.437 210.851 173.49 218.196 172.395 225.329C171.298 232.479 170.044 239.472 169.418 242.89C168.168 249.708 165.339 267.169 158.103 283.391C150.878 299.589 145.524 306.463 140.21 314.522C138.879 316.541 137.816 318.268 136.842 319.777C136.251 320.695 135.694 321.526 135.143 322.272C131.937 323.159 129.754 323.646 128.437 324.305C126.245 325.401 125.012 326.591 123.899 327.627C122.356 327.935 121.053 328.318 119.738 328.704C117.62 329.326 115.472 329.958 112.297 330.272C111.031 330.398 109.658 330.144 108.233 329.652C103.407 329.062 97.8426 327.224 92.2155 325.178C82.9872 319.526 82.6166 317.809 67.9372 312.305C51.9366 306.304 -5.5628 271.304 0.437154 176.305C6.43709 81.3056 82.936 75.8046 94.9372 70.3047C101.118 67.472 102.922 65.3024 104.447 63.9326C108.056 63.4596 111.657 63.1488 115.232 63ZM119.501 204.826C119.475 204.785 116.155 204.548 116.141 207.187L103.279 311C103.244 311.283 103.213 311.56 103.188 311.83C105.821 314.194 108.484 316.074 111.895 314.635C115.544 313.096 119.193 313.666 123.018 314.265C123.844 314.394 124.678 314.524 125.522 314.635C126.485 314.761 127.603 314.091 128.78 312.921C129.321 311.864 129.856 310.549 130.405 308.89C131.369 305.975 132.843 303.251 134.256 300.642C135.996 297.43 137.642 294.391 138.123 291.386C138.074 291.16 119.507 204.867 119.501 204.826ZM113.797 204.202C112.733 201.545 76.2543 267.324 74.3395 271.497C74.135 271.943 73.9861 272.416 73.8854 272.91L73.9108 273.09C74.1766 274.985 74.4476 276.912 75.1334 279.072C76.01 281.833 78.1466 284.976 80.4713 288.395C82.3494 291.156 84.3501 294.099 85.9079 297.166C88.2853 301.846 92.7269 304.495 96.4166 306.696C98.1371 307.723 99.6949 308.652 100.803 309.644C100.958 309.782 101.111 309.922 101.264 310.062C101.876 309.919 102.292 309.395 102.398 308.273C102.741 304.653 115.064 205.45 115.064 205.45L113.797 204.202ZM121.402 199.835C120.548 199.212 120.661 203.909 120.134 204.202L138.781 284.759C140.146 286.255 141.936 285.566 143.62 283.876C145.412 279.263 148.204 272.483 152.143 269.09C155.475 266.22 156.754 256.883 157.779 249.402C158.251 245.958 158.67 242.906 159.21 241.061C159.446 238.211 159.335 235.844 158.29 234.559C155.697 231.368 127.399 204.212 121.402 199.835ZM110.377 197.966C96.0174 204.114 68.8864 215.788 62.5114 218.738C62.4348 221.345 62.5115 224.101 63.7243 228.535C65.0149 233.254 64.482 235.439 63.9977 237.424C63.6497 238.85 63.3268 240.174 63.7243 242.261C64.675 247.252 69.745 260.354 71.9635 265.346C72.2885 266.077 72.5527 266.781 72.7711 267.467C72.857 267.353 72.9488 267.212 73.0465 267.039C73.4513 266.324 75.5755 262.975 78.6432 258.141L78.6442 258.14C89.5802 240.906 112.498 204.792 112.21 201.732C111.914 198.598 110.864 197.915 110.377 197.966ZM165.848 186.354C165.7 186.383 121.718 194.845 121.504 195.642C121.289 196.439 121.656 197.292 122.238 197.519L160.212 233.715C160.396 233.89 160.576 234.038 160.753 234.158C160.848 233.293 160.923 232.441 160.995 231.626C161.204 229.247 161.386 227.183 161.967 226.039C163.235 223.542 166.087 211.689 166.087 206.074C166.087 200.459 166.087 195.468 167.038 189.853C167.049 189.788 167.059 189.723 167.069 189.658C167.008 189.515 166.944 189.37 166.879 189.225C166.502 188.387 166.163 187.407 165.848 186.354ZM71.0993 142.329C70.9504 143.004 70.8148 143.663 70.6959 144.307C70.0211 147.961 69.4362 148.785 68.654 149.887C67.967 150.854 67.1284 152.037 65.943 155.537C65.5687 156.643 65.2074 157.667 64.8678 158.631C62.9076 164.198 61.6463 167.781 62.4567 173.631C63.4074 180.494 62.4562 187.357 61.5055 191.725C60.6972 195.439 61.4933 202.762 62.1393 208.707C62.2529 209.753 62.3619 210.756 62.4567 211.689C62.5941 213.042 62.6266 214.219 62.6168 215.315C62.6666 215.372 62.719 215.411 62.7731 215.433C64.3577 216.057 109.36 197.339 109.994 194.22C109.914 192.697 108.901 192.458 109.356 191.64C109.677 189.229 110.31 189.924 110.31 188.604C110.309 186.606 84.7453 157.408 71.9635 143.059C71.7465 142.815 71.4439 142.542 71.0993 142.329ZM121.086 184.861C121.28 185.261 121.91 186.319 122.036 186.733C122.575 188.503 122.401 189.469 122.207 190.544C122.094 191.166 121.975 191.825 121.984 192.697L164.592 185.181C165.513 185.018 166.26 184.522 166.855 183.776C166.741 183.081 166.61 182.389 166.48 181.702C165.952 178.904 165.438 176.185 166.087 173.631C167.101 169.638 166.509 166.975 166.087 166.144C165.77 164.272 164.819 159.53 163.551 155.537C162.644 152.679 162.569 150.229 162.491 147.721C162.433 145.849 162.374 143.944 161.967 141.812C161.807 140.97 161.583 140.252 161.321 139.623C161.07 139.436 160.8 139.259 160.509 139.093C159.922 138.756 159.339 138.254 158.762 137.662L121.086 184.861ZM96.9157 94.7891C95.7631 95.4946 94.707 95.8333 93.8307 95.6416C92.1574 95.2757 91.4655 96.6274 90.5397 98.4375C89.8875 99.7126 89.119 101.216 87.8092 102.505C87.3506 102.956 86.7989 103.46 86.1881 104.018C82.5781 107.315 76.897 112.503 76.0836 119.974C75.5019 125.319 74.0898 130.664 72.7907 135.58L72.7868 135.596C72.5535 137.925 72.6714 139.892 73.5485 141.188C76.0843 144.932 104.923 179.246 110.944 184.861C111.261 184.237 112.845 182.989 112.212 181.117L97.9508 98.1367C97.7039 96.6999 97.3496 95.6005 96.9157 94.7891ZM135.98 95.6416C135.473 98.6378 124.36 153.874 118.867 181.118C119.035 180.286 119.501 182.989 119.818 182.365C120.551 184.758 153.393 140.036 157.76 133.685C157.648 133.311 157.568 132.904 157.53 132.452C157.213 128.709 156.897 124.965 155.312 122.47C153.728 119.974 150.241 110.615 148.657 106.248C147.072 101.881 142.318 98.7606 139.783 98.1367C138.654 97.8588 137.338 96.8393 136.028 95.4082C136.01 95.4815 135.994 95.5594 135.98 95.6416ZM114.43 83.7871C112.529 81.2915 109.043 81.2919 105.24 86.2832C104.228 87.6113 103.148 88.9389 102.055 90.1611C102.025 91.0931 102.03 92.0876 102.071 93.1455C102.388 101.256 102.705 104.377 105.874 124.342C108.409 140.314 112.212 168.847 113.797 181.117C114.43 179.454 115.698 179.87 116.965 181.117C117.681 183.935 120.719 165.481 123.97 145.73C126.479 130.492 129.115 114.481 130.91 106.872C133.195 97.1802 133.725 94.0173 133.311 91.8438C132.67 90.8556 132.071 89.8168 131.544 88.7783C129.325 84.411 127.424 83.7871 124.255 83.7871C123.21 83.7871 121.993 84.0588 120.762 84.333C118.261 84.8905 115.705 85.4599 114.43 83.7871Z" fill="#D3B94F"/>
<path d="M116.141 207.187C116.154 204.554 119.463 204.784 119.5 204.827C119.507 204.867 138.069 291.139 138.122 291.386C137.641 294.392 135.996 297.43 134.256 300.642C132.843 303.251 131.369 305.976 130.405 308.89C129.856 310.549 129.321 311.864 128.78 312.921C127.603 314.091 126.485 314.761 125.522 314.635C124.678 314.524 123.844 314.394 123.018 314.265C119.193 313.667 115.544 313.096 111.895 314.635C108.484 316.074 105.821 314.194 103.188 311.83C103.213 311.56 103.244 311.283 103.279 311L116.141 207.187ZM74.3392 271.497C76.254 267.324 112.732 201.548 113.796 204.202L115.064 205.451C115.053 205.534 102.741 304.655 102.398 308.274C102.292 309.395 101.876 309.919 101.264 310.062C101.111 309.922 100.957 309.782 100.803 309.644C99.6946 308.652 98.1367 307.723 96.4164 306.697C92.7266 304.496 88.2849 301.846 85.9076 297.166C84.3499 294.1 82.3491 291.157 80.4711 288.395C78.1463 284.976 76.0097 281.833 75.1332 279.073C74.4473 276.912 74.1763 274.985 73.9105 273.09L73.8851 272.911C73.9859 272.417 74.1348 271.943 74.3392 271.497ZM120.134 204.202C120.66 203.909 120.548 199.214 121.402 199.835C127.399 204.212 155.696 231.368 158.289 234.559C159.334 235.845 159.445 238.211 159.209 241.061C158.67 242.907 158.251 245.958 157.779 249.403C156.754 256.884 155.475 266.22 152.143 269.09C148.204 272.483 145.412 279.264 143.62 283.876C141.936 285.566 140.146 286.255 138.781 284.759L120.134 204.202ZM110.376 197.966C110.864 197.916 111.914 198.598 112.209 201.733C112.498 204.793 89.5799 240.907 78.6439 258.14L78.6429 258.141C75.5753 262.975 73.451 266.324 73.0462 267.039C72.9486 267.212 72.8567 267.354 72.7709 267.467C72.5524 266.782 72.2882 266.077 71.9632 265.346C69.7447 260.354 64.6747 247.252 63.724 242.261C63.3266 240.174 63.6494 238.851 63.9974 237.424C64.4817 235.439 65.0146 233.254 63.724 228.536C62.5113 224.101 62.4345 221.345 62.5111 218.739C68.8861 215.789 96.017 204.114 110.376 197.966ZM165.848 186.355C166.162 187.408 166.501 188.387 166.878 189.225C166.944 189.371 167.008 189.515 167.069 189.659C167.059 189.723 167.048 189.788 167.038 189.853C166.087 195.468 166.086 200.459 166.086 206.075C166.086 211.689 163.235 223.543 161.967 226.039C161.386 227.184 161.204 229.248 160.995 231.626C160.923 232.441 160.848 233.293 160.752 234.159C160.576 234.038 160.395 233.891 160.211 233.715L122.238 197.519C121.656 197.292 121.288 196.439 121.503 195.642C121.718 194.846 165.635 186.396 165.848 186.355ZM71.099 142.329C71.4435 142.542 71.7462 142.815 71.9632 143.059C84.745 157.409 110.308 186.607 110.31 188.605C110.31 189.925 109.677 189.229 109.356 191.64C108.901 192.458 109.914 192.698 109.993 194.22C109.359 197.34 64.3574 216.057 62.7728 215.433C62.7189 215.412 62.6662 215.372 62.6166 215.316C62.6263 214.22 62.5938 213.043 62.4564 211.69C62.3616 210.756 62.2527 209.753 62.139 208.707C61.4931 202.763 60.6969 195.439 61.5052 191.725C62.456 187.358 63.4071 180.494 62.4564 173.631C61.6461 167.782 62.9074 164.198 64.8675 158.631C65.2071 157.667 65.5684 156.643 65.9427 155.537C67.128 152.037 67.9667 150.855 68.6537 149.887C69.4359 148.785 70.0208 147.961 70.6957 144.307C70.8145 143.664 70.9502 143.004 71.099 142.329ZM158.762 137.662C159.338 138.254 159.922 138.756 160.509 139.093C160.799 139.26 161.069 139.436 161.321 139.623C161.583 140.253 161.807 140.97 161.967 141.812C162.373 143.945 162.433 145.849 162.491 147.721C162.568 150.23 162.644 152.679 163.551 155.537C164.819 159.53 165.769 164.272 166.086 166.144C166.509 166.976 167.1 169.638 166.086 173.631C165.438 176.186 165.951 178.905 166.48 181.703C166.61 182.389 166.74 183.082 166.855 183.777C166.26 184.522 165.513 185.018 164.592 185.181L121.984 192.698C121.975 191.826 122.094 191.167 122.206 190.544C122.401 189.47 122.575 188.503 122.036 186.734C121.909 186.32 121.279 185.261 121.085 184.862L158.762 137.662ZM96.9154 94.7894C97.3493 95.6009 97.7036 96.7003 97.9505 98.1371L112.211 181.118C112.845 182.989 111.261 184.238 110.944 184.862C104.922 179.246 76.084 144.932 73.5482 141.188C72.6712 139.893 72.5532 137.925 72.7865 135.596L72.7904 135.58C74.0895 130.664 75.5016 125.319 76.0834 119.974C76.8967 112.504 82.5778 107.315 86.1879 104.018C86.7985 103.46 87.3504 102.957 87.8089 102.505C89.1186 101.216 89.8872 99.7129 90.5394 98.4379C91.4652 96.6279 92.1574 95.2763 93.8304 95.642C94.7067 95.8336 95.763 95.4948 96.9154 94.7894ZM136.028 95.4086C137.337 96.8395 138.654 97.859 139.783 98.1371C142.318 98.761 147.072 101.881 148.657 106.248C150.241 110.616 153.727 119.974 155.312 122.47C156.896 124.966 157.213 128.709 157.53 132.453C157.568 132.904 157.648 133.311 157.76 133.685C153.393 140.037 120.551 184.758 119.818 182.366C119.501 182.989 119.034 180.287 118.867 181.119C124.36 153.875 135.472 98.6389 135.98 95.642C135.994 95.5598 136.01 95.4818 136.028 95.4086ZM105.24 86.2836C109.042 81.2924 112.529 81.292 114.43 83.7875C115.705 85.4601 118.261 84.8909 120.762 84.3334C121.992 84.0592 123.21 83.7875 124.254 83.7875C127.423 83.7875 129.325 84.4115 131.543 88.7787C132.071 89.8171 132.67 90.856 133.311 91.8441C133.725 94.0177 133.195 97.1806 130.91 106.872C129.115 114.481 126.479 130.492 123.97 145.731C120.719 165.481 117.681 183.935 116.965 181.118C115.698 179.87 114.43 179.455 113.796 181.118C112.212 168.847 108.409 140.314 105.873 124.342C102.704 104.377 102.388 101.257 102.071 93.1459C102.029 92.0879 102.025 91.0934 102.055 90.1615C103.148 88.9393 104.228 87.6116 105.24 86.2836Z" fill="#FFE88A"/>
<path d="M115.232 63.0001C115.674 63.1436 116.097 63.3068 116.504 63.4825C112.269 64.4416 107.859 66.0921 104.938 68.8048C97.938 75.3048 92.4379 79.8049 84.9379 88.3048C77.4379 96.8048 65.9379 105.305 65.9379 113.305C65.9379 121.305 59.9379 136.805 53.4379 152.305C46.938 167.805 50.9379 170.305 50.9379 181.805C50.9379 193.305 47.4379 201.805 50.9379 215.805C54.4379 229.805 46.438 236.805 53.4379 245.305C60.4378 253.805 63.9379 274.805 65.9379 284.305C67.938 293.805 75.938 305.305 84.9379 309.305C92.1378 312.505 97.6046 318.972 99.4379 321.805C102.599 325.667 110.444 327.794 121.246 328.271C120.736 328.413 120.237 328.557 119.738 328.704C117.62 329.326 115.472 329.958 112.296 330.273C111.031 330.398 109.658 330.144 108.233 329.652C103.407 329.062 97.8423 327.224 92.2153 325.178C82.9871 319.526 82.6163 317.81 67.937 312.305C51.9362 306.304 -5.56291 271.304 0.436961 176.305C6.43686 81.3064 82.9351 75.8047 94.937 70.3048C101.117 67.4722 102.921 65.3025 104.447 63.9327C108.056 63.4597 111.657 63.1489 115.232 63.0001Z" fill="#E4CC6A"/>
</svg>
