<svg width="40" height="40" viewBox="0 0 40 40" fill="none" xmlns="http://www.w3.org/2000/svg">
<path d="M35.5557 0C38.0102 5.77299e-05 40 1.98977 40 4.44434V35.5547C40 38.0093 38.0102 39.9999 35.5557 40H4.44434C1.98979 39.9999 0 38.0093 0 35.5547V4.44434C0 1.98977 1.98979 5.87603e-05 4.44434 0H35.5557ZM6.12891 34.4443H12.0938V15.1846H6.12891V34.4443ZM27.4346 14.5967C23.3478 14.5968 21.6279 17.7793 21.6279 17.7793V15.1846H15.9072V34.4443H21.6279V24.334C21.6279 21.6251 22.875 20.0127 25.2617 20.0127C27.4555 20.0128 28.5088 21.5622 28.5088 24.334V34.4443H34.4443V22.25C34.4443 17.0908 31.5196 14.5967 27.4346 14.5967ZM9.08301 5.55469C7.13451 5.55469 5.55566 7.14679 5.55566 9.10938C5.55587 11.0718 7.13464 12.6631 9.08301 12.6631C11.0314 12.6631 12.6092 11.0718 12.6094 9.10938C12.6094 7.1468 11.0315 5.5547 9.08301 5.55469Z" fill="#BAC5BC"/>
</svg>
