<svg width="205" height="112" viewBox="0 0 205 112" fill="none" xmlns="http://www.w3.org/2000/svg">
<path d="M28.4252 27.5508C28.4252 27.5508 12.2294 20.504 6.44212 18.4344C0.654511 16.3653 0.370802 16.5884 0.0819538 15.319C-0.207228 14.0501 0.196514 10.2195 2.4685 10.4467C4.74072 10.6734 17.927 19.7504 21.2208 19.6321C24.5149 19.5132 30.5163 20.1568 30.5163 20.1568L28.4252 27.5508Z" fill="#495E57"/>
<path fill-rule="evenodd" clip-rule="evenodd" d="M31.838 44.9115C33.5925 65.0247 50.4429 84.7783 77.0087 97.7909L76.9929 97.8232C102.136 110.139 131.183 113.854 152.853 107.511C160.307 105.468 167.438 102.245 173.98 97.9618C181.042 93.3598 187.379 87.6604 192.753 81.0761C194.206 78.8447 196.167 77.002 198.461 75.7151L198.508 75.6821C200.941 73.9743 203.236 72.3631 203.248 70.5682C203.25 69.26 202.084 67.8431 199.587 66.1766C185.333 49.5078 162.451 26.7595 134.417 13.0274C103.553 -2.09031 73.8269 -2.83503 45.9413 10.9765L45.8631 10.9382C34.19 10.7185 25.2428 15.258 22.4847 22.7481C19.8943 29.777 23.3098 37.9548 31.6595 44.643L31.8158 44.7195L31.838 44.9115Z" fill="#D3B96D"/>
<path fill-rule="evenodd" clip-rule="evenodd" d="M134.915 12.0103C163.08 25.8062 186.037 48.6109 200.338 65.3172C201.567 66.1482 202.536 66.9591 203.211 67.7719L203.461 68.0913C204.016 68.8458 204.362 69.6651 204.361 70.5493L204.362 70.5528L204.362 70.5572L204.35 70.8145C204.256 71.9179 203.62 72.8557 202.886 73.6274L202.542 73.9721C201.635 74.8398 200.452 75.6781 199.313 76.4779L198.753 76.9201C197.321 78.0478 195.835 79.219 194.434 80.6276C194.304 80.7945 194.177 80.964 194.054 81.1365L193.68 81.6863L193.66 81.7158L193.646 81.7381L193.629 81.7592L193.606 81.7861C188.157 88.4618 181.733 94.241 174.572 98.9075L174.571 98.9062C167.935 103.251 160.703 106.52 153.14 108.595L153.141 108.596C131.146 115.033 101.817 111.244 76.4949 98.8409L75.4987 98.3529L75.518 98.3134C49.4996 85.2869 32.6994 65.6617 30.7625 45.3691C22.5169 38.6792 18.7473 30.2751 21.3145 22.7303L21.4421 22.3698C24.4386 14.2323 33.9641 9.61869 45.782 9.80871C73.9267 -4.01465 103.906 -3.17888 134.915 12.0103ZM133.918 14.045C103.795 -0.710194 74.8695 -1.62446 47.7085 11.3591L46.416 11.9886L46.1476 12.1214L45.9275 12.231L45.5837 12.0626C37.6501 11.9582 31.2237 14.1075 27.2378 17.7304C27.0999 19.9564 27.0356 22.6417 27.3753 25.1955C27.7046 27.6719 28.4054 29.9626 29.7275 31.5956L30.0004 31.913L30.0017 31.9148L30.3824 32.3231C31.2444 33.2193 31.9261 33.7235 32.472 33.9447C32.7746 34.0673 33.0208 34.0966 33.2273 34.07C33.4322 34.0434 33.633 33.957 33.8404 33.795C34.2748 33.4557 34.6989 32.8167 35.1536 31.86C35.4903 31.1513 35.8258 30.3093 36.1905 29.3568L36.5659 28.3685C37.4039 26.1531 38.4097 23.4937 39.854 20.7653L40.4675 19.6283C41.0306 18.6093 41.4438 17.9427 41.7267 17.6015C41.8179 17.4916 41.9332 17.3666 42.0683 17.2882C42.1373 17.2482 42.2594 17.1916 42.4143 17.1989C42.5958 17.2075 42.7434 17.2994 42.8367 17.4199C42.916 17.5224 42.9467 17.632 42.9609 17.7015C42.9762 17.777 42.9814 17.8533 42.9819 17.9206C42.9829 18.0551 42.966 18.2112 42.9411 18.3769C42.8422 19.0344 42.5556 20.136 42.1575 21.5239C41.7565 22.9221 41.2329 24.6436 40.6517 26.5562L39.2548 31.1862C39.014 31.9955 38.7717 32.8191 38.5307 33.6501L37.8166 36.1581L37.7497 36.4189C37.4445 37.7437 37.5288 39.43 38.0318 41.4266C38.5669 43.5508 39.5669 45.9914 41.0232 48.6573C43.9356 53.989 48.6494 60.1812 55.0156 66.4963C67.7464 79.1249 87.0485 92.2048 111.661 99.855L111.674 99.8592L112.389 100.096C113.117 100.331 113.888 100.559 114.727 100.777L115.416 100.954L115.43 100.957L115.444 100.962L117.299 101.548C122.92 103.112 128.683 104.153 134.518 104.657L134.527 104.658L135.878 104.791C149.701 106.046 159.63 103.822 167.482 99.8652C175.601 95.7743 181.539 89.8138 187.298 83.8126C193.566 77.1908 196.603 71.9089 198.013 68.1L198.519 66.7341L198.959 68.1228C199.456 69.6924 199.561 71.3738 199.266 73.0162C199.277 73.0235 199.295 73.0351 199.323 73.0464C199.468 73.1051 199.726 73.1401 200.104 73.1356C200.445 72.8655 200.757 72.6043 201.029 72.3437L201.315 72.0561C201.921 71.4134 202.131 70.9386 202.135 70.5841L202.129 70.4658C202.101 70.2164 201.983 69.8865 201.671 69.462L201.498 69.2415C201.054 68.7064 200.37 68.1012 199.398 67.4187L198.963 67.1222L198.895 67.0769L198.838 67.0381L198.793 66.9856L198.74 66.9236C184.527 50.3025 161.76 27.6823 133.918 14.045Z" fill="#495E57"/>
<path d="M81.4562 28.9068C84.7984 27.7334 88.3327 27.2879 91.8438 27.5981L92.447 27.5981L83.6913 63.6555C86.168 64.4095 88.5869 65.3591 90.9273 66.497C96.1854 69.0344 101.13 71.2419 106.485 69.1867L107.401 68.8062L107.184 69.7449C106.34 74.0839 104.772 76.6472 102.577 77.5353C101.95 77.7681 101.289 77.8882 100.623 77.8905C97.2709 77.8904 93.3876 75.3529 89.0461 72.5111C84.0291 69.2378 78.8429 65.8372 74.5737 66.6999L73.7299 66.9034L82.0514 32.5464C79.6719 33.5352 77.7164 35.4025 76.5516 37.7988C75.9439 39.0005 75.61 40.3348 75.5765 41.6955C75.5431 43.0562 75.8108 44.4067 76.3586 45.6398L76.6725 46.2991L75.9003 46.2991C74.7409 46.5469 73.5369 46.412 72.4532 45.9124C71.3695 45.4127 70.4588 44.5731 69.8461 43.5082C69.2921 41.9056 69.2416 40.158 69.7018 38.5229C70.1621 36.8877 71.1091 35.4508 72.4033 34.4238C75.0335 31.9574 78.1139 30.0803 81.4562 28.9068Z" fill="#FFFBF0"/>
<path fill-rule="evenodd" clip-rule="evenodd" d="M138.444 49.2682C139.77 49.2682 142.062 49.6232 142.979 53.8859C144.259 53.7165 145.487 53.2487 146.573 52.5161L147.248 49.5723L152.506 49.5723L152.289 50.4857C154.701 49.2932 156.269 49.0904 157.306 49.7499C158.922 50.8156 158.415 53.7339 157.885 56.5251C157.571 58.0983 157.185 60.2805 157.692 60.6611L158.608 60.6611L159.477 60.3059L159.405 60.9911C159.371 61.4843 159.24 61.9647 159.02 62.4016C158.8 62.8386 158.495 63.2224 158.126 63.5285C157.172 64.0307 156.128 64.3156 155.062 64.3654C154.545 64.3855 154.033 64.2444 153.591 63.9596C151.975 62.8178 152.554 59.8236 153.06 56.9309C153.326 55.5609 153.736 53.3034 153.35 53.049C152.964 52.7952 153.085 52.9218 152.096 53.5054C151.125 55.947 150.436 58.5029 150.046 61.1175C149.78 62.4116 149.563 63.4523 149.418 63.909L149.418 64.2643L143.943 64.2643L145.994 55.2058C145.022 55.6872 143.991 56.0202 142.93 56.1951C142.883 58.292 142.102 60.2967 140.735 61.8237C139.368 63.3508 137.512 64.2925 135.525 64.4672C130.846 64.1626 130.146 61.3464 130.122 59.7224C130.122 55.3581 134.657 49.573 138.444 49.2682ZM139.144 51.4257C138.756 51.4711 138.384 51.6152 138.06 51.8451C137.737 52.0749 137.471 52.384 137.286 52.7455C136.661 53.7056 136.173 54.7572 135.839 55.8664C135.507 56.897 135.328 57.9756 135.309 59.0637C135.255 59.6747 135.364 60.2892 135.622 60.8394C135.771 60.9992 135.953 61.1211 136.154 61.1959C136.354 61.2706 136.568 61.2966 136.78 61.2711C137.303 61.2513 137.797 61.0138 138.154 60.6112C138.664 60.0124 139.073 59.3258 139.361 58.5814C139.737 57.6041 139.996 56.5812 140.132 55.5364C139.886 55.4987 139.665 55.3601 139.516 55.1509C139.366 54.9418 139.302 54.679 139.336 54.4201C139.323 54.1144 139.402 53.8119 139.562 53.5566C139.723 53.3013 139.956 53.1061 140.229 52.999C140.254 52.5714 140.153 52.1459 139.939 51.7809C139.845 51.6574 139.722 51.5604 139.583 51.4984C139.445 51.4366 139.294 51.4115 139.144 51.4257Z" fill="#FFFBF0"/>
<path fill-rule="evenodd" clip-rule="evenodd" d="M93.8939 51.0445C97.5599 48.5073 99.7067 49.0903 100.648 49.7246C101.326 50.2164 101.823 50.9389 102.056 51.7704C102.289 52.6018 102.243 53.4923 101.926 54.2924C101.421 55.5931 100.554 56.7032 99.4399 57.4774C98.3253 58.2515 97.0143 58.6539 95.6788 58.6313C95.6789 59.4687 95.8961 60.4583 96.7644 60.7882L96.8125 60.7882C97.8247 60.91 98.8501 60.754 99.7884 60.3361C100.727 59.9182 101.546 59.2519 102.167 58.4025L102.36 58.1743L104.579 58.1743L104.073 58.9866C103.273 60.4623 102.148 61.7144 100.792 62.6373C99.4361 63.5601 97.8894 64.1266 96.282 64.2896L95.6067 64.2896C94.5549 64.2166 93.544 63.8327 92.6906 63.1819C91.8372 62.531 91.176 61.6395 90.7829 60.6106C89.6493 57.6165 90.7826 54.0132 93.8939 51.0445ZM99.1284 51.1463C98.6894 51.2549 98.2781 51.4632 97.9239 51.7569C97.5697 52.0505 97.2812 52.4224 97.0783 52.8461C96.404 54.058 95.9228 55.3783 95.6548 56.7539C96.3783 56.7119 97.0781 56.4665 97.6809 56.0434C98.3273 55.6389 98.8602 55.061 99.2246 54.3689C99.6365 53.7524 99.8558 53.0161 99.8519 52.2626C99.8519 51.5268 99.6107 51.1464 99.1284 51.1463Z" fill="#FFFBF0"/>
<path d="M112.829 50.1816C113.995 49.5231 115.344 49.3167 116.64 49.5982C117.064 49.6944 117.464 49.884 117.813 50.1551C118.163 50.4263 118.453 50.7726 118.666 51.1709C119.342 50.4153 120.218 49.8884 121.18 49.658C122.142 49.4276 123.148 49.5038 124.069 49.8769C124.503 50.0562 124.9 50.3238 125.236 50.6646C125.571 51.0053 125.84 51.4127 126.026 51.8629C126.212 52.3131 126.312 52.7975 126.319 53.2883C126.327 53.7792 126.242 54.2671 126.07 54.7235L126.07 54.9517C125.158 56.7021 124.908 58.7505 125.371 60.6864C125.371 60.6864 125.95 60.6862 127.373 58.4025L127.542 58.149L129.689 58.149L129.544 58.7837C129.235 60.291 128.458 61.6476 127.336 62.6397C126.214 63.6319 124.809 64.2033 123.345 64.2643C122.885 64.2778 122.428 64.1956 121.999 64.0231C121.57 63.8506 121.177 63.5912 120.843 63.259C120.509 62.9267 120.241 62.5284 120.054 62.0871C119.866 61.6457 119.763 61.1696 119.751 60.6864C119.681 59.4901 119.871 58.293 120.306 57.185C121.005 55.0283 121.367 53.5309 120.306 52.9219C118.666 53.3025 117.894 57.5146 117.459 60.3312C117.337 61.5184 117.078 62.6858 116.688 63.8073L116.543 64.1372L111.719 64.1372L111.719 63.7061C111.752 62.4822 111.981 61.2727 112.394 60.1282C113.07 57.7684 114.155 53.8352 113.528 52.9725C111.816 52.9725 111.116 57.5149 110.61 60.4329C110.471 61.6222 110.195 62.7894 109.789 63.909L109.644 64.239L104.29 64.239L107.57 49.5982L112.829 49.5982L112.829 50.1816Z" fill="#FFFBF0"/>
<path d="M98.7183 20.5694C100.704 19.7892 102.829 19.4773 104.941 19.656L105.279 19.656L100.648 37.9006C101.951 38.2887 103.226 38.7806 104.459 39.3722C107.256 40.5901 109.91 41.9093 112.756 40.7167L113.238 40.5391L113.238 40.9961C112.78 43.2288 111.984 44.523 110.827 44.9798C110.493 45.1024 110.142 45.1626 109.789 45.1574C107.555 44.738 105.442 43.7826 103.615 42.366C100.938 40.6913 98.1878 38.9663 95.9447 39.3975L95.4858 39.3975L99.9241 22.0669C98.6747 22.5168 97.6159 23.4151 96.9334 24.6043C96.6249 25.2226 96.4634 25.9105 96.4634 26.6088C96.4634 27.3071 96.6249 27.9949 96.9334 28.6133L97.1264 28.9938L96.6441 28.9938C93.7981 28.9938 93.2429 27.5477 93.1705 26.7611C92.7363 24.5536 95.872 21.1279 98.7664 20.4935L98.7183 20.5694Z" fill="#FFFBF0"/>
<path fill-rule="evenodd" clip-rule="evenodd" d="M135.731 30.7806C136.605 30.1824 137.646 29.9106 138.685 30.009C139.233 30.049 139.752 30.2844 140.155 30.6764C140.559 31.0686 140.823 31.5942 140.904 32.1658C140.904 32.851 140.494 34.4748 136.635 35.2614C136.567 35.4656 136.568 35.6884 136.638 35.8917C136.709 36.0952 136.844 36.267 137.021 36.3778C137.44 36.4762 137.876 36.4728 138.294 36.3673C138.712 36.2617 139.102 36.0571 139.433 35.769L140.229 35.2614L139.963 36.1243C139.819 36.7765 139.491 37.3677 139.022 37.8204C138.553 38.2731 137.965 38.5665 137.335 38.6616L136.78 38.6616C136.22 38.6748 135.664 38.5591 135.152 38.3224C134.639 38.0857 134.182 37.7335 133.813 37.2912C133.369 36.7297 133.131 36.0204 133.139 35.2904C133.148 34.5603 133.404 33.857 133.861 33.3075C134.197 32.2686 134.856 31.3788 135.731 30.7806ZM138.758 31.0495C138.489 31.1064 138.235 31.2247 138.014 31.3955C137.794 31.5663 137.611 31.786 137.479 32.0388C137.042 32.7118 136.716 33.4574 136.514 34.2444C136.981 34.2448 137.439 34.1132 137.841 33.8638C138.23 33.6279 138.567 33.3081 138.83 32.9257C139.079 32.5644 139.214 32.1299 139.216 31.6835C139.216 31.2526 139.071 31.0495 138.758 31.0495Z" fill="#FFFBF0"/>
<path d="M109.524 30.4401C109.533 30.7279 109.457 31.0118 109.307 31.2524C108.053 35.6928 108.222 36.5304 108.414 36.6319C108.607 36.7332 108.777 36.6313 110.03 35.2361L111.285 35.2361L111.285 35.5408C111.086 36.2492 110.711 36.8888 110.198 37.393C109.684 37.8971 109.052 38.2473 108.366 38.4075C107.983 38.5305 107.584 38.5904 107.184 38.5852C106.574 38.6308 105.971 38.4314 105.496 38.027C105.168 37.7143 104.942 37.3004 104.851 36.8446C104.761 36.389 104.809 35.9146 104.99 35.4896L106.292 30.1866L109.524 30.1102L109.524 30.4401Z" fill="#FFFBF0"/>
<path fill-rule="evenodd" clip-rule="evenodd" d="M116.832 30.1866L117.918 30.1866L117.652 31.3536L116.519 31.3536C116.418 31.6586 116.28 31.9487 116.109 32.2164C115.795 33.3836 115.168 35.7941 115.12 36.1748C115.132 36.2848 115.184 36.3859 115.265 36.4567C115.346 36.5274 115.449 36.5626 115.554 36.5554C115.895 36.507 116.214 36.3538 116.472 36.1144C116.729 35.875 116.913 35.5604 117.001 35.2108L118.521 35.2108L118.521 35.5149C118.322 36.2235 117.947 36.8634 117.433 37.3677C116.92 37.8719 116.288 38.2221 115.602 38.3823C115.227 38.5034 114.837 38.5633 114.445 38.5599C113.828 38.5974 113.22 38.3991 112.732 38.0017C112.336 37.6836 112.065 37.225 111.967 36.7114C111.874 36.2223 111.946 35.7159 112.168 35.2768L113.19 31.2777L112.563 31.2777L112.973 30.1866L113.696 30.1866L114.252 28.0804L117.483 27.6493L116.832 30.1866ZM112.168 35.2768L112.153 35.3373L112.201 35.2108C112.19 35.2325 112.179 35.2548 112.168 35.2768Z" fill="#FFFBF0"/>
<path d="M123.876 30.1866L125.033 30.1866L124.768 31.3536L123.586 31.3536C123.523 31.6464 123.443 31.9347 123.345 32.2164C123.055 33.3836 122.428 35.7941 122.38 36.1748C122.383 36.2282 122.396 36.2804 122.418 36.3284C122.44 36.3764 122.472 36.4195 122.51 36.4549C122.548 36.4901 122.592 36.5172 122.64 36.5344C122.688 36.5517 122.739 36.5588 122.79 36.5554C123.112 36.527 123.42 36.4021 123.676 36.1952C123.933 35.9883 124.127 35.7082 124.237 35.3885L124.237 35.2614L125.612 35.2614L125.612 35.5661C125.389 36.2607 124.994 36.8806 124.469 37.3621C123.943 37.8435 123.306 38.1695 122.621 38.3064C122.246 38.4275 121.856 38.4875 121.463 38.484C120.849 38.5105 120.244 38.3134 119.751 37.9258C119.437 37.603 119.225 37.1866 119.143 36.733C119.061 36.2794 119.113 35.8099 119.292 35.3885L119.389 35.3373L120.426 31.2777L119.727 31.2777L119.992 30.1102L120.595 30.1102L121.15 28.0045L124.502 27.6493L123.876 30.1866Z" fill="#FFFBF0"/>
<path d="M131.69 27.4204C131.576 28.1218 131.398 28.8104 131.16 29.4761C130.677 31.2015 129.182 36.4277 129.809 36.7836C129.809 36.7836 130.171 36.7839 131.401 35.3885L132.679 35.3885L132.679 35.6925C132.456 36.3427 132.08 36.9232 131.586 37.38C131.093 37.8368 130.498 38.1556 129.857 38.3064C129.457 38.4276 129.043 38.4875 128.627 38.484L128.675 38.484C128.068 38.5067 127.473 38.3096 126.987 37.9258C126.66 37.6124 126.436 37.1969 126.349 36.7404C126.263 36.284 126.317 35.8102 126.504 35.3885L128.53 27.3952L131.69 27.1417L131.69 27.4204Z" fill="#FFFBF0"/>
<path d="M107.885 26.8555C108.171 26.7849 108.468 26.7871 108.752 26.8623C109.055 26.9233 109.339 27.0649 109.575 27.2736C109.812 27.4824 109.993 27.7516 110.103 28.0551C110.157 28.303 110.138 28.5624 110.047 28.7983C109.956 29.0342 109.799 29.2354 109.596 29.3744C109.441 29.5245 109.258 29.6401 109.059 29.7142C108.86 29.7883 108.649 29.8199 108.439 29.8061C108.279 29.8315 108.116 29.8315 107.956 29.8061C107.662 29.7464 107.387 29.6073 107.159 29.4027C106.931 29.1982 106.756 28.9348 106.654 28.6386C106.576 28.3891 106.579 28.1196 106.662 27.8719C106.744 27.6242 106.903 27.4121 107.112 27.2687C107.334 27.068 107.6 26.9261 107.885 26.8555Z" fill="#FFFBF0"/>
</svg>
