<svg width="626" height="255" viewBox="0 0 626 255" fill="none" xmlns="http://www.w3.org/2000/svg">
<path d="M288.182 181.844C292.418 181.844 296.018 182.572 298.955 184.062C301.87 185.54 304.205 187.561 305.945 190.126C307.671 192.67 308.897 195.613 309.63 198.943C310.359 202.253 310.722 205.733 310.722 209.383C310.722 211.58 310.601 213.826 310.36 216.12C310.117 218.426 309.679 220.683 309.047 222.89C308.462 225.054 307.682 227.12 306.705 229.085C305.719 231.07 304.482 232.807 302.995 234.291C301.498 235.784 299.73 236.964 297.697 237.834C295.642 238.713 293.304 239.146 290.697 239.146C288.324 239.146 286.046 238.737 283.867 237.919L283.862 237.917C281.699 237.087 279.774 235.715 278.086 233.819L278.079 233.813C276.534 232.024 275.29 229.734 274.336 226.964L274.146 226.393C273.212 223.3 272.754 219.503 272.754 215.017C272.754 213.28 272.835 211.464 272.995 209.567H271.947C269.127 209.567 266.818 208.929 265.093 207.58L265.085 207.573L265.077 207.567C263.353 206.121 262.553 203.884 262.553 201.006C262.553 198.372 263.231 195.891 264.578 193.573L264.58 193.569C265.966 191.22 267.82 189.181 270.133 187.454C272.445 185.728 275.142 184.364 278.216 183.358L278.219 183.357C281.351 182.347 284.673 181.844 288.182 181.844ZM286.889 186.512C284.659 186.512 282.552 186.872 280.565 187.587L280.552 187.591C278.57 188.257 276.85 189.252 275.385 190.575C273.922 191.896 272.75 193.529 271.873 195.482C271.053 197.415 270.636 199.623 270.636 202.117C270.636 203.916 270.827 205.235 271.168 206.116C271.536 207.015 271.97 207.838 272.47 208.589L273.01 209.4C273.097 208.402 273.204 207.381 273.334 206.339L273.335 206.33C273.772 203.223 274.502 200.358 275.528 197.737C276.559 195.053 277.942 192.804 279.685 191.005C281.484 189.149 283.732 188.219 286.386 188.219C286.944 188.219 287.544 188.271 288.184 188.371C288.864 188.428 289.559 188.59 290.268 188.851L291.407 189.271L290.407 189.959C289.551 190.548 288.725 191.696 287.979 193.52L287.98 193.521C287.275 195.363 286.661 197.482 286.139 199.879C285.666 202.274 285.31 204.793 285.073 207.438C284.835 210.09 284.716 212.591 284.716 214.943C284.716 218.471 284.953 221.309 285.417 223.471C285.935 225.656 286.537 227.314 287.208 228.474L287.484 228.9C288.12 229.835 288.742 230.437 289.331 230.764C290.132 231.128 290.798 231.29 291.343 231.29C292.551 231.29 293.626 230.742 294.585 229.527L294.587 229.526C295.627 228.219 296.507 226.466 297.209 224.242L297.212 224.231L297.809 224.432L297.213 224.231C297.963 222.007 298.505 219.457 298.836 216.575L298.837 216.568C299.217 213.63 299.407 210.593 299.407 207.455C299.407 202.985 299.049 199.385 298.349 196.639L298.346 196.629C297.687 193.861 296.781 191.753 295.655 190.266C294.522 188.769 293.209 187.793 291.719 187.295L291.713 187.293C290.203 186.773 288.596 186.512 286.889 186.512Z" stroke="#D3B96D" stroke-width="1.25777"/>
<path d="M260.02 237.924C260.02 239.851 259.774 241.752 259.284 243.627C258.832 245.543 258.003 247.282 256.798 248.836C255.632 250.402 254.069 251.644 252.13 252.569L252.13 252.57C250.15 253.566 247.698 254.046 244.807 254.046C242.505 254.046 240.51 253.743 238.839 253.116C237.193 252.498 235.819 251.665 234.74 250.604C233.671 249.553 232.877 248.338 232.365 246.965L232.36 246.952C231.905 245.649 231.678 244.294 231.678 242.891C231.678 241.748 231.829 240.561 232.127 239.332L232.13 239.318L232.135 239.303C232.49 238.101 233.023 236.999 233.735 236.001C234.464 234.931 235.425 234.077 236.607 233.441C237.868 232.738 239.365 232.401 241.072 232.401C241.567 232.402 242.166 232.485 242.857 232.638C243.67 232.758 244.44 233.095 245.164 233.625L245.319 233.735C246.08 234.307 246.69 235.132 247.17 236.167L247.266 236.379C247.737 237.465 247.951 238.884 247.951 240.592V242.145L246.87 241.03C246.246 240.387 245.691 240.02 245.207 239.862C244.63 239.727 244.14 239.664 243.73 239.664C241.943 239.664 240.894 240.116 240.35 240.826C239.712 241.66 239.402 242.565 239.402 243.558C239.402 244.23 239.51 244.906 239.73 245.588C239.945 246.253 240.263 246.817 240.679 247.291C241.098 247.762 241.562 248.143 242.073 248.438L242.294 248.559L242.309 248.567C242.92 248.903 243.651 249.081 244.52 249.081C245.91 249.081 247.024 248.55 247.912 247.46L247.921 247.449L247.929 247.44C248.831 246.425 249.351 244.687 249.351 242.075V225.86C248.393 227.14 247.25 228.181 245.921 228.975L245.909 228.981C243.977 230.082 241.71 230.62 239.131 230.62C236.597 230.62 234.226 230.081 232.029 228.999C229.833 227.917 227.918 226.348 226.285 224.305C224.648 222.258 223.369 219.764 222.44 216.838L222.437 216.829C221.554 213.894 221.118 210.593 221.118 206.937C221.118 203.425 221.556 200.152 222.436 197.123L222.438 197.117C223.368 194.037 224.719 191.369 226.499 189.124C228.281 186.876 230.486 185.113 233.105 183.837L233.614 183.595C236.181 182.422 239.102 181.844 242.365 181.844C244.278 181.844 246.189 182.071 248.097 182.525H248.098C250.03 182.933 251.775 183.626 253.326 184.606L253.625 184.794C255.096 185.753 256.287 186.966 257.189 188.433L257.378 188.737C258.286 190.279 258.726 192.103 258.726 194.186C258.726 195.795 258.4 197.161 257.691 198.233C256.961 199.362 255.712 199.856 254.146 199.856C253.512 199.856 252.652 199.748 251.588 199.548L251.574 199.546L251.56 199.542C250.383 199.266 249.326 198.66 248.391 197.749L247.677 197.054L248.613 196.709C249.022 196.558 249.43 196.134 249.738 195.187C250.062 194.135 250.213 193.262 250.213 192.555C250.213 192.17 250.15 191.649 250.01 190.978C249.885 190.373 249.632 189.78 249.242 189.198L249.227 189.176L249.214 189.152C248.898 188.582 248.394 188.093 247.667 187.695L247.628 187.672C246.997 187.265 246.1 187.03 244.88 187.03C243.098 187.03 241.505 187.556 240.082 188.611L240.078 188.614C238.677 189.64 237.465 191.05 236.448 192.862L236.447 192.861C235.476 194.627 234.73 196.692 234.214 199.064C233.698 201.438 233.439 203.938 233.439 206.566C233.439 209.437 233.722 211.895 234.276 213.95L234.511 214.715C235.073 216.452 235.734 217.916 236.492 219.112C237.409 220.436 238.399 221.4 239.452 222.035C240.517 222.628 241.557 222.913 242.581 222.913C244.617 222.913 246.355 221.736 247.773 219.093L247.777 219.086C249.238 216.447 250.094 212.438 250.285 206.988L250.306 206.376L250.92 206.382L259.396 206.456L260.02 206.461V237.924Z" stroke="#D3B96D" stroke-width="1.25777"/>
<path d="M205.059 189.111C203.724 190.333 202.441 192.175 201.225 194.683C199.792 197.64 198.545 201.045 197.488 204.901C198.773 205.177 200.058 205.504 201.342 205.889H201.341C202.597 206.213 203.836 206.589 205.059 207.012V189.111ZM216.733 238.7H205.059V211.58C203.275 210.836 201.692 210.309 200.305 209.996L200.296 209.994L200.287 209.991C198.965 209.65 197.644 209.403 196.324 209.25C195.807 211.341 195.351 213.474 194.956 215.649V215.651C194.527 217.961 194.169 220.271 193.883 222.581V222.583C193.598 224.844 193.384 227.056 193.241 229.217C193.098 231.38 193.026 233.368 193.026 235.181C193.026 237.24 193.097 238.917 193.237 240.219C193.425 241.525 193.633 242.544 193.857 243.288C194.133 244.094 194.397 244.674 194.641 245.056C194.966 245.487 195.244 245.844 195.473 246.128L196.299 247.151H194.984C193.761 247.151 192.445 247.076 191.038 246.926H191.035C189.582 246.765 188.215 246.229 186.94 245.335C185.671 244.462 184.65 243.123 183.851 241.372C183.03 239.572 182.645 237.07 182.645 233.92C182.645 232.259 182.767 230.429 183.008 228.433C183.25 226.439 183.588 224.347 184.022 222.159C184.456 219.921 184.986 217.634 185.612 215.299L185.614 215.29C186.2 213.216 186.845 211.161 187.541 209.124C185.727 209.302 184.273 209.635 183.162 210.109C182.109 210.559 181.484 211.199 181.204 212.027C181.253 212.07 181.298 212.111 181.337 212.151C181.537 212.359 181.736 212.64 181.934 212.971L182.089 213.225C182.427 213.823 182.609 214.447 182.609 215.091C182.609 216.063 182.151 216.844 181.323 217.394C180.526 217.922 179.559 218.166 178.461 218.166C176.925 218.166 175.541 217.67 174.33 216.693V216.692C173.004 215.66 172.372 214.151 172.372 212.274C172.372 209.648 173.69 207.514 176.177 205.891C178.657 204.272 181.878 203.49 185.788 203.49C186.853 203.49 188.132 203.555 189.62 203.678C190.782 200.848 192.075 198.172 193.503 195.654C195.005 192.955 196.633 190.597 198.389 188.583C200.148 186.517 202.018 184.888 204.002 183.711C206.007 182.472 208.128 181.844 210.357 181.844C211.115 181.844 212.033 181.922 213.103 182.072L213.102 182.073C214.252 182.228 215.334 182.512 216.344 182.929L216.733 183.09V238.7Z" stroke="#D3B96D" stroke-width="1.25777"/>
<path d="M174.149 237.924C174.149 239.851 173.902 241.752 173.413 243.627C172.961 245.543 172.132 247.282 170.927 248.836C169.761 250.402 168.198 251.644 166.258 252.569L166.259 252.57C164.279 253.566 161.827 254.046 158.936 254.046C156.634 254.046 154.639 253.743 152.968 253.116C151.322 252.498 149.948 251.665 148.869 250.604C147.799 249.553 147.006 248.338 146.494 246.965L146.489 246.952C146.034 245.649 145.807 244.294 145.807 242.891C145.807 241.748 145.958 240.561 146.255 239.332L146.259 239.318L146.264 239.303C146.619 238.101 147.152 236.999 147.864 236.001C148.593 234.931 149.554 234.077 150.736 233.441C151.997 232.738 153.494 232.401 155.201 232.401C155.695 232.402 156.295 232.485 156.986 232.638C157.799 232.758 158.569 233.095 159.293 233.625L159.448 233.735C160.209 234.307 160.819 235.132 161.298 236.167L161.395 236.379C161.865 237.465 162.08 238.884 162.08 240.592V242.145L160.999 241.03C160.375 240.387 159.82 240.02 159.336 239.862C158.759 239.727 158.269 239.664 157.859 239.664C156.072 239.664 155.023 240.116 154.479 240.826C153.841 241.66 153.531 242.565 153.531 243.558C153.531 244.23 153.639 244.906 153.859 245.588C154.074 246.253 154.391 246.817 154.808 247.291C155.227 247.762 155.691 248.143 156.202 248.438L156.422 248.559L156.438 248.567C157.049 248.903 157.779 249.081 158.649 249.081C160.038 249.081 161.153 248.55 162.041 247.46L162.049 247.449L162.058 247.44C162.96 246.425 163.48 244.687 163.48 242.075V225.86C162.522 227.14 161.379 228.181 160.049 228.975L160.038 228.981C158.106 230.082 155.839 230.62 153.26 230.62C150.726 230.62 148.355 230.081 146.158 228.999C143.961 227.917 142.046 226.348 140.413 224.305C138.776 222.258 137.498 219.764 136.569 216.838L136.566 216.829C135.683 213.894 135.247 210.593 135.247 206.937C135.247 203.425 135.685 200.152 136.565 197.123L136.567 197.117C137.497 194.037 138.848 191.369 140.628 189.124C142.41 186.876 144.615 185.113 147.234 183.837L147.743 183.595C150.31 182.422 153.231 181.844 156.494 181.844C158.406 181.844 160.318 182.071 162.226 182.525H162.227C164.159 182.933 165.903 183.626 167.455 184.606L167.754 184.794C169.225 185.753 170.416 186.966 171.318 188.433L171.506 188.737C172.415 190.279 172.855 192.103 172.855 194.186C172.855 195.795 172.528 197.161 171.82 198.233C171.09 199.362 169.841 199.856 168.275 199.856C167.641 199.856 166.781 199.748 165.716 199.548L165.703 199.546L165.689 199.542C164.512 199.266 163.455 198.66 162.52 197.749L161.806 197.054L162.742 196.709C163.151 196.558 163.559 196.134 163.867 195.187C164.191 194.135 164.341 193.262 164.341 192.555C164.341 192.17 164.279 191.649 164.139 190.978C164.014 190.373 163.761 189.78 163.371 189.198L163.356 189.176L163.343 189.152C163.027 188.582 162.523 188.093 161.796 187.695L161.756 187.672C161.126 187.265 160.229 187.03 159.008 187.03C157.227 187.03 155.634 187.556 154.211 188.611L154.207 188.614C152.806 189.64 151.594 191.05 150.577 192.862L150.576 192.861C149.605 194.627 148.859 196.692 148.343 199.064C147.827 201.438 147.568 203.938 147.568 206.566C147.568 209.437 147.851 211.895 148.405 213.95L148.64 214.715C149.202 216.452 149.863 217.916 150.621 219.112C151.538 220.436 152.528 221.4 153.581 222.035C154.646 222.628 155.686 222.913 156.71 222.913C158.746 222.913 160.484 221.736 161.902 219.093L161.906 219.086C163.367 216.447 164.223 212.438 164.414 206.988L164.435 206.376L165.048 206.382L173.525 206.456L174.149 206.461V237.924Z" stroke="#D3B96D" stroke-width="1.25777"/>
<path d="M130.806 238.7H119.203V188.868C117.449 189.911 116.071 191.294 115.059 193.021L115.056 193.026L114.516 192.703L115.055 193.026C113.88 194.985 113.278 197.388 113.278 200.265C113.278 201.766 113.371 202.977 113.55 203.909C113.782 204.864 114.01 205.64 114.234 206.244C114.503 206.796 114.764 207.244 115.017 207.594C115.318 207.958 115.56 208.315 115.729 208.663L116.166 209.567H115.162C112.195 209.566 109.767 208.878 107.947 207.429L107.938 207.421C106.056 205.868 105.195 203.322 105.195 199.968C105.195 197.484 105.823 195.152 107.075 192.982C108.312 190.787 109.944 188.875 111.966 187.246C114.033 185.571 116.368 184.253 118.967 183.291L118.971 183.29C121.625 182.326 124.357 181.844 127.16 181.844C127.696 181.844 128.21 181.869 128.703 181.919C129.237 181.92 129.75 181.945 130.242 181.995L130.806 182.054V238.7Z" stroke="#D3B96D" stroke-width="1.25777"/>
<path d="M80.925 204.083H90.2277V181.992H101.83V238.7H90.2277V210.827H80.925V238.7H69.3224V188.868C67.5681 189.911 66.1898 191.294 65.1779 193.021L65.175 193.026L64.6349 192.703L65.174 193.026C63.9994 194.985 63.3967 197.388 63.3967 200.265C63.3967 201.815 63.4898 203.049 63.6682 203.98C63.9006 204.89 64.1308 205.646 64.3566 206.255C64.6288 206.86 64.8857 207.291 65.1193 207.572C65.4281 207.944 65.6757 208.308 65.8478 208.663L66.2853 209.567H65.2814C62.3144 209.566 59.8859 208.878 58.0656 207.429L58.0568 207.421C56.1754 205.868 55.3137 203.322 55.3137 199.968C55.3137 197.484 55.9417 195.152 57.1935 192.982C58.431 190.787 60.0633 188.875 62.0851 187.246C64.152 185.571 66.487 184.253 69.0861 183.291L69.09 183.29C71.7445 182.326 74.4758 181.844 77.2795 181.844C77.815 181.844 78.3293 181.869 78.8224 181.919C79.3562 181.92 79.869 181.945 80.3605 181.995L80.925 182.054V204.083Z" stroke="#D3B96D" stroke-width="1.25777"/>
<path d="M40.5775 181.844C42.4086 181.844 44.1925 182.099 45.9271 182.61H45.9261C47.6626 183.073 49.1909 183.819 50.5013 184.855C51.8773 185.854 52.9703 187.142 53.7796 188.708C54.5997 190.295 54.9993 192.127 54.9993 194.186C54.9993 195.745 54.6979 197.08 54.0452 198.147L54.0443 198.146C53.3627 199.341 52.0969 199.856 50.4915 199.856C49.8497 199.856 49.1019 199.746 48.2591 199.541L48.2366 199.535L48.2151 199.528C47.3222 199.241 46.4267 198.626 45.5267 197.749L44.9564 197.194L45.6282 196.769C46.0892 196.476 46.5259 195.902 46.8841 194.932C47.2441 193.907 47.4192 192.918 47.4193 191.962C47.4193 190.511 47.0053 189.263 46.1849 188.193L46.1771 188.184L46.6839 187.811L46.1771 188.183C45.3855 187.108 44.3521 186.586 43.0198 186.586C41.6065 186.586 40.3614 187.196 39.264 188.51C38.1309 189.866 37.1574 191.692 36.3607 194.011L36.3616 194.012C35.6106 196.288 35.0426 198.917 34.6634 201.901V201.901C34.2838 204.839 34.0941 207.852 34.0941 210.94C34.0941 215.014 34.404 218.398 35.013 221.106C35.6727 223.825 36.5353 225.972 37.5833 227.57C38.6333 229.172 39.8407 230.268 41.1946 230.901C42.6438 231.555 44.1843 231.883 45.8216 231.883C48.4378 231.883 50.7598 231.222 52.806 229.909L53.1956 229.647C55.1162 228.308 56.6126 226.577 57.6888 224.444L57.9515 223.924L58.4896 224.147L60.2855 224.888L60.7816 225.093L60.6575 225.614C60.1142 227.908 59.2225 229.958 57.9769 231.758C56.7868 233.497 55.3229 234.98 53.5901 236.207L53.5911 236.208C51.9007 237.439 49.9905 238.359 47.8665 238.971C45.7933 239.582 43.6018 239.887 41.2952 239.887C34.942 239.887 29.9358 237.563 26.3568 232.895L26.3538 232.891C22.8341 228.235 21.1263 221.278 21.1263 212.125C21.1263 208.729 21.4166 205.26 21.9964 201.72C22.5803 198.155 23.6044 194.906 25.0726 191.977C26.5494 189.03 28.5248 186.606 31.0003 184.716L31.0052 184.712C33.5777 182.786 36.783 181.844 40.5775 181.844Z" stroke="#D3B96D" stroke-width="1.25777"/>
<g clip-path="url(#clip0_260_622)">
<path d="M318.589 76.8291C327.713 77.855 356.083 71.1948 363.681 50.2532C369.141 35.1903 368.124 21.6581 367.513 13.4671C367.206 11.1606 367.166 8.82859 367.394 6.5137C368.446 1.77498 370.786 1.41673 373.567 1.98668C372.329 0.928201 368.751 -0.179128 366.699 3.90822C365.41 6.5137 365.325 9.77055 365.224 14.1836C365.185 22.9677 364.046 31.7154 361.832 40.2384C357.169 58.3791 346.451 74.2562 318.589 76.8291Z" fill="#D3B96D"/>
<path d="M315.079 23.3354C302.547 42.6159 305.701 58.9327 308.771 65.137C304.073 11.8061 342.551 2.73576 362.697 4.88528C351.878 2.71948 327.628 4.05479 315.079 23.3354Z" fill="#D3B96D"/>
<path d="M335.293 30.4516C341.149 19.7277 350.475 11.121 361.866 5.92749C328.781 19.134 309.534 68.4753 314.553 69.4361C318.098 70.1526 321.235 62.4339 325.474 52.0445C328.332 44.6793 331.61 37.4707 335.293 30.4516Z" fill="#D3B96D"/>
<path d="M263.12 169.845C257.513 174.488 250.559 177.369 243.194 178.101C265.816 176.391 284.199 154.782 281.146 153.544C278.993 152.665 276.059 156.036 272.057 160.563C269.281 163.831 266.296 166.931 263.12 169.845Z" fill="#D3B96D"/>
<path d="M302.717 83.1801C301.51 88.0149 301.651 93.0696 303.124 97.8359C304.098 100.533 305.231 103.175 306.515 105.75C308.211 109.381 309.585 112.085 308.601 113.225C307.244 114.82 298.698 97.901 302.717 83.1801Z" fill="#D3B96D"/>
<path d="M589.826 115.879C588.638 116.095 587.413 116.029 586.257 115.687C585.102 115.345 584.051 114.737 583.196 113.917C581.628 112.149 580.727 109.925 580.638 107.605C580.539 106.349 580.568 105.086 580.726 103.836C580.859 102.376 580.988 100.965 581.195 99.6252C581.402 98.2859 581.568 97.4008 581.637 97.0143C581.929 95.1262 582.184 93.2515 582.419 91.424C582.64 89.9577 582.707 88.4737 582.618 86.9946C582.388 84.2944 581.276 83.0404 579.269 83.215C578.511 83.3181 577.789 83.5896 577.16 84.0078C576.531 84.426 576.012 84.9794 575.645 85.6241C574.549 87.2994 573.801 89.1628 573.442 91.1113L569.999 117.14L557.984 118.223L563.379 77.6953L575.393 76.6124L574.839 80.8322C575.901 79.343 577.288 78.0937 578.904 77.1709C580.519 76.2481 582.325 75.6739 584.194 75.4883C586.642 75.1428 589.133 75.7212 591.146 77.1021C592.111 77.921 592.884 78.9268 593.415 80.0533C593.946 81.1798 594.223 82.4015 594.227 83.638C594.358 85.378 594.313 87.126 594.092 88.8576C593.921 90.7393 593.504 93.0745 593.031 95.8301C592.731 97.4396 592.455 99.1654 592.204 100.795C592.008 102.017 591.946 103.256 592.021 104.491C592.033 105.378 592.378 106.231 592.994 106.893C593.356 107.185 593.782 107.395 594.241 107.507C594.699 107.619 595.178 107.631 595.641 107.541C596.595 107.527 597.528 107.273 598.347 106.804C598.383 109.147 597.476 111.414 595.813 113.13C594.246 114.733 592.109 115.714 589.826 115.879Z" fill="#D3B96D"/>
<path fill-rule="evenodd" clip-rule="evenodd" d="M522.183 121.274C524.972 123.151 528.406 123.925 531.774 123.437C535.03 123.13 538.095 121.815 540.507 119.692C543.266 117.253 545.347 114.191 546.562 110.785C548.076 106.644 548.814 102.279 548.741 97.8906C551.484 97.2033 554.116 96.1596 556.564 94.7883C558.765 93.581 560.699 91.972 562.256 90.0519L561.348 88.0631C559.541 89.5972 557.558 90.9279 555.437 92.0291C553.598 93.0139 551.582 93.6544 549.494 93.9164C549.201 93.9576 548.903 93.96 548.608 93.9237L548.616 93.8426C547.886 85.4119 544.122 81.5049 537.325 82.1217C535.012 82.2666 532.754 82.8656 530.691 83.8815C528.627 84.8975 526.803 86.3089 525.331 88.0286C522.314 91.4883 520.191 95.5834 519.135 99.9804C518.075 103.937 517.673 108.03 517.945 112.108C518.301 116.42 519.714 119.476 522.183 121.274ZM537.969 113.545C537.585 114.185 537.062 114.739 536.435 115.169C535.809 115.598 535.093 115.894 534.338 116.035C533.744 116.158 533.127 116.132 532.546 115.96C531.966 115.788 531.441 115.476 531.022 115.053C530.147 113.515 529.69 111.79 529.692 110.038C529.488 106.865 529.721 103.68 530.385 100.566C530.967 97.2778 532.038 94.0868 533.563 91.0904C534.998 88.4158 536.575 86.9953 538.343 86.8332C538.77 86.7558 539.211 86.7923 539.618 86.9389C540.025 87.0855 540.382 87.3365 540.65 87.6646C541.305 88.7217 541.687 89.9141 541.763 91.1418C540.966 91.5811 540.333 92.2505 539.954 93.055C539.575 93.8594 539.47 94.7581 539.653 95.6233C539.819 97.5334 540.627 98.5658 542.091 98.7541C541.96 101.647 541.51 104.519 540.749 107.321C540.185 109.529 539.246 111.631 537.969 113.545Z" fill="#D3B96D"/>
<path d="M502.862 133.077C501.509 133.313 500.119 133.259 498.79 132.918C497.461 132.578 496.228 131.959 495.177 131.107C493.434 129.354 492.405 127.057 492.277 124.636C492.184 123.331 492.212 122.02 492.362 120.72C492.499 119.211 492.631 117.767 492.759 116.356C492.888 114.945 493.123 114.049 493.192 113.662C493.473 111.692 493.717 109.767 493.942 107.857C494.143 106.334 494.203 104.796 494.122 103.262C493.867 100.462 492.795 99.1461 490.771 99.3193C490.002 99.4249 489.271 99.7062 488.639 100.139C488.007 100.573 487.493 101.146 487.139 101.809C486.035 103.553 485.282 105.48 484.919 107.491L481.592 134.478L469.79 135.66L473.363 106.537C473.47 105.846 473.494 105.146 473.434 104.45C473.228 102.03 472.293 100.905 470.629 101.044C469.823 101.144 469.054 101.425 468.381 101.862C467.709 102.299 467.153 102.882 466.756 103.562C465.647 105.334 464.892 107.288 464.529 109.325L461.219 136.313L449.307 137.389L454.468 95.3213L466.481 94.2545L465.93 98.6218C467.005 97.0491 468.433 95.7274 470.11 94.7538C471.786 93.7802 473.668 93.1793 475.618 92.9952C480.475 92.5533 483.517 94.6723 484.761 99.3212C487.391 94.3766 491.04 91.6917 495.709 91.2667C496.918 91.0941 498.151 91.1563 499.335 91.4495C500.519 91.7427 501.629 92.2609 502.601 92.9736C503.575 93.8417 504.353 94.8936 504.885 96.0633C505.416 97.233 505.691 98.4955 505.692 99.7719C505.835 101.577 505.801 103.391 505.59 105.19C505.411 107.153 505.022 109.556 504.556 112.427C504.26 114.184 503.985 115.893 503.747 117.573C503.571 118.847 503.517 120.134 503.584 121.417C503.606 122.326 503.946 123.201 504.549 123.901C504.904 124.206 505.328 124.426 505.787 124.544C506.247 124.662 506.729 124.675 507.194 124.581C507.956 124.539 508.697 124.327 509.359 123.963C510.022 123.599 510.587 123.092 511.011 122.483C512.132 120.679 512.975 118.729 513.513 116.694L516.947 116.377C515.442 122.61 513.419 126.886 510.907 129.225C508.772 131.366 505.928 132.728 502.862 133.077Z" fill="#D3B96D"/>
<path fill-rule="evenodd" clip-rule="evenodd" d="M417.227 142.817C420.089 144.783 423.642 145.586 427.117 145.054C436.27 144.243 443.5 138.502 448.807 127.833L445.959 128.084C444.089 130.637 441.881 132.946 439.392 134.953C437.229 136.574 434.609 137.532 431.872 137.705C431.056 137.85 430.217 137.837 429.406 137.668C428.594 137.498 427.826 137.176 427.145 136.72C425.866 135.209 425.194 133.308 425.25 131.362C425.197 130.818 425.161 129.72 425.123 128.082C428.425 127.571 431.574 126.387 434.359 124.608C437.083 122.849 439.333 120.495 440.926 117.739C442.469 115.099 443.148 112.074 442.875 109.059C442.398 103.821 439.099 101.484 432.976 102.048C430.569 102.203 428.219 102.829 426.074 103.888C423.928 104.948 422.03 106.418 420.499 108.209C417.386 111.79 415.213 116.036 414.162 120.59C413.103 124.726 412.714 128.994 413.009 133.244C413.318 137.699 414.762 140.91 417.227 142.817ZM431.092 121.424C429.52 122.835 427.544 123.762 425.419 124.086C425.819 119.959 426.864 115.914 428.521 112.087C430.178 108.466 432.009 106.566 434.011 106.385C435.418 106.258 436.208 107.306 436.396 109.544C436.595 111.791 436.184 114.049 435.203 116.097C434.284 118.149 432.89 119.972 431.126 121.427L431.092 121.424Z" fill="#D3B96D"/>
<path d="M305.973 114.625C303.632 114.625 298.596 112.443 296.408 103.91C294.221 95.3769 299.495 85.9972 302.581 82.4961C297.341 89.5635 290.829 105.701 305.973 114.625Z" fill="#D3B96D"/>
<path d="M317.538 134.866C317.753 138.826 316.838 142.767 314.892 146.265C313.663 148.243 312.315 150.152 310.856 151.981C308.855 154.57 307.363 156.492 307.991 157.55C308.872 159.097 318.488 147.063 317.538 134.866Z" fill="#D3B96D"/>
<path d="M319.403 152.128C316.283 158.527 311.84 159.407 309.941 159.13C323.66 154.391 320.913 140.696 317.758 134.345C319.709 137.635 322.524 145.744 319.403 152.128Z" fill="#D3B96D"/>
<path d="M305.243 159.13C303.802 156.248 302.038 146.298 306.21 141.331C310.043 136.755 313.095 135.876 314.842 135.371C315.335 135.283 315.804 135.094 316.215 134.817C316.417 134.674 316.586 134.492 316.712 134.284C316.838 134.076 316.918 133.845 316.948 133.606C316.978 133.366 316.958 133.124 316.887 132.893C316.816 132.661 316.697 132.446 316.537 132.261C316.914 132.55 317.166 132.963 317.245 133.42C317.323 133.877 317.222 134.346 316.961 134.736C316.428 135.419 315.705 135.944 314.876 136.25C312.766 137.256 310.851 138.6 309.212 140.224C305.345 143.871 302.242 149.685 305.243 159.13Z" fill="#D3B96D"/>
<path d="M342.28 93.3739C340.853 96.1791 338.713 98.5931 336.056 100.392C334.491 101.341 332.872 102.206 331.206 102.982C328.9 104.089 327.187 104.919 327.17 105.864C327.136 107.199 338.057 102.119 342.28 93.3739Z" fill="#D3B96D"/>
<path d="M335.14 107.851C330.409 110.961 327.289 109.902 326.237 109.007C336.785 110.945 341.059 100.865 341.89 95.3606C341.669 98.2754 339.855 104.757 335.14 107.851Z" fill="#D3B96D"/>
<path d="M624.799 91.1918C623.944 87.2165 621.573 83.6913 618.152 81.3072C614.448 78.703 609.99 77.2741 605.4 77.2199C584.473 37.7469 521.475 11.0895 455.491 26.1688C393.883 40.2384 349.419 87.1533 343.806 128.483C337.898 130.018 332.836 133.686 329.676 138.72C326.516 143.753 325.503 149.764 326.848 155.498C317.741 160.27 305.413 163.917 295.069 157.957C288.947 154.44 286.047 149.538 285.742 144.392V143.301C285.742 133.938 296.137 128.857 306.515 123.76C316.894 118.663 327.289 113.583 327.289 104.219C327.289 103.584 327.289 102.949 327.289 102.33C327.903 100.635 328.869 99.0765 330.128 97.7498C331.387 96.4231 332.913 95.3554 334.615 94.6115C336.213 93.8637 337.934 93.3898 339.702 93.211C340.531 93.2011 341.345 93.0001 342.076 92.6248C342.279 92.4919 342.457 92.3267 342.602 92.1363C341.06 92.8117 339.379 93.1456 337.684 93.1133C336.102 93.1471 334.546 93.5081 333.122 94.1718L332.885 94.3021C332.537 94.4745 332.203 94.6704 331.884 94.8883C331.749 94.986 331.596 95.0674 331.46 95.1814L331.325 95.2791C329.435 97.048 328.045 99.2507 327.289 101.679C326.966 93.7299 323.886 86.1125 318.539 80.0371C312.027 72.5626 300.41 65.886 278.959 66.7654C258.609 67.5959 247.586 85.4923 248.434 94.4486C249.842 86.0297 257.931 69.0452 278.959 68.3938C297.816 67.8076 312.315 74.7773 318.996 85.3783L319.149 85.6063V85.7203C320.586 88.4154 321.614 91.2944 322.201 94.2695C323.745 101.711 322.201 105.913 319.776 108.779C317.762 110.911 315.323 112.633 312.603 113.843C314.977 109.235 317.792 99.6922 314.57 93.667C311.179 87.1533 307.787 85.4272 305.735 84.4175C305.174 84.1858 304.666 83.848 304.243 83.4242C304.03 83.1981 303.867 82.9331 303.763 82.6449C303.659 82.3567 303.617 82.0514 303.639 81.7472C303.661 81.443 303.747 81.1463 303.892 80.8748C304.036 80.6033 304.237 80.3627 304.48 80.1673C303.955 80.4415 303.554 80.8923 303.353 81.4334C303.153 81.9744 303.168 82.5674 303.395 83.0985C303.841 84.0618 304.572 84.8774 305.498 85.4434C307.775 87.1542 309.726 89.2314 311.264 91.5826C314.757 96.647 317.012 103.91 312.349 113.908C310.789 114.657 309.076 115.39 307.261 116.123L305.243 117.002C300.177 118.804 295.359 121.194 290.897 124.119C288.017 126.114 285.618 128.681 283.863 131.645C282.107 134.609 281.036 137.902 280.722 141.298C280.475 143.304 280.447 145.329 280.637 147.34C273.21 146.021 257.541 146.542 250.842 154.831C243.94 163.396 243.466 169.486 243.177 172.857C243.191 173.796 243.025 174.729 242.686 175.609C241.414 177.808 239.887 177.645 238.124 176.928C238.427 177.23 238.791 177.469 239.193 177.633C239.595 177.797 240.027 177.881 240.464 177.881C240.901 177.881 241.333 177.797 241.735 177.633C242.137 177.469 242.501 177.23 242.804 176.928C243.869 175.698 244.545 174.2 244.754 172.613C245.738 168.423 247.458 164.425 249.842 160.791C254.929 152.828 263.73 145.581 280.553 147.535C280.898 151.087 282.279 154.474 284.538 157.306C280.705 184.012 255.014 182.758 242.329 178.671C249.113 181.39 264.9 184.387 275.397 176.652C284.979 169.6 285.81 161.817 284.945 157.843C288.665 161.719 293.59 164.335 298.986 165.301C310.218 167.511 321.735 168.06 333.139 166.93C335.856 169.69 339.262 171.737 343.034 172.877C346.807 174.017 350.82 174.212 354.693 173.444C378.943 208.194 437.957 224.478 499.87 210.344C563.395 195.818 609.13 154.016 612.437 111.303C616.634 109.497 620.15 106.495 622.51 102.705C624.705 99.2617 625.519 95.1691 624.799 91.1918ZM622.68 97.2007C622.213 99.7906 621.003 102.204 619.186 104.17C618.55 104.825 617.741 105.303 616.846 105.554C615.952 105.827 614.998 105.867 614.082 105.668C613.216 105.503 612.424 105.089 611.81 104.48C611.227 103.912 610.862 103.172 610.775 102.379L610.487 100.23C610.487 100.23 599.396 165.676 492.375 190.102C367.801 218.584 348.554 142.324 348.554 142.324C347.384 141.51 347.452 148.952 347.74 155.58C347.772 156.747 347.403 157.892 346.689 158.837C345.919 159.897 344.847 160.722 343.602 161.214C342.343 161.714 340.967 161.882 339.617 161.703C338.355 161.523 337.175 160.991 336.226 160.172C333.837 157.814 332.39 154.724 332.139 151.444C330.833 138.53 348.351 132.733 348.351 132.733C348.351 132.733 354.896 51.2954 457.865 29.3116C555.611 8.41891 602.161 75.1355 607.943 90.1496C607.282 85.4109 606.824 78.7506 608.995 79.3531C613.082 80.379 624.511 87.3813 622.68 97.1355V97.2007Z" fill="#D3B96D"/>
<path d="M443.797 173.672C439.902 174.002 435.985 173.358 432.426 171.802C427.426 169.622 422.581 167.129 417.922 164.339C413.513 161.789 409.731 159.7 406.577 158.073C403.382 156.511 400.026 155.276 396.563 154.387C393.099 153.453 389.483 153.149 385.903 153.492C384.938 153.57 383.977 153.697 383.026 153.871L394.964 74.7767C389.905 76.9959 385.66 80.6265 382.78 85.1956C380.088 89.9239 378.999 95.3411 379.666 100.692C379.705 102.669 380.171 104.618 381.034 106.414C381.443 106.95 381.79 107.527 382.069 108.135C377.57 108.558 374.128 108.04 371.738 106.614C369.349 105.187 368.105 102.401 367.76 98.531C367.332 93.7547 369.042 88.9345 372.89 84.0704C377.231 78.8814 382.658 74.626 388.821 71.5797C395.022 68.2441 401.868 66.1603 408.938 65.4562C410.104 65.358 411.781 65.27 413.964 65.2246L401.716 147.154C404.195 147.485 406.64 148.013 409.028 148.733C411.608 149.56 414.725 150.661 418.379 152.036C423.076 153.84 427.873 155.395 432.748 156.692C436.709 157.744 440.837 158.091 444.928 157.715C448.522 157.403 452.027 156.468 455.274 154.955C455.31 159.574 454.146 164.128 451.888 168.206C451.135 169.703 449.997 170.99 448.581 171.947C447.165 172.903 445.519 173.497 443.797 173.672Z" fill="#D3B96D"/>
</g>
<path d="M272.666 128.232C267.046 128.895 262.436 128.122 258.837 125.913C255.227 123.636 252.945 119.713 251.99 114.144C251.187 109.458 251.341 104.173 252.454 98.2908C253.567 92.4085 256.122 87.1529 260.12 82.524C264.106 77.8272 269.717 75.0522 276.954 74.1989C285.423 73.2004 290.216 75.9613 291.333 82.4815C291.985 86.285 291.353 89.928 289.436 93.4107C287.52 96.8933 284.69 99.86 280.947 102.311C277.193 104.694 273.029 106.293 268.457 107.11C268.559 108.622 268.656 109.65 268.75 110.193C269.716 115.83 272.585 118.368 277.359 117.805C279.514 117.551 281.737 116.769 284.026 115.46C286.315 114.15 288.326 112.597 290.06 110.799C289.704 121.096 283.906 126.907 272.666 128.232ZM268.427 102.124C271.341 101.711 273.928 100.54 276.19 98.6103C278.528 96.6717 280.252 94.355 281.361 91.6605C282.535 88.889 282.884 86.1108 282.406 83.3262C281.929 80.5415 280.728 79.2626 278.803 79.4896C276.109 79.8073 273.787 82.2984 271.837 86.9629C269.953 91.5504 268.816 96.6041 268.427 102.124Z" fill="#D3B96D"/>
<path d="M224.567 143.898C220.624 144.363 217.237 143.668 214.405 141.814C211.656 139.95 209.914 136.873 209.178 132.584C208.872 130.796 208.802 128.434 208.969 125.497L212.944 70.2162L230.811 65.9215L226.567 125.501C226.423 126.612 226.454 127.775 226.663 128.99C226.908 130.42 227.455 131.413 228.305 131.97C229.224 132.445 230.587 132.576 232.394 132.363C234.776 132.082 236.847 130.962 238.606 129.004C240.353 126.975 241.44 124.513 241.865 121.618L247.04 121.008C245.324 129.088 242.323 134.802 238.037 138.152C233.739 141.431 229.249 143.346 224.567 143.898Z" fill="#D3B96D"/>
<path d="M181.4 150.793C177.457 151.258 174.07 150.563 171.239 148.709C168.489 146.845 166.747 143.768 166.012 139.479C165.705 137.691 165.636 135.329 165.803 132.392L168.03 101.386L163.965 101.866L164.215 97.4599L168.281 96.9805L169.441 81.7458L187.308 77.4511L186.023 94.8887L193.415 94.0171L193.164 98.4228L185.772 99.2944L183.401 132.396C183.256 133.507 183.288 134.67 183.496 135.885C183.741 137.315 184.288 138.308 185.138 138.864C186.057 139.34 187.42 139.471 189.227 139.258C191.609 138.977 193.68 137.857 195.439 135.899C197.186 133.87 198.273 131.408 198.699 128.513L203.873 127.903C202.157 135.983 199.156 141.697 194.87 145.047C190.572 148.326 186.082 150.241 181.4 150.793Z" fill="#D3B96D"/>
<path d="M140.701 158.935C136.758 159.4 133.371 158.705 130.539 156.851C127.79 154.987 126.048 151.91 125.312 147.621C125.006 145.833 124.936 143.471 125.103 140.534L127.331 109.528L123.265 110.008L123.516 105.602L127.582 105.123L128.742 89.888L146.608 85.5933L145.323 103.031L152.716 102.159L152.465 106.565L145.073 107.437L142.701 140.538C142.557 141.649 142.588 142.812 142.797 144.028C143.042 145.457 143.589 146.45 144.439 147.007C145.358 147.482 146.721 147.613 148.528 147.4C150.91 147.119 152.981 145.999 154.74 144.042C156.487 142.012 157.574 139.55 157.999 136.655L163.174 136.045C161.458 144.125 158.457 149.839 154.171 153.189C149.873 156.468 145.383 158.383 140.701 158.935Z" fill="#D3B96D"/>
<path d="M95.7068 105.42C92.9963 105.74 90.5555 105.189 88.3846 103.767C86.2136 102.346 84.9259 100.455 84.5216 98.096C84.1173 95.7368 84.7188 93.6236 86.3261 91.7566C87.9212 89.818 90.074 88.6889 92.7846 88.3693C95.4951 88.0498 97.942 88.6365 100.125 90.1296C102.378 91.5415 103.707 93.427 104.111 95.7863C104.516 98.1455 103.873 100.263 102.184 102.14C100.576 104.007 98.4174 105.101 95.7068 105.42ZM97.6211 166.461C93.6785 166.926 90.2914 166.232 87.4597 164.377C84.7101 162.514 82.9677 159.437 82.2326 155.147C81.9263 153.36 81.8566 150.998 82.0236 148.061L84.5019 112.649L102.244 110.557L99.6216 148.064C99.4769 149.175 99.5086 150.339 99.7169 151.554C99.962 152.984 100.509 153.977 101.359 154.533C102.278 155.008 103.641 155.139 105.448 154.926C107.83 154.645 109.901 153.526 111.66 151.568C113.408 149.539 114.494 147.077 114.92 144.182L120.094 143.572C118.378 151.651 115.377 157.366 111.091 160.716C106.793 163.994 102.303 165.909 97.6211 166.461Z" fill="#D3B96D"/>
<path d="M121.458 222.473C115.317 222.473 109.172 220.796 103.023 217.443C97.0153 214.218 89.2926 209.188 79.8545 202.352C72.8086 197.193 66.7597 193.001 61.7078 189.777C56.7979 186.681 51.4299 184.037 45.6036 181.845C39.9138 179.652 34.1348 178.556 28.2666 178.556C26.2196 178.556 24.653 178.62 23.5668 178.749L48.2883 44.6762C39.295 48.1587 32.4293 53.5113 27.6912 60.734C23.0841 67.8278 21.0029 76.5339 21.4477 86.8521C21.6534 91.6243 22.2756 94.9778 23.3143 96.9125C24.3475 98.7181 24.8696 99.75 24.8807 100.008C17.5113 100.008 11.9231 98.5892 8.11614 95.7516C4.44004 92.7851 2.45744 87.9485 2.16833 81.2416C1.8125 72.987 5.01601 64.9903 11.7789 57.2516C18.6726 49.384 27.6119 43.064 38.5967 38.2918C49.576 33.3906 60.6608 30.9401 71.8514 30.9401C73.7619 30.9401 76.4969 31.069 80.0562 31.327L54.5196 170.237C58.3797 171.139 62.3247 172.429 66.3546 174.106C70.5265 175.912 75.5423 178.298 81.4019 181.264C90.467 185.778 98.1885 189.196 104.566 191.518C110.949 193.969 117.553 195.194 124.376 195.194C130.517 195.194 136.205 194.162 141.438 192.098C140.752 201.514 138.615 208.93 135.028 214.347C131.577 219.764 127.053 222.473 121.458 222.473Z" fill="#D3B96D"/>
<defs>
<clipPath id="clip0_260_622">
<rect width="388.337" height="216.581" fill="white" transform="translate(237.412)"/>
</clipPath>
</defs>
</svg>
