<svg width="1013" height="962" viewBox="0 0 1013 962" fill="none" xmlns="http://www.w3.org/2000/svg">
<path d="M5.90118 732.781C15.5056 743.418 26.6265 754.256 38.3232 764.565C204.933 950.505 512.666 1051.07 770.579 853.687C1026.08 658.156 1035.55 413.978 993.323 255.878C991.487 242.818 988.344 231.428 983.517 222.71L983.046 221.855C974.221 195.776 964.185 172.831 954.083 153.814C939.644 115.741 924.802 76.7778 904.593 55.1066C887.88 37.1845 875.261 26.1768 862.654 15.1894L5.90118 732.781Z" fill="#F6F2E7"/>
<path d="M497.477 714.289C539.858 696.419 603.35 646.422 629.798 623.658C647.912 608.604 683.966 578.289 710.444 548.767C736.922 519.246 786.68 484.914 800.018 468.234C813.356 451.554 861.882 366.844 880.931 332.528C899.98 298.212 947.492 195.99 935.633 165.528C923.774 135.067 925.849 76.4098 905.767 56.5083C885.684 36.6069 873.339 34.0943 853.256 14.1928C833.174 -5.70865 817.521 0.0570221 776.076 3.55702C734.63 7.05697 697.197 7.19618 624.247 26.0661C551.298 44.936 486.99 82.2739 461.306 96.4413C435.623 110.609 356.566 154.791 330.485 176.636C304.404 198.48 260.774 244.204 244.923 253.808C229.072 263.413 152.637 331.104 131.781 363.262C110.924 395.419 51.5527 467.181 31.2029 508.094C10.8531 549.008 -2.44435 639.098 0.376587 658.768C3.19754 678.439 1.10225 700.391 8.24369 729.295C15.3851 758.2 73.0103 794.395 103.72 794.38C134.429 794.364 169.568 820.015 213.924 815.914C258.28 811.813 313.769 796.55 365.136 768.215C416.503 739.88 444.501 736.627 497.477 714.289Z" fill="#F6F2E7"/>
<path d="M171.145 729.536C167.853 732.535 164.657 735.233 161.566 737.646C154.475 737.186 147.081 737.057 139.882 737.16C112.827 737.549 102.777 725.55 105.341 712.266C107.059 703.361 97.8536 696.102 88.8449 688.998C84.4137 685.503 80.03 682.047 77.0176 678.45C67.8812 667.542 64.4109 659.312 72.0958 639.883C73.9231 635.263 75.5438 630.396 76.8816 625.522C82.6951 618.227 94.4191 611.51 132.256 593.206C161.958 578.837 221.178 544.674 277.541 512.159C350.59 470.019 418.843 430.645 411.822 440.716C411.454 448.449 413.768 453.935 420.959 451.624C385.968 490.212 304.94 580.351 260.755 632.208C205.524 697.028 196.38 706.543 171.145 729.536Z" fill="#BAC5BC"/>
<path d="M392.428 715.706C400.61 710.219 406.61 704.5 408.257 697.984C413.017 679.148 440.507 487.221 441.251 451.333C438.326 451.927 429.734 449.842 425.527 457.078L199.114 730.238C195.193 734.969 192.671 739.157 191.305 742.843C196.903 744.904 201.037 747.625 202.946 751.159C206.59 757.907 212.943 756.637 221.448 754.935C227.44 753.737 234.499 752.325 242.431 753.352C245.209 753.712 248.423 754.25 251.983 754.846C273.021 758.369 306.128 763.913 332.557 746.539C351.467 734.109 372.771 724.537 392.366 715.734L392.428 715.706Z" fill="#BAC5BC"/>
<path d="M678.688 534.585C678.775 534.83 678.797 535.116 678.758 535.441C675.196 538.367 671.497 541.659 667.532 545.785C664.796 548.632 661.876 551.716 658.832 554.932C641.527 573.209 620.211 595.724 605.906 602.97C589.084 611.491 564.217 626.751 544.832 648.555C528.309 667.141 513.118 672.474 489.52 680.759C485.432 682.194 481.092 683.718 476.449 685.414C461.745 690.787 455.516 691.09 450.416 691.339C444.608 691.622 440.264 691.834 426.537 699.378C424.12 700.706 421.602 702.021 418.998 703.331C418.691 701.568 418.698 699.79 418.86 698.384C428.274 615.638 448.71 448.798 455.147 443.406C459.402 439.842 458.986 443.903 467.684 438.496C471.636 437.854 469.484 433.718 474.164 429.334C486.049 423.092 676.131 527.447 678.688 534.585Z" fill="#BAC5BC"/>
<path d="M817.621 359.665C817.007 359.677 816.287 359.744 815.448 359.874C811.975 360.413 795.054 362.141 770.624 364.635L770.62 364.636C683.533 373.529 501.03 392.166 491.997 401.421C482.743 410.903 483.567 416.357 485.136 417.899C546.354 450.722 662.207 512.585 690.097 526.562C698.722 519.786 707.388 512.082 718.188 495.933C729.681 478.748 738.26 474.683 746.056 470.99C751.659 468.336 756.857 465.874 762.44 458.869C775.791 442.118 803.414 389.285 813.11 368.171C814.531 365.078 816.041 362.268 817.621 359.665Z" fill="#BAC5BC"/>
<path d="M863.767 147.496C867.688 144.833 870.577 144.853 872.8 146.572C872.791 147.478 872.784 148.384 872.784 149.288C872.782 155.782 874.276 163.65 875.928 172.343C879.469 190.988 883.732 213.43 875.496 234.252C870.1 247.895 866.382 262.726 862.892 276.648C858.572 293.883 854.601 309.726 848.227 320.198C843.238 328.393 837.806 334.526 832.461 340.559L831.955 341.131C830.073 342.117 828.12 342.884 826.094 343.384C807.13 348.06 489.858 400.128 495.384 389.288L495.753 381.555C495.753 381.555 851.125 156.08 863.767 147.496Z" fill="#BAC5BC"/>
<path d="M817.612 50.7254C815.244 47.0705 809.857 45.0319 802.693 44.142C797.725 45.1339 791.945 46.8442 785.011 49.4362C772.835 53.9877 759.801 56.265 747.316 58.4463C731.945 61.132 717.407 63.6721 706.329 70.1319C706.329 70.1319 481.062 367.838 480.95 367.968C480.838 368.099 481.062 367.838 480.95 367.968C480.838 368.099 489.676 380.259 498.245 373.161L870.019 137.102C871.032 136.458 872.01 135.816 872.953 135.174C872.985 119.728 871.373 105.487 856.899 97.6309C841.416 89.2279 832.736 75.1269 823.637 60.3447C821.672 57.1533 819.688 53.9298 817.612 50.7254Z" fill="#BAC5BC"/>
<path d="M683.064 85.764L477.111 367.471C474.648 366.452 459.829 379.529 459.376 374.902C456.199 342.44 462.167 171.707 464.978 154.17C466.112 147.101 473.422 140.33 483.29 133.447C490.797 130.322 501.841 123.521 514.308 115.843C541.382 99.1708 575.169 78.3642 594.028 82.0835C616.322 86.4802 646.232 77.777 666.272 71.4916C676.575 72.725 683.952 77.0235 683.064 85.764Z" fill="#BAC5BC"/>
<path d="M80.543 606.546C80.8298 606.408 81.1257 606.252 81.4307 606.078C92.5477 599.737 302.669 488.831 406.341 434.171C403.175 435.84 410.548 426.935 407.623 427.529C413.223 418.546 174.357 426.26 141.29 428.38C140.408 429.778 139.327 431.15 137.981 432.502C126.826 443.701 115.67 454.901 112.193 467.094C108.715 479.287 88.5927 516.558 79.0805 533.805C69.5684 551.052 73.2156 575.839 78.5133 586.25C80.8717 590.885 81.3815 598.172 80.543 606.546Z" fill="#BAC5BC"/>
<path d="M150.799 404.318C150.499 402.869 150.29 401.462 150.169 400.091C151.442 397.489 153.111 394.783 155.362 391.959C161.067 384.801 167.038 379.454 172.906 374.2C180.769 367.158 188.447 360.283 195.046 349.44C204.265 334.294 216.812 318.218 221.933 312.073C223.396 308.372 230.273 299.147 246.07 291.856C256.176 287.191 263.459 278.084 270.955 268.711L270.96 268.705C272.799 266.405 274.653 264.087 276.564 261.816C280.684 261.853 284.439 263.08 287.618 265.812L434.686 392.172C431.902 394.559 429.435 395.928 427.104 397.222C423.079 399.455 419.459 401.464 415.308 408.1C414.337 409.652 412.743 414.68 412.014 416.427L151.224 414.194C151.471 410.613 151.407 407.251 150.799 404.318Z" fill="#BAC5BC"/>
<path d="M294.912 245.196C294.627 245.794 294.343 246.402 294.063 247.021C292.448 250.581 290.267 254.392 287.778 258.318C287.778 258.318 442.371 387.289 445.562 385.876C448.754 384.464 450.448 380.895 449.501 378.281L456.72 149.832C456.755 148.724 456.71 147.705 456.588 146.773C453.523 148.781 450.559 150.824 447.725 152.778C439.451 158.481 432.277 163.427 426.912 164.516C415.212 166.892 368.771 189.085 350.668 204.248C332.564 219.411 316.472 232.889 295.628 244.779C295.388 244.916 295.149 245.055 294.912 245.196Z" fill="#BAC5BC"/>
</svg>
