<svg width="20" height="20" viewBox="0 0 20 20" fill="none" xmlns="http://www.w3.org/2000/svg">
<path fill-rule="evenodd" clip-rule="evenodd" d="M0.682404 1.46259C0.50142 1.46259 0.327847 1.38559 0.199872 1.24853C0.071896 1.11147 0 0.925579 0 0.731747C0 0.537914 0.071896 0.352021 0.199872 0.21496C0.327847 0.0779001 0.50142 0.000900472 0.682404 0.000900472H1.2063C1.79156 -0.0135442 2.3691 0.146039 2.87477 0.461924C3.43824 0.847067 3.83744 1.45435 3.98598 2.15234L4.16283 2.93858H19.3326C19.5096 2.93858 19.6793 3.01389 19.8045 3.14793C19.9296 3.28198 20 3.46378 20 3.65334C20.0008 3.72988 19.9895 3.80601 19.9666 3.8785L18.2147 11.5443C18.1801 11.7049 18.0948 11.8478 17.9732 11.9487C17.8516 12.0497 17.7011 12.1025 17.5473 12.0983H6.43529C6.68556 13.0668 6.91581 13.5921 7.2495 13.8352C7.64326 14.1175 8.34402 14.1389 9.51195 14.1175H17.3671C17.5481 14.1175 17.7217 14.1945 17.8496 14.3316C17.9776 14.4686 18.0495 14.6545 18.0495 14.8483C18.0495 15.0422 17.9776 15.2281 17.8496 15.3651C17.7217 15.5022 17.5481 15.5792 17.3671 15.5792H9.5253C8.09041 15.6042 7.18944 15.5577 6.49202 15.0467C5.7946 14.5356 5.38749 13.6422 5.00708 12.0161L2.67122 2.53831C2.60722 2.19893 2.42306 1.89924 2.15733 1.70204C1.86356 1.53273 1.53304 1.45009 1.19963 1.46259H0.682404ZM15.3649 16.4262C15.6949 16.4262 16.0175 16.531 16.2919 16.7273C16.5663 16.9237 16.7801 17.2028 16.9064 17.5293C17.0327 17.8558 17.0657 18.2151 17.0014 18.5617C16.937 18.9083 16.7781 19.2267 16.5447 19.4766C16.3114 19.7265 16.0141 19.8967 15.6904 19.9657C15.3668 20.0346 15.0313 19.9992 14.7264 19.864C14.4216 19.7287 14.161 19.4997 13.9777 19.2058C13.7943 18.912 13.6965 18.5665 13.6965 18.2131C13.6965 17.7392 13.8723 17.2847 14.1852 16.9496C14.4981 16.6144 14.9224 16.4262 15.3649 16.4262ZM8.05704 16.4262C8.38704 16.4262 8.70962 16.531 8.984 16.7273C9.25837 16.9237 9.47223 17.2028 9.59851 17.5293C9.72479 17.8558 9.75783 18.2151 9.69345 18.5617C9.62908 18.9083 9.47017 19.2267 9.23683 19.4766C9.00349 19.7265 8.7062 19.8967 8.38255 19.9657C8.05889 20.0346 7.72342 19.9992 7.41855 19.864C7.11367 19.7287 6.85309 19.4997 6.66976 19.2058C6.48643 18.912 6.38857 18.5665 6.38857 18.2131C6.38857 17.7392 6.56436 17.2847 6.87726 16.9496C7.19016 16.6144 7.61454 16.4262 8.05704 16.4262ZM12.2282 4.40385V7.0592H17.8476L18.4616 4.40385H12.2282ZM12.2282 8.52089V10.6402H17.0234L17.5106 8.52089H12.2282ZM10.8667 10.6402V8.52089H5.551C5.7312 9.23565 5.91139 9.93255 6.08157 10.6402H10.8667ZM10.8667 7.06634V4.40385H4.52656C4.74346 5.29015 4.97037 6.19076 5.19395 7.0592L10.8667 7.06634Z" fill="#FFFBF0"/>
</svg>
