<svg width="25" height="19" viewBox="0 0 25 19" fill="none" xmlns="http://www.w3.org/2000/svg">
<path d="M4.9197 5.79948e-05H20.3345C20.5801 -0.00200129 20.8235 0.0508002 21.0501 0.155279C21.2767 0.259757 21.4818 0.413748 21.6529 0.607966C22.0015 1.01182 22.235 1.51957 22.3244 2.06829L24.9695 16.6491C24.9896 16.7614 24.9998 16.8756 25 16.9901C24.9965 17.2383 24.9481 17.4832 24.8576 17.7104C24.7671 17.9377 24.6364 18.1428 24.473 18.3136C24.1716 18.6401 23.7906 18.863 23.3763 18.9551C23.2424 18.9853 23.1061 19.0003 22.9694 19H7.76012C7.70722 19 7.65432 19 7.60345 19H1.18809C0.298932 18.8923 -0.0510338 18.17 0.00593737 17.2166L2.49436 3.30878C2.64085 2.68742 2.77718 2.03689 2.95013 1.51422C2.97842 1.41595 3.0145 1.32062 3.05796 1.22933L3.06814 1.2069C3.15696 1.01707 3.27309 0.844353 3.412 0.695451C3.70639 0.373657 4.07748 0.150433 4.48224 0.0516517C4.62601 0.0175309 4.77264 0.000237146 4.9197 5.79948e-05ZM9.87619 10.5431C8.85885 9.33852 10.4174 7.54844 11.5426 8.68126C11.9394 9.08055 12.5172 9.66378 12.918 10.0608L15.8602 6.03652C16.9386 4.81173 18.6355 6.61078 17.5734 7.84454L13.8418 12.7863C13.6286 13.033 13.3372 13.1792 13.0284 13.1942C12.7197 13.2093 12.4176 13.0921 12.1856 12.8671C11.5284 12.1762 10.5578 11.1824 9.87416 10.5454L9.87619 10.5431ZM20.3345 1.46038H4.9197C4.86706 1.46045 4.81456 1.46647 4.76303 1.47833C4.60928 1.51617 4.46827 1.60089 4.35609 1.72284C4.28234 1.79379 4.2364 1.89349 4.22791 2.001C4.54735 5.74042 6.29311 12.6293 7.07647 16.6334C7.11953 16.9031 7.23019 17.154 7.39591 17.358C7.44472 17.4136 7.50323 17.4578 7.56791 17.4878C7.6326 17.5179 7.70213 17.5332 7.77233 17.5329H22.9979C23.045 17.5322 23.092 17.5269 23.1383 17.5172C23.2979 17.4816 23.4449 17.3959 23.5615 17.2705C23.6379 17.1954 23.6859 17.0912 23.6958 16.9789V16.9228L21.0507 2.34196C21.0124 2.0762 20.9049 1.82841 20.7414 1.62862C20.692 1.57168 20.6326 1.5264 20.5669 1.49555C20.5011 1.4647 20.4304 1.44892 20.3589 1.44917L20.3345 1.46038Z" fill="#FFFBF0"/>
</svg>
