<svg width="312" height="400" viewBox="0 0 312 400" fill="none" xmlns="http://www.w3.org/2000/svg">
<path d="M63.0205 99.8392C63.0205 99.8392 68.4436 99.8392 72.6446 89.554C76.8455 79.2688 82.5741 71.6754 98.576 72.3986C114.578 73.1217 122.751 73.6842 125.309 69.9478C126.801 68.2281 127.714 66.0398 127.906 63.7204C129.729 72.5721 128.984 81.7955 125.768 90.1968C120.497 106.267 114.311 109.361 104.075 111.932C82.6123 117.437 70.926 103.897 70.926 103.897L62.8678 99.8793" fill="#D3B94F"/>
<path d="M67.7944 97.2275C68.7512 99.5488 69.8483 101.803 71.0788 103.977C123.667 107.995 128.136 71.8359 128.136 71.8359C128.136 71.8359 124.584 85.7772 106.94 95.4999C92.0455 103.375 73.3702 98.7944 67.7944 97.2275Z" fill="#D3B94F"/>
<path d="M85.2857 128.566C85.2857 128.566 69.0928 106.951 63.0205 99.8393C56.9482 92.728 56.3754 92.8084 56.8718 90.8799C57.3683 88.9514 60.6909 84.0097 63.4788 85.9784C66.2667 87.947 77.1511 110.084 81.543 112.455C85.9349 114.825 93.4203 120.008 93.4203 120.008L85.2857 128.566Z" fill="#D3B94F"/>
<path d="M275.628 316.993C276.019 316.442 276.376 315.865 276.697 315.266C264.273 322.93 250.438 327.722 236.116 329.323C221.793 330.923 207.31 329.295 193.633 324.546C184.703 321.986 176.229 317.915 168.541 312.493C167.052 311.489 165.639 310.444 164.226 309.36C162.775 308.235 161.285 307.11 159.91 305.905C156.588 302.972 152.769 299.717 148.95 296.021C89.9067 237.042 77.953 160.706 90.9761 146.725C103.999 132.743 118.397 119.485 105.336 128.565C92.2746 137.645 86.7751 149.296 83.5671 135.958C81.6194 127.922 87.768 117.557 91.2052 111.852C75.547 115.066 67.5652 131.94 76.8837 154.6C51.296 216.873 121.49 314.623 191.456 330.613C215.164 336.204 239.936 333.945 262.376 324.145C266.615 320.971 274.52 321.614 279.562 320.127C276.926 319.123 274.979 318.199 275.628 316.993Z" fill="#D3B94F"/>
<path d="M156.588 227.962C157.24 226.986 157.587 225.821 157.581 224.628C157.581 223.462 157.199 222.86 156.435 222.86C155.74 223.032 155.089 223.362 154.528 223.827C153.967 224.292 153.51 224.881 153.189 225.552C152.121 227.47 151.36 229.561 150.935 231.739C152.081 231.672 153.189 231.284 154.143 230.614C155.167 229.973 156.011 229.058 156.588 227.962Z" fill="#D3B94F"/>
<path d="M221.512 225.794C221.551 225.116 221.391 224.443 221.053 223.865C220.904 223.669 220.71 223.516 220.49 223.418C220.27 223.32 220.031 223.28 219.793 223.303C219.179 223.374 218.59 223.602 218.078 223.966C217.566 224.33 217.145 224.819 216.852 225.392C215.863 226.912 215.091 228.577 214.561 230.333C214.035 231.965 213.752 233.673 213.721 235.396C213.636 236.363 213.808 237.337 214.217 238.208C214.453 238.461 214.741 238.654 215.059 238.773C215.376 238.891 215.716 238.931 216.05 238.891C216.879 238.86 217.662 238.484 218.227 237.846C219.034 236.898 219.68 235.811 220.137 234.632C220.733 233.085 221.144 231.465 221.359 229.811C220.969 229.751 220.618 229.532 220.382 229.201C220.146 228.87 220.044 228.453 220.099 228.043C220.078 227.559 220.203 227.081 220.457 226.676C220.711 226.272 221.08 225.963 221.512 225.794Z" fill="#D3B94F"/>
<path d="M219.297 194.011C219.691 193.439 219.905 192.75 219.908 192.044C219.908 191.361 219.679 191.04 219.182 191.04C218.757 191.13 218.355 191.317 218.005 191.588C217.656 191.858 217.367 192.205 217.158 192.606C216.466 193.671 215.949 194.852 215.63 196.098C216.369 196.099 217.095 195.891 217.731 195.496C218.347 195.123 218.88 194.616 219.297 194.011Z" fill="#D3B94F"/>
<path d="M282.082 308.275C263.827 220.77 216.852 122.659 120.001 118.36C106.672 110.325 94.5278 109.481 85.8967 113.539C87.6241 112.696 89.4464 112.089 91.3198 111.731C87.768 117.516 81.6193 127.801 83.6816 135.837C86.8896 149.175 92.5419 137.444 105.45 128.444C118.359 119.445 104.114 132.462 91.0906 146.684C78.0676 160.907 90.0213 237.082 148.949 295.82C152.769 299.516 156.282 302.77 159.796 305.703C161.17 306.909 162.66 308.033 164.111 309.158C165.524 310.243 166.937 311.288 168.427 312.292C176.114 317.714 184.589 321.784 193.518 324.345C207.217 329.122 221.728 330.766 236.08 329.165C250.432 327.565 264.293 322.757 276.735 315.064C276.414 315.664 276.057 316.241 275.666 316.792C274.94 317.796 276.926 318.921 279.485 319.926C283.915 318.921 286.13 316.189 282.082 308.275ZM211.429 194.615C211.962 192.97 213.004 191.561 214.39 190.614C215.775 189.666 217.422 189.236 219.068 189.392C219.935 189.455 220.757 189.828 221.395 190.449C222.034 191.07 222.453 191.902 222.581 192.807C222.581 193.892 221.932 196.463 215.821 197.709C215.714 198.032 215.716 198.385 215.827 198.707C215.939 199.029 216.152 199.301 216.432 199.476C217.097 199.632 217.786 199.626 218.448 199.459C219.11 199.292 219.727 198.968 220.251 198.512L221.512 197.709L221.092 199.075C220.863 200.108 220.344 201.044 219.601 201.761C218.858 202.478 217.927 202.942 216.929 203.092H216.05C215.164 203.113 214.285 202.93 213.473 202.555C212.662 202.18 211.938 201.623 211.353 200.923C210.651 200.034 210.273 198.91 210.287 197.754C210.301 196.598 210.706 195.485 211.429 194.615ZM188.515 197.829L190.157 191.401H189.05L189.47 189.553H190.425L191.303 186.218L196.611 185.656L195.618 189.673H197.452L197.032 191.521H195.16C195.061 191.985 194.934 192.441 194.778 192.887C194.32 194.736 193.327 198.552 193.251 199.155C193.255 199.239 193.276 199.322 193.311 199.398C193.347 199.474 193.396 199.542 193.456 199.598C193.517 199.654 193.587 199.697 193.663 199.724C193.739 199.752 193.82 199.763 193.9 199.758C194.41 199.713 194.897 199.515 195.303 199.187C195.709 198.859 196.018 198.416 196.191 197.909V197.709H198.368V198.191C198.015 199.291 197.391 200.272 196.559 201.035C195.726 201.797 194.717 202.313 193.633 202.53C193.039 202.722 192.421 202.816 191.799 202.811C190.826 202.853 189.868 202.541 189.088 201.927C188.591 201.416 188.255 200.757 188.125 200.038C187.995 199.32 188.078 198.577 188.362 197.909L188.515 197.829ZM177.058 197.829L178.7 191.401H177.707L178.356 189.673H179.502L180.38 186.339L185.498 185.656L184.467 189.673H186.185L185.765 191.521H183.97C183.811 192.004 183.593 192.464 183.321 192.887C182.825 194.736 181.832 198.552 181.755 199.155C181.774 199.329 181.857 199.489 181.985 199.601C182.112 199.713 182.276 199.769 182.443 199.758C182.982 199.681 183.488 199.438 183.896 199.059C184.304 198.68 184.595 198.182 184.734 197.628H187.14V198.11C186.825 199.232 186.231 200.245 185.418 201.043C184.606 201.842 183.605 202.397 182.519 202.65C181.925 202.842 181.307 202.937 180.686 202.932C179.71 202.991 178.747 202.677 177.974 202.048C177.348 201.544 176.917 200.818 176.763 200.004C176.608 199.191 176.74 198.347 177.134 197.628L177.058 197.829ZM169.076 185.053C169.428 184.735 169.848 184.511 170.3 184.399C170.752 184.287 171.223 184.291 171.673 184.41C172.153 184.507 172.601 184.731 172.976 185.062C173.35 185.392 173.638 185.818 173.812 186.298C173.897 186.691 173.866 187.102 173.723 187.476C173.579 187.849 173.33 188.168 173.01 188.388C172.763 188.625 172.474 188.808 172.159 188.926C171.844 189.043 171.51 189.092 171.176 189.071C170.923 189.111 170.666 189.111 170.413 189.071C169.946 188.976 169.512 188.756 169.15 188.432C168.789 188.108 168.513 187.692 168.35 187.223C168.227 186.827 168.232 186.4 168.363 186.008C168.494 185.616 168.745 185.28 169.076 185.053ZM172.895 189.553V190.075C172.909 190.531 172.789 190.98 172.551 191.361C170.565 198.392 170.833 199.717 171.138 199.878C171.444 200.039 171.711 199.878 173.697 197.668H175.683V198.151C175.368 199.272 174.774 200.285 173.961 201.084C173.148 201.882 172.147 202.437 171.062 202.69C170.456 202.885 169.824 202.98 169.191 202.972C168.225 203.044 167.27 202.728 166.517 202.088C165.998 201.593 165.64 200.938 165.496 200.216C165.352 199.494 165.429 198.743 165.715 198.07L167.777 189.673L172.895 189.553ZM155.786 174.446C158.93 173.211 162.293 172.717 165.639 173H166.173L158.841 201.887C160.906 202.502 162.923 203.28 164.875 204.217C169.305 206.146 173.506 208.235 178.013 206.347L178.776 206.065V206.788C178.051 210.324 176.79 212.373 174.957 213.096C174.43 213.29 173.874 213.386 173.315 213.377C169.777 212.713 166.432 211.201 163.538 208.958C159.299 206.306 154.945 203.574 151.394 204.257H150.668L157.695 176.817C155.717 177.529 154.04 178.951 152.959 180.834C152.471 181.813 152.216 182.903 152.216 184.008C152.216 185.114 152.471 186.203 152.959 187.182L153.265 187.785H152.501C147.995 187.785 147.116 185.495 147.002 184.249C146.314 180.754 151.279 175.33 155.862 174.326L155.786 174.446ZM152.769 238.126C154.371 238.319 155.994 238.073 157.48 237.411C158.965 236.749 160.263 235.695 161.247 234.35L161.552 233.988H165.066L164.264 235.274C162.997 237.61 161.216 239.593 159.069 241.054C156.922 242.515 154.473 243.413 151.928 243.671H150.859C149.194 243.555 147.593 242.947 146.242 241.916C144.89 240.886 143.843 239.474 143.221 237.845C141.426 233.104 143.221 227.399 148.147 222.698C153.952 218.681 157.351 219.605 158.841 220.609C159.915 221.388 160.702 222.531 161.071 223.848C161.439 225.164 161.367 226.574 160.865 227.841C160.065 229.901 158.693 231.659 156.929 232.884C155.164 234.11 153.088 234.747 150.974 234.711C150.974 236.037 151.317 237.604 152.692 238.126H152.769ZM169.191 252.309C167.854 259.179 165.371 263.237 161.896 264.643C160.902 265.011 159.857 265.202 158.803 265.205C153.494 265.205 147.345 261.188 140.471 256.688C132.527 251.505 124.316 246.121 117.557 247.487L116.22 247.809L129.396 193.41C125.628 194.975 122.533 197.932 120.688 201.726C119.726 203.629 119.198 205.741 119.145 207.896C119.092 210.05 119.515 212.188 120.383 214.141L120.879 215.185H119.657C117.821 215.578 115.915 215.364 114.199 214.573C112.483 213.782 111.041 212.452 110.071 210.766C109.194 208.228 109.114 205.462 109.843 202.873C110.571 200.284 112.07 198.009 114.12 196.383C118.284 192.477 123.161 189.505 128.453 187.647C133.745 185.789 139.342 185.084 144.901 185.575H145.856L131.993 242.666C135.914 243.86 139.744 245.364 143.45 247.166C151.776 251.184 159.605 254.679 168.083 251.425L169.534 250.822L169.191 252.309ZM204.593 234.952C204.104 237.339 202.874 239.487 201.097 241.058C199.32 242.629 197.097 243.534 194.778 243.63C194.051 243.652 193.327 243.522 192.647 243.249C191.967 242.976 191.346 242.565 190.817 242.038C190.289 241.512 189.864 240.882 189.567 240.183C189.271 239.484 189.108 238.731 189.088 237.966C188.978 236.071 189.278 234.176 189.966 232.421C191.074 229.006 191.647 226.636 189.966 225.671C187.369 226.274 186.147 232.943 185.46 237.403C185.266 239.283 184.855 241.131 184.238 242.907L184.008 243.43H176.37V242.747C176.423 240.809 176.784 238.894 177.44 237.082C178.509 233.345 180.228 227.118 179.235 225.752C176.523 225.752 175.416 232.943 174.614 237.564C174.394 239.447 173.958 241.295 173.315 243.068L173.086 243.59H164.608L169.802 220.408H178.127V221.332C179.973 220.29 182.109 219.963 184.161 220.408C184.833 220.561 185.467 220.862 186.02 221.291C186.573 221.72 187.033 222.269 187.369 222.899C188.441 221.703 189.826 220.869 191.35 220.504C192.873 220.139 194.466 220.26 195.924 220.85C196.612 221.134 197.24 221.558 197.772 222.098C198.304 222.637 198.729 223.282 199.023 223.995C199.318 224.708 199.476 225.475 199.488 226.252C199.5 227.029 199.366 227.801 199.094 228.524V228.886C197.65 231.657 197.254 234.9 197.986 237.966C197.986 237.966 198.903 237.966 201.156 234.35L201.423 233.948H204.822L204.593 234.952ZM203.218 202.811C202.257 202.847 201.314 202.535 200.545 201.927C200.027 201.431 199.673 200.773 199.536 200.05C199.399 199.327 199.485 198.577 199.781 197.909L202.989 185.254L207.992 184.852V185.294C207.811 186.404 207.53 187.494 207.152 188.548C206.388 191.28 204.02 199.557 205.013 200.119C205.013 200.119 205.586 200.119 207.534 197.909H209.558V198.392C209.204 199.421 208.609 200.34 207.828 201.063C207.047 201.787 206.105 202.291 205.09 202.53C204.457 202.722 203.801 202.816 203.142 202.811H203.218ZM251.873 238.448C251.82 239.229 251.613 239.989 251.264 240.681C250.916 241.373 250.434 241.981 249.849 242.465C248.339 243.261 246.686 243.712 244.999 243.791C244.179 243.823 243.369 243.599 242.669 243.148C240.111 241.34 241.027 236.6 241.829 232.019C242.249 229.85 242.898 226.274 242.287 225.872C241.676 225.471 241.867 225.671 240.302 226.596C238.764 230.462 237.674 234.508 237.055 238.649C236.635 240.698 236.292 242.345 236.062 243.068V243.63H227.393L230.639 229.287C229.102 230.05 227.468 230.577 225.789 230.854C225.715 234.175 224.477 237.349 222.313 239.767C220.148 242.185 217.211 243.675 214.065 243.952C206.656 243.47 205.548 239.01 205.51 236.439C205.51 229.528 212.69 220.368 218.686 219.886C220.786 219.886 224.414 220.449 225.865 227.198C227.892 226.93 229.836 226.189 231.556 225.029L232.625 220.368H240.951L240.607 221.815C244.426 219.926 246.909 219.605 248.551 220.649C251.109 222.337 250.307 226.957 249.467 231.377C248.971 233.868 248.36 237.323 249.162 237.925H250.613L251.988 237.363L251.873 238.448Z" fill="#D3B94F"/>
<path d="M76.3871 151.105C84.4072 130.655 71.0022 104.701 66.7631 97.3487C66.4227 96.7372 65.9061 96.2557 65.2881 95.974C64.67 95.6922 63.9828 95.6249 63.3259 95.7818C45.8728 100.161 27.5031 123.905 35.5613 146.003C40.5643 159.114 44.8112 172.53 48.2788 186.179C60.8451 177.796 70.6578 165.552 76.3871 151.105ZM50.7612 153.998C47.1713 141.463 50.7612 118.642 61.4546 103.214C61.4546 103.214 55.1913 115.549 58.0556 144.878C59.3159 160.064 54.1602 166.533 50.5702 153.998H50.7612Z" fill="#D3B94F"/>
<path d="M63.4787 85.9782C60.5762 84.0096 57.4064 88.9111 56.8718 90.8798C56.6044 91.9244 56.6426 92.4065 57.7119 93.7323C59.3403 94.1057 61.0395 93.9228 62.5622 93.21C64.1603 92.4889 65.4982 91.2504 66.3812 89.6745C65.5863 88.303 64.6089 87.0583 63.4787 85.9782Z" fill="#D3B94F"/>
<path d="M76.3873 108.48C77.9469 110.138 79.7691 111.498 81.7721 112.498H81.543C78.9023 110.152 76.6894 107.32 75.0124 104.141C107.474 105.467 120.23 90.6821 125.157 80.5978C119.968 89.5998 111.811 96.2783 102.242 99.3602C82.536 105.025 72.3391 99.3602 72.3391 99.3602C72.3391 99.3602 70.926 102.213 76.3873 108.48Z" fill="#D3B94F"/>
<path d="M66.5722 97.2281C66.2319 96.6166 65.7152 96.1351 65.0972 95.8534C64.4792 95.5717 63.7919 95.5043 63.1351 95.6612C45.6819 100.04 27.3122 123.785 35.3705 145.882L39.1895 156.368C46.293 168.421 48.6608 153.998 49.4246 146.565C48.7409 131.102 52.9295 115.835 61.3401 103.134C61.3401 103.134 55.0768 115.468 57.9411 144.636V148.654C58.7431 160.426 61.2255 167.336 69.7039 159.944C71.5829 158.242 73.2509 156.298 74.6686 154.158L76.0435 150.944C84.2163 130.655 70.8114 104.701 66.5722 97.2281Z" fill="#D3B94F"/>
<path d="M58.7049 102.571C58.7049 102.571 48.3935 119.928 47.2477 132.222C46.102 144.516 36.1724 149.056 39.1513 133.427C42.1302 117.798 58.7049 102.571 58.7049 102.571Z" fill="#D3B94F"/>
<path d="M151.623 2.82156L151.356 0.0493774C152.558 1.53357 154.113 2.65637 155.862 3.30368C158.383 4.58933 160.063 3.1028 162.087 2.98227C169.034 2.54034 176.003 2.6209 182.939 3.22333C189.164 3.86615 195.466 3.7858 201.691 4.42862C214.714 5.75445 227.813 6.63833 240.951 7.44187C241.977 7.35939 242.999 7.64242 243.853 8.2454C242.287 8.2454 240.951 8.64716 239.576 8.60699C226.056 8.60699 213.148 11.4193 199.819 11.8613C193.52 11.8669 187.229 12.3368 180.991 13.2675C177.377 13.9115 173.676 13.7885 170.107 12.9059C164.531 11.5801 159.681 13.4282 154.525 13.5889C150.498 14.1688 146.397 13.6571 142.61 12.1023C141.961 12.1023 141.311 12.1023 140.624 12.1023C131.935 13.9805 123.033 14.5219 114.196 13.7094C110.682 13.3478 106.978 14.1112 103.35 14.071C95.7117 14.071 87.8444 13.6692 80.0917 13.5487C75.9671 13.5487 71.9571 14.3522 67.718 14.2719C64.93 14.2719 62.8678 13.0666 60.0798 13.2273C52.1017 13.9906 44.0742 13.9906 36.0961 13.2273C26.052 12.1023 15.9314 10.8569 5.81091 9.65158C4.85614 9.65158 3.59585 9.65158 3.71042 8.60699C3.82499 7.5624 4.97071 8.08469 5.77272 8.08469C12.2269 7.48204 18.5666 6.83922 25.1736 6.63833C31.7806 6.43745 38.0056 5.31251 44.2689 5.43304C52.7854 5.27233 61.111 3.42421 69.5511 4.06703C79.5189 4.83039 89.1811 2.94209 99.0343 3.1028C102.483 2.93487 105.94 3.15034 109.346 3.74562C110.31 3.94107 111.307 3.82915 112.21 3.42421C116.4 2.59703 120.7 2.59703 124.889 3.42421C128.884 3.9465 132.925 3.9465 136.919 3.42421C141.761 2.42124 146.722 2.21792 151.623 2.82156Z" fill="#D3B94F"/>
<path d="M7.64408 38.2882C8.17875 44.5156 8.67523 49.9796 9.13352 55.524C9.59151 58.6258 9.59151 61.7833 9.13352 64.8851C8.86602 66.7495 8.86602 68.6455 9.13352 70.5098C9.74457 78.5452 9.13352 86.5805 9.13352 94.6158C9.13352 103.937 7.64408 113.901 8.36971 121.213C9.13352 129.248 8.7898 136.64 9.13352 144.113C9.28702 146.69 9.17176 149.277 8.7898 151.827C7.84479 158.009 8.1309 164.33 9.63 170.389C8.06418 169.947 7.79685 172.88 8.14056 179.469C8.67523 188.749 8.90438 198.392 9.13352 207.914C9.57499 213.653 9.07111 219.43 7.64408 224.989C7.33806 226.309 7.33806 227.687 7.64408 229.006C8.06418 232.662 8.25513 237.042 8.67523 240.617C9.39408 245.01 9.52263 249.486 9.05714 253.916C8.82771 256.589 8.82771 259.278 9.05714 261.951C9.44506 266.64 9.58531 271.348 9.47723 276.053C8.90438 297.226 10.0119 318.198 9.74457 339.532C9.96357 346.087 9.33402 352.642 7.87323 359.018C7.46585 361.196 7.17262 363.395 6.99484 365.607C6.07827 371.673 4.89436 368.218 3.78683 367.495C2.6793 366.772 2.98482 364 3.0612 360.504C2.94002 356.679 2.56998 352.867 1.95367 349.094C1.26623 337.28 1.26623 325.433 1.95367 313.618C2.17069 310.934 2.04223 308.231 1.57177 305.583C1.13967 303.527 1.01086 301.413 1.18986 299.315C2.14463 286.097 0.693383 272.277 1.72453 259.139C1.72564 258.103 1.64902 257.068 1.49539 256.045C0.769764 250.742 1.11348 247.568 2.52653 246.483C1.76768 244.175 1.49404 241.722 1.72453 239.292C1.80768 234.258 1.56525 229.224 0.998908 224.225C0.39394 214.6 0.534436 204.94 1.41901 195.338C1.41901 194.013 1.8391 192.044 1.80091 191.642C0.00595103 181.196 1.60996 168.059 0.731574 156.448C0.00784756 145.823 0.110029 135.154 1.0371 124.547C1.0371 123.704 1.0371 122.9 1.0371 122.056C0.00595103 106.669 1.64815 91.3615 1.26624 75.7328C1.26624 71.3134 0.00595103 61.2291 2.37377 58.8185C2.41201 58.1629 2.41201 57.5054 2.37377 56.8498C1.11348 52.8321 1.91548 46.2834 1.4572 41.1809C0.879481 32.7898 1.28996 24.3558 2.6793 16.0706C2.94663 14.0216 3.36673 14.5439 3.78683 14.6644C4.63224 15.0374 5.54382 15.2155 6.46017 15.1867C8.48428 15.1867 9.93552 25.2308 9.24809 34.3509C8.98076 38.6498 8.21694 36.9624 7.64408 38.2882Z" fill="#D3B94F"/>
<path d="M182.176 391.481L181.87 389.713C183.558 390.837 185.44 391.601 187.408 391.963C189.93 392.485 192.524 392.485 195.046 391.963C203.601 391.722 212.27 391.641 220.71 391.963C228.348 392.405 235.986 392.365 243.624 392.807C259.665 393.731 275.819 394.333 291.974 394.896C293.19 394.846 294.406 395.023 295.564 395.418C293.654 395.418 291.974 395.739 290.293 395.699C273.642 395.699 257.755 397.668 241.295 397.949C233.569 397.786 225.841 398.108 218.151 398.913C213.811 399.416 209.431 399.416 205.09 398.913C198.723 398.551 192.338 398.713 185.995 399.396C181.077 399.874 176.12 399.562 171.291 398.471C170.488 398.27 169.651 398.27 168.847 398.471C158.049 399.79 147.166 400.166 136.309 399.596C131.955 399.355 127.372 399.878 122.942 399.878C113.356 399.878 103.847 399.556 94.2607 399.476C89.1814 399.476 84.2166 400.038 78.9845 399.998C75.5855 399.998 73.0649 399.154 69.475 399.275C59.6291 399.837 49.7614 399.837 39.9154 399.275C27.5035 398.351 15.0533 397.547 2.60315 396.704C1.45743 396.704 -0.108387 396.704 0.00618512 395.981C0.120757 395.257 1.572 395.579 2.56496 395.498C10.4704 395.097 18.3377 394.655 26.4341 394.494C34.5305 394.333 42.2451 393.57 50.1887 393.65C60.7293 393.65 71.0026 392.405 81.3905 392.847C93.6879 393.369 105.565 392.083 117.71 392.164C121.954 392.043 126.202 392.204 130.427 392.646C131.59 392.766 132.765 392.684 133.903 392.405C139.085 391.736 144.319 391.629 149.523 392.083C154.467 392.485 159.434 392.485 164.379 392.083C170.285 391.36 176.238 391.159 182.176 391.481Z" fill="#D3B94F"/>
<path d="M304.386 35.6773C303.813 42.4269 303.278 48.3731 302.743 54.3594C302.247 57.7409 302.247 61.1826 302.743 64.5642C303.01 66.5767 303.01 68.6184 302.743 70.6309C302.056 79.5099 302.743 88.188 302.743 97.0269C302.743 107.151 304.233 117.959 303.469 125.874C302.591 134.592 302.934 142.627 302.552 150.743C302.361 153.547 302.476 156.364 302.896 159.14C303.887 165.836 303.549 172.676 301.903 179.228C303.584 178.746 303.851 181.96 303.431 189.112C302.858 199.156 302.552 209.602 302.285 220.007C301.792 226.157 302.283 232.349 303.736 238.328C304.08 239.806 304.08 241.349 303.736 242.828C303.278 246.845 303.087 251.345 302.591 255.443C301.776 260.242 301.609 265.139 302.094 269.987C302.196 272.926 302.068 275.869 301.712 278.786C301.229 283.871 301.05 288.984 301.178 294.093C301.712 317.074 300.452 339.854 300.643 362.996C300.412 370.126 301.066 377.257 302.591 384.209C303.087 386.544 303.469 388.904 303.736 391.28C304.691 397.869 305.951 394.133 307.173 393.329C308.396 392.526 308.014 389.794 307.937 386.017C308.159 381.865 308.631 377.732 309.35 373.643C310.076 360.811 310.076 347.945 309.35 335.113C309.102 332.146 309.256 329.156 309.809 326.234C310.291 323.995 310.433 321.69 310.229 319.404C309.274 305.061 310.84 290.035 309.847 275.692C309.846 274.576 309.922 273.462 310.076 272.357C310.878 266.572 310.496 263.157 309.045 261.952C309.833 259.442 310.132 256.791 309.923 254.157C309.9 248.783 310.232 243.413 310.916 238.087C311.591 227.634 311.463 217.14 310.534 206.709C310.534 205.263 310.114 203.133 310.191 202.691C312.329 191.402 310.496 177.099 311.451 164.483C312.253 152.978 312.176 141.424 311.222 129.932V127.24C312.367 110.446 310.725 93.8529 311.222 76.8582C311.222 72.0371 312.597 61.109 310.114 58.4574C310.038 57.7499 310.038 57.0355 310.114 56.328C311.451 52.3104 310.649 44.8777 311.145 39.2932C311.77 30.1944 311.36 21.0498 309.923 12.0534C309.656 9.84372 309.159 10.4062 308.739 10.5669C307.84 10.9372 306.879 11.1147 305.913 11.0892C303.774 10.8883 302.094 21.977 302.896 31.8605C302.858 36.1594 303.698 33.9898 304.386 35.6773Z" fill="#D3B94F"/>
</svg>
