<svg width="1160" height="490" viewBox="0 0 1160 490" fill="none" xmlns="http://www.w3.org/2000/svg">
<path d="M1301.21 426.026C1300.42 430.54 1297.16 430.594 1292.97 430.567C1287.76 430.567 1287.81 427.725 1287.81 424.829C1287.81 419.254 1287.81 413.68 1287.81 408.105C1287.81 403.699 1285.64 400.749 1280.23 399.539C1277.93 399.193 1275.83 398.16 1274.29 396.615C1271.85 393.814 1268.43 393.733 1265.08 395.255C1262.59 396.384 1260.84 396.914 1258.19 395.174C1255.54 393.434 1250.79 393.039 1248.34 394.739C1242.59 398.736 1236 397.241 1229.76 397.581C1219.35 398.152 1216.31 400.45 1216.06 408.676C1215.91 413.584 1216.78 418.561 1215.5 423.238C1205.96 420.75 1196.8 418.86 1188.75 424.598C1185.64 426.801 1183.62 427.086 1180.38 425.536C1178.65 424.8 1176.86 424.165 1175.04 423.633C1174.29 423.386 1173.47 423.344 1172.7 423.51C1169.58 422.518 1166.46 421.43 1164.9 424.707L1164.69 424.557V424.462C1166.4 412.932 1165.15 401.347 1165.4 389.776C1165.59 381.223 1163.67 379.891 1152.82 379.809C1151.52 379.76 1150.22 379.912 1148.97 380.258C1148.55 380.349 1148.12 380.462 1147.71 380.598C1147.1 375.485 1144.03 374.221 1137.03 376.029L1134.6 376.641C1134.03 378.409 1135.96 380.938 1132.19 381.74C1129.15 381.033 1126.03 380.625 1126.48 376.967C1126.67 375.322 1124.36 375.771 1122.94 375.757L1118.92 375.472C1118.52 375.58 1118.12 375.662 1117.71 375.716L1107.19 375.648C1103.9 377.946 1100.86 380.367 1100.42 384.147C1100.09 386.866 1099.69 389.586 1099.31 392.223C1099.31 394.018 1099.42 395.813 1099.49 397.662C1099.49 398.709 1099.49 399.77 1099.49 400.83L1099.02 409.9C1094.98 410.715 1088.36 407.738 1088.5 414.672C1088.5 415.583 1086.67 414.944 1085.72 415.066C1081.5 415.637 1075.85 414.196 1075.43 420.111C1075.34 421.471 1072.8 421.892 1071.07 421.62C1065.07 420.655 1064.34 423.184 1065.21 426.991C1065.38 428.014 1065.49 429.044 1065.52 430.078L1065.94 430.146C1065.44 430.268 1064.93 430.404 1064.38 430.513C1062.7 433.871 1063.63 437.406 1063.34 440.86C1063.12 443.457 1062.62 445.837 1058.93 446.965C1056.89 438.331 1054.66 430.186 1055.5 421.77C1055.73 420.191 1055.42 418.586 1054.61 417.16C1054.48 416.972 1054.31 416.81 1054.1 416.686C1053.89 416.561 1053.66 416.477 1053.41 416.44C1053.41 414.196 1054.2 411.762 1053.32 409.777C1052.21 407.275 1053.77 403.414 1050.2 402.34C1043.01 400.191 1035.7 396.738 1027.6 400.273C1027.15 400.063 1026.65 399.938 1026.15 399.908C1025.64 399.877 1025.13 399.941 1024.65 400.096C1024.57 399.307 1024.31 398.539 1023.88 397.839C1023.46 397.139 1022.88 396.519 1022.17 396.017C1019.84 395.262 1017.42 394.734 1014.96 394.44C1010.47 393.814 1008.08 397.336 1004.47 397.961C996.018 399.43 994.864 403.958 995.488 409.682C995.549 411.775 995.752 413.864 996.096 415.937C996.236 416.481 996.407 417.011 996.563 417.555C995.535 418.914 995.69 420.668 995.472 422.273C995.036 425.645 992.713 427.712 989.113 429.071C988.565 428.572 988.21 427.934 988.099 427.249C987.679 420.152 988.099 413.054 987.881 405.956C987.663 399.158 985.73 397.798 977.516 398.777C978.435 397.118 978.061 396.289 974.523 396.275C970.985 396.262 965.623 397.635 964.875 392.454C964.865 393.25 964.712 394.039 964.422 394.793C964.263 394.402 964.221 393.982 964.3 393.573C964.379 393.163 964.577 392.778 964.875 392.454C963.113 390.075 961.118 392.604 959.216 392.278C948.306 390.388 937.395 391.883 926.484 391.081C923.023 390.823 921.106 391.788 921.309 394.766C921.62 399.471 918.285 400.205 913.344 399.824C911.411 399.675 907.654 397.785 907.95 401.891C907.95 409.523 907.95 417.151 907.95 424.775C907.826 428.827 907.691 432.879 907.545 436.931C906.526 436.402 905.374 436.098 904.19 436.046C903.005 435.993 901.824 436.195 900.749 436.631C897.086 438.304 892.956 438.249 889.121 439.228C888.827 439.352 888.545 439.498 888.279 439.664C887.727 439.112 887.039 438.676 886.268 438.387C885.496 438.097 884.661 437.962 883.821 437.991C883.805 437.04 883.478 436.113 882.879 435.318C882.28 434.524 881.433 433.894 880.439 433.504H879.442C876.916 432.144 874.189 432.539 871.476 433.042C870.289 432.901 869.116 432.678 867.969 432.376C864.338 432.063 862.919 433.735 861.734 435.652C861.771 434.687 861.745 433.72 861.657 432.756C861.205 429.765 863.621 426.107 860.3 423.891C856.98 421.675 853.021 419.159 848.392 418.751C842.273 418.257 836.126 418.089 829.984 418.248C826.508 418.248 822.767 419.526 822.72 414.958C822.72 413.503 821.629 412.741 819.836 412.687C814.661 412.551 809.471 412.442 804.249 412.347C802.69 412.347 801.584 413.081 801.615 414.196C801.693 417.663 798.747 418.656 795.474 419.445C795.166 419.403 794.851 419.415 794.549 419.48C794.246 419.545 793.962 419.663 793.712 419.825C791.67 422.545 792.341 425.509 792.761 428.419L792.902 431.043C792.684 430.01 793.026 428.799 791.889 427.902L791.499 427.698C792.278 425.237 791.405 423.864 787.54 424.163C786.053 424.34 784.543 424.312 783.066 424.081C782.973 423.592 782.879 423.116 782.739 422.64C781.866 420.138 780.058 419.01 776.504 419.132C767.152 419.445 764.814 417.582 764.767 410.253C764.767 401.891 764.642 393.529 764.767 385.166C764.861 380.788 763.302 377.77 757.488 376.682C754.364 376.069 751.482 374.746 749.133 372.847C745.314 369.883 740.513 369.979 736.149 372.603C734.59 373.527 733.639 375.009 731.785 375.621C727.685 368.646 720.125 366.946 711.521 366.96C706.331 366.742 704.117 371.039 699.722 372.004C694.5 373.228 692.926 376.356 692.957 380.435C692.957 387.043 692.957 393.651 692.957 400.259C692.957 408.268 692.957 416.263 692.957 424.258C692.957 427.372 691.242 428.867 687.611 428.813C683.465 428.813 685.335 426.094 685.319 424.571C685.21 411.708 685.054 398.832 685.319 385.969C685.413 382.393 684.447 379.306 680.285 377.579C677.995 376.569 675.592 375.767 673.115 375.186C667.425 374.003 663.856 369.203 657.387 369.516C647.614 369.992 637.919 368.551 628.177 368.782C623.407 368.891 618.03 368.347 614.289 370.74C609.893 373.555 605.092 374.234 600.027 374.887C586.107 376.859 592.498 385.18 592.233 391.421C592.342 387.152 589.349 384.745 584.439 385.615C581.478 386.141 578.511 386.635 575.539 387.097C572.032 387.668 570.052 389.123 570.24 391.598C564.862 389.667 562.29 385.384 560.482 381.686C556.928 374.398 557.365 374.003 547.03 373.609C543.979 370.559 542.233 366.682 542.089 362.636C542.523 361.636 542.755 360.578 542.775 359.509C542.978 353.975 542.962 348.414 542.775 342.866C542.772 341.735 542.567 340.611 542.167 339.535C542.167 335.646 542.089 331.757 542.167 327.882C542.167 325.421 542.167 323.98 538.021 323.436C532.487 322.715 527.375 320.716 529.183 314.543C529.853 312.232 529.183 309.675 529.323 307.242C529.588 304.005 525.863 303.598 524.164 303.978C520.22 304.862 516.464 304.345 512.645 304.277C507.969 304.196 505.241 305.039 506.036 309.539C506.613 312.789 506.036 316.161 506.27 319.465C506.41 321.954 505.631 323.191 502.124 323.544C492.584 324.496 493.317 323.735 494.081 331.825C494.081 333.756 494.081 335.687 494.081 337.617C493.474 338.132 492.983 338.741 492.631 339.412C491.306 355.239 492.179 371.066 492.179 385.914C481.901 385.421 471.786 383.46 462.236 380.108C461.182 379.909 460.102 379.836 459.025 379.891C457.973 379.755 457.023 379.267 456.375 378.531C455.082 376.614 455.518 374.452 455.503 372.44C455.503 352.044 455.643 331.648 455.503 311.144C455.503 308.424 455.846 305.596 454.567 302.918C453.165 298.906 450.998 295.127 449.221 291.224C448.437 289.334 447.068 287.67 445.266 286.417C443.464 285.164 441.299 284.371 439.011 284.126C432.449 283.188 425.903 282.005 419.153 282.318C413.449 282.617 411.282 285.364 411.188 289.62C411.11 293.101 411.188 296.581 411.188 300.062C411.188 312.925 411.828 311.266 397.924 311.416C394.152 311.416 390.13 311.593 388.447 314.829C386.124 319.302 382.648 323.408 381.729 328.344C381.727 329.143 381.891 329.935 382.212 330.683C381.822 331.499 381.526 332.396 380.497 332.75C380.497 332.151 380.606 331.567 380.201 331.499C379.967 325.774 380.404 320.023 379.936 314.285C379.78 312.191 379.936 309.05 375.759 309.703C372.252 310.233 371.223 312.762 372.221 315.481C373.013 318.189 373.436 320.968 373.483 323.762C373.483 324.129 373.483 324.483 373.483 324.836C373.173 325.092 372.954 325.421 372.854 325.783C372.755 326.145 372.778 326.525 372.922 326.876C374.091 330.873 372.034 333.144 368.246 334.531C367.784 334.277 367.255 334.129 366.709 334.103C366.164 334.077 365.62 334.173 365.128 334.381C363.071 334.925 361.247 335.904 359.19 336.475C349.837 339.045 347.531 337.726 347.515 329.894C347.515 309.952 347.515 290.009 347.515 270.067C347.515 266.953 347.733 263.799 346.081 260.835C344.148 258.455 344.616 255.777 344.694 253.193C345.037 242.098 342.449 232.172 334.702 222.233C329.559 215.624 324.368 226.108 321.484 220.207C321.173 219.567 319.583 221.118 318.819 221.893C318.554 222.165 318.429 222.518 318.164 222.79C313.816 227.549 309.716 232.308 308.251 238.372C307.051 243.294 303.668 243.811 294.488 243.05C288.798 242.533 288.783 239.27 288.783 236.183C288.783 219.282 286.304 202.462 286.024 185.575C284.699 171.679 284.964 157.728 283.608 143.818C283 140.161 283.904 136.435 282.813 132.791C280.49 130.493 281.067 127.474 279.695 124.932C276.843 121.465 272.229 122.43 268.176 121.954C265.433 119.765 263.719 116.515 259.152 116.148C255.816 115.06 256.299 112.572 256.159 110.451C255.863 106.018 256.159 101.558 256.003 97.1121C255.909 94.9638 256.315 92.6523 254.039 90.939L254.164 90.1504C257.64 85.0107 255.364 79.5311 255.722 74.201C255.479 73.4096 255.151 72.6401 254.74 71.9031C255.418 71.2143 255.788 70.336 255.785 69.4285C256.081 64.1256 256.065 58.8091 256.128 53.4927C256.204 52.223 255.705 50.9781 254.74 50.0254C254.943 49.7399 255.13 49.4407 255.348 49.1688C255.745 48.3046 255.941 47.3802 255.925 46.4494C256.876 33.3962 254.366 20.3974 254.881 7.35774C254.932 5.12158 254.126 2.93453 252.589 1.14387C251.919 0.967109 252.589 -0.365405 251.202 0.0968963C251.202 2.81631 251.327 5.64451 251.202 8.41831C250.844 22.6953 250.423 36.9722 250.033 51.2627L248.35 68.0687L248.817 72.4334C249.487 78.6745 247.664 84.9971 249.441 91.1974C249.204 91.3967 248.99 91.6153 248.802 91.85C246.23 98.9613 248.49 106.209 247.913 113.388C247.913 114.244 247.913 115.128 246.557 115.441C242.302 116.488 240.993 114.734 242.255 109.744C243.175 104.659 241.335 99.7499 240.696 94.787C240.343 94.0897 239.87 93.4433 239.294 92.8698C239.397 90.1504 239.512 87.4582 239.636 84.7932C238.935 74.3778 239.808 63.8944 238.187 53.5199C240.712 47.1564 237.766 40.8202 238 34.4839C238.218 28.5964 238 22.7089 238 16.8077C237.142 28.7188 236.301 40.589 235.21 52.4321C235.334 52.772 235.475 53.0984 235.631 53.4247C235.896 65.6621 233.651 77.8994 234.867 90.2592C235.101 92.6387 232.872 91.8093 231.562 92.2444C231.472 92.5739 231.46 92.9163 231.529 93.2499C231.598 93.5834 231.746 93.9009 231.962 94.1821C232.179 94.4633 232.461 94.7022 232.789 94.8835C233.117 95.0649 233.485 95.1848 233.869 95.2357C232.865 97.2012 232.53 99.3769 232.903 101.504C233.318 105.272 233.453 109.06 233.308 112.844C233.308 113.932 232.575 116.08 231.484 115.359C227.136 112.558 225.25 116.841 222.132 117.018C221.861 117.307 221.659 117.639 221.535 117.996C221.412 118.353 221.371 118.728 221.415 119.099C222.974 122.416 221.789 124.537 217.238 124.959C210.488 125.965 210.301 130.547 209.132 134.586C208.8 137.527 208.67 140.483 208.743 143.437C208.54 145.505 208.54 147.584 208.743 149.651C208.618 153.418 209.709 157.32 206.748 160.746C205.469 165.125 206.748 169.612 205.89 174.017C204.784 190.565 204.332 207.126 203.443 223.687C202.991 228.378 204.55 233.205 202.586 237.801C201.853 241.88 202.586 246.123 202.025 250.256C202.617 258.591 200.154 266.804 200.731 275.125C200.731 280.455 201.744 285.799 199.998 291.075C199.313 294.256 199.998 297.506 199.344 300.701C199.687 305.787 196.725 310.491 196.694 315.563C196.538 335.959 197.832 356.273 194.262 376.519C193.997 381.169 194.138 385.833 194.262 390.497C194.371 390.918 194.496 391.326 194.636 391.734C194.496 391.826 194.383 391.945 194.305 392.082C194.226 392.219 194.185 392.37 194.184 392.522C193.467 391.53 191.394 391.163 189.072 390.986C186.749 390.809 184.396 390.823 182.089 390.809L181.621 374.941C181.808 374.629 182.011 374.316 182.213 374.003C181.999 373.626 181.694 373.293 181.321 373.025C180.947 372.758 180.513 372.563 180.047 372.453C169.666 371.161 169.557 371.161 169.65 362.296C169.537 357.784 169.047 353.285 168.185 348.835C167.873 346.863 167.281 344.878 164.662 344.239C159.986 343.083 159.238 340.16 159.098 336.924C158.989 320.132 159.098 303.326 159.004 286.52C159.004 284.167 159.737 281.584 156.947 279.721C156.744 277.654 156.37 275.642 156.354 273.521C156.183 250.868 155.856 228.215 156.105 205.535C156.105 200.681 154.235 199.553 148.779 199.865C144.259 200.137 139.427 200.504 135.171 199.471C127.406 197.492 119.413 196.269 111.339 195.827C109.219 195.732 106.538 195.936 106.101 197.105C104.013 202.544 97.7312 201.347 93.1641 202.816C88.9868 201.456 85.2459 201.456 82.7675 205.1C82.8506 225.614 82.9286 246.127 83.0013 266.641C83.0844 285.06 83.1676 303.489 83.2507 321.926C83.2507 324.197 84.2639 327.365 78.9175 326.237C75.2545 321.423 72.9944 320.907 67.0557 323.517C62.021 325.706 58.3269 325.23 55.8953 322.09C54.8929 320.707 53.5208 319.558 51.8968 318.74C50.2728 317.923 48.4455 317.461 46.572 317.396C44.6985 317.33 42.8347 317.663 41.1409 318.364C39.4471 319.066 37.9739 320.115 36.8478 321.423C36.3316 322.102 35.6392 322.665 34.8267 323.067C34.0142 323.469 33.1046 323.697 32.1717 323.735C26.1083 323.735 19.9202 324.564 14.0438 323.177C8.57123 322.041 2.85266 322.177 -2.54086 323.572C-7.38846 324.619 -9.78888 326.468 -8.40163 330.615C-7.97281 330.957 -7.56688 331.32 -7.18584 331.703H-7.26376C-7.26376 333.443 -7.26376 335.184 -7.18584 336.938H-7.04555C-7.36771 337.16 -7.73918 337.322 -8.13664 337.413C-9.33685 339.575 -8.8069 341.873 -9.04071 344.103C-10.085 353.744 -7.37288 363.316 -8.66661 372.997C-9.58626 379.796 -10.615 381.155 -18.0189 380.163C-18.3562 379.728 -18.791 379.358 -19.297 379.075C-22.056 377.933 -25.4072 377.946 -27.4023 375.281C-31.907 369.271 -36.7546 368.32 -44.5482 371.365C-49.8634 373.446 -50.6272 373.147 -50.7831 368.306C-51.0013 361.385 -50.9545 354.478 -51.9521 347.557C-52.6067 343.056 -54.3057 340.337 -60.4627 340.418C-63.7827 340.418 -66.6975 339.059 -69.8149 338.392C-70.2825 338.243 -70.7346 338.066 -71.171 337.903C-71.171 328.317 -71.171 318.745 -71.3736 309.159C-71.3736 307.881 -70.8593 306.358 -71.7945 305.256C-71.7945 304.672 -71.7945 304.073 -71.7945 303.489C-71.3581 289.892 -71.9348 276.186 -72.7297 262.534C-73.0882 256.361 -73.665 250.446 -76.9383 244.926H-148V490H1312V417.854C1306.83 419.159 1301.84 422.422 1301.21 426.026ZM617.702 427.956L617.313 427.793L617.734 427.413C617.718 427.603 617.718 427.78 617.702 427.956ZM618.575 455.871L618.154 455.45L618.638 455.341C618.622 455.518 618.606 455.695 618.575 455.871ZM1125.06 407.629C1124.75 407.439 1124.92 407.33 1125.38 407.221L1125.06 407.629Z" fill="#495E57"/>
</svg>
