<svg width="60" height="37" viewBox="0 0 60 37" fill="none" xmlns="http://www.w3.org/2000/svg">
<path d="M46.3092 0C38.6265 0 34.3256 4.97356 33.0944 10.0939C31.699 7.48479 30.6648 3.99515 29.8605 0.750111H19.2394V13.877C19.2394 18.6386 17.0561 22.1609 12.788 22.1609C8.51984 22.1609 6.07387 18.6386 6.07387 13.877L6.12312 0.750111H0V13.877C0 17.7091 1.24761 21.1825 3.52941 23.6611C5.87688 26.2212 9.07798 27.5584 12.788 27.5584C20.1751 27.5584 25.3297 21.9326 25.3297 13.877V5.05509C26.1012 7.95769 27.9398 13.5346 31.4528 18.4266L28.1696 37H34.3912L36.5581 23.8405C37.264 24.4275 38.0192 24.9493 38.8235 25.4222C40.9083 26.7268 43.2886 27.4606 45.751 27.5421C45.751 27.5421 46.1286 27.5584 46.3256 27.5584C53.9425 27.5584 60 21.7043 60 13.7955C60 5.88673 53.9261 0 46.3092 0ZM46.3092 22.1446C41.5978 22.1446 38.4788 18.5245 37.6088 17.1221C38.725 8.25121 41.9918 5.44645 46.3092 5.44645C50.5773 5.44645 53.8933 8.83825 53.8933 13.7955C53.8933 18.7528 50.5773 22.1446 46.3092 22.1446Z" fill="#BAC5BC"/>
</svg>
